<?xml version="1.0" encoding="UTF-8" standalone="no"?>
<!DOCTYPE svg PUBLIC "-//W3C//DTD SVG 1.1//EN"
 "http://www.w3.org/Graphics/SVG/1.1/DTD/svg11.dtd">
<!-- Generated by graphviz version 2.43.0 (0)
 -->
<!-- Title: FieldRepo.H Pages: 1 -->
<!--zoomable 196 -->
<svg id="main" version="1.1" xmlns="http://www.w3.org/2000/svg" xmlns:xlink="http://www.w3.org/1999/xlink" xml:space="preserve" onload="init(evt)">
<style type="text/css"><![CDATA[
.edge:hover path { stroke: red; }
.edge:hover polygon { stroke: red; fill: red; }
]]></style>
<script type="text/javascript"><![CDATA[
var edges = document.getElementsByTagName('g');
if (edges && edges.length) {
  for (var i=0;i<edges.length;i++) {
    if (edges[i].id.substr(0,4)=='edge') {
      edges[i].setAttribute('class','edge');
    }
  }
}
]]></script>
        <defs>
                <circle id="rim" cx="0" cy="0" r="7"/>
                <circle id="rim2" cx="0" cy="0" r="3.5"/>
                <g id="zoomPlus">
                        <use xlink:href="#rim" fill="#404040">
                                <set attributeName="fill" to="#808080" begin="zoomplus.mouseover" end="zoomplus.mouseout"/>
                        </use>
                        <path d="M-4,0h8M0,-4v8" fill="none" stroke="white" stroke-width="1.5" pointer-events="none"/>
                </g>
                <g id="zoomMin">
                        <use xlink:href="#rim" fill="#404040">
                                <set attributeName="fill" to="#808080" begin="zoomminus.mouseover" end="zoomminus.mouseout"/>
                        </use>
                        <path d="M-4,0h8" fill="none" stroke="white" stroke-width="1.5" pointer-events="none"/>
                </g>
                <g id="dirArrow">
                        <path fill="none" stroke="white" stroke-width="1.5" d="M0,-3.0v7 M-2.5,-0.5L0,-3.0L2.5,-0.5"/>
                </g>
               <g id="resetDef">
                       <use xlink:href="#rim2" fill="#404040">
                               <set attributeName="fill" to="#808080" begin="reset.mouseover" end="reset.mouseout"/>
                       </use>
               </g>
        </defs>

<script type="text/javascript">
var viewWidth = 3850;
var viewHeight = 196;
var sectionId = 'dynsection-1';
</script>
<script xlink:href="svgpan.js"/>
<svg id="graph" class="graph">
<g id="viewport">
<title>FieldRepo.H</title>
<polygon fill="white" stroke="transparent" points="-4,4 -4,-192 3845.5,-192 3845.5,4 -4,4"/>
<!-- Node1 -->
<g id="node1" class="node">
<title>Node1</title>
<g id="a_node1"><a xlink:title=" ">
<polygon fill="#bfbfbf" stroke="black" points="1820.5,-168.5 1820.5,-187.5 1895.5,-187.5 1895.5,-168.5 1820.5,-168.5"/>
<text text-anchor="middle" x="1858" y="-175.5" font-family="Helvetica,sans-Serif" font-size="10.00">FieldRepo.H</text>
</a>
</g>
</g>
<!-- Node2 -->
<g id="node2" class="node">
<title>Node2</title>
<g id="a_node2"><a xlink:href="_b_c_interface_8cpp.html" target="_top" xlink:title=" ">
<polygon fill="white" stroke="black" points="0,-56.5 0,-75.5 94,-75.5 94,-56.5 0,-56.5"/>
<text text-anchor="middle" x="47" y="-63.5" font-family="Helvetica,sans-Serif" font-size="10.00">BCInterface.cpp</text>
</a>
</g>
</g>
<!-- Node1&#45;&gt;Node2 -->
<g id="edge1" class="edge">
<title>Node1&#45;&gt;Node2</title>
<path fill="none" stroke="midnightblue" d="M1809.72,-176.81C1535.94,-175.58 187.71,-167.73 108,-132 81.45,-120.1 61,-90.62 52.01,-75.8"/>
<polygon fill="midnightblue" stroke="midnightblue" points="1810.1,-180.31 1820.12,-176.85 1810.13,-173.31 1810.1,-180.31"/>
</g>
<!-- Node3 -->
<g id="node3" class="node">
<title>Node3</title>
<g id="a_node3"><a xlink:href="_fixed_gradient_b_c_8_h.html" target="_top" xlink:title=" ">
<polygon fill="white" stroke="black" points="117,-112.5 117,-131.5 225,-131.5 225,-112.5 117,-112.5"/>
<text text-anchor="middle" x="171" y="-119.5" font-family="Helvetica,sans-Serif" font-size="10.00">FixedGradientBC.H</text>
</a>
</g>
</g>
<!-- Node1&#45;&gt;Node3 -->
<g id="edge2" class="edge">
<title>Node1&#45;&gt;Node3</title>
<path fill="none" stroke="midnightblue" d="M1810.35,-176.75C1617.6,-175.51 876.96,-168.49 269,-132 254.76,-131.15 239.38,-129.89 225.13,-128.59"/>
<polygon fill="midnightblue" stroke="midnightblue" points="1810.4,-180.25 1820.42,-176.81 1810.45,-173.25 1810.4,-180.25"/>
</g>
<!-- Node5 -->
<g id="node5" class="node">
<title>Node5</title>
<g id="a_node5"><a xlink:href="velocity__bcs_8_h.html" target="_top" xlink:title=" ">
<polygon fill="white" stroke="black" points="278,-112.5 278,-131.5 366,-131.5 366,-112.5 278,-112.5"/>
<text text-anchor="middle" x="322" y="-119.5" font-family="Helvetica,sans-Serif" font-size="10.00">velocity_bcs.H</text>
</a>
</g>
</g>
<!-- Node1&#45;&gt;Node5 -->
<g id="edge5" class="edge">
<title>Node1&#45;&gt;Node5</title>
<path fill="none" stroke="midnightblue" d="M1810.12,-176.27C1589.62,-172.8 670.54,-157.09 384,-132 378.26,-131.5 372.24,-130.82 366.3,-130.05"/>
<polygon fill="midnightblue" stroke="midnightblue" points="1810.33,-179.78 1820.39,-176.43 1810.44,-172.78 1810.33,-179.78"/>
</g>
<!-- Node8 -->
<g id="node7" class="node">
<title>Node8</title>
<g id="a_node7"><a xlink:href="_c_f_d_sim_8_h.html" target="_top" xlink:title=" ">
<polygon fill="white" stroke="red" points="667,-112.5 667,-131.5 733,-131.5 733,-112.5 667,-112.5"/>
<text text-anchor="middle" x="700" y="-119.5" font-family="Helvetica,sans-Serif" font-size="10.00">CFDSim.H</text>
</a>
</g>
</g>
<!-- Node1&#45;&gt;Node8 -->
<g id="edge7" class="edge">
<title>Node1&#45;&gt;Node8</title>
<path fill="none" stroke="midnightblue" d="M1810.36,-177.59C1656.11,-178.98 1156.6,-179.25 747,-132 742.46,-131.48 737.7,-130.76 733.03,-129.96"/>
<polygon fill="midnightblue" stroke="midnightblue" points="1810.47,-181.09 1820.44,-177.5 1810.41,-174.09 1810.47,-181.09"/>
</g>
<!-- Node10 -->
<g id="node9" class="node">
<title>Node10</title>
<g id="a_node9"><a xlink:href="incflo_8_h.html" target="_top" xlink:title=" ">
<polygon fill="white" stroke="red" points="341.5,-56.5 341.5,-75.5 394.5,-75.5 394.5,-56.5 341.5,-56.5"/>
<text text-anchor="middle" x="368" y="-63.5" font-family="Helvetica,sans-Serif" font-size="10.00">incflo.H</text>
</a>
</g>
</g>
<!-- Node1&#45;&gt;Node10 -->
<g id="edge28" class="edge">
<title>Node1&#45;&gt;Node10</title>
<path fill="none" stroke="midnightblue" d="M1809.99,-176.53C1584.64,-174.15 637.43,-162.43 509,-132 459.43,-120.25 406.2,-90.42 381.73,-75.61"/>
<polygon fill="midnightblue" stroke="midnightblue" points="1810.13,-180.03 1820.17,-176.63 1810.21,-173.03 1810.13,-180.03"/>
</g>
<!-- Node88 -->
<g id="node12" class="node">
<title>Node88</title>
<g id="a_node12"><a xlink:href="_p_d_e_base_8cpp.html" target="_top" xlink:title=" ">
<polygon fill="white" stroke="black" points="538,-56.5 538,-75.5 618,-75.5 618,-56.5 538,-56.5"/>
<text text-anchor="middle" x="578" y="-63.5" font-family="Helvetica,sans-Serif" font-size="10.00">PDEBase.cpp</text>
</a>
</g>
</g>
<!-- Node1&#45;&gt;Node88 -->
<g id="edge46" class="edge">
<title>Node1&#45;&gt;Node88</title>
<path fill="none" stroke="midnightblue" d="M1810.46,-177.18C1581.36,-177.84 600.4,-177.96 556,-132 540.77,-116.23 558.8,-89.55 570.14,-75.79"/>
<polygon fill="midnightblue" stroke="midnightblue" points="1810.49,-180.68 1820.48,-177.15 1810.47,-173.68 1810.49,-180.68"/>
</g>
<!-- Node102 -->
<g id="node13" class="node">
<title>Node102</title>
<g id="a_node13"><a xlink:href="_i_b_8cpp.html" target="_top" xlink:title=" ">
<polygon fill="white" stroke="black" points="1688.5,-56.5 1688.5,-75.5 1735.5,-75.5 1735.5,-56.5 1688.5,-56.5"/>
<text text-anchor="middle" x="1712" y="-63.5" font-family="Helvetica,sans-Serif" font-size="10.00">IB.cpp</text>
</a>
</g>
</g>
<!-- Node1&#45;&gt;Node102 -->
<g id="edge54" class="edge">
<title>Node1&#45;&gt;Node102</title>
<path fill="none" stroke="midnightblue" d="M1871.11,-159.83C1880.13,-145.78 1888.71,-126 1878,-112 1840.78,-63.37 1804.1,-92.06 1745,-76 1742.02,-75.19 1738.89,-74.34 1735.79,-73.49"/>
<polygon fill="midnightblue" stroke="midnightblue" points="1868.18,-157.92 1865.32,-168.12 1873.92,-161.93 1868.18,-157.92"/>
</g>
<!-- Node105 -->
<g id="node14" class="node">
<title>Node105</title>
<g id="a_node14"><a xlink:href="_tioga_interface_8cpp.html" target="_top" xlink:title=" ">
<polygon fill="white" stroke="black" points="412.5,-56.5 412.5,-75.5 519.5,-75.5 519.5,-56.5 412.5,-56.5"/>
<text text-anchor="middle" x="466" y="-63.5" font-family="Helvetica,sans-Serif" font-size="10.00">TiogaInterface.cpp</text>
</a>
</g>
</g>
<!-- Node1&#45;&gt;Node105 -->
<g id="edge55" class="edge">
<title>Node1&#45;&gt;Node105</title>
<path fill="none" stroke="midnightblue" d="M1810.09,-177.14C1588.32,-177.55 667.07,-176.55 547,-132 515.22,-120.21 486.43,-90.68 473.38,-75.83"/>
<polygon fill="midnightblue" stroke="midnightblue" points="1810.43,-180.64 1820.42,-177.12 1810.41,-173.64 1810.43,-180.64"/>
</g>
<!-- Node135 -->
<g id="node15" class="node">
<title>Node135</title>
<g id="a_node15"><a xlink:href="_re_averaging_8cpp.html" target="_top" xlink:title=" ">
<polygon fill="white" stroke="black" points="852,-56.5 852,-75.5 950,-75.5 950,-56.5 852,-56.5"/>
<text text-anchor="middle" x="901" y="-63.5" font-family="Helvetica,sans-Serif" font-size="10.00">ReAveraging.cpp</text>
</a>
</g>
</g>
<!-- Node1&#45;&gt;Node135 -->
<g id="edge62" class="edge">
<title>Node1&#45;&gt;Node135</title>
<path fill="none" stroke="midnightblue" d="M1810.44,-176.7C1613.93,-175.26 873.92,-167.46 840,-132 820.85,-111.98 858.3,-88.18 882.57,-75.67"/>
<polygon fill="midnightblue" stroke="midnightblue" points="1810.44,-180.2 1820.46,-176.78 1810.49,-173.2 1810.44,-180.2"/>
</g>
<!-- Node136 -->
<g id="node16" class="node">
<title>Node136</title>
<g id="a_node16"><a xlink:href="_reynolds_stress_8cpp.html" target="_top" xlink:title=" ">
<polygon fill="white" stroke="black" points="968,-56.5 968,-75.5 1080,-75.5 1080,-56.5 968,-56.5"/>
<text text-anchor="middle" x="1024" y="-63.5" font-family="Helvetica,sans-Serif" font-size="10.00">ReynoldsStress.cpp</text>
</a>
</g>
</g>
<!-- Node1&#45;&gt;Node136 -->
<g id="edge63" class="edge">
<title>Node1&#45;&gt;Node136</title>
<path fill="none" stroke="midnightblue" d="M1810.2,-176.69C1614.3,-175.17 881.62,-167.15 848,-132 841.86,-125.58 842.55,-119.02 848,-112 856.12,-101.54 929.38,-85.43 978.79,-75.59"/>
<polygon fill="midnightblue" stroke="midnightblue" points="1810.43,-180.19 1820.46,-176.76 1810.49,-173.19 1810.43,-180.19"/>
</g>
<!-- Node165 -->
<g id="node17" class="node">
<title>Node165</title>
<g id="a_node17"><a xlink:href="_actuator_8cpp.html" target="_top" xlink:title=" ">
<polygon fill="white" stroke="black" points="1098.5,-56.5 1098.5,-75.5 1175.5,-75.5 1175.5,-56.5 1098.5,-56.5"/>
<text text-anchor="middle" x="1137" y="-63.5" font-family="Helvetica,sans-Serif" font-size="10.00">Actuator.cpp</text>
</a>
</g>
</g>
<!-- Node1&#45;&gt;Node165 -->
<g id="edge67" class="edge">
<title>Node1&#45;&gt;Node165</title>
<path fill="none" stroke="midnightblue" d="M1810.25,-176.67C1615.43,-175.08 889.33,-166.86 856,-132 849.86,-125.58 850.21,-118.75 856,-112 890.1,-72.23 1037.36,-84.83 1089,-76 1092.01,-75.49 1095.12,-74.94 1098.25,-74.38"/>
<polygon fill="midnightblue" stroke="midnightblue" points="1810.43,-180.17 1820.46,-176.75 1810.49,-173.17 1810.43,-180.17"/>
</g>
<!-- Node180 -->
<g id="node18" class="node">
<title>Node180</title>
<g id="a_node18"><a xlink:href="_godunov_8_h.html" target="_top" xlink:title=" ">
<polygon fill="white" stroke="red" points="865,-112.5 865,-131.5 935,-131.5 935,-112.5 865,-112.5"/>
<text text-anchor="middle" x="900" y="-119.5" font-family="Helvetica,sans-Serif" font-size="10.00">Godunov.H</text>
</a>
</g>
</g>
<!-- Node1&#45;&gt;Node180 -->
<g id="edge19" class="edge">
<title>Node1&#45;&gt;Node180</title>
<path fill="none" stroke="midnightblue" d="M1810.31,-177.21C1674.37,-177.25 1273.52,-173.57 944,-132 941.22,-131.65 938.34,-131.22 935.46,-130.74"/>
<polygon fill="midnightblue" stroke="midnightblue" points="1810.39,-180.71 1820.38,-177.2 1810.38,-173.71 1810.39,-180.71"/>
</g>
<!-- Node186 -->
<g id="node19" class="node">
<title>Node186</title>
<g id="a_node19"><a xlink:href="_m_o_l_8_h.html" target="_top" xlink:title=" ">
<polygon fill="white" stroke="red" points="953.5,-112.5 953.5,-131.5 1002.5,-131.5 1002.5,-112.5 953.5,-112.5"/>
<text text-anchor="middle" x="978" y="-119.5" font-family="Helvetica,sans-Serif" font-size="10.00">MOL.H</text>
</a>
</g>
</g>
<!-- Node1&#45;&gt;Node186 -->
<g id="edge20" class="edge">
<title>Node1&#45;&gt;Node186</title>
<path fill="none" stroke="midnightblue" d="M1809.89,-175.74C1654.56,-171.48 1167.53,-156.45 1012,-132 1008.98,-131.53 1005.85,-130.89 1002.76,-130.18"/>
<polygon fill="midnightblue" stroke="midnightblue" points="1809.97,-179.25 1820.06,-176.02 1810.16,-172.25 1809.97,-179.25"/>
</g>
<!-- Node189 -->
<g id="node20" class="node">
<title>Node189</title>
<g id="a_node20"><a xlink:href="_field_8cpp.html" target="_top" xlink:title=" ">
<polygon fill="white" stroke="black" points="1021,-112.5 1021,-131.5 1081,-131.5 1081,-112.5 1021,-112.5"/>
<text text-anchor="middle" x="1051" y="-119.5" font-family="Helvetica,sans-Serif" font-size="10.00">Field.cpp</text>
</a>
</g>
</g>
<!-- Node1&#45;&gt;Node189 -->
<g id="edge21" class="edge">
<title>Node1&#45;&gt;Node189</title>
<path fill="none" stroke="midnightblue" d="M1810.16,-176.98C1688.98,-176.34 1360.41,-170.84 1090,-132 1087.11,-131.59 1084.12,-131.06 1081.14,-130.48"/>
<polygon fill="midnightblue" stroke="midnightblue" points="1810.2,-180.48 1820.22,-177.03 1810.23,-173.48 1810.2,-180.48"/>
</g>
<!-- Node190 -->
<g id="node21" class="node">
<title>Node190</title>
<g id="a_node21"><a xlink:href="_field_repo_8cpp.html" target="_top" xlink:title=" ">
<polygon fill="white" stroke="black" points="1099.5,-112.5 1099.5,-131.5 1184.5,-131.5 1184.5,-112.5 1099.5,-112.5"/>
<text text-anchor="middle" x="1142" y="-119.5" font-family="Helvetica,sans-Serif" font-size="10.00">FieldRepo.cpp</text>
</a>
</g>
</g>
<!-- Node1&#45;&gt;Node190 -->
<g id="edge22" class="edge">
<title>Node1&#45;&gt;Node190</title>
<path fill="none" stroke="midnightblue" d="M1810.31,-175.53C1700.86,-171.76 1423.35,-160.04 1193,-132 1190.23,-131.66 1187.39,-131.28 1184.53,-130.86"/>
<polygon fill="midnightblue" stroke="midnightblue" points="1810.26,-179.03 1820.37,-175.87 1810.49,-172.03 1810.26,-179.03"/>
</g>
<!-- Node191 -->
<g id="node22" class="node">
<title>Node191</title>
<g id="a_node22"><a xlink:href="_int_field_8cpp.html" target="_top" xlink:title=" ">
<polygon fill="white" stroke="black" points="1202.5,-112.5 1202.5,-131.5 1275.5,-131.5 1275.5,-112.5 1202.5,-112.5"/>
<text text-anchor="middle" x="1239" y="-119.5" font-family="Helvetica,sans-Serif" font-size="10.00">IntField.cpp</text>
</a>
</g>
</g>
<!-- Node1&#45;&gt;Node191 -->
<g id="edge23" class="edge">
<title>Node1&#45;&gt;Node191</title>
<path fill="none" stroke="midnightblue" d="M1810.05,-175.1C1711.39,-170.77 1478.64,-158.46 1285,-132 1281.94,-131.58 1278.77,-131.09 1275.6,-130.55"/>
<polygon fill="midnightblue" stroke="midnightblue" points="1810.16,-178.6 1820.3,-175.54 1810.46,-171.61 1810.16,-178.6"/>
</g>
<!-- Node192 -->
<g id="node23" class="node">
<title>Node192</title>
<g id="a_node23"><a xlink:href="_scratch_field_8cpp.html" target="_top" xlink:title=" ">
<polygon fill="white" stroke="black" points="1294,-112.5 1294,-131.5 1390,-131.5 1390,-112.5 1294,-112.5"/>
<text text-anchor="middle" x="1342" y="-119.5" font-family="Helvetica,sans-Serif" font-size="10.00">ScratchField.cpp</text>
</a>
</g>
</g>
<!-- Node1&#45;&gt;Node192 -->
<g id="edge24" class="edge">
<title>Node1&#45;&gt;Node192</title>
<path fill="none" stroke="midnightblue" d="M1810.24,-173.25C1726.7,-166.48 1548.67,-151.14 1399,-132 1396.12,-131.63 1393.16,-131.23 1390.17,-130.81"/>
<polygon fill="midnightblue" stroke="midnightblue" points="1810.18,-176.76 1820.43,-174.07 1810.75,-169.78 1810.18,-176.76"/>
</g>
<!-- Node193 -->
<g id="node24" class="node">
<title>Node193</title>
<g id="a_node24"><a xlink:href="_view_field_8cpp.html" target="_top" xlink:title=" ">
<polygon fill="white" stroke="black" points="1408,-112.5 1408,-131.5 1492,-131.5 1492,-112.5 1408,-112.5"/>
<text text-anchor="middle" x="1450" y="-119.5" font-family="Helvetica,sans-Serif" font-size="10.00">ViewField.cpp</text>
</a>
</g>
</g>
<!-- Node1&#45;&gt;Node193 -->
<g id="edge25" class="edge">
<title>Node1&#45;&gt;Node193</title>
<path fill="none" stroke="midnightblue" d="M1810.34,-171.75C1741.79,-164.02 1611.45,-148.7 1501,-132 1498.16,-131.57 1495.22,-131.11 1492.27,-130.63"/>
<polygon fill="midnightblue" stroke="midnightblue" points="1810.07,-175.24 1820.4,-172.88 1810.85,-168.28 1810.07,-175.24"/>
</g>
<!-- Node194 -->
<g id="node25" class="node">
<title>Node194</title>
<g id="a_node25"><a xlink:href="field__algebra_8cpp.html" target="_top" xlink:title=" ">
<polygon fill="white" stroke="black" points="1510,-112.5 1510,-131.5 1610,-131.5 1610,-112.5 1510,-112.5"/>
<text text-anchor="middle" x="1560" y="-119.5" font-family="Helvetica,sans-Serif" font-size="10.00">field_algebra.cpp</text>
</a>
</g>
</g>
<!-- Node1&#45;&gt;Node194 -->
<g id="edge26" class="edge">
<title>Node1&#45;&gt;Node194</title>
<path fill="none" stroke="midnightblue" d="M1810.27,-168.35C1754.41,-158.23 1662.52,-141.58 1606.99,-131.51"/>
<polygon fill="midnightblue" stroke="midnightblue" points="1809.79,-171.82 1820.26,-170.16 1811.04,-164.93 1809.79,-171.82"/>
</g>
<!-- Node195 -->
<g id="node26" class="node">
<title>Node195</title>
<g id="a_node26"><a xlink:href="diffusion_8_h.html" target="_top" xlink:title=" ">
<polygon fill="white" stroke="red" points="1628.5,-112.5 1628.5,-131.5 1697.5,-131.5 1697.5,-112.5 1628.5,-112.5"/>
<text text-anchor="middle" x="1663" y="-119.5" font-family="Helvetica,sans-Serif" font-size="10.00">diffusion.H</text>
</a>
</g>
</g>
<!-- Node1&#45;&gt;Node195 -->
<g id="edge27" class="edge">
<title>Node1&#45;&gt;Node195</title>
<path fill="none" stroke="midnightblue" d="M1817.19,-165.7C1780.39,-155.51 1727.07,-140.74 1693.75,-131.52"/>
<polygon fill="midnightblue" stroke="midnightblue" points="1816.53,-169.15 1827.1,-168.44 1818.4,-162.4 1816.53,-169.15"/>
</g>
<!-- Node196 -->
<g id="node27" class="node">
<title>Node196</title>
<g id="a_node27"><a xlink:href="_p_d_e_helpers_8_h.html" target="_top" xlink:title=" ">
<polygon fill="white" stroke="red" points="565,-112.5 565,-131.5 649,-131.5 649,-112.5 565,-112.5"/>
<text text-anchor="middle" x="607" y="-119.5" font-family="Helvetica,sans-Serif" font-size="10.00">PDEHelpers.H</text>
</a>
</g>
</g>
<!-- Node1&#45;&gt;Node196 -->
<g id="edge29" class="edge">
<title>Node1&#45;&gt;Node196</title>
<path fill="none" stroke="midnightblue" d="M1810.16,-177.56C1647.94,-178.94 1104.03,-179.49 658,-132 655.14,-131.7 652.2,-131.33 649.24,-130.91"/>
<polygon fill="midnightblue" stroke="midnightblue" points="1810.32,-181.05 1820.29,-177.46 1810.26,-174.06 1810.32,-181.05"/>
</g>
<!-- Node197 -->
<g id="node28" class="node">
<title>Node197</title>
<g id="a_node28"><a xlink:href="_density_source_8_h.html" target="_top" xlink:title=" ">
<polygon fill="white" stroke="red" points="1771,-112.5 1771,-131.5 1869,-131.5 1869,-112.5 1771,-112.5"/>
<text text-anchor="middle" x="1820" y="-119.5" font-family="Helvetica,sans-Serif" font-size="10.00">DensitySource.H</text>
</a>
</g>
</g>
<!-- Node1&#45;&gt;Node197 -->
<g id="edge32" class="edge">
<title>Node1&#45;&gt;Node197</title>
<path fill="none" stroke="midnightblue" d="M1845.94,-159.86C1839.36,-150.5 1831.49,-139.33 1826.16,-131.75"/>
<polygon fill="midnightblue" stroke="midnightblue" points="1843.11,-161.92 1851.73,-168.08 1848.83,-157.89 1843.11,-161.92"/>
</g>
<!-- Node198 -->
<g id="node29" class="node">
<title>Node198</title>
<g id="a_node29"><a xlink:href="_momentum_source_8_h.html" target="_top" xlink:title=" ">
<polygon fill="white" stroke="red" points="2039,-112.5 2039,-131.5 2155,-131.5 2155,-112.5 2039,-112.5"/>
<text text-anchor="middle" x="2097" y="-119.5" font-family="Helvetica,sans-Serif" font-size="10.00">MomentumSource.H</text>
</a>
</g>
</g>
<!-- Node1&#45;&gt;Node198 -->
<g id="edge33" class="edge">
<title>Node1&#45;&gt;Node198</title>
<path fill="none" stroke="midnightblue" d="M1905.45,-166.28C1950.58,-156.08 2017.59,-140.94 2059.22,-131.54"/>
<polygon fill="midnightblue" stroke="midnightblue" points="1904.59,-162.89 1895.61,-168.5 1906.13,-169.71 1904.59,-162.89"/>
</g>
<!-- Node70 -->
<g id="node30" class="node">
<title>Node70</title>
<g id="a_node30"><a xlink:href="_a_b_l_mean_boussinesq_8_h.html" target="_top" xlink:title=" ">
<polygon fill="white" stroke="red" points="1754,-56.5 1754,-75.5 1882,-75.5 1882,-56.5 1754,-56.5"/>
<text text-anchor="middle" x="1818" y="-63.5" font-family="Helvetica,sans-Serif" font-size="10.00">ABLMeanBoussinesq.H</text>
</a>
</g>
</g>
<!-- Node1&#45;&gt;Node70 -->
<g id="edge40" class="edge">
<title>Node1&#45;&gt;Node70</title>
<path fill="none" stroke="midnightblue" d="M1882.66,-163.02C1901.65,-150.35 1922.82,-130.85 1911,-112 1899.18,-93.16 1877,-82.01 1857.25,-75.52"/>
<polygon fill="midnightblue" stroke="midnightblue" points="1880.55,-160.21 1873.94,-168.49 1884.27,-166.14 1880.55,-160.21"/>
</g>
<!-- Node202 -->
<g id="node31" class="node">
<title>Node202</title>
<g id="a_node31"><a xlink:href="_boussinesq_buoyancy_8_h.html" target="_top" xlink:title=" ">
<polygon fill="white" stroke="red" points="1900.5,-56.5 1900.5,-75.5 2029.5,-75.5 2029.5,-56.5 1900.5,-56.5"/>
<text text-anchor="middle" x="1965" y="-63.5" font-family="Helvetica,sans-Serif" font-size="10.00">BoussinesqBuoyancy.H</text>
</a>
</g>
</g>
<!-- Node1&#45;&gt;Node202 -->
<g id="edge41" class="edge">
<title>Node1&#45;&gt;Node202</title>
<path fill="none" stroke="midnightblue" d="M1884.8,-163.44C1898.55,-155.57 1914.9,-144.71 1927,-132 1943.41,-114.77 1955.69,-89.19 1961.42,-75.84"/>
<polygon fill="midnightblue" stroke="midnightblue" points="1882.86,-160.51 1875.79,-168.39 1886.23,-166.64 1882.86,-160.51"/>
</g>
<!-- Node203 -->
<g id="node32" class="node">
<title>Node203</title>
<g id="a_node32"><a xlink:href="_coriolis_forcing_8_h.html" target="_top" xlink:title=" ">
<polygon fill="white" stroke="red" points="2047.5,-56.5 2047.5,-75.5 2146.5,-75.5 2146.5,-56.5 2047.5,-56.5"/>
<text text-anchor="middle" x="2097" y="-63.5" font-family="Helvetica,sans-Serif" font-size="10.00">CoriolisForcing.H</text>
</a>
</g>
</g>
<!-- Node1&#45;&gt;Node203 -->
<g id="edge42" class="edge">
<title>Node1&#45;&gt;Node203</title>
<path fill="none" stroke="midnightblue" d="M1885.89,-164.16C1935.21,-141.47 2036.53,-94.83 2078.33,-75.59"/>
<polygon fill="midnightblue" stroke="midnightblue" points="1884.37,-161.01 1876.75,-168.37 1887.3,-167.37 1884.37,-161.01"/>
</g>
<!-- Node204 -->
<g id="node33" class="node">
<title>Node204</title>
<g id="a_node33"><a xlink:href="_density_buoyancy_8_h.html" target="_top" xlink:title=" ">
<polygon fill="white" stroke="red" points="2164.5,-56.5 2164.5,-75.5 2275.5,-75.5 2275.5,-56.5 2164.5,-56.5"/>
<text text-anchor="middle" x="2220" y="-63.5" font-family="Helvetica,sans-Serif" font-size="10.00">DensityBuoyancy.H</text>
</a>
</g>
</g>
<!-- Node1&#45;&gt;Node204 -->
<g id="edge43" class="edge">
<title>Node1&#45;&gt;Node204</title>
<path fill="none" stroke="midnightblue" d="M1905.75,-174.04C1980.35,-168.75 2120.52,-155.91 2164,-132 2188.28,-118.65 2206.84,-90.39 2215.17,-75.93"/>
<polygon fill="midnightblue" stroke="midnightblue" points="1905.41,-170.56 1895.67,-174.74 1905.89,-177.54 1905.41,-170.56"/>
</g>
<!-- Node206 -->
<g id="node34" class="node">
<title>Node206</title>
<g id="a_node34"><a xlink:href="_gravity_forcing_8_h.html" target="_top" xlink:title=" ">
<polygon fill="white" stroke="red" points="2294,-56.5 2294,-75.5 2392,-75.5 2392,-56.5 2294,-56.5"/>
<text text-anchor="middle" x="2343" y="-63.5" font-family="Helvetica,sans-Serif" font-size="10.00">GravityForcing.H</text>
</a>
</g>
</g>
<!-- Node1&#45;&gt;Node206 -->
<g id="edge44" class="edge">
<title>Node1&#45;&gt;Node206</title>
<path fill="none" stroke="midnightblue" d="M1905.73,-174.53C1970.95,-170.27 2091.11,-159.18 2190,-132 2203.6,-128.26 2285.66,-92.33 2323.68,-75.55"/>
<polygon fill="midnightblue" stroke="midnightblue" points="1905.51,-171.04 1895.75,-175.16 1905.95,-178.03 1905.51,-171.04"/>
</g>
<!-- Node208 -->
<g id="node35" class="node">
<title>Node208</title>
<g id="a_node35"><a xlink:href="_m_m_s_forcing_8_h.html" target="_top" xlink:title=" ">
<polygon fill="white" stroke="red" points="2635,-56.5 2635,-75.5 2721,-75.5 2721,-56.5 2635,-56.5"/>
<text text-anchor="middle" x="2678" y="-63.5" font-family="Helvetica,sans-Serif" font-size="10.00">MMSForcing.H</text>
</a>
</g>
</g>
<!-- Node1&#45;&gt;Node208 -->
<g id="edge56" class="edge">
<title>Node1&#45;&gt;Node208</title>
<path fill="none" stroke="midnightblue" d="M1905.65,-176.72C2103.4,-175.35 2850.75,-167.78 2885,-132 2934.68,-80.09 2795.4,-69.45 2721.17,-67.4"/>
<polygon fill="midnightblue" stroke="midnightblue" points="1905.55,-173.22 1895.57,-176.79 1905.59,-180.22 1905.55,-173.22"/>
</g>
<!-- Node209 -->
<g id="node36" class="node">
<title>Node209</title>
<g id="a_node36"><a xlink:href="_source_term_8_h.html" target="_top" xlink:title=" ">
<polygon fill="white" stroke="red" points="2249,-112.5 2249,-131.5 2333,-131.5 2333,-112.5 2249,-112.5"/>
<text text-anchor="middle" x="2291" y="-119.5" font-family="Helvetica,sans-Serif" font-size="10.00">SourceTerm.H</text>
</a>
</g>
</g>
<!-- Node1&#45;&gt;Node209 -->
<g id="edge45" class="edge">
<title>Node1&#45;&gt;Node209</title>
<path fill="none" stroke="midnightblue" d="M1905.58,-171.95C1977.16,-164.2 2116.78,-148.55 2235,-132 2239.49,-131.37 2244.17,-130.68 2248.83,-129.97"/>
<polygon fill="midnightblue" stroke="midnightblue" points="1905.09,-168.48 1895.52,-173.03 1905.84,-175.44 1905.09,-168.48"/>
</g>
<!-- Node210 -->
<g id="node37" class="node">
<title>Node210</title>
<g id="a_node37"><a xlink:href="_s_d_r_source_8_h.html" target="_top" xlink:title=" ">
<polygon fill="white" stroke="red" points="2351,-112.5 2351,-131.5 2431,-131.5 2431,-112.5 2351,-112.5"/>
<text text-anchor="middle" x="2391" y="-119.5" font-family="Helvetica,sans-Serif" font-size="10.00">SDRSource.H</text>
</a>
</g>
</g>
<!-- Node1&#45;&gt;Node210 -->
<g id="edge47" class="edge">
<title>Node1&#45;&gt;Node210</title>
<path fill="none" stroke="midnightblue" d="M1905.89,-173.97C1992.96,-168.13 2182.94,-153.96 2342,-132 2344.91,-131.6 2347.92,-131.14 2350.94,-130.66"/>
<polygon fill="midnightblue" stroke="midnightblue" points="1905.53,-170.48 1895.79,-174.64 1906,-177.47 1905.53,-170.48"/>
</g>
<!-- Node212 -->
<g id="node38" class="node">
<title>Node212</title>
<g id="a_node38"><a xlink:href="_temperature_source_8_h.html" target="_top" xlink:title=" ">
<polygon fill="white" stroke="red" points="2449,-112.5 2449,-131.5 2571,-131.5 2571,-112.5 2449,-112.5"/>
<text text-anchor="middle" x="2510" y="-119.5" font-family="Helvetica,sans-Serif" font-size="10.00">TemperatureSource.H</text>
</a>
</g>
</g>
<!-- Node1&#45;&gt;Node212 -->
<g id="edge48" class="edge">
<title>Node1&#45;&gt;Node212</title>
<path fill="none" stroke="midnightblue" d="M1905.53,-174.14C2004.91,-167.99 2241.86,-152.38 2440,-132 2442.93,-131.7 2445.92,-131.38 2448.94,-131.04"/>
<polygon fill="midnightblue" stroke="midnightblue" points="1905.27,-170.65 1895.51,-174.76 1905.7,-177.64 1905.27,-170.65"/>
</g>
<!-- Node213 -->
<g id="node39" class="node">
<title>Node213</title>
<g id="a_node39"><a xlink:href="_t_k_e_source_8_h.html" target="_top" xlink:title=" ">
<polygon fill="white" stroke="red" points="2589.5,-112.5 2589.5,-131.5 2668.5,-131.5 2668.5,-112.5 2589.5,-112.5"/>
<text text-anchor="middle" x="2629" y="-119.5" font-family="Helvetica,sans-Serif" font-size="10.00">TKESource.H</text>
</a>
</g>
</g>
<!-- Node1&#45;&gt;Node213 -->
<g id="edge49" class="edge">
<title>Node1&#45;&gt;Node213</title>
<path fill="none" stroke="midnightblue" d="M1906.05,-175.99C2022.21,-173.1 2327.35,-162.96 2580,-132 2583.09,-131.62 2586.28,-131.17 2589.48,-130.68"/>
<polygon fill="midnightblue" stroke="midnightblue" points="1905.64,-172.49 1895.73,-176.24 1905.81,-179.49 1905.64,-172.49"/>
</g>
<!-- Node217 -->
<g id="node40" class="node">
<title>Node217</title>
<g id="a_node40"><a xlink:href="_split_advection_8_h.html" target="_top" xlink:title=" ">
<polygon fill="white" stroke="red" points="2686,-112.5 2686,-131.5 2784,-131.5 2784,-112.5 2686,-112.5"/>
<text text-anchor="middle" x="2735" y="-119.5" font-family="Helvetica,sans-Serif" font-size="10.00">SplitAdvection.H</text>
</a>
</g>
</g>
<!-- Node1&#45;&gt;Node217 -->
<g id="edge50" class="edge">
<title>Node1&#45;&gt;Node217</title>
<path fill="none" stroke="midnightblue" d="M1905.82,-176.08C2032.25,-173.26 2385.65,-163.02 2678,-132 2680.59,-131.73 2683.24,-131.41 2685.92,-131.07"/>
<polygon fill="midnightblue" stroke="midnightblue" points="1905.63,-172.58 1895.71,-176.3 1905.78,-179.58 1905.63,-172.58"/>
</g>
<!-- Node219 -->
<g id="node41" class="node">
<title>Node219</title>
<g id="a_node41"><a xlink:href="fvm__utils_8_h.html" target="_top" xlink:title=" ">
<polygon fill="white" stroke="red" points="2802.5,-112.5 2802.5,-131.5 2875.5,-131.5 2875.5,-112.5 2802.5,-112.5"/>
<text text-anchor="middle" x="2839" y="-119.5" font-family="Helvetica,sans-Serif" font-size="10.00">fvm_utils.H</text>
</a>
</g>
</g>
<!-- Node1&#45;&gt;Node219 -->
<g id="edge51" class="edge">
<title>Node1&#45;&gt;Node219</title>
<path fill="none" stroke="midnightblue" d="M1905.8,-177.14C2043.87,-177.03 2454.94,-172.99 2793,-132 2796.07,-131.63 2799.24,-131.17 2802.42,-130.65"/>
<polygon fill="midnightblue" stroke="midnightblue" points="1905.57,-173.64 1895.57,-177.14 1905.58,-180.64 1905.57,-173.64"/>
</g>
<!-- Node229 -->
<g id="node42" class="node">
<title>Node229</title>
<g id="a_node42"><a xlink:href="_i_b_8_h.html" target="_top" xlink:title=" ">
<polygon fill="white" stroke="red" points="1715.5,-112.5 1715.5,-131.5 1752.5,-131.5 1752.5,-112.5 1715.5,-112.5"/>
<text text-anchor="middle" x="1734" y="-119.5" font-family="Helvetica,sans-Serif" font-size="10.00">IB.H</text>
</a>
</g>
</g>
<!-- Node1&#45;&gt;Node229 -->
<g id="edge52" class="edge">
<title>Node1&#45;&gt;Node229</title>
<path fill="none" stroke="midnightblue" d="M1828.88,-164.32C1805.35,-154.07 1772.94,-139.96 1752.74,-131.16"/>
<polygon fill="midnightblue" stroke="midnightblue" points="1827.79,-167.66 1838.35,-168.44 1830.58,-161.24 1827.79,-167.66"/>
</g>
<!-- Node230 -->
<g id="node43" class="node">
<title>Node230</title>
<g id="a_node43"><a xlink:href="_linear_profile_8cpp.html" target="_top" xlink:title=" ">
<polygon fill="white" stroke="black" points="2932,-112.5 2932,-131.5 3030,-131.5 3030,-112.5 2932,-112.5"/>
<text text-anchor="middle" x="2981" y="-119.5" font-family="Helvetica,sans-Serif" font-size="10.00">LinearProfile.cpp</text>
</a>
</g>
</g>
<!-- Node1&#45;&gt;Node230 -->
<g id="edge57" class="edge">
<title>Node1&#45;&gt;Node230</title>
<path fill="none" stroke="midnightblue" d="M1905.86,-176.66C2055.61,-175.24 2528.43,-168.01 2918,-132 2922.51,-131.58 2927.19,-131.07 2931.87,-130.5"/>
<polygon fill="midnightblue" stroke="midnightblue" points="1905.61,-173.16 1895.64,-176.75 1905.68,-180.16 1905.61,-173.16"/>
</g>
<!-- Node43 -->
<g id="node44" class="node">
<title>Node43</title>
<g id="a_node44"><a xlink:href="_power_law_profile_8cpp.html" target="_top" xlink:title=" ">
<polygon fill="white" stroke="black" points="3048.5,-112.5 3048.5,-131.5 3165.5,-131.5 3165.5,-112.5 3048.5,-112.5"/>
<text text-anchor="middle" x="3107" y="-119.5" font-family="Helvetica,sans-Serif" font-size="10.00">PowerLawProfile.cpp</text>
</a>
</g>
</g>
<!-- Node1&#45;&gt;Node43 -->
<g id="edge58" class="edge">
<title>Node1&#45;&gt;Node43</title>
<path fill="none" stroke="midnightblue" d="M1905.56,-176.78C2065.67,-175.71 2599.63,-169.36 3039,-132 3042.09,-131.74 3045.24,-131.44 3048.43,-131.11"/>
<polygon fill="midnightblue" stroke="midnightblue" points="1905.54,-173.28 1895.56,-176.85 1905.58,-180.28 1905.54,-173.28"/>
</g>
<!-- Node231 -->
<g id="node45" class="node">
<title>Node231</title>
<g id="a_node45"><a xlink:href="_u_d_f_8cpp.html" target="_top" xlink:title=" ">
<polygon fill="white" stroke="black" points="3184,-112.5 3184,-131.5 3240,-131.5 3240,-112.5 3184,-112.5"/>
<text text-anchor="middle" x="3212" y="-119.5" font-family="Helvetica,sans-Serif" font-size="10.00">UDF.cpp</text>
</a>
</g>
</g>
<!-- Node1&#45;&gt;Node231 -->
<g id="edge59" class="edge">
<title>Node1&#45;&gt;Node231</title>
<path fill="none" stroke="midnightblue" d="M1905.76,-176.68C2111.41,-175.08 2922.42,-166.66 3175,-132 3177.88,-131.6 3180.87,-131.08 3183.83,-130.48"/>
<polygon fill="midnightblue" stroke="midnightblue" points="1905.56,-173.18 1895.59,-176.75 1905.61,-180.18 1905.56,-173.18"/>
</g>
<!-- Node232 -->
<g id="node46" class="node">
<title>Node232</title>
<g id="a_node46"><a xlink:href="_transport_model_8_h.html" target="_top" xlink:title=" ">
<polygon fill="white" stroke="red" points="3258,-112.5 3258,-131.5 3360,-131.5 3360,-112.5 3258,-112.5"/>
<text text-anchor="middle" x="3309" y="-119.5" font-family="Helvetica,sans-Serif" font-size="10.00">TransportModel.H</text>
</a>
</g>
</g>
<!-- Node1&#45;&gt;Node232 -->
<g id="edge60" class="edge">
<title>Node1&#45;&gt;Node232</title>
<path fill="none" stroke="midnightblue" d="M1905.8,-177.47C2083.67,-178.78 2724.06,-179.7 3249,-132 3251.94,-131.73 3254.95,-131.42 3257.99,-131.07"/>
<polygon fill="midnightblue" stroke="midnightblue" points="1905.75,-173.97 1895.72,-177.39 1905.69,-180.97 1905.75,-173.97"/>
</g>
<!-- Node131 -->
<g id="node47" class="node">
<title>Node131</title>
<g id="a_node47"><a xlink:href="_smagorinsky_8_h.html" target="_top" xlink:title=" ">
<polygon fill="white" stroke="red" points="3378.5,-112.5 3378.5,-131.5 3467.5,-131.5 3467.5,-112.5 3378.5,-112.5"/>
<text text-anchor="middle" x="3423" y="-119.5" font-family="Helvetica,sans-Serif" font-size="10.00">Smagorinsky.H</text>
</a>
</g>
</g>
<!-- Node1&#45;&gt;Node131 -->
<g id="edge61" class="edge">
<title>Node1&#45;&gt;Node131</title>
<path fill="none" stroke="midnightblue" d="M1905.65,-176.45C2129.15,-173.74 3074.92,-160.75 3369,-132 3372.03,-131.7 3375.14,-131.34 3378.27,-130.93"/>
<polygon fill="midnightblue" stroke="midnightblue" points="1905.52,-172.95 1895.56,-176.57 1905.6,-179.95 1905.52,-172.95"/>
</g>
<!-- Node163 -->
<g id="node48" class="node">
<title>Node163</title>
<g id="a_node48"><a xlink:href="_act_src_line_op_8_h.html" target="_top" xlink:title=" ">
<polygon fill="white" stroke="red" points="3486,-112.5 3486,-131.5 3578,-131.5 3578,-112.5 3486,-112.5"/>
<text text-anchor="middle" x="3532" y="-119.5" font-family="Helvetica,sans-Serif" font-size="10.00">ActSrcLineOp.H</text>
</a>
</g>
</g>
<!-- Node1&#45;&gt;Node163 -->
<g id="edge64" class="edge">
<title>Node1&#45;&gt;Node163</title>
<path fill="none" stroke="midnightblue" d="M1905.99,-176.54C2139.74,-174.15 3160.48,-162.16 3477,-132 3479.89,-131.72 3482.86,-131.39 3485.84,-131.01"/>
<polygon fill="midnightblue" stroke="midnightblue" points="1905.74,-173.04 1895.78,-176.64 1905.82,-180.04 1905.74,-173.04"/>
</g>
<!-- Node170 -->
<g id="node49" class="node">
<title>Node170</title>
<g id="a_node49"><a xlink:href="_act_src_disk_op___turbine_8_h.html" target="_top" xlink:title=" ">
<polygon fill="white" stroke="red" points="3596,-112.5 3596,-131.5 3730,-131.5 3730,-112.5 3596,-112.5"/>
<text text-anchor="middle" x="3663" y="-119.5" font-family="Helvetica,sans-Serif" font-size="10.00">ActSrcDiskOp_Turbine.H</text>
</a>
</g>
</g>
<!-- Node1&#45;&gt;Node170 -->
<g id="edge65" class="edge">
<title>Node1&#45;&gt;Node170</title>
<path fill="none" stroke="midnightblue" d="M1905.83,-177.36C2109.15,-178.57 2921.7,-179.95 3587,-132 3589.92,-131.79 3592.89,-131.55 3595.9,-131.29"/>
<polygon fill="midnightblue" stroke="midnightblue" points="1905.8,-173.86 1895.78,-177.3 1905.76,-180.86 1905.8,-173.86"/>
</g>
<!-- Node171 -->
<g id="node50" class="node">
<title>Node171</title>
<g id="a_node50"><a xlink:href="_act_src_disk_op_8_h.html" target="_top" xlink:title=" ">
<polygon fill="white" stroke="red" points="3748.5,-112.5 3748.5,-131.5 3841.5,-131.5 3841.5,-112.5 3748.5,-112.5"/>
<text text-anchor="middle" x="3795" y="-119.5" font-family="Helvetica,sans-Serif" font-size="10.00">ActSrcDiskOp.H</text>
</a>
</g>
</g>
<!-- Node1&#45;&gt;Node171 -->
<g id="edge66" class="edge">
<title>Node1&#45;&gt;Node171</title>
<path fill="none" stroke="midnightblue" d="M1905.73,-176.74C2161.01,-175.19 3367.43,-166.14 3739,-132 3742.04,-131.72 3745.16,-131.38 3748.31,-130.99"/>
<polygon fill="midnightblue" stroke="midnightblue" points="1905.64,-173.24 1895.67,-176.8 1905.69,-180.24 1905.64,-173.24"/>
</g>
<!-- Node3&#45;&gt;Node2 -->
<g id="edge3" class="edge">
<title>Node3&#45;&gt;Node2</title>
<path fill="none" stroke="midnightblue" d="M141.99,-108.37C118.77,-98.26 86.84,-84.35 66.56,-75.52"/>
<polygon fill="midnightblue" stroke="midnightblue" points="140.79,-111.66 151.35,-112.44 143.58,-105.24 140.79,-111.66"/>
</g>
<!-- Node4 -->
<g id="node4" class="node">
<title>Node4</title>
<g id="a_node4"><a xlink:href="_fixed_gradient_b_c_8cpp.html" target="_top" xlink:title=" ">
<polygon fill="white" stroke="black" points="112,-56.5 112,-75.5 230,-75.5 230,-56.5 112,-56.5"/>
<text text-anchor="middle" x="171" y="-63.5" font-family="Helvetica,sans-Serif" font-size="10.00">FixedGradientBC.cpp</text>
</a>
</g>
</g>
<!-- Node3&#45;&gt;Node4 -->
<g id="edge4" class="edge">
<title>Node3&#45;&gt;Node4</title>
<path fill="none" stroke="midnightblue" d="M171,-101.8C171,-92.91 171,-82.78 171,-75.75"/>
<polygon fill="midnightblue" stroke="midnightblue" points="167.5,-102.08 171,-112.08 174.5,-102.08 167.5,-102.08"/>
</g>
<!-- Node6 -->
<g id="node6" class="node">
<title>Node6</title>
<g id="a_node6"><a xlink:href="icns__bcop_8_h.html" target="_top" xlink:title=" ">
<polygon fill="white" stroke="red" points="248.5,-56.5 248.5,-75.5 323.5,-75.5 323.5,-56.5 248.5,-56.5"/>
<text text-anchor="middle" x="286" y="-63.5" font-family="Helvetica,sans-Serif" font-size="10.00">icns_bcop.H</text>
</a>
</g>
</g>
<!-- Node5&#45;&gt;Node6 -->
<g id="edge6" class="edge">
<title>Node5&#45;&gt;Node6</title>
<path fill="none" stroke="midnightblue" d="M310.38,-103.57C304.18,-94.27 296.83,-83.25 291.83,-75.75"/>
<polygon fill="midnightblue" stroke="midnightblue" points="307.6,-105.7 316.06,-112.08 313.42,-101.82 307.6,-105.7"/>
</g>
<!-- Node9 -->
<g id="node8" class="node">
<title>Node9</title>
<g id="a_node8"><a xlink:href="_c_f_d_sim_8cpp.html" target="_top" xlink:title=" ">
<polygon fill="white" stroke="black" points="758,-56.5 758,-75.5 834,-75.5 834,-56.5 758,-56.5"/>
<text text-anchor="middle" x="796" y="-63.5" font-family="Helvetica,sans-Serif" font-size="10.00">CFDSim.cpp</text>
</a>
</g>
</g>
<!-- Node8&#45;&gt;Node9 -->
<g id="edge8" class="edge">
<title>Node8&#45;&gt;Node9</title>
<path fill="none" stroke="midnightblue" d="M724.57,-107.18C742.24,-97.24 765.51,-84.15 780.61,-75.65"/>
<polygon fill="midnightblue" stroke="midnightblue" points="722.42,-104.37 715.42,-112.32 725.86,-110.47 722.42,-104.37"/>
</g>
<!-- Node8&#45;&gt;Node10 -->
<g id="edge9" class="edge">
<title>Node8&#45;&gt;Node10</title>
<path fill="none" stroke="midnightblue" d="M656.48,-111.84C543.54,-92.33 512.09,-97.66 403,-76 400.29,-75.46 397.48,-74.84 394.68,-74.19"/>
<polygon fill="midnightblue" stroke="midnightblue" points="656.12,-115.33 666.57,-113.61 657.33,-108.44 656.12,-115.33"/>
</g>
<!-- Node23 -->
<g id="node10" class="node">
<title>Node23</title>
<g id="a_node10"><a xlink:href="_p_d_e_ops_8_h.html" target="_top" xlink:title=" ">
<polygon fill="white" stroke="red" points="636.5,-56.5 636.5,-75.5 701.5,-75.5 701.5,-56.5 636.5,-56.5"/>
<text text-anchor="middle" x="669" y="-63.5" font-family="Helvetica,sans-Serif" font-size="10.00">PDEOps.H</text>
</a>
</g>
</g>
<!-- Node8&#45;&gt;Node23 -->
<g id="edge10" class="edge">
<title>Node8&#45;&gt;Node23</title>
<path fill="none" stroke="midnightblue" d="M689.82,-103.27C684.53,-94.05 678.28,-83.17 674.02,-75.75"/>
<polygon fill="midnightblue" stroke="midnightblue" points="686.87,-105.15 694.88,-112.08 692.94,-101.67 686.87,-105.15"/>
</g>
<!-- Node38 -->
<g id="node11" class="node">
<title>Node38</title>
<g id="a_node11"><a xlink:href="_p_d_e_8_h.html" target="_top" xlink:title=" ">
<polygon fill="white" stroke="red" points="675.5,-0.5 675.5,-19.5 722.5,-19.5 722.5,-0.5 675.5,-0.5"/>
<text text-anchor="middle" x="699" y="-7.5" font-family="Helvetica,sans-Serif" font-size="10.00">PDE.H</text>
</a>
</g>
</g>
<!-- Node8&#45;&gt;Node38 -->
<g id="edge12" class="edge">
<title>Node8&#45;&gt;Node38</title>
<path fill="none" stroke="midnightblue" d="M705.64,-102.18C708.85,-89.23 711.88,-71.61 710,-56 708.44,-43.06 704.45,-28.48 701.73,-19.51"/>
<polygon fill="midnightblue" stroke="midnightblue" points="702.16,-101.62 702.9,-112.19 708.91,-103.47 702.16,-101.62"/>
</g>
<!-- Node8&#45;&gt;Node88 -->
<g id="edge13" class="edge">
<title>Node8&#45;&gt;Node88</title>
<path fill="none" stroke="midnightblue" d="M671.46,-108.37C648.61,-98.26 617.19,-84.35 597.24,-75.52"/>
<polygon fill="midnightblue" stroke="midnightblue" points="670.11,-111.6 680.67,-112.44 672.94,-105.2 670.11,-111.6"/>
</g>
<!-- Node8&#45;&gt;Node102 -->
<g id="edge14" class="edge">
<title>Node8&#45;&gt;Node102</title>
<path fill="none" stroke="midnightblue" d="M743.3,-118.44C774.6,-116.61 817.91,-114.1 856,-112 1185.87,-93.81 1587.35,-73.33 1688.17,-68.21"/>
<polygon fill="midnightblue" stroke="midnightblue" points="742.95,-114.96 733.17,-119.04 743.36,-121.95 742.95,-114.96"/>
</g>
<!-- Node8&#45;&gt;Node105 -->
<g id="edge15" class="edge">
<title>Node8&#45;&gt;Node105</title>
<path fill="none" stroke="midnightblue" d="M657.12,-111.1C613,-100.92 544.99,-85.23 503.11,-75.56"/>
<polygon fill="midnightblue" stroke="midnightblue" points="656.44,-114.54 666.97,-113.38 658.01,-107.72 656.44,-114.54"/>
</g>
<!-- Node8&#45;&gt;Node135 -->
<g id="edge16" class="edge">
<title>Node8&#45;&gt;Node135</title>
<path fill="none" stroke="midnightblue" d="M741.58,-109.83C779.53,-99.63 834.81,-84.78 869.3,-75.52"/>
<polygon fill="midnightblue" stroke="midnightblue" points="740.6,-106.47 731.85,-112.44 742.41,-113.23 740.6,-106.47"/>
</g>
<!-- Node8&#45;&gt;Node136 -->
<g id="edge17" class="edge">
<title>Node8&#45;&gt;Node136</title>
<path fill="none" stroke="midnightblue" d="M743.33,-113.78C802.82,-103.86 909.58,-86.07 972.89,-75.52"/>
<polygon fill="midnightblue" stroke="midnightblue" points="742.44,-110.38 733.15,-115.47 743.59,-117.28 742.44,-110.38"/>
</g>
<!-- Node8&#45;&gt;Node165 -->
<g id="edge18" class="edge">
<title>Node8&#45;&gt;Node165</title>
<path fill="none" stroke="midnightblue" d="M743.19,-117C815.12,-110.12 963.91,-94.94 1089,-76 1092.02,-75.54 1095.14,-75.04 1098.27,-74.5"/>
<polygon fill="midnightblue" stroke="midnightblue" points="742.77,-113.53 733.15,-117.96 743.43,-120.5 742.77,-113.53"/>
</g>
<!-- Node23&#45;&gt;Node38 -->
<g id="edge11" class="edge">
<title>Node23&#45;&gt;Node38</title>
<path fill="none" stroke="midnightblue" d="M678.85,-47.27C683.97,-38.05 690.02,-27.17 694.14,-19.75"/>
<polygon fill="midnightblue" stroke="midnightblue" points="675.75,-45.64 673.95,-56.08 681.87,-49.04 675.75,-45.64"/>
</g>
<!-- Node196&#45;&gt;Node23 -->
<g id="edge30" class="edge">
<title>Node196&#45;&gt;Node23</title>
<path fill="none" stroke="midnightblue" d="M624.75,-105.54C635.81,-95.91 649.63,-83.87 658.86,-75.83"/>
<polygon fill="midnightblue" stroke="midnightblue" points="622.2,-103.12 616.96,-112.32 626.8,-108.4 622.2,-103.12"/>
</g>
<!-- Node196&#45;&gt;Node88 -->
<g id="edge31" class="edge">
<title>Node196&#45;&gt;Node88</title>
<path fill="none" stroke="midnightblue" d="M597.32,-102.98C592.4,-93.82 586.64,-83.09 582.7,-75.75"/>
<polygon fill="midnightblue" stroke="midnightblue" points="594.4,-104.93 602.21,-112.08 600.56,-101.62 594.4,-104.93"/>
</g>
<!-- Node198&#45;&gt;Node70 -->
<g id="edge34" class="edge">
<title>Node198&#45;&gt;Node70</title>
<path fill="none" stroke="midnightblue" d="M2042.94,-110.54C1990.21,-100.33 1911,-85 1862,-75.52"/>
<polygon fill="midnightblue" stroke="midnightblue" points="2042.31,-113.98 2052.79,-112.44 2043.64,-107.11 2042.31,-113.98"/>
</g>
<!-- Node198&#45;&gt;Node202 -->
<g id="edge35" class="edge">
<title>Node198&#45;&gt;Node202</title>
<path fill="none" stroke="midnightblue" d="M2066.78,-108.64C2042.01,-98.5 2007.6,-84.43 1985.82,-75.52"/>
<polygon fill="midnightblue" stroke="midnightblue" points="2065.5,-111.9 2076.08,-112.44 2068.15,-105.42 2065.5,-111.9"/>
</g>
<!-- Node198&#45;&gt;Node203 -->
<g id="edge36" class="edge">
<title>Node198&#45;&gt;Node203</title>
<path fill="none" stroke="midnightblue" d="M2097,-101.8C2097,-92.91 2097,-82.78 2097,-75.75"/>
<polygon fill="midnightblue" stroke="midnightblue" points="2093.5,-102.08 2097,-112.08 2100.5,-102.08 2093.5,-102.08"/>
</g>
<!-- Node198&#45;&gt;Node204 -->
<g id="edge37" class="edge">
<title>Node198&#45;&gt;Node204</title>
<path fill="none" stroke="midnightblue" d="M2125.77,-108.37C2148.81,-98.26 2180.48,-84.35 2200.6,-75.52"/>
<polygon fill="midnightblue" stroke="midnightblue" points="2124.24,-105.22 2116.49,-112.44 2127.05,-111.63 2124.24,-105.22"/>
</g>
<!-- Node198&#45;&gt;Node206 -->
<g id="edge38" class="edge">
<title>Node198&#45;&gt;Node206</title>
<path fill="none" stroke="midnightblue" d="M2145.83,-110.28C2192.32,-100.08 2261.36,-84.92 2304.2,-75.52"/>
<polygon fill="midnightblue" stroke="midnightblue" points="2145,-106.88 2135.98,-112.44 2146.5,-113.72 2145,-106.88"/>
</g>
<!-- Node198&#45;&gt;Node208 -->
<g id="edge39" class="edge">
<title>Node198&#45;&gt;Node208</title>
<path fill="none" stroke="midnightblue" d="M2165.34,-114.65C2286.24,-103.41 2534.49,-80.34 2634.67,-71.03"/>
<polygon fill="midnightblue" stroke="midnightblue" points="2164.73,-111.19 2155.1,-115.6 2165.38,-118.16 2164.73,-111.19"/>
</g>
<!-- Node229&#45;&gt;Node102 -->
<g id="edge53" class="edge">
<title>Node229&#45;&gt;Node102</title>
<path fill="none" stroke="midnightblue" d="M1726.54,-102.69C1722.83,-93.59 1718.52,-83.01 1715.57,-75.75"/>
<polygon fill="midnightblue" stroke="midnightblue" points="1723.35,-104.14 1730.37,-112.08 1729.84,-101.5 1723.35,-104.14"/>
</g>
</g>
</svg>
        <g id="navigator" transform="translate(0 0)" fill="#404254">
                <rect fill="#f2f5e9" fill-opacity="0.5" stroke="#606060" stroke-width=".5" x="0" y="0" width="60" height="60"/>
                <use id="zoomplus" xlink:href="#zoomPlus" x="17" y="9" onmousedown="handleZoom(evt,'in')"/>
                <use id="zoomminus" xlink:href="#zoomMin" x="42" y="9" onmousedown="handleZoom(evt,'out')"/>
                <use id="reset" xlink:href="#resetDef" x="30" y="36" onmousedown="handleReset()"/>
                <g id="arrowUp" xlink:href="#dirArrow" transform="translate(30 24)" onmousedown="handlePan(0,-1)">
                  <use xlink:href="#rim" fill="#404040">
                        <set attributeName="fill" to="#808080" begin="arrowUp.mouseover" end="arrowUp.mouseout"/>
                  </use>
                  <path fill="none" stroke="white" stroke-width="1.5" d="M0,-3.0v7 M-2.5,-0.5L0,-3.0L2.5,-0.5"/>
                </g>
                <g id="arrowRight" xlink:href="#dirArrow" transform="rotate(90) translate(36 -43)" onmousedown="handlePan(1,0)">
                  <use xlink:href="#rim" fill="#404040">
                        <set attributeName="fill" to="#808080" begin="arrowRight.mouseover" end="arrowRight.mouseout"/>
                  </use>
                  <path fill="none" stroke="white" stroke-width="1.5" d="M0,-3.0v7 M-2.5,-0.5L0,-3.0L2.5,-0.5"/>
                </g>
                <g id="arrowDown" xlink:href="#dirArrow" transform="rotate(180) translate(-30 -48)" onmousedown="handlePan(0,1)">
                  <use xlink:href="#rim" fill="#404040">
                        <set attributeName="fill" to="#808080" begin="arrowDown.mouseover" end="arrowDown.mouseout"/>
                  </use>
                  <path fill="none" stroke="white" stroke-width="1.5" d="M0,-3.0v7 M-2.5,-0.5L0,-3.0L2.5,-0.5"/>
                </g>
                <g id="arrowLeft" xlink:href="#dirArrow" transform="rotate(270) translate(-36 17)" onmousedown="handlePan(-1,0)">
                  <use xlink:href="#rim" fill="#404040">
                        <set attributeName="fill" to="#808080" begin="arrowLeft.mouseover" end="arrowLeft.mouseout"/>
                  </use>
                  <path fill="none" stroke="white" stroke-width="1.5" d="M0,-3.0v7 M-2.5,-0.5L0,-3.0L2.5,-0.5"/>
                </g>
        </g>
        <svg viewBox="0 0 15 15" width="100%" height="30px" preserveAspectRatio="xMaxYMin meet">
         <g id="arrow_out" transform="scale(0.3 0.3)">
          <a xlink:href="_field_repo_8_h__dep__incl_org.svg" target="_base">
           <rect id="button" ry="5" rx="5" y="6" x="6" height="38" width="38"
                fill="#f2f5e9" fill-opacity="0.5" stroke="#606060" stroke-width="1.0"/>
           <path id="arrow"
             d="M 11.500037,31.436501 C 11.940474,20.09759 22.043105,11.32322 32.158766,21.979434 L 37.068811,17.246167 C 37.068811,17.246167 37.088388,32 37.088388,32 L 22.160133,31.978069 C 22.160133,31.978069 26.997745,27.140456 26.997745,27.140456 C 18.528582,18.264221 13.291696,25.230495 11.500037,31.436501 z"
             style="fill:#404040;"/>
          </a>
         </g>
        </svg>
</svg>
