<?xml version="1.0" encoding="UTF-8" standalone="no"?>
<!DOCTYPE svg PUBLIC "-//W3C//DTD SVG 1.1//EN"
 "http://www.w3.org/Graphics/SVG/1.1/DTD/svg11.dtd">
<!-- Generated by graphviz version 2.43.0 (0)
 -->
<!-- Title: IntField.H Pages: 1 -->
<svg width="3671pt" height="196pt"
 viewBox="0.00 0.00 3670.50 196.00" xmlns="http://www.w3.org/2000/svg" xmlns:xlink="http://www.w3.org/1999/xlink">
<g id="graph0" class="graph" transform="scale(1 1) rotate(0) translate(4 192)">
<title>IntField.H</title>
<polygon fill="white" stroke="transparent" points="-4,4 -4,-192 3666.5,-192 3666.5,4 -4,4"/>
<!-- Node1 -->
<g id="node1" class="node">
<title>Node1</title>
<g id="a_node1"><a xlink:title=" ">
<polygon fill="#bfbfbf" stroke="black" points="793,-168.5 793,-187.5 856,-187.5 856,-168.5 793,-168.5"/>
<text text-anchor="middle" x="824.5" y="-175.5" font-family="Helvetica,sans-Serif" font-size="10.00">IntField.H</text>
</a>
</g>
</g>
<!-- Node2 -->
<g id="node2" class="node">
<title>Node2</title>
<g id="a_node2"><a xlink:href="_field_repo_8_h.html" target="_top" xlink:title=" ">
<polygon fill="white" stroke="black" points="1574,-112.5 1574,-131.5 1649,-131.5 1649,-112.5 1574,-112.5"/>
<text text-anchor="middle" x="1611.5" y="-119.5" font-family="Helvetica,sans-Serif" font-size="10.00">FieldRepo.H</text>
</a>
</g>
</g>
<!-- Node1&#45;&gt;Node2 -->
<g id="edge1" class="edge">
<title>Node1&#45;&gt;Node2</title>
<path fill="none" stroke="midnightblue" d="M866.49,-174.12C1004.45,-164.65 1442.49,-134.6 1573.89,-125.58"/>
<polygon fill="midnightblue" stroke="midnightblue" points="866.06,-170.64 856.33,-174.82 866.54,-177.62 866.06,-170.64"/>
</g>
<!-- Node192 -->
<g id="node22" class="node">
<title>Node192</title>
<g id="a_node22"><a xlink:href="_int_field_8cpp.html" target="_top" xlink:title=" ">
<polygon fill="white" stroke="black" points="0,-56.5 0,-75.5 73,-75.5 73,-56.5 0,-56.5"/>
<text text-anchor="middle" x="36.5" y="-63.5" font-family="Helvetica,sans-Serif" font-size="10.00">IntField.cpp</text>
</a>
</g>
</g>
<!-- Node1&#45;&gt;Node192 -->
<g id="edge67" class="edge">
<title>Node1&#45;&gt;Node192</title>
<path fill="none" stroke="midnightblue" d="M782.58,-171.83C669.94,-157.81 351.39,-117.35 87.5,-76 82.88,-75.28 78.03,-74.48 73.24,-73.66"/>
<polygon fill="midnightblue" stroke="midnightblue" points="782.47,-175.34 792.83,-173.1 783.34,-168.4 782.47,-175.34"/>
</g>
<!-- Node3 -->
<g id="node3" class="node">
<title>Node3</title>
<g id="a_node3"><a xlink:href="_b_c_interface_8cpp.html" target="_top" xlink:title=" ">
<polygon fill="white" stroke="black" points="1473.5,-0.5 1473.5,-19.5 1567.5,-19.5 1567.5,-0.5 1473.5,-0.5"/>
<text text-anchor="middle" x="1520.5" y="-7.5" font-family="Helvetica,sans-Serif" font-size="10.00">BCInterface.cpp</text>
</a>
</g>
</g>
<!-- Node2&#45;&gt;Node3 -->
<g id="edge2" class="edge">
<title>Node2&#45;&gt;Node3</title>
<path fill="none" stroke="midnightblue" d="M1609.62,-102.2C1607.43,-88.27 1602.7,-69.46 1592.5,-56 1579.68,-39.08 1558.5,-26.96 1542.43,-19.59"/>
<polygon fill="midnightblue" stroke="midnightblue" points="1606.15,-102.65 1610.89,-112.12 1613.1,-101.76 1606.15,-102.65"/>
</g>
<!-- Node4 -->
<g id="node4" class="node">
<title>Node4</title>
<g id="a_node4"><a xlink:href="_fixed_gradient_b_c_8_h.html" target="_top" xlink:title=" ">
<polygon fill="white" stroke="black" points="1475.5,-56.5 1475.5,-75.5 1583.5,-75.5 1583.5,-56.5 1475.5,-56.5"/>
<text text-anchor="middle" x="1529.5" y="-63.5" font-family="Helvetica,sans-Serif" font-size="10.00">FixedGradientBC.H</text>
</a>
</g>
</g>
<!-- Node2&#45;&gt;Node4 -->
<g id="edge3" class="edge">
<title>Node2&#45;&gt;Node4</title>
<path fill="none" stroke="midnightblue" d="M1589.67,-106.62C1574.69,-96.76 1555.3,-83.99 1542.64,-75.65"/>
<polygon fill="midnightblue" stroke="midnightblue" points="1588.05,-109.75 1598.33,-112.32 1591.9,-103.9 1588.05,-109.75"/>
</g>
<!-- Node6 -->
<g id="node6" class="node">
<title>Node6</title>
<g id="a_node6"><a xlink:href="velocity__bcs_8_h.html" target="_top" xlink:title=" ">
<polygon fill="white" stroke="black" points="3574.5,-56.5 3574.5,-75.5 3662.5,-75.5 3662.5,-56.5 3574.5,-56.5"/>
<text text-anchor="middle" x="3618.5" y="-63.5" font-family="Helvetica,sans-Serif" font-size="10.00">velocity_bcs.H</text>
</a>
</g>
</g>
<!-- Node2&#45;&gt;Node6 -->
<g id="edge6" class="edge">
<title>Node2&#45;&gt;Node6</title>
<path fill="none" stroke="midnightblue" d="M1659.67,-120.74C1921.39,-119.22 3174.77,-110.23 3560.5,-76 3564.97,-75.6 3569.61,-75.08 3574.24,-74.48"/>
<polygon fill="midnightblue" stroke="midnightblue" points="1659.35,-117.25 1649.37,-120.8 1659.39,-124.25 1659.35,-117.25"/>
</g>
<!-- Node9 -->
<g id="node8" class="node">
<title>Node9</title>
<g id="a_node8"><a xlink:href="_c_f_d_sim_8_h.html" target="_top" xlink:title=" ">
<polygon fill="white" stroke="red" points="363.5,-56.5 363.5,-75.5 429.5,-75.5 429.5,-56.5 363.5,-56.5"/>
<text text-anchor="middle" x="396.5" y="-63.5" font-family="Helvetica,sans-Serif" font-size="10.00">CFDSim.H</text>
</a>
</g>
</g>
<!-- Node2&#45;&gt;Node9 -->
<g id="edge8" class="edge">
<title>Node2&#45;&gt;Node9</title>
<path fill="none" stroke="midnightblue" d="M1563.7,-120.12C1372.97,-116.46 665.98,-101.44 443.5,-76 438.96,-75.48 434.2,-74.77 429.53,-73.97"/>
<polygon fill="midnightblue" stroke="midnightblue" points="1563.89,-123.62 1573.95,-120.32 1564.02,-116.63 1563.89,-123.62"/>
</g>
<!-- Node11 -->
<g id="node10" class="node">
<title>Node11</title>
<g id="a_node10"><a xlink:href="incflo_8_h.html" target="_top" xlink:title=" ">
<polygon fill="white" stroke="red" points="40,-0.5 40,-19.5 93,-19.5 93,-0.5 40,-0.5"/>
<text text-anchor="middle" x="66.5" y="-7.5" font-family="Helvetica,sans-Serif" font-size="10.00">incflo.H</text>
</a>
</g>
</g>
<!-- Node2&#45;&gt;Node11 -->
<g id="edge27" class="edge">
<title>Node2&#45;&gt;Node11</title>
<path fill="none" stroke="midnightblue" d="M1563.79,-120.66C1316.23,-118.76 186.79,-108.34 120.5,-76 95.71,-63.91 78.21,-34.52 70.66,-19.76"/>
<polygon fill="midnightblue" stroke="midnightblue" points="1563.88,-124.16 1573.91,-120.74 1563.93,-117.16 1563.88,-124.16"/>
</g>
<!-- Node89 -->
<g id="node12" class="node">
<title>Node89</title>
<g id="a_node12"><a xlink:href="_p_d_e_base_8cpp.html" target="_top" xlink:title=" ">
<polygon fill="white" stroke="black" points="176.5,-0.5 176.5,-19.5 256.5,-19.5 256.5,-0.5 176.5,-0.5"/>
<text text-anchor="middle" x="216.5" y="-7.5" font-family="Helvetica,sans-Serif" font-size="10.00">PDEBase.cpp</text>
</a>
</g>
</g>
<!-- Node2&#45;&gt;Node89 -->
<g id="edge45" class="edge">
<title>Node2&#45;&gt;Node89</title>
<path fill="none" stroke="midnightblue" d="M1563.47,-120.73C1328.54,-119.26 309.49,-110.86 252.5,-76 231.81,-63.34 222.09,-34.22 218.39,-19.64"/>
<polygon fill="midnightblue" stroke="midnightblue" points="1563.72,-124.23 1573.74,-120.8 1563.76,-117.23 1563.72,-124.23"/>
</g>
<!-- Node103 -->
<g id="node13" class="node">
<title>Node103</title>
<g id="a_node13"><a xlink:href="_i_b_8cpp.html" target="_top" xlink:title=" ">
<polygon fill="white" stroke="black" points="111,-0.5 111,-19.5 158,-19.5 158,-0.5 111,-0.5"/>
<text text-anchor="middle" x="134.5" y="-7.5" font-family="Helvetica,sans-Serif" font-size="10.00">IB.cpp</text>
</a>
</g>
</g>
<!-- Node2&#45;&gt;Node103 -->
<g id="edge53" class="edge">
<title>Node2&#45;&gt;Node103</title>
<path fill="none" stroke="midnightblue" d="M1563.66,-121.03C1334.88,-120.95 358.28,-118.15 229.5,-76 193.79,-64.31 159.3,-34.74 143.49,-19.85"/>
<polygon fill="midnightblue" stroke="midnightblue" points="1563.67,-124.53 1573.67,-121.03 1563.67,-117.53 1563.67,-124.53"/>
</g>
<!-- Node106 -->
<g id="node14" class="node">
<title>Node106</title>
<g id="a_node14"><a xlink:href="_tioga_interface_8cpp.html" target="_top" xlink:title=" ">
<polygon fill="white" stroke="black" points="453,-0.5 453,-19.5 560,-19.5 560,-0.5 453,-0.5"/>
<text text-anchor="middle" x="506.5" y="-7.5" font-family="Helvetica,sans-Serif" font-size="10.00">TiogaInterface.cpp</text>
</a>
</g>
</g>
<!-- Node2&#45;&gt;Node106 -->
<g id="edge54" class="edge">
<title>Node2&#45;&gt;Node106</title>
<path fill="none" stroke="midnightblue" d="M1563.76,-121.1C1371.07,-121.2 656.5,-118.66 565.5,-76 539.56,-63.84 519.9,-34.48 511.29,-19.75"/>
<polygon fill="midnightblue" stroke="midnightblue" points="1563.86,-124.6 1573.86,-121.09 1563.86,-117.6 1563.86,-124.6"/>
</g>
<!-- Node136 -->
<g id="node15" class="node">
<title>Node136</title>
<g id="a_node15"><a xlink:href="_re_averaging_8cpp.html" target="_top" xlink:title=" ">
<polygon fill="white" stroke="black" points="578.5,-0.5 578.5,-19.5 676.5,-19.5 676.5,-0.5 578.5,-0.5"/>
<text text-anchor="middle" x="627.5" y="-7.5" font-family="Helvetica,sans-Serif" font-size="10.00">ReAveraging.cpp</text>
</a>
</g>
</g>
<!-- Node2&#45;&gt;Node136 -->
<g id="edge61" class="edge">
<title>Node2&#45;&gt;Node136</title>
<path fill="none" stroke="midnightblue" d="M1563.72,-120.74C1364.55,-119.44 609.11,-112.14 574.5,-76 556.27,-56.96 590.31,-32.35 611.83,-19.57"/>
<polygon fill="midnightblue" stroke="midnightblue" points="1563.85,-124.24 1573.87,-120.81 1563.89,-117.24 1563.85,-124.24"/>
</g>
<!-- Node137 -->
<g id="node16" class="node">
<title>Node137</title>
<g id="a_node16"><a xlink:href="_reynolds_stress_8cpp.html" target="_top" xlink:title=" ">
<polygon fill="white" stroke="black" points="694.5,-0.5 694.5,-19.5 806.5,-19.5 806.5,-0.5 694.5,-0.5"/>
<text text-anchor="middle" x="750.5" y="-7.5" font-family="Helvetica,sans-Serif" font-size="10.00">ReynoldsStress.cpp</text>
</a>
</g>
</g>
<!-- Node2&#45;&gt;Node137 -->
<g id="edge62" class="edge">
<title>Node2&#45;&gt;Node137</title>
<path fill="none" stroke="midnightblue" d="M1563.76,-120.73C1365.62,-119.36 616.82,-111.85 582.5,-76 576.35,-69.58 577.09,-63.05 582.5,-56 596.19,-38.15 650.86,-25.84 694.16,-18.66"/>
<polygon fill="midnightblue" stroke="midnightblue" points="1563.83,-124.23 1573.86,-120.79 1563.88,-117.23 1563.83,-124.23"/>
</g>
<!-- Node166 -->
<g id="node17" class="node">
<title>Node166</title>
<g id="a_node17"><a xlink:href="_actuator_8cpp.html" target="_top" xlink:title=" ">
<polygon fill="white" stroke="black" points="825,-0.5 825,-19.5 902,-19.5 902,-0.5 825,-0.5"/>
<text text-anchor="middle" x="863.5" y="-7.5" font-family="Helvetica,sans-Serif" font-size="10.00">Actuator.cpp</text>
</a>
</g>
</g>
<!-- Node2&#45;&gt;Node166 -->
<g id="edge66" class="edge">
<title>Node2&#45;&gt;Node166</title>
<path fill="none" stroke="midnightblue" d="M1563.8,-120.71C1366.71,-119.28 624.53,-111.56 590.5,-76 584.35,-69.58 584.73,-62.76 590.5,-56 623.36,-17.47 765.61,-28.67 815.5,-20 818.51,-19.48 821.62,-18.92 824.74,-18.36"/>
<polygon fill="midnightblue" stroke="midnightblue" points="1563.83,-124.21 1573.85,-120.78 1563.88,-117.21 1563.83,-124.21"/>
</g>
<!-- Node181 -->
<g id="node18" class="node">
<title>Node181</title>
<g id="a_node18"><a xlink:href="_godunov_8_h.html" target="_top" xlink:title=" ">
<polygon fill="white" stroke="red" points="599.5,-56.5 599.5,-75.5 669.5,-75.5 669.5,-56.5 599.5,-56.5"/>
<text text-anchor="middle" x="634.5" y="-63.5" font-family="Helvetica,sans-Serif" font-size="10.00">Godunov.H</text>
</a>
</g>
</g>
<!-- Node2&#45;&gt;Node181 -->
<g id="edge18" class="edge">
<title>Node2&#45;&gt;Node181</title>
<path fill="none" stroke="midnightblue" d="M1563.78,-121.28C1425.96,-121.52 1015.66,-118.36 678.5,-76 675.71,-75.65 672.84,-75.22 669.96,-74.74"/>
<polygon fill="midnightblue" stroke="midnightblue" points="1564,-124.78 1573.99,-121.25 1563.98,-117.78 1564,-124.78"/>
</g>
<!-- Node187 -->
<g id="node19" class="node">
<title>Node187</title>
<g id="a_node19"><a xlink:href="_m_o_l_8_h.html" target="_top" xlink:title=" ">
<polygon fill="white" stroke="red" points="688,-56.5 688,-75.5 737,-75.5 737,-56.5 688,-56.5"/>
<text text-anchor="middle" x="712.5" y="-63.5" font-family="Helvetica,sans-Serif" font-size="10.00">MOL.H</text>
</a>
</g>
</g>
<!-- Node2&#45;&gt;Node187 -->
<g id="edge19" class="edge">
<title>Node2&#45;&gt;Node187</title>
<path fill="none" stroke="midnightblue" d="M1563.39,-119.81C1405.77,-115.69 905.89,-100.97 746.5,-76 743.48,-75.53 740.35,-74.9 737.26,-74.19"/>
<polygon fill="midnightblue" stroke="midnightblue" points="1563.62,-123.31 1573.71,-120.07 1563.8,-116.32 1563.62,-123.31"/>
</g>
<!-- Node190 -->
<g id="node20" class="node">
<title>Node190</title>
<g id="a_node20"><a xlink:href="_field_8cpp.html" target="_top" xlink:title=" ">
<polygon fill="white" stroke="black" points="755.5,-56.5 755.5,-75.5 815.5,-75.5 815.5,-56.5 755.5,-56.5"/>
<text text-anchor="middle" x="785.5" y="-63.5" font-family="Helvetica,sans-Serif" font-size="10.00">Field.cpp</text>
</a>
</g>
</g>
<!-- Node2&#45;&gt;Node190 -->
<g id="edge20" class="edge">
<title>Node2&#45;&gt;Node190</title>
<path fill="none" stroke="midnightblue" d="M1563.79,-121.08C1440.7,-120.68 1102.59,-115.74 824.5,-76 821.61,-75.59 818.62,-75.07 815.64,-74.49"/>
<polygon fill="midnightblue" stroke="midnightblue" points="1563.99,-124.58 1574,-121.11 1564.01,-117.58 1563.99,-124.58"/>
</g>
<!-- Node191 -->
<g id="node21" class="node">
<title>Node191</title>
<g id="a_node21"><a xlink:href="_field_repo_8cpp.html" target="_top" xlink:title=" ">
<polygon fill="white" stroke="black" points="834,-56.5 834,-75.5 919,-75.5 919,-56.5 834,-56.5"/>
<text text-anchor="middle" x="876.5" y="-63.5" font-family="Helvetica,sans-Serif" font-size="10.00">FieldRepo.cpp</text>
</a>
</g>
</g>
<!-- Node2&#45;&gt;Node191 -->
<g id="edge21" class="edge">
<title>Node2&#45;&gt;Node191</title>
<path fill="none" stroke="midnightblue" d="M1563.74,-119.59C1452.19,-115.91 1165.98,-104.29 928.5,-76 925.41,-75.63 922.22,-75.2 919.01,-74.73"/>
<polygon fill="midnightblue" stroke="midnightblue" points="1563.88,-123.09 1573.98,-119.92 1564.1,-116.1 1563.88,-123.09"/>
</g>
<!-- Node2&#45;&gt;Node192 -->
<g id="edge22" class="edge">
<title>Node2&#45;&gt;Node192</title>
<path fill="none" stroke="midnightblue" d="M1563.8,-120.52C1339.03,-118.14 384.13,-106.39 87.5,-76 82.85,-75.52 77.98,-74.87 73.18,-74.13"/>
<polygon fill="midnightblue" stroke="midnightblue" points="1563.91,-124.03 1573.95,-120.63 1563.98,-117.03 1563.91,-124.03"/>
</g>
<!-- Node193 -->
<g id="node23" class="node">
<title>Node193</title>
<g id="a_node23"><a xlink:href="_scratch_field_8cpp.html" target="_top" xlink:title=" ">
<polygon fill="white" stroke="black" points="937.5,-56.5 937.5,-75.5 1033.5,-75.5 1033.5,-56.5 937.5,-56.5"/>
<text text-anchor="middle" x="985.5" y="-63.5" font-family="Helvetica,sans-Serif" font-size="10.00">ScratchField.cpp</text>
</a>
</g>
</g>
<!-- Node2&#45;&gt;Node193 -->
<g id="edge23" class="edge">
<title>Node2&#45;&gt;Node193</title>
<path fill="none" stroke="midnightblue" d="M1563.6,-118.47C1465.56,-113.02 1235.01,-98.78 1042.5,-76 1039.61,-75.66 1036.65,-75.28 1033.67,-74.87"/>
<polygon fill="midnightblue" stroke="midnightblue" points="1563.61,-121.98 1573.78,-119.03 1563.99,-114.99 1563.61,-121.98"/>
</g>
<!-- Node194 -->
<g id="node24" class="node">
<title>Node194</title>
<g id="a_node24"><a xlink:href="_view_field_8cpp.html" target="_top" xlink:title=" ">
<polygon fill="white" stroke="black" points="1051.5,-56.5 1051.5,-75.5 1135.5,-75.5 1135.5,-56.5 1051.5,-56.5"/>
<text text-anchor="middle" x="1093.5" y="-63.5" font-family="Helvetica,sans-Serif" font-size="10.00">ViewField.cpp</text>
</a>
</g>
</g>
<!-- Node2&#45;&gt;Node194 -->
<g id="edge24" class="edge">
<title>Node2&#45;&gt;Node194</title>
<path fill="none" stroke="midnightblue" d="M1563.78,-117.65C1479.1,-111.42 1297.13,-96.79 1144.5,-76 1141.65,-75.61 1138.71,-75.18 1135.76,-74.72"/>
<polygon fill="midnightblue" stroke="midnightblue" points="1563.63,-121.14 1573.85,-118.38 1564.13,-114.16 1563.63,-121.14"/>
</g>
<!-- Node195 -->
<g id="node25" class="node">
<title>Node195</title>
<g id="a_node25"><a xlink:href="field__algebra_8cpp.html" target="_top" xlink:title=" ">
<polygon fill="white" stroke="black" points="1153.5,-56.5 1153.5,-75.5 1253.5,-75.5 1253.5,-56.5 1153.5,-56.5"/>
<text text-anchor="middle" x="1203.5" y="-63.5" font-family="Helvetica,sans-Serif" font-size="10.00">field_algebra.cpp</text>
</a>
</g>
</g>
<!-- Node2&#45;&gt;Node195 -->
<g id="edge25" class="edge">
<title>Node2&#45;&gt;Node195</title>
<path fill="none" stroke="midnightblue" d="M1563.47,-115.16C1496.14,-106.9 1369.88,-91.11 1262.5,-76 1259.63,-75.6 1256.68,-75.17 1253.7,-74.74"/>
<polygon fill="midnightblue" stroke="midnightblue" points="1563.41,-118.68 1573.76,-116.42 1564.26,-111.73 1563.41,-118.68"/>
</g>
<!-- Node196 -->
<g id="node26" class="node">
<title>Node196</title>
<g id="a_node26"><a xlink:href="diffusion_8_h.html" target="_top" xlink:title=" ">
<polygon fill="white" stroke="red" points="1272,-56.5 1272,-75.5 1341,-75.5 1341,-56.5 1272,-56.5"/>
<text text-anchor="middle" x="1306.5" y="-63.5" font-family="Helvetica,sans-Serif" font-size="10.00">diffusion.H</text>
</a>
</g>
</g>
<!-- Node2&#45;&gt;Node196 -->
<g id="edge26" class="edge">
<title>Node2&#45;&gt;Node196</title>
<path fill="none" stroke="midnightblue" d="M1563.82,-113.24C1511.44,-104.6 1424.84,-90.01 1350.5,-76 1347.44,-75.42 1344.25,-74.81 1341.07,-74.18"/>
<polygon fill="midnightblue" stroke="midnightblue" points="1563.4,-116.71 1573.83,-114.88 1564.53,-109.81 1563.4,-116.71"/>
</g>
<!-- Node197 -->
<g id="node27" class="node">
<title>Node197</title>
<g id="a_node27"><a xlink:href="_p_d_e_helpers_8_h.html" target="_top" xlink:title=" ">
<polygon fill="white" stroke="red" points="261.5,-56.5 261.5,-75.5 345.5,-75.5 345.5,-56.5 261.5,-56.5"/>
<text text-anchor="middle" x="303.5" y="-63.5" font-family="Helvetica,sans-Serif" font-size="10.00">PDEHelpers.H</text>
</a>
</g>
</g>
<!-- Node2&#45;&gt;Node197 -->
<g id="edge28" class="edge">
<title>Node2&#45;&gt;Node197</title>
<path fill="none" stroke="midnightblue" d="M1563.7,-120.18C1364,-116.61 595.58,-101.46 354.5,-76 351.64,-75.7 348.7,-75.33 345.74,-74.92"/>
<polygon fill="midnightblue" stroke="midnightblue" points="1563.81,-123.68 1573.87,-120.36 1563.93,-116.68 1563.81,-123.68"/>
</g>
<!-- Node198 -->
<g id="node28" class="node">
<title>Node198</title>
<g id="a_node28"><a xlink:href="_density_source_8_h.html" target="_top" xlink:title=" ">
<polygon fill="white" stroke="red" points="1359.5,-56.5 1359.5,-75.5 1457.5,-75.5 1457.5,-56.5 1359.5,-56.5"/>
<text text-anchor="middle" x="1408.5" y="-63.5" font-family="Helvetica,sans-Serif" font-size="10.00">DensitySource.H</text>
</a>
</g>
</g>
<!-- Node2&#45;&gt;Node198 -->
<g id="edge31" class="edge">
<title>Node2&#45;&gt;Node198</title>
<path fill="none" stroke="midnightblue" d="M1569.51,-109.83C1531.18,-99.63 1475.35,-84.78 1440.52,-75.52"/>
<polygon fill="midnightblue" stroke="midnightblue" points="1568.77,-113.26 1579.33,-112.44 1570.57,-106.49 1568.77,-113.26"/>
</g>
<!-- Node199 -->
<g id="node29" class="node">
<title>Node199</title>
<g id="a_node29"><a xlink:href="_momentum_source_8_h.html" target="_top" xlink:title=" ">
<polygon fill="white" stroke="red" points="1753.5,-56.5 1753.5,-75.5 1869.5,-75.5 1869.5,-56.5 1753.5,-56.5"/>
<text text-anchor="middle" x="1811.5" y="-63.5" font-family="Helvetica,sans-Serif" font-size="10.00">MomentumSource.H</text>
</a>
</g>
</g>
<!-- Node2&#45;&gt;Node199 -->
<g id="edge32" class="edge">
<title>Node2&#45;&gt;Node199</title>
<path fill="none" stroke="midnightblue" d="M1652.87,-109.83C1690.64,-99.63 1745.64,-84.78 1779.96,-75.52"/>
<polygon fill="midnightblue" stroke="midnightblue" points="1651.93,-106.46 1643.19,-112.44 1653.76,-113.22 1651.93,-106.46"/>
</g>
<!-- Node71 -->
<g id="node30" class="node">
<title>Node71</title>
<g id="a_node30"><a xlink:href="_a_b_l_mean_boussinesq_8_h.html" target="_top" xlink:title=" ">
<polygon fill="white" stroke="red" points="1585.5,-0.5 1585.5,-19.5 1713.5,-19.5 1713.5,-0.5 1585.5,-0.5"/>
<text text-anchor="middle" x="1649.5" y="-7.5" font-family="Helvetica,sans-Serif" font-size="10.00">ABLMeanBoussinesq.H</text>
</a>
</g>
</g>
<!-- Node2&#45;&gt;Node71 -->
<g id="edge39" class="edge">
<title>Node2&#45;&gt;Node71</title>
<path fill="none" stroke="midnightblue" d="M1617.83,-102.67C1626.14,-78.62 1640.38,-37.39 1646.53,-19.59"/>
<polygon fill="midnightblue" stroke="midnightblue" points="1614.44,-101.77 1614.48,-112.37 1621.06,-104.06 1614.44,-101.77"/>
</g>
<!-- Node203 -->
<g id="node31" class="node">
<title>Node203</title>
<g id="a_node31"><a xlink:href="_boussinesq_buoyancy_8_h.html" target="_top" xlink:title=" ">
<polygon fill="white" stroke="red" points="1732,-0.5 1732,-19.5 1861,-19.5 1861,-0.5 1732,-0.5"/>
<text text-anchor="middle" x="1796.5" y="-7.5" font-family="Helvetica,sans-Serif" font-size="10.00">BoussinesqBuoyancy.H</text>
</a>
</g>
</g>
<!-- Node2&#45;&gt;Node203 -->
<g id="edge40" class="edge">
<title>Node2&#45;&gt;Node203</title>
<path fill="none" stroke="midnightblue" d="M1632.24,-106.74C1652.23,-93.18 1683.48,-72.48 1711.5,-56 1734.53,-42.46 1761.97,-28.26 1779.32,-19.52"/>
<polygon fill="midnightblue" stroke="midnightblue" points="1630.19,-103.9 1623.9,-112.42 1634.14,-109.68 1630.19,-103.9"/>
</g>
<!-- Node204 -->
<g id="node32" class="node">
<title>Node204</title>
<g id="a_node32"><a xlink:href="_coriolis_forcing_8_h.html" target="_top" xlink:title=" ">
<polygon fill="white" stroke="red" points="1879,-0.5 1879,-19.5 1978,-19.5 1978,-0.5 1879,-0.5"/>
<text text-anchor="middle" x="1928.5" y="-7.5" font-family="Helvetica,sans-Serif" font-size="10.00">CoriolisForcing.H</text>
</a>
</g>
</g>
<!-- Node2&#45;&gt;Node204 -->
<g id="edge41" class="edge">
<title>Node2&#45;&gt;Node204</title>
<path fill="none" stroke="midnightblue" d="M1641.34,-108.41C1661.19,-99.8 1687.71,-87.84 1710.5,-76 1726.06,-67.92 1728.26,-62.6 1744.5,-56 1788.38,-38.18 1841.11,-26.17 1878.85,-19.07"/>
<polygon fill="midnightblue" stroke="midnightblue" points="1639.7,-105.31 1631.9,-112.48 1642.47,-111.74 1639.7,-105.31"/>
</g>
<!-- Node205 -->
<g id="node33" class="node">
<title>Node205</title>
<g id="a_node33"><a xlink:href="_density_buoyancy_8_h.html" target="_top" xlink:title=" ">
<polygon fill="white" stroke="red" points="1996,-0.5 1996,-19.5 2107,-19.5 2107,-0.5 1996,-0.5"/>
<text text-anchor="middle" x="2051.5" y="-7.5" font-family="Helvetica,sans-Serif" font-size="10.00">DensityBuoyancy.H</text>
</a>
</g>
</g>
<!-- Node2&#45;&gt;Node205 -->
<g id="edge42" class="edge">
<title>Node2&#45;&gt;Node205</title>
<path fill="none" stroke="midnightblue" d="M1659.15,-117.55C1713.43,-112.58 1804.23,-101.08 1878.5,-76 1896.58,-69.89 1898.94,-63.49 1916.5,-56 1951.61,-41.03 1993.51,-27.74 2021.22,-19.55"/>
<polygon fill="midnightblue" stroke="midnightblue" points="1658.78,-114.07 1649.12,-118.43 1659.39,-121.04 1658.78,-114.07"/>
</g>
<!-- Node207 -->
<g id="node34" class="node">
<title>Node207</title>
<g id="a_node34"><a xlink:href="_gravity_forcing_8_h.html" target="_top" xlink:title=" ">
<polygon fill="white" stroke="red" points="2434.5,-0.5 2434.5,-19.5 2532.5,-19.5 2532.5,-0.5 2434.5,-0.5"/>
<text text-anchor="middle" x="2483.5" y="-7.5" font-family="Helvetica,sans-Serif" font-size="10.00">GravityForcing.H</text>
</a>
</g>
</g>
<!-- Node2&#45;&gt;Node207 -->
<g id="edge43" class="edge">
<title>Node2&#45;&gt;Node207</title>
<path fill="none" stroke="midnightblue" d="M1659.31,-120.77C1948.88,-119.25 3456.55,-109.75 3489.5,-76 3495.71,-69.64 3495.64,-62.42 3489.5,-56 3456.1,-21.08 2729.83,-12.91 2532.56,-11.33"/>
<polygon fill="midnightblue" stroke="midnightblue" points="1659.12,-117.27 1649.14,-120.82 1659.16,-124.27 1659.12,-117.27"/>
</g>
<!-- Node209 -->
<g id="node35" class="node">
<title>Node209</title>
<g id="a_node35"><a xlink:href="_m_m_s_forcing_8_h.html" target="_top" xlink:title=" ">
<polygon fill="white" stroke="red" points="3167.5,-0.5 3167.5,-19.5 3253.5,-19.5 3253.5,-0.5 3167.5,-0.5"/>
<text text-anchor="middle" x="3210.5" y="-7.5" font-family="Helvetica,sans-Serif" font-size="10.00">MMSForcing.H</text>
</a>
</g>
</g>
<!-- Node2&#45;&gt;Node209 -->
<g id="edge55" class="edge">
<title>Node2&#45;&gt;Node209</title>
<path fill="none" stroke="midnightblue" d="M1659.26,-120.78C1950.13,-119.32 3472.25,-110.05 3505.5,-76 3511.71,-69.64 3511.29,-62.74 3505.5,-56 3473.56,-18.81 3327.62,-12.02 3253.69,-11"/>
<polygon fill="midnightblue" stroke="midnightblue" points="1659.02,-117.28 1649.04,-120.83 1659.06,-124.28 1659.02,-117.28"/>
</g>
<!-- Node210 -->
<g id="node36" class="node">
<title>Node210</title>
<g id="a_node36"><a xlink:href="_source_term_8_h.html" target="_top" xlink:title=" ">
<polygon fill="white" stroke="red" points="1925.5,-56.5 1925.5,-75.5 2009.5,-75.5 2009.5,-56.5 1925.5,-56.5"/>
<text text-anchor="middle" x="1967.5" y="-63.5" font-family="Helvetica,sans-Serif" font-size="10.00">SourceTerm.H</text>
</a>
</g>
</g>
<!-- Node2&#45;&gt;Node210 -->
<g id="edge44" class="edge">
<title>Node2&#45;&gt;Node210</title>
<path fill="none" stroke="midnightblue" d="M1659.59,-113.95C1718.86,-105.21 1822.64,-89.8 1911.5,-76 1915.98,-75.3 1920.65,-74.57 1925.31,-73.83"/>
<polygon fill="midnightblue" stroke="midnightblue" points="1658.79,-110.52 1649.41,-115.44 1659.81,-117.45 1658.79,-110.52"/>
</g>
<!-- Node211 -->
<g id="node37" class="node">
<title>Node211</title>
<g id="a_node37"><a xlink:href="_s_d_r_source_8_h.html" target="_top" xlink:title=" ">
<polygon fill="white" stroke="red" points="2027.5,-56.5 2027.5,-75.5 2107.5,-75.5 2107.5,-56.5 2027.5,-56.5"/>
<text text-anchor="middle" x="2067.5" y="-63.5" font-family="Helvetica,sans-Serif" font-size="10.00">SDRSource.H</text>
</a>
</g>
</g>
<!-- Node2&#45;&gt;Node211 -->
<g id="edge46" class="edge">
<title>Node2&#45;&gt;Node211</title>
<path fill="none" stroke="midnightblue" d="M1659.45,-116.82C1735.69,-109.92 1889.19,-95 2018.5,-76 2021.41,-75.57 2024.41,-75.1 2027.43,-74.6"/>
<polygon fill="midnightblue" stroke="midnightblue" points="1658.86,-113.36 1649.21,-117.74 1659.48,-120.33 1658.86,-113.36"/>
</g>
<!-- Node213 -->
<g id="node38" class="node">
<title>Node213</title>
<g id="a_node38"><a xlink:href="_temperature_source_8_h.html" target="_top" xlink:title=" ">
<polygon fill="white" stroke="red" points="2125.5,-56.5 2125.5,-75.5 2247.5,-75.5 2247.5,-56.5 2125.5,-56.5"/>
<text text-anchor="middle" x="2186.5" y="-63.5" font-family="Helvetica,sans-Serif" font-size="10.00">TemperatureSource.H</text>
</a>
</g>
</g>
<!-- Node2&#45;&gt;Node213 -->
<g id="edge47" class="edge">
<title>Node2&#45;&gt;Node213</title>
<path fill="none" stroke="midnightblue" d="M1659.38,-117.36C1749.14,-110.39 1948.79,-94.25 2116.5,-76 2119.42,-75.68 2122.41,-75.34 2125.43,-74.99"/>
<polygon fill="midnightblue" stroke="midnightblue" points="1658.94,-113.88 1649.24,-118.14 1659.48,-120.86 1658.94,-113.88"/>
</g>
<!-- Node214 -->
<g id="node39" class="node">
<title>Node214</title>
<g id="a_node39"><a xlink:href="_t_k_e_source_8_h.html" target="_top" xlink:title=" ">
<polygon fill="white" stroke="red" points="2266,-56.5 2266,-75.5 2345,-75.5 2345,-56.5 2266,-56.5"/>
<text text-anchor="middle" x="2305.5" y="-63.5" font-family="Helvetica,sans-Serif" font-size="10.00">TKESource.H</text>
</a>
</g>
</g>
<!-- Node2&#45;&gt;Node214 -->
<g id="edge48" class="edge">
<title>Node2&#45;&gt;Node214</title>
<path fill="none" stroke="midnightblue" d="M1659.25,-119.5C1766.44,-115.73 2034.21,-104.08 2256.5,-76 2259.59,-75.61 2262.78,-75.15 2265.98,-74.65"/>
<polygon fill="midnightblue" stroke="midnightblue" points="1658.96,-116.01 1649.09,-119.85 1659.2,-123 1658.96,-116.01"/>
</g>
<!-- Node218 -->
<g id="node40" class="node">
<title>Node218</title>
<g id="a_node40"><a xlink:href="_split_advection_8_h.html" target="_top" xlink:title=" ">
<polygon fill="white" stroke="red" points="2362.5,-56.5 2362.5,-75.5 2460.5,-75.5 2460.5,-56.5 2362.5,-56.5"/>
<text text-anchor="middle" x="2411.5" y="-63.5" font-family="Helvetica,sans-Serif" font-size="10.00">SplitAdvection.H</text>
</a>
</g>
</g>
<!-- Node2&#45;&gt;Node218 -->
<g id="edge49" class="edge">
<title>Node2&#45;&gt;Node218</title>
<path fill="none" stroke="midnightblue" d="M1659.19,-119.65C1777.2,-115.98 2092.25,-104.13 2353.5,-76 2356.44,-75.68 2359.45,-75.32 2362.49,-74.93"/>
<polygon fill="midnightblue" stroke="midnightblue" points="1658.94,-116.16 1649.05,-119.96 1659.15,-123.15 1658.94,-116.16"/>
</g>
<!-- Node220 -->
<g id="node41" class="node">
<title>Node220</title>
<g id="a_node41"><a xlink:href="fvm__utils_8_h.html" target="_top" xlink:title=" ">
<polygon fill="white" stroke="red" points="2479,-56.5 2479,-75.5 2552,-75.5 2552,-56.5 2479,-56.5"/>
<text text-anchor="middle" x="2515.5" y="-63.5" font-family="Helvetica,sans-Serif" font-size="10.00">fvm_utils.H</text>
</a>
</g>
</g>
<!-- Node2&#45;&gt;Node220 -->
<g id="edge50" class="edge">
<title>Node2&#45;&gt;Node220</title>
<path fill="none" stroke="midnightblue" d="M1659.36,-120.85C1789.83,-119.92 2162.49,-113.89 2469.5,-76 2472.57,-75.62 2475.74,-75.16 2478.92,-74.64"/>
<polygon fill="midnightblue" stroke="midnightblue" points="1659.28,-117.35 1649.3,-120.91 1659.32,-124.35 1659.28,-117.35"/>
</g>
<!-- Node230 -->
<g id="node42" class="node">
<title>Node230</title>
<g id="a_node42"><a xlink:href="_i_b_8_h.html" target="_top" xlink:title=" ">
<polygon fill="white" stroke="red" points="130,-56.5 130,-75.5 167,-75.5 167,-56.5 130,-56.5"/>
<text text-anchor="middle" x="148.5" y="-63.5" font-family="Helvetica,sans-Serif" font-size="10.00">IB.H</text>
</a>
</g>
</g>
<!-- Node2&#45;&gt;Node230 -->
<g id="edge51" class="edge">
<title>Node2&#45;&gt;Node230</title>
<path fill="none" stroke="midnightblue" d="M1563.9,-121C1347.71,-120.78 457.02,-117.32 181.5,-76 176.8,-75.3 171.82,-74.15 167.18,-72.91"/>
<polygon fill="midnightblue" stroke="midnightblue" points="1563.97,-124.5 1573.97,-121.01 1563.97,-117.5 1563.97,-124.5"/>
</g>
<!-- Node231 -->
<g id="node43" class="node">
<title>Node231</title>
<g id="a_node43"><a xlink:href="_linear_profile_8cpp.html" target="_top" xlink:title=" ">
<polygon fill="white" stroke="black" points="2570.5,-56.5 2570.5,-75.5 2668.5,-75.5 2668.5,-56.5 2570.5,-56.5"/>
<text text-anchor="middle" x="2619.5" y="-63.5" font-family="Helvetica,sans-Serif" font-size="10.00">LinearProfile.cpp</text>
</a>
</g>
</g>
<!-- Node2&#45;&gt;Node231 -->
<g id="edge56" class="edge">
<title>Node2&#45;&gt;Node231</title>
<path fill="none" stroke="midnightblue" d="M1659.45,-120.49C1798.9,-118.61 2216.18,-110.33 2560.5,-76 2563.7,-75.68 2566.98,-75.31 2570.29,-74.9"/>
<polygon fill="midnightblue" stroke="midnightblue" points="1659.08,-116.99 1649.13,-120.62 1659.17,-123.99 1659.08,-116.99"/>
</g>
<!-- Node44 -->
<g id="node44" class="node">
<title>Node44</title>
<g id="a_node44"><a xlink:href="_power_law_profile_8cpp.html" target="_top" xlink:title=" ">
<polygon fill="white" stroke="black" points="2687,-56.5 2687,-75.5 2804,-75.5 2804,-56.5 2687,-56.5"/>
<text text-anchor="middle" x="2745.5" y="-63.5" font-family="Helvetica,sans-Serif" font-size="10.00">PowerLawProfile.cpp</text>
</a>
</g>
</g>
<!-- Node2&#45;&gt;Node44 -->
<g id="edge57" class="edge">
<title>Node2&#45;&gt;Node44</title>
<path fill="none" stroke="midnightblue" d="M1659.62,-120.5C1810.17,-118.61 2285.54,-110.14 2677.5,-76 2680.58,-75.73 2683.74,-75.42 2686.93,-75.09"/>
<polygon fill="midnightblue" stroke="midnightblue" points="1659.3,-117 1649.34,-120.63 1659.39,-124 1659.3,-117"/>
</g>
<!-- Node232 -->
<g id="node45" class="node">
<title>Node232</title>
<g id="a_node45"><a xlink:href="_u_d_f_8cpp.html" target="_top" xlink:title=" ">
<polygon fill="white" stroke="black" points="2822.5,-56.5 2822.5,-75.5 2878.5,-75.5 2878.5,-56.5 2822.5,-56.5"/>
<text text-anchor="middle" x="2850.5" y="-63.5" font-family="Helvetica,sans-Serif" font-size="10.00">UDF.cpp</text>
</a>
</g>
</g>
<!-- Node2&#45;&gt;Node232 -->
<g id="edge58" class="edge">
<title>Node2&#45;&gt;Node232</title>
<path fill="none" stroke="midnightblue" d="M1659.42,-120.45C1853.79,-118.04 2583.85,-107.06 2812.5,-76 2815.72,-75.56 2819.08,-74.97 2822.39,-74.3"/>
<polygon fill="midnightblue" stroke="midnightblue" points="1659.2,-116.96 1649.24,-120.58 1659.28,-123.95 1659.2,-116.96"/>
</g>
<!-- Node233 -->
<g id="node46" class="node">
<title>Node233</title>
<g id="a_node46"><a xlink:href="_transport_model_8_h.html" target="_top" xlink:title=" ">
<polygon fill="white" stroke="red" points="2896.5,-56.5 2896.5,-75.5 2998.5,-75.5 2998.5,-56.5 2896.5,-56.5"/>
<text text-anchor="middle" x="2947.5" y="-63.5" font-family="Helvetica,sans-Serif" font-size="10.00">TransportModel.H</text>
</a>
</g>
</g>
<!-- Node2&#45;&gt;Node233 -->
<g id="edge59" class="edge">
<title>Node2&#45;&gt;Node233</title>
<path fill="none" stroke="midnightblue" d="M1659.2,-121.27C1827.59,-121.8 2409.7,-120.12 2887.5,-76 2890.44,-75.73 2893.45,-75.41 2896.48,-75.06"/>
<polygon fill="midnightblue" stroke="midnightblue" points="1659.19,-117.77 1649.18,-121.23 1659.16,-124.77 1659.19,-117.77"/>
</g>
<!-- Node132 -->
<g id="node47" class="node">
<title>Node132</title>
<g id="a_node47"><a xlink:href="_smagorinsky_8_h.html" target="_top" xlink:title=" ">
<polygon fill="white" stroke="red" points="3017,-56.5 3017,-75.5 3106,-75.5 3106,-56.5 3017,-56.5"/>
<text text-anchor="middle" x="3061.5" y="-63.5" font-family="Helvetica,sans-Serif" font-size="10.00">Smagorinsky.H</text>
</a>
</g>
</g>
<!-- Node2&#45;&gt;Node132 -->
<g id="edge60" class="edge">
<title>Node2&#45;&gt;Node132</title>
<path fill="none" stroke="midnightblue" d="M1659.25,-120.31C1872.31,-117.12 2737.42,-102.74 3007.5,-76 3010.53,-75.7 3013.64,-75.33 3016.77,-74.93"/>
<polygon fill="midnightblue" stroke="midnightblue" points="1658.97,-116.82 1649.03,-120.47 1659.08,-123.82 1658.97,-116.82"/>
</g>
<!-- Node164 -->
<g id="node48" class="node">
<title>Node164</title>
<g id="a_node48"><a xlink:href="_act_src_line_op_8_h.html" target="_top" xlink:title=" ">
<polygon fill="white" stroke="red" points="3124.5,-56.5 3124.5,-75.5 3216.5,-75.5 3216.5,-56.5 3124.5,-56.5"/>
<text text-anchor="middle" x="3170.5" y="-63.5" font-family="Helvetica,sans-Serif" font-size="10.00">ActSrcLineOp.H</text>
</a>
</g>
</g>
<!-- Node2&#45;&gt;Node164 -->
<g id="edge63" class="edge">
<title>Node2&#45;&gt;Node164</title>
<path fill="none" stroke="midnightblue" d="M1659.26,-120.4C1882.22,-117.49 2822.06,-103.76 3114.5,-76 3117.73,-75.69 3121.07,-75.32 3124.42,-74.89"/>
<polygon fill="midnightblue" stroke="midnightblue" points="1659.15,-116.9 1649.19,-120.53 1659.24,-123.9 1659.15,-116.9"/>
</g>
<!-- Node171 -->
<g id="node49" class="node">
<title>Node171</title>
<g id="a_node49"><a xlink:href="_act_src_disk_op___turbine_8_h.html" target="_top" xlink:title=" ">
<polygon fill="white" stroke="red" points="3234.5,-56.5 3234.5,-75.5 3368.5,-75.5 3368.5,-56.5 3234.5,-56.5"/>
<text text-anchor="middle" x="3301.5" y="-63.5" font-family="Helvetica,sans-Serif" font-size="10.00">ActSrcDiskOp_Turbine.H</text>
</a>
</g>
</g>
<!-- Node2&#45;&gt;Node171 -->
<g id="edge64" class="edge">
<title>Node2&#45;&gt;Node171</title>
<path fill="none" stroke="midnightblue" d="M1659.28,-121.24C1854.16,-121.87 2607.82,-121.09 3225.5,-76 3228.42,-75.79 3231.39,-75.54 3234.39,-75.28"/>
<polygon fill="midnightblue" stroke="midnightblue" points="1659.11,-117.74 1649.1,-121.2 1659.09,-124.74 1659.11,-117.74"/>
</g>
<!-- Node172 -->
<g id="node50" class="node">
<title>Node172</title>
<g id="a_node50"><a xlink:href="_act_src_disk_op_8_h.html" target="_top" xlink:title=" ">
<polygon fill="white" stroke="red" points="3387,-56.5 3387,-75.5 3480,-75.5 3480,-56.5 3387,-56.5"/>
<text text-anchor="middle" x="3433.5" y="-63.5" font-family="Helvetica,sans-Serif" font-size="10.00">ActSrcDiskOp.H</text>
</a>
</g>
</g>
<!-- Node2&#45;&gt;Node172 -->
<g id="edge65" class="edge">
<title>Node2&#45;&gt;Node172</title>
<path fill="none" stroke="midnightblue" d="M1659.03,-120.65C1904.43,-118.72 3029.96,-108.21 3377.5,-76 3380.54,-75.72 3383.66,-75.37 3386.81,-74.98"/>
<polygon fill="midnightblue" stroke="midnightblue" points="1658.98,-117.15 1649.01,-120.73 1659.03,-124.15 1658.98,-117.15"/>
</g>
<!-- Node4&#45;&gt;Node3 -->
<g id="edge4" class="edge">
<title>Node4&#45;&gt;Node3</title>
<path fill="none" stroke="midnightblue" d="M1526.35,-46.1C1524.86,-37.14 1523.14,-26.86 1521.96,-19.75"/>
<polygon fill="midnightblue" stroke="midnightblue" points="1522.92,-46.79 1528.01,-56.08 1529.82,-45.64 1522.92,-46.79"/>
</g>
<!-- Node5 -->
<g id="node5" class="node">
<title>Node5</title>
<g id="a_node5"><a xlink:href="_fixed_gradient_b_c_8cpp.html" target="_top" xlink:title=" ">
<polygon fill="white" stroke="black" points="1337.5,-0.5 1337.5,-19.5 1455.5,-19.5 1455.5,-0.5 1337.5,-0.5"/>
<text text-anchor="middle" x="1396.5" y="-7.5" font-family="Helvetica,sans-Serif" font-size="10.00">FixedGradientBC.cpp</text>
</a>
</g>
</g>
<!-- Node4&#45;&gt;Node5 -->
<g id="edge5" class="edge">
<title>Node4&#45;&gt;Node5</title>
<path fill="none" stroke="midnightblue" d="M1499.05,-52.64C1474.09,-42.5 1439.42,-28.43 1417.48,-19.52"/>
<polygon fill="midnightblue" stroke="midnightblue" points="1497.84,-55.92 1508.43,-56.44 1500.48,-49.44 1497.84,-55.92"/>
</g>
<!-- Node7 -->
<g id="node7" class="node">
<title>Node7</title>
<g id="a_node7"><a xlink:href="icns__bcop_8_h.html" target="_top" xlink:title=" ">
<polygon fill="white" stroke="red" points="3581,-0.5 3581,-19.5 3656,-19.5 3656,-0.5 3581,-0.5"/>
<text text-anchor="middle" x="3618.5" y="-7.5" font-family="Helvetica,sans-Serif" font-size="10.00">icns_bcop.H</text>
</a>
</g>
</g>
<!-- Node6&#45;&gt;Node7 -->
<g id="edge7" class="edge">
<title>Node6&#45;&gt;Node7</title>
<path fill="none" stroke="midnightblue" d="M3618.5,-45.8C3618.5,-36.91 3618.5,-26.78 3618.5,-19.75"/>
<polygon fill="midnightblue" stroke="midnightblue" points="3615,-46.08 3618.5,-56.08 3622,-46.08 3615,-46.08"/>
</g>
<!-- Node10 -->
<g id="node9" class="node">
<title>Node10</title>
<g id="a_node9"><a xlink:href="_c_f_d_sim_8cpp.html" target="_top" xlink:title=" ">
<polygon fill="white" stroke="black" points="358.5,-0.5 358.5,-19.5 434.5,-19.5 434.5,-0.5 358.5,-0.5"/>
<text text-anchor="middle" x="396.5" y="-7.5" font-family="Helvetica,sans-Serif" font-size="10.00">CFDSim.cpp</text>
</a>
</g>
</g>
<!-- Node9&#45;&gt;Node10 -->
<g id="edge9" class="edge">
<title>Node9&#45;&gt;Node10</title>
<path fill="none" stroke="midnightblue" d="M396.5,-45.8C396.5,-36.91 396.5,-26.78 396.5,-19.75"/>
<polygon fill="midnightblue" stroke="midnightblue" points="393,-46.08 396.5,-56.08 400,-46.08 393,-46.08"/>
</g>
<!-- Node9&#45;&gt;Node11 -->
<g id="edge10" class="edge">
<title>Node9&#45;&gt;Node11</title>
<path fill="none" stroke="midnightblue" d="M353.06,-55.85C240.93,-36.41 209.74,-41.55 101.5,-20 98.79,-19.46 95.98,-18.84 93.18,-18.18"/>
<polygon fill="midnightblue" stroke="midnightblue" points="352.62,-59.33 363.07,-57.62 353.83,-52.44 352.62,-59.33"/>
</g>
<!-- Node24 -->
<g id="node11" class="node">
<title>Node24</title>
<g id="a_node11"><a xlink:href="_p_d_e_ops_8_h.html" target="_top" xlink:title=" ">
<polygon fill="white" stroke="red" points="275,-0.5 275,-19.5 340,-19.5 340,-0.5 275,-0.5"/>
<text text-anchor="middle" x="307.5" y="-7.5" font-family="Helvetica,sans-Serif" font-size="10.00">PDEOps.H</text>
</a>
</g>
</g>
<!-- Node9&#45;&gt;Node24 -->
<g id="edge11" class="edge">
<title>Node9&#45;&gt;Node24</title>
<path fill="none" stroke="midnightblue" d="M373.26,-50.9C356.94,-41 335.63,-28.07 321.76,-19.65"/>
<polygon fill="midnightblue" stroke="midnightblue" points="371.84,-54.13 382.2,-56.32 375.47,-48.14 371.84,-54.13"/>
</g>
<!-- Node9&#45;&gt;Node89 -->
<g id="edge12" class="edge">
<title>Node9&#45;&gt;Node89</title>
<path fill="none" stroke="midnightblue" d="M358.39,-53.57C324.44,-43.38 275.51,-28.7 244.89,-19.52"/>
<polygon fill="midnightblue" stroke="midnightblue" points="357.39,-56.92 367.98,-56.44 359.41,-50.22 357.39,-56.92"/>
</g>
<!-- Node9&#45;&gt;Node103 -->
<g id="edge13" class="edge">
<title>Node9&#45;&gt;Node103</title>
<path fill="none" stroke="midnightblue" d="M353.55,-55.85C269.87,-39.11 246.88,-38.44 167.5,-20 164.49,-19.3 161.34,-18.52 158.24,-17.71"/>
<polygon fill="midnightblue" stroke="midnightblue" points="353,-59.31 363.5,-57.86 354.39,-52.45 353,-59.31"/>
</g>
<!-- Node9&#45;&gt;Node106 -->
<g id="edge14" class="edge">
<title>Node9&#45;&gt;Node106</title>
<path fill="none" stroke="midnightblue" d="M423.26,-51.86C443.66,-41.85 471.17,-28.35 488.87,-19.65"/>
<polygon fill="midnightblue" stroke="midnightblue" points="421.61,-48.78 414.17,-56.32 424.69,-55.06 421.61,-48.78"/>
</g>
<!-- Node9&#45;&gt;Node136 -->
<g id="edge15" class="edge">
<title>Node9&#45;&gt;Node136</title>
<path fill="none" stroke="midnightblue" d="M439.34,-54.98C482.97,-44.79 549.87,-29.15 591.03,-19.52"/>
<polygon fill="midnightblue" stroke="midnightblue" points="438.54,-51.58 429.6,-57.26 440.13,-58.39 438.54,-51.58"/>
</g>
<!-- Node9&#45;&gt;Node137 -->
<g id="edge16" class="edge">
<title>Node9&#45;&gt;Node137</title>
<path fill="none" stroke="midnightblue" d="M439.97,-58.37C504.06,-48.59 623.91,-30.31 694.5,-19.54"/>
<polygon fill="midnightblue" stroke="midnightblue" points="439.16,-54.95 429.8,-59.92 440.22,-61.87 439.16,-54.95"/>
</g>
<!-- Node9&#45;&gt;Node166 -->
<g id="edge17" class="edge">
<title>Node9&#45;&gt;Node166</title>
<path fill="none" stroke="midnightblue" d="M439.92,-61.47C516.16,-55.01 678.97,-40.1 815.5,-20 818.52,-19.56 821.64,-19.06 824.77,-18.53"/>
<polygon fill="midnightblue" stroke="midnightblue" points="439.42,-58 429.75,-62.32 440,-64.97 439.42,-58"/>
</g>
<!-- Node197&#45;&gt;Node24 -->
<g id="edge29" class="edge">
<title>Node197&#45;&gt;Node24</title>
<path fill="none" stroke="midnightblue" d="M304.9,-46.1C305.56,-37.14 306.33,-26.86 306.85,-19.75"/>
<polygon fill="midnightblue" stroke="midnightblue" points="301.41,-45.85 304.16,-56.08 308.39,-46.37 301.41,-45.85"/>
</g>
<!-- Node197&#45;&gt;Node89 -->
<g id="edge30" class="edge">
<title>Node197&#45;&gt;Node89</title>
<path fill="none" stroke="midnightblue" d="M280.78,-50.9C264.83,-41 244,-28.07 230.44,-19.65"/>
<polygon fill="midnightblue" stroke="midnightblue" points="279.18,-54.02 289.52,-56.32 282.87,-48.08 279.18,-54.02"/>
</g>
<!-- Node199&#45;&gt;Node71 -->
<g id="edge33" class="edge">
<title>Node199&#45;&gt;Node71</title>
<path fill="none" stroke="midnightblue" d="M1776.02,-53.17C1745.51,-43 1702.26,-28.59 1675.05,-19.52"/>
<polygon fill="midnightblue" stroke="midnightblue" points="1775.24,-56.6 1785.83,-56.44 1777.45,-49.96 1775.24,-56.6"/>
</g>
<!-- Node199&#45;&gt;Node203 -->
<g id="edge34" class="edge">
<title>Node199&#45;&gt;Node203</title>
<path fill="none" stroke="midnightblue" d="M1806.33,-46.4C1803.82,-37.36 1800.93,-26.94 1798.93,-19.75"/>
<polygon fill="midnightblue" stroke="midnightblue" points="1802.97,-47.38 1809.02,-56.08 1809.72,-45.51 1802.97,-47.38"/>
</g>
<!-- Node199&#45;&gt;Node204 -->
<g id="edge35" class="edge">
<title>Node199&#45;&gt;Node204</title>
<path fill="none" stroke="midnightblue" d="M1839.16,-52.23C1861.05,-42.13 1891,-28.31 1910.05,-19.52"/>
<polygon fill="midnightblue" stroke="midnightblue" points="1837.65,-49.08 1830.04,-56.44 1840.59,-55.43 1837.65,-49.08"/>
</g>
<!-- Node199&#45;&gt;Node205 -->
<g id="edge36" class="edge">
<title>Node199&#45;&gt;Node205</title>
<path fill="none" stroke="midnightblue" d="M1859.42,-54.22C1904.77,-44.01 1971.94,-28.9 2013.65,-19.52"/>
<polygon fill="midnightblue" stroke="midnightblue" points="1858.52,-50.83 1849.53,-56.44 1860.05,-57.66 1858.52,-50.83"/>
</g>
<!-- Node199&#45;&gt;Node207 -->
<g id="edge37" class="edge">
<title>Node199&#45;&gt;Node207</title>
<path fill="none" stroke="midnightblue" d="M1879.71,-59.09C1891.95,-58.05 1904.61,-56.98 1916.5,-56 2107.91,-40.2 2335.76,-22.43 2434.19,-14.81"/>
<polygon fill="midnightblue" stroke="midnightblue" points="1879.2,-55.62 1869.54,-59.96 1879.8,-62.6 1879.2,-55.62"/>
</g>
<!-- Node199&#45;&gt;Node209 -->
<g id="edge38" class="edge">
<title>Node199&#45;&gt;Node209</title>
<path fill="none" stroke="midnightblue" d="M1879.67,-58.65C1891.93,-57.65 1904.59,-56.72 1916.5,-56 2407.34,-26.45 3004.16,-14.54 3167.46,-11.7"/>
<polygon fill="midnightblue" stroke="midnightblue" points="1879.18,-55.18 1869.5,-59.5 1879.76,-62.16 1879.18,-55.18"/>
</g>
<!-- Node230&#45;&gt;Node103 -->
<g id="edge52" class="edge">
<title>Node230&#45;&gt;Node103</title>
<path fill="none" stroke="midnightblue" d="M143.68,-46.4C141.33,-37.36 138.63,-26.94 136.77,-19.75"/>
<polygon fill="midnightblue" stroke="midnightblue" points="140.29,-47.28 146.19,-56.08 147.07,-45.52 140.29,-47.28"/>
</g>
</g>
</svg>
