<?xml version="1.0" encoding="UTF-8" standalone="no"?>
<!DOCTYPE svg PUBLIC "-//W3C//DTD SVG 1.1//EN"
 "http://www.w3.org/Graphics/SVG/1.1/DTD/svg11.dtd">
<!-- Generated by graphviz version 2.43.0 (0)
 -->
<!-- Title: ScratchField.H Pages: 1 -->
<!--zoomable 196 -->
<svg id="main" version="1.1" xmlns="http://www.w3.org/2000/svg" xmlns:xlink="http://www.w3.org/1999/xlink" xml:space="preserve" onload="init(evt)">
<style type="text/css"><![CDATA[
.edge:hover path { stroke: red; }
.edge:hover polygon { stroke: red; fill: red; }
]]></style>
<script type="text/javascript"><![CDATA[
var edges = document.getElementsByTagName('g');
if (edges && edges.length) {
  for (var i=0;i<edges.length;i++) {
    if (edges[i].id.substr(0,4)=='edge') {
      edges[i].setAttribute('class','edge');
    }
  }
}
]]></script>
        <defs>
                <circle id="rim" cx="0" cy="0" r="7"/>
                <circle id="rim2" cx="0" cy="0" r="3.5"/>
                <g id="zoomPlus">
                        <use xlink:href="#rim" fill="#404040">
                                <set attributeName="fill" to="#808080" begin="zoomplus.mouseover" end="zoomplus.mouseout"/>
                        </use>
                        <path d="M-4,0h8M0,-4v8" fill="none" stroke="white" stroke-width="1.5" pointer-events="none"/>
                </g>
                <g id="zoomMin">
                        <use xlink:href="#rim" fill="#404040">
                                <set attributeName="fill" to="#808080" begin="zoomminus.mouseover" end="zoomminus.mouseout"/>
                        </use>
                        <path d="M-4,0h8" fill="none" stroke="white" stroke-width="1.5" pointer-events="none"/>
                </g>
                <g id="dirArrow">
                        <path fill="none" stroke="white" stroke-width="1.5" d="M0,-3.0v7 M-2.5,-0.5L0,-3.0L2.5,-0.5"/>
                </g>
               <g id="resetDef">
                       <use xlink:href="#rim2" fill="#404040">
                               <set attributeName="fill" to="#808080" begin="reset.mouseover" end="reset.mouseout"/>
                       </use>
               </g>
        </defs>

<script type="text/javascript">
var viewWidth = 3694;
var viewHeight = 196;
var sectionId = 'dynsection-1';
</script>
<script xlink:href="svgpan.js"/>
<svg id="graph" class="graph">
<g id="viewport">
<title>ScratchField.H</title>
<polygon fill="white" stroke="transparent" points="-4,4 -4,-192 3689.5,-192 3689.5,4 -4,4"/>
<!-- Node1 -->
<g id="node1" class="node">
<title>Node1</title>
<g id="a_node1"><a xlink:title=" ">
<polygon fill="#bfbfbf" stroke="black" points="113,-168.5 113,-187.5 199,-187.5 199,-168.5 113,-168.5"/>
<text text-anchor="middle" x="156" y="-175.5" font-family="Helvetica,sans-Serif" font-size="10.00">ScratchField.H</text>
</a>
</g>
</g>
<!-- Node2 -->
<g id="node2" class="node">
<title>Node2</title>
<g id="a_node2"><a xlink:href="_field_repo_8_h.html" target="_top" xlink:title=" ">
<polygon fill="white" stroke="black" points="1485.5,-112.5 1485.5,-131.5 1560.5,-131.5 1560.5,-112.5 1485.5,-112.5"/>
<text text-anchor="middle" x="1523" y="-119.5" font-family="Helvetica,sans-Serif" font-size="10.00">FieldRepo.H</text>
</a>
</g>
</g>
<!-- Node1&#45;&gt;Node2 -->
<g id="edge1" class="edge">
<title>Node1&#45;&gt;Node2</title>
<path fill="none" stroke="midnightblue" d="M209.35,-174.89C433.29,-166.05 1294.63,-132.02 1485.43,-124.48"/>
<polygon fill="midnightblue" stroke="midnightblue" points="209.02,-171.4 199.17,-175.29 209.3,-178.4 209.02,-171.4"/>
</g>
<!-- Node193 -->
<g id="node23" class="node">
<title>Node193</title>
<g id="a_node23"><a xlink:href="_scratch_field_8cpp.html" target="_top" xlink:title=" ">
<polygon fill="white" stroke="black" points="0,-56.5 0,-75.5 96,-75.5 96,-56.5 0,-56.5"/>
<text text-anchor="middle" x="48" y="-63.5" font-family="Helvetica,sans-Serif" font-size="10.00">ScratchField.cpp</text>
</a>
</g>
</g>
<!-- Node1&#45;&gt;Node193 -->
<g id="edge67" class="edge">
<title>Node1&#45;&gt;Node193</title>
<path fill="none" stroke="midnightblue" d="M140.49,-161.21C117.34,-137.63 74.54,-94.03 56.44,-75.59"/>
<polygon fill="midnightblue" stroke="midnightblue" points="138.02,-163.68 147.53,-168.37 143.02,-158.78 138.02,-163.68"/>
</g>
<!-- Node194 -->
<g id="node24" class="node">
<title>Node194</title>
<g id="a_node24"><a xlink:href="_view_field_8cpp.html" target="_top" xlink:title=" ">
<polygon fill="white" stroke="black" points="114,-56.5 114,-75.5 198,-75.5 198,-56.5 114,-56.5"/>
<text text-anchor="middle" x="156" y="-63.5" font-family="Helvetica,sans-Serif" font-size="10.00">ViewField.cpp</text>
</a>
</g>
</g>
<!-- Node1&#45;&gt;Node194 -->
<g id="edge68" class="edge">
<title>Node1&#45;&gt;Node194</title>
<path fill="none" stroke="midnightblue" d="M156,-158.35C156,-134.25 156,-93.31 156,-75.59"/>
<polygon fill="midnightblue" stroke="midnightblue" points="152.5,-158.37 156,-168.37 159.5,-158.37 152.5,-158.37"/>
</g>
<!-- Node3 -->
<g id="node3" class="node">
<title>Node3</title>
<g id="a_node3"><a xlink:href="_b_c_interface_8cpp.html" target="_top" xlink:title=" ">
<polygon fill="white" stroke="black" points="3362,-0.5 3362,-19.5 3456,-19.5 3456,-0.5 3362,-0.5"/>
<text text-anchor="middle" x="3409" y="-7.5" font-family="Helvetica,sans-Serif" font-size="10.00">BCInterface.cpp</text>
</a>
</g>
</g>
<!-- Node2&#45;&gt;Node3 -->
<g id="edge2" class="edge">
<title>Node2&#45;&gt;Node3</title>
<path fill="none" stroke="midnightblue" d="M1570.8,-120.76C1849.36,-119.25 3253.75,-109.95 3338,-76 3367.14,-64.26 3391.77,-34.71 3402.8,-19.84"/>
<polygon fill="midnightblue" stroke="midnightblue" points="1570.6,-117.26 1560.62,-120.82 1570.64,-124.26 1570.6,-117.26"/>
</g>
<!-- Node4 -->
<g id="node4" class="node">
<title>Node4</title>
<g id="a_node4"><a xlink:href="_fixed_gradient_b_c_8_h.html" target="_top" xlink:title=" ">
<polygon fill="white" stroke="black" points="3448,-56.5 3448,-75.5 3556,-75.5 3556,-56.5 3448,-56.5"/>
<text text-anchor="middle" x="3502" y="-63.5" font-family="Helvetica,sans-Serif" font-size="10.00">FixedGradientBC.H</text>
</a>
</g>
</g>
<!-- Node2&#45;&gt;Node4 -->
<g id="edge3" class="edge">
<title>Node2&#45;&gt;Node4</title>
<path fill="none" stroke="midnightblue" d="M1571.05,-120.57C1829.43,-118.17 3055.85,-105.39 3434,-76 3438.51,-75.65 3443.18,-75.2 3447.87,-74.7"/>
<polygon fill="midnightblue" stroke="midnightblue" points="1570.84,-117.08 1560.87,-120.67 1570.91,-124.07 1570.84,-117.08"/>
</g>
<!-- Node6 -->
<g id="node6" class="node">
<title>Node6</title>
<g id="a_node6"><a xlink:href="velocity__bcs_8_h.html" target="_top" xlink:title=" ">
<polygon fill="white" stroke="black" points="3594,-56.5 3594,-75.5 3682,-75.5 3682,-56.5 3594,-56.5"/>
<text text-anchor="middle" x="3638" y="-63.5" font-family="Helvetica,sans-Serif" font-size="10.00">velocity_bcs.H</text>
</a>
</g>
</g>
<!-- Node2&#45;&gt;Node6 -->
<g id="edge6" class="edge">
<title>Node2&#45;&gt;Node6</title>
<path fill="none" stroke="midnightblue" d="M1570.86,-120.6C1839.19,-118.26 3159.06,-105.42 3565,-76 3574.3,-75.33 3584.23,-74.3 3593.68,-73.19"/>
<polygon fill="midnightblue" stroke="midnightblue" points="1570.65,-117.1 1560.68,-120.69 1570.71,-124.1 1570.65,-117.1"/>
</g>
<!-- Node9 -->
<g id="node8" class="node">
<title>Node9</title>
<g id="a_node8"><a xlink:href="_c_f_d_sim_8_h.html" target="_top" xlink:title=" ">
<polygon fill="white" stroke="red" points="432,-56.5 432,-75.5 498,-75.5 498,-56.5 432,-56.5"/>
<text text-anchor="middle" x="465" y="-63.5" font-family="Helvetica,sans-Serif" font-size="10.00">CFDSim.H</text>
</a>
</g>
</g>
<!-- Node2&#45;&gt;Node9 -->
<g id="edge8" class="edge">
<title>Node2&#45;&gt;Node9</title>
<path fill="none" stroke="midnightblue" d="M1475.21,-119.94C1300.68,-115.91 697.93,-100.51 507,-76 504.19,-75.64 501.29,-75.19 498.38,-74.68"/>
<polygon fill="midnightblue" stroke="midnightblue" points="1475.29,-123.44 1485.37,-120.17 1475.45,-116.45 1475.29,-123.44"/>
</g>
<!-- Node11 -->
<g id="node10" class="node">
<title>Node11</title>
<g id="a_node10"><a xlink:href="incflo_8_h.html" target="_top" xlink:title=" ">
<polygon fill="white" stroke="red" points="1237.5,-0.5 1237.5,-19.5 1290.5,-19.5 1290.5,-0.5 1237.5,-0.5"/>
<text text-anchor="middle" x="1264" y="-7.5" font-family="Helvetica,sans-Serif" font-size="10.00">incflo.H</text>
</a>
</g>
</g>
<!-- Node2&#45;&gt;Node11 -->
<g id="edge27" class="edge">
<title>Node2&#45;&gt;Node11</title>
<path fill="none" stroke="midnightblue" d="M1475.53,-116.51C1435.8,-111.2 1378.6,-99.85 1334,-76 1306.8,-61.45 1282.17,-33.73 1270.74,-19.66"/>
<polygon fill="midnightblue" stroke="midnightblue" points="1475.13,-119.99 1485.49,-117.76 1476,-113.04 1475.13,-119.99"/>
</g>
<!-- Node89 -->
<g id="node12" class="node">
<title>Node89</title>
<g id="a_node12"><a xlink:href="_p_d_e_base_8cpp.html" target="_top" xlink:title=" ">
<polygon fill="white" stroke="black" points="260,-0.5 260,-19.5 340,-19.5 340,-0.5 260,-0.5"/>
<text text-anchor="middle" x="300" y="-7.5" font-family="Helvetica,sans-Serif" font-size="10.00">PDEBase.cpp</text>
</a>
</g>
</g>
<!-- Node2&#45;&gt;Node89 -->
<g id="edge45" class="edge">
<title>Node2&#45;&gt;Node89</title>
<path fill="none" stroke="midnightblue" d="M1475.23,-121.1C1252.5,-121.33 325.09,-119.65 283,-76 268.1,-60.55 283.4,-33.73 293.19,-19.87"/>
<polygon fill="midnightblue" stroke="midnightblue" points="1475.3,-124.6 1485.29,-121.09 1475.29,-117.6 1475.3,-124.6"/>
</g>
<!-- Node103 -->
<g id="node13" class="node">
<title>Node103</title>
<g id="a_node13"><a xlink:href="_i_b_8cpp.html" target="_top" xlink:title=" ">
<polygon fill="white" stroke="black" points="1328.5,-0.5 1328.5,-19.5 1375.5,-19.5 1375.5,-0.5 1328.5,-0.5"/>
<text text-anchor="middle" x="1352" y="-7.5" font-family="Helvetica,sans-Serif" font-size="10.00">IB.cpp</text>
</a>
</g>
</g>
<!-- Node2&#45;&gt;Node103 -->
<g id="edge53" class="edge">
<title>Node2&#45;&gt;Node103</title>
<path fill="none" stroke="midnightblue" d="M1500.79,-106.71C1464.76,-83.53 1394.64,-38.43 1365.36,-19.59"/>
<polygon fill="midnightblue" stroke="midnightblue" points="1499.28,-109.9 1509.58,-112.37 1503.07,-104.01 1499.28,-109.9"/>
</g>
<!-- Node106 -->
<g id="node14" class="node">
<title>Node106</title>
<g id="a_node14"><a xlink:href="_tioga_interface_8cpp.html" target="_top" xlink:title=" ">
<polygon fill="white" stroke="black" points="1393.5,-0.5 1393.5,-19.5 1500.5,-19.5 1500.5,-0.5 1393.5,-0.5"/>
<text text-anchor="middle" x="1447" y="-7.5" font-family="Helvetica,sans-Serif" font-size="10.00">TiogaInterface.cpp</text>
</a>
</g>
</g>
<!-- Node2&#45;&gt;Node106 -->
<g id="edge54" class="edge">
<title>Node2&#45;&gt;Node106</title>
<path fill="none" stroke="midnightblue" d="M1501.55,-106.43C1491.15,-98.46 1479.18,-87.81 1471,-76 1458.54,-58 1451.66,-32.74 1448.73,-19.64"/>
<polygon fill="midnightblue" stroke="midnightblue" points="1499.66,-109.38 1509.8,-112.46 1503.79,-103.73 1499.66,-109.38"/>
</g>
<!-- Node136 -->
<g id="node15" class="node">
<title>Node136</title>
<g id="a_node15"><a xlink:href="_re_averaging_8cpp.html" target="_top" xlink:title=" ">
<polygon fill="white" stroke="black" points="144,-0.5 144,-19.5 242,-19.5 242,-0.5 144,-0.5"/>
<text text-anchor="middle" x="193" y="-7.5" font-family="Helvetica,sans-Serif" font-size="10.00">ReAveraging.cpp</text>
</a>
</g>
</g>
<!-- Node2&#45;&gt;Node136 -->
<g id="edge61" class="edge">
<title>Node2&#45;&gt;Node136</title>
<path fill="none" stroke="midnightblue" d="M1475.21,-121.07C1260.08,-121.14 386.95,-118.78 273,-76 241.5,-64.18 213.12,-34.66 200.27,-19.82"/>
<polygon fill="midnightblue" stroke="midnightblue" points="1475.25,-124.57 1485.25,-121.06 1475.24,-117.57 1475.25,-124.57"/>
</g>
<!-- Node137 -->
<g id="node16" class="node">
<title>Node137</title>
<g id="a_node16"><a xlink:href="_reynolds_stress_8cpp.html" target="_top" xlink:title=" ">
<polygon fill="white" stroke="black" points="442,-0.5 442,-19.5 554,-19.5 554,-0.5 442,-0.5"/>
<text text-anchor="middle" x="498" y="-7.5" font-family="Helvetica,sans-Serif" font-size="10.00">ReynoldsStress.cpp</text>
</a>
</g>
</g>
<!-- Node2&#45;&gt;Node137 -->
<g id="edge62" class="edge">
<title>Node2&#45;&gt;Node137</title>
<path fill="none" stroke="midnightblue" d="M1475.05,-120.87C1268.07,-120.06 459.92,-114.46 423,-76 402,-54.12 445.32,-31.6 474.45,-19.67"/>
<polygon fill="midnightblue" stroke="midnightblue" points="1475.28,-124.37 1485.3,-120.9 1475.31,-117.37 1475.28,-124.37"/>
</g>
<!-- Node166 -->
<g id="node17" class="node">
<title>Node166</title>
<g id="a_node17"><a xlink:href="_actuator_8cpp.html" target="_top" xlink:title=" ">
<polygon fill="white" stroke="black" points="894.5,-0.5 894.5,-19.5 971.5,-19.5 971.5,-0.5 894.5,-0.5"/>
<text text-anchor="middle" x="933" y="-7.5" font-family="Helvetica,sans-Serif" font-size="10.00">Actuator.cpp</text>
</a>
</g>
</g>
<!-- Node2&#45;&gt;Node166 -->
<g id="edge66" class="edge">
<title>Node2&#45;&gt;Node166</title>
<path fill="none" stroke="midnightblue" d="M1475.01,-119.86C1407.65,-117.11 1281.91,-107.77 1180,-76 1161.4,-70.2 1159.34,-62.56 1141,-56 1083.77,-35.53 1014.21,-22.79 971.79,-16.29"/>
<polygon fill="midnightblue" stroke="midnightblue" points="1475.18,-123.37 1485.3,-120.25 1475.44,-116.37 1475.18,-123.37"/>
</g>
<!-- Node181 -->
<g id="node18" class="node">
<title>Node181</title>
<g id="a_node18"><a xlink:href="_godunov_8_h.html" target="_top" xlink:title=" ">
<polygon fill="white" stroke="red" points="516,-56.5 516,-75.5 586,-75.5 586,-56.5 516,-56.5"/>
<text text-anchor="middle" x="551" y="-63.5" font-family="Helvetica,sans-Serif" font-size="10.00">Godunov.H</text>
</a>
</g>
</g>
<!-- Node2&#45;&gt;Node181 -->
<g id="edge18" class="edge">
<title>Node2&#45;&gt;Node181</title>
<path fill="none" stroke="midnightblue" d="M1475.06,-121.26C1337.51,-121.45 929.96,-118.13 595,-76 592.21,-75.65 589.34,-75.22 586.46,-74.74"/>
<polygon fill="midnightblue" stroke="midnightblue" points="1475.26,-124.76 1485.25,-121.24 1475.24,-117.76 1475.26,-124.76"/>
</g>
<!-- Node187 -->
<g id="node19" class="node">
<title>Node187</title>
<g id="a_node19"><a xlink:href="_m_o_l_8_h.html" target="_top" xlink:title=" ">
<polygon fill="white" stroke="red" points="604.5,-56.5 604.5,-75.5 653.5,-75.5 653.5,-56.5 604.5,-56.5"/>
<text text-anchor="middle" x="629" y="-63.5" font-family="Helvetica,sans-Serif" font-size="10.00">MOL.H</text>
</a>
</g>
</g>
<!-- Node2&#45;&gt;Node187 -->
<g id="edge19" class="edge">
<title>Node2&#45;&gt;Node187</title>
<path fill="none" stroke="midnightblue" d="M1475.17,-119.8C1318.46,-115.66 821.47,-100.85 663,-76 659.98,-75.53 656.85,-74.9 653.76,-74.19"/>
<polygon fill="midnightblue" stroke="midnightblue" points="1475.34,-123.3 1485.42,-120.07 1475.52,-116.31 1475.34,-123.3"/>
</g>
<!-- Node190 -->
<g id="node20" class="node">
<title>Node190</title>
<g id="a_node20"><a xlink:href="_field_8cpp.html" target="_top" xlink:title=" ">
<polygon fill="white" stroke="black" points="672,-56.5 672,-75.5 732,-75.5 732,-56.5 672,-56.5"/>
<text text-anchor="middle" x="702" y="-63.5" font-family="Helvetica,sans-Serif" font-size="10.00">Field.cpp</text>
</a>
</g>
</g>
<!-- Node2&#45;&gt;Node190 -->
<g id="edge20" class="edge">
<title>Node2&#45;&gt;Node190</title>
<path fill="none" stroke="midnightblue" d="M1475.16,-121.06C1352.49,-120.59 1017,-115.5 741,-76 738.11,-75.59 735.12,-75.07 732.14,-74.49"/>
<polygon fill="midnightblue" stroke="midnightblue" points="1475.33,-124.56 1485.34,-121.09 1475.35,-117.56 1475.33,-124.56"/>
</g>
<!-- Node191 -->
<g id="node21" class="node">
<title>Node191</title>
<g id="a_node21"><a xlink:href="_field_repo_8cpp.html" target="_top" xlink:title=" ">
<polygon fill="white" stroke="black" points="750.5,-56.5 750.5,-75.5 835.5,-75.5 835.5,-56.5 750.5,-56.5"/>
<text text-anchor="middle" x="793" y="-63.5" font-family="Helvetica,sans-Serif" font-size="10.00">FieldRepo.cpp</text>
</a>
</g>
</g>
<!-- Node2&#45;&gt;Node191 -->
<g id="edge21" class="edge">
<title>Node2&#45;&gt;Node191</title>
<path fill="none" stroke="midnightblue" d="M1475.11,-119.61C1363.92,-116 1079.76,-104.53 844,-76 841.23,-75.67 838.39,-75.28 835.53,-74.86"/>
<polygon fill="midnightblue" stroke="midnightblue" points="1475.22,-123.12 1485.33,-119.94 1475.44,-116.12 1475.22,-123.12"/>
</g>
<!-- Node192 -->
<g id="node22" class="node">
<title>Node192</title>
<g id="a_node22"><a xlink:href="_int_field_8cpp.html" target="_top" xlink:title=" ">
<polygon fill="white" stroke="black" points="853.5,-56.5 853.5,-75.5 926.5,-75.5 926.5,-56.5 853.5,-56.5"/>
<text text-anchor="middle" x="890" y="-63.5" font-family="Helvetica,sans-Serif" font-size="10.00">IntField.cpp</text>
</a>
</g>
</g>
<!-- Node2&#45;&gt;Node192 -->
<g id="edge22" class="edge">
<title>Node2&#45;&gt;Node192</title>
<path fill="none" stroke="midnightblue" d="M1475.3,-119.23C1375.05,-115.1 1135.31,-103.04 936,-76 932.94,-75.58 929.77,-75.09 926.59,-74.56"/>
<polygon fill="midnightblue" stroke="midnightblue" points="1475.28,-122.73 1485.41,-119.64 1475.56,-115.74 1475.28,-122.73"/>
</g>
<!-- Node2&#45;&gt;Node193 -->
<g id="edge23" class="edge">
<title>Node2&#45;&gt;Node193</title>
<path fill="none" stroke="midnightblue" d="M1475.18,-120.29C1259.95,-116.95 379.74,-101.95 105,-76 102.11,-75.73 99.14,-75.4 96.15,-75.04"/>
<polygon fill="midnightblue" stroke="midnightblue" points="1475.16,-123.79 1485.21,-120.44 1475.26,-116.79 1475.16,-123.79"/>
</g>
<!-- Node2&#45;&gt;Node194 -->
<g id="edge24" class="edge">
<title>Node2&#45;&gt;Node194</title>
<path fill="none" stroke="midnightblue" d="M1475.14,-121.51C1303.62,-122.89 703.78,-123.77 212,-76 207.49,-75.56 202.8,-74.99 198.12,-74.35"/>
<polygon fill="midnightblue" stroke="midnightblue" points="1475.37,-125.01 1485.34,-121.43 1475.31,-118.01 1475.37,-125.01"/>
</g>
<!-- Node195 -->
<g id="node25" class="node">
<title>Node195</title>
<g id="a_node25"><a xlink:href="field__algebra_8cpp.html" target="_top" xlink:title=" ">
<polygon fill="white" stroke="black" points="945,-56.5 945,-75.5 1045,-75.5 1045,-56.5 945,-56.5"/>
<text text-anchor="middle" x="995" y="-63.5" font-family="Helvetica,sans-Serif" font-size="10.00">field_algebra.cpp</text>
</a>
</g>
</g>
<!-- Node2&#45;&gt;Node195 -->
<g id="edge25" class="edge">
<title>Node2&#45;&gt;Node195</title>
<path fill="none" stroke="midnightblue" d="M1475.12,-117.29C1390.16,-110.52 1207.51,-95.06 1054,-76 1051.12,-75.64 1048.17,-75.26 1045.19,-74.85"/>
<polygon fill="midnightblue" stroke="midnightblue" points="1474.98,-120.79 1485.23,-118.09 1475.54,-113.81 1474.98,-120.79"/>
</g>
<!-- Node196 -->
<g id="node26" class="node">
<title>Node196</title>
<g id="a_node26"><a xlink:href="diffusion_8_h.html" target="_top" xlink:title=" ">
<polygon fill="white" stroke="red" points="1063.5,-56.5 1063.5,-75.5 1132.5,-75.5 1132.5,-56.5 1063.5,-56.5"/>
<text text-anchor="middle" x="1098" y="-63.5" font-family="Helvetica,sans-Serif" font-size="10.00">diffusion.H</text>
</a>
</g>
</g>
<!-- Node2&#45;&gt;Node196 -->
<g id="edge26" class="edge">
<title>Node2&#45;&gt;Node196</title>
<path fill="none" stroke="midnightblue" d="M1475.22,-116.25C1403.67,-108.92 1264.56,-93.81 1147,-76 1142.38,-75.3 1137.53,-74.5 1132.75,-73.66"/>
<polygon fill="midnightblue" stroke="midnightblue" points="1474.97,-119.74 1485.27,-117.27 1475.68,-112.78 1474.97,-119.74"/>
</g>
<!-- Node197 -->
<g id="node27" class="node">
<title>Node197</title>
<g id="a_node27"><a xlink:href="_p_d_e_helpers_8_h.html" target="_top" xlink:title=" ">
<polygon fill="white" stroke="red" points="292,-56.5 292,-75.5 376,-75.5 376,-56.5 292,-56.5"/>
<text text-anchor="middle" x="334" y="-63.5" font-family="Helvetica,sans-Serif" font-size="10.00">PDEHelpers.H</text>
</a>
</g>
</g>
<!-- Node2&#45;&gt;Node197 -->
<g id="edge28" class="edge">
<title>Node2&#45;&gt;Node197</title>
<path fill="none" stroke="midnightblue" d="M1475.01,-121.14C1318.5,-121.18 808.87,-117.83 390,-76 385.49,-75.55 380.8,-74.97 376.13,-74.32"/>
<polygon fill="midnightblue" stroke="midnightblue" points="1475.23,-124.64 1485.23,-121.14 1475.23,-117.64 1475.23,-124.64"/>
</g>
<!-- Node198 -->
<g id="node28" class="node">
<title>Node198</title>
<g id="a_node28"><a xlink:href="_density_source_8_h.html" target="_top" xlink:title=" ">
<polygon fill="white" stroke="red" points="1189,-56.5 1189,-75.5 1287,-75.5 1287,-56.5 1189,-56.5"/>
<text text-anchor="middle" x="1238" y="-63.5" font-family="Helvetica,sans-Serif" font-size="10.00">DensitySource.H</text>
</a>
</g>
</g>
<!-- Node2&#45;&gt;Node198 -->
<g id="edge31" class="edge">
<title>Node2&#45;&gt;Node198</title>
<path fill="none" stroke="midnightblue" d="M1475.53,-112.01C1422.03,-101.87 1335.69,-85.51 1283.16,-75.56"/>
<polygon fill="midnightblue" stroke="midnightblue" points="1474.97,-115.46 1485.45,-113.88 1476.27,-108.58 1474.97,-115.46"/>
</g>
<!-- Node199 -->
<g id="node29" class="node">
<title>Node199</title>
<g id="a_node29"><a xlink:href="_momentum_source_8_h.html" target="_top" xlink:title=" ">
<polygon fill="white" stroke="red" points="2234,-56.5 2234,-75.5 2350,-75.5 2350,-56.5 2234,-56.5"/>
<text text-anchor="middle" x="2292" y="-63.5" font-family="Helvetica,sans-Serif" font-size="10.00">MomentumSource.H</text>
</a>
</g>
</g>
<!-- Node2&#45;&gt;Node199 -->
<g id="edge32" class="edge">
<title>Node2&#45;&gt;Node199</title>
<path fill="none" stroke="midnightblue" d="M1570.78,-119.05C1684.27,-114.16 1978.9,-100.06 2224,-76 2227.2,-75.69 2230.48,-75.34 2233.79,-74.97"/>
<polygon fill="midnightblue" stroke="midnightblue" points="1570.53,-115.55 1560.69,-119.48 1570.83,-122.55 1570.53,-115.55"/>
</g>
<!-- Node71 -->
<g id="node30" class="node">
<title>Node71</title>
<g id="a_node30"><a xlink:href="_a_b_l_mean_boussinesq_8_h.html" target="_top" xlink:title=" ">
<polygon fill="white" stroke="red" points="1638,-0.5 1638,-19.5 1766,-19.5 1766,-0.5 1638,-0.5"/>
<text text-anchor="middle" x="1702" y="-7.5" font-family="Helvetica,sans-Serif" font-size="10.00">ABLMeanBoussinesq.H</text>
</a>
</g>
</g>
<!-- Node2&#45;&gt;Node71 -->
<g id="edge39" class="edge">
<title>Node2&#45;&gt;Node71</title>
<path fill="none" stroke="midnightblue" d="M1512.18,-103.63C1504.85,-89.41 1498.27,-69.52 1509,-56 1524.99,-35.86 1588.12,-23.89 1637.89,-17.43"/>
<polygon fill="midnightblue" stroke="midnightblue" points="1509.18,-105.45 1517.17,-112.42 1515.27,-101.99 1509.18,-105.45"/>
</g>
<!-- Node203 -->
<g id="node31" class="node">
<title>Node203</title>
<g id="a_node31"><a xlink:href="_boussinesq_buoyancy_8_h.html" target="_top" xlink:title=" ">
<polygon fill="white" stroke="red" points="1937.5,-0.5 1937.5,-19.5 2066.5,-19.5 2066.5,-0.5 1937.5,-0.5"/>
<text text-anchor="middle" x="2002" y="-7.5" font-family="Helvetica,sans-Serif" font-size="10.00">BoussinesqBuoyancy.H</text>
</a>
</g>
</g>
<!-- Node2&#45;&gt;Node203 -->
<g id="edge40" class="edge">
<title>Node2&#45;&gt;Node203</title>
<path fill="none" stroke="midnightblue" d="M1524.68,-101.93C1527.07,-86.97 1532.89,-66.9 1547,-56 1577.23,-32.64 1819.27,-18.97 1937.48,-13.62"/>
<polygon fill="midnightblue" stroke="midnightblue" points="1521.17,-101.8 1523.43,-112.15 1528.12,-102.64 1521.17,-101.8"/>
</g>
<!-- Node204 -->
<g id="node32" class="node">
<title>Node204</title>
<g id="a_node32"><a xlink:href="_coriolis_forcing_8_h.html" target="_top" xlink:title=" ">
<polygon fill="white" stroke="red" points="2161.5,-0.5 2161.5,-19.5 2260.5,-19.5 2260.5,-0.5 2161.5,-0.5"/>
<text text-anchor="middle" x="2211" y="-7.5" font-family="Helvetica,sans-Serif" font-size="10.00">CoriolisForcing.H</text>
</a>
</g>
</g>
<!-- Node2&#45;&gt;Node204 -->
<g id="edge41" class="edge">
<title>Node2&#45;&gt;Node204</title>
<path fill="none" stroke="midnightblue" d="M1532.76,-103.67C1542.52,-88.19 1559.07,-66.4 1580,-56 1586.5,-52.77 2013.46,-24.13 2161.28,-14.3"/>
<polygon fill="midnightblue" stroke="midnightblue" points="1529.7,-101.96 1527.58,-112.33 1535.71,-105.55 1529.7,-101.96"/>
</g>
<!-- Node205 -->
<g id="node33" class="node">
<title>Node205</title>
<g id="a_node33"><a xlink:href="_density_buoyancy_8_h.html" target="_top" xlink:title=" ">
<polygon fill="white" stroke="red" points="2316.5,-0.5 2316.5,-19.5 2427.5,-19.5 2427.5,-0.5 2316.5,-0.5"/>
<text text-anchor="middle" x="2372" y="-7.5" font-family="Helvetica,sans-Serif" font-size="10.00">DensityBuoyancy.H</text>
</a>
</g>
</g>
<!-- Node2&#45;&gt;Node205 -->
<g id="edge42" class="edge">
<title>Node2&#45;&gt;Node205</title>
<path fill="none" stroke="midnightblue" d="M1570.97,-120.69C1850.35,-118.78 3256.19,-107.61 3287,-76 3293.2,-69.63 3293.13,-62.44 3287,-56 3286.07,-55.02 2626.24,-23.22 2427.8,-13.68"/>
<polygon fill="midnightblue" stroke="midnightblue" points="1570.74,-117.19 1560.76,-120.76 1570.78,-124.19 1570.74,-117.19"/>
</g>
<!-- Node207 -->
<g id="node34" class="node">
<title>Node207</title>
<g id="a_node34"><a xlink:href="_gravity_forcing_8_h.html" target="_top" xlink:title=" ">
<polygon fill="white" stroke="red" points="2568,-0.5 2568,-19.5 2666,-19.5 2666,-0.5 2568,-0.5"/>
<text text-anchor="middle" x="2617" y="-7.5" font-family="Helvetica,sans-Serif" font-size="10.00">GravityForcing.H</text>
</a>
</g>
</g>
<!-- Node2&#45;&gt;Node207 -->
<g id="edge43" class="edge">
<title>Node2&#45;&gt;Node207</title>
<path fill="none" stroke="midnightblue" d="M1570.96,-120.7C1851.8,-118.85 3271.89,-107.91 3303,-76 3309.21,-69.64 3309.08,-62.49 3303,-56 3281.25,-32.78 2819.72,-17.02 2666.18,-12.4"/>
<polygon fill="midnightblue" stroke="midnightblue" points="1570.67,-117.2 1560.69,-120.77 1570.72,-124.2 1570.67,-117.2"/>
</g>
<!-- Node209 -->
<g id="node35" class="node">
<title>Node209</title>
<g id="a_node35"><a xlink:href="_m_m_s_forcing_8_h.html" target="_top" xlink:title=" ">
<polygon fill="white" stroke="red" points="3067,-0.5 3067,-19.5 3153,-19.5 3153,-0.5 3067,-0.5"/>
<text text-anchor="middle" x="3110" y="-7.5" font-family="Helvetica,sans-Serif" font-size="10.00">MMSForcing.H</text>
</a>
</g>
</g>
<!-- Node2&#45;&gt;Node209 -->
<g id="edge55" class="edge">
<title>Node2&#45;&gt;Node209</title>
<path fill="none" stroke="midnightblue" d="M1570.93,-120.71C1853.22,-118.92 3287.59,-108.21 3319,-76 3369.74,-23.97 3228.02,-13.4 3153.09,-11.39"/>
<polygon fill="midnightblue" stroke="midnightblue" points="1570.6,-117.22 1560.62,-120.78 1570.64,-124.22 1570.6,-117.22"/>
</g>
<!-- Node210 -->
<g id="node36" class="node">
<title>Node210</title>
<g id="a_node36"><a xlink:href="_source_term_8_h.html" target="_top" xlink:title=" ">
<polygon fill="white" stroke="red" points="1589,-56.5 1589,-75.5 1673,-75.5 1673,-56.5 1589,-56.5"/>
<text text-anchor="middle" x="1631" y="-63.5" font-family="Helvetica,sans-Serif" font-size="10.00">SourceTerm.H</text>
</a>
</g>
</g>
<!-- Node2&#45;&gt;Node210 -->
<g id="edge44" class="edge">
<title>Node2&#45;&gt;Node210</title>
<path fill="none" stroke="midnightblue" d="M1549.55,-107.73C1569.55,-97.73 1596.39,-84.31 1613.69,-75.65"/>
<polygon fill="midnightblue" stroke="midnightblue" points="1547.73,-104.72 1540.35,-112.32 1550.86,-110.98 1547.73,-104.72"/>
</g>
<!-- Node211 -->
<g id="node37" class="node">
<title>Node211</title>
<g id="a_node37"><a xlink:href="_s_d_r_source_8_h.html" target="_top" xlink:title=" ">
<polygon fill="white" stroke="red" points="1691,-56.5 1691,-75.5 1771,-75.5 1771,-56.5 1691,-56.5"/>
<text text-anchor="middle" x="1731" y="-63.5" font-family="Helvetica,sans-Serif" font-size="10.00">SDRSource.H</text>
</a>
</g>
</g>
<!-- Node2&#45;&gt;Node211 -->
<g id="edge46" class="edge">
<title>Node2&#45;&gt;Node211</title>
<path fill="none" stroke="midnightblue" d="M1565.78,-109.89C1605.06,-99.7 1662.43,-84.8 1698.2,-75.52"/>
<polygon fill="midnightblue" stroke="midnightblue" points="1564.76,-106.54 1555.96,-112.44 1566.52,-113.32 1564.76,-106.54"/>
</g>
<!-- Node213 -->
<g id="node38" class="node">
<title>Node213</title>
<g id="a_node38"><a xlink:href="_temperature_source_8_h.html" target="_top" xlink:title=" ">
<polygon fill="white" stroke="red" points="1789,-56.5 1789,-75.5 1911,-75.5 1911,-56.5 1789,-56.5"/>
<text text-anchor="middle" x="1850" y="-63.5" font-family="Helvetica,sans-Serif" font-size="10.00">TemperatureSource.H</text>
</a>
</g>
</g>
<!-- Node2&#45;&gt;Node213 -->
<g id="edge47" class="edge">
<title>Node2&#45;&gt;Node213</title>
<path fill="none" stroke="midnightblue" d="M1570.59,-113.14C1631.3,-103.12 1735.91,-85.84 1798.46,-75.51"/>
<polygon fill="midnightblue" stroke="midnightblue" points="1569.81,-109.72 1560.51,-114.81 1570.95,-116.63 1569.81,-109.72"/>
</g>
<!-- Node214 -->
<g id="node39" class="node">
<title>Node214</title>
<g id="a_node39"><a xlink:href="_t_k_e_source_8_h.html" target="_top" xlink:title=" ">
<polygon fill="white" stroke="red" points="1929.5,-56.5 1929.5,-75.5 2008.5,-75.5 2008.5,-56.5 1929.5,-56.5"/>
<text text-anchor="middle" x="1969" y="-63.5" font-family="Helvetica,sans-Serif" font-size="10.00">TKESource.H</text>
</a>
</g>
</g>
<!-- Node2&#45;&gt;Node214 -->
<g id="edge48" class="edge">
<title>Node2&#45;&gt;Node214</title>
<path fill="none" stroke="midnightblue" d="M1570.64,-116.67C1645.3,-109.64 1794.34,-94.64 1920,-76 1923.08,-75.54 1926.26,-75.04 1929.46,-74.5"/>
<polygon fill="midnightblue" stroke="midnightblue" points="1570.24,-113.19 1560.61,-117.61 1570.89,-120.16 1570.24,-113.19"/>
</g>
<!-- Node218 -->
<g id="node40" class="node">
<title>Node218</title>
<g id="a_node40"><a xlink:href="_split_advection_8_h.html" target="_top" xlink:title=" ">
<polygon fill="white" stroke="red" points="2026,-56.5 2026,-75.5 2124,-75.5 2124,-56.5 2026,-56.5"/>
<text text-anchor="middle" x="2075" y="-63.5" font-family="Helvetica,sans-Serif" font-size="10.00">SplitAdvection.H</text>
</a>
</g>
</g>
<!-- Node2&#45;&gt;Node218 -->
<g id="edge49" class="edge">
<title>Node2&#45;&gt;Node218</title>
<path fill="none" stroke="midnightblue" d="M1570.81,-117.65C1659.14,-111.25 1853.75,-96.08 2017,-76 2019.93,-75.64 2022.95,-75.24 2025.98,-74.83"/>
<polygon fill="midnightblue" stroke="midnightblue" points="1570.3,-114.18 1560.58,-118.39 1570.8,-121.16 1570.3,-114.18"/>
</g>
<!-- Node220 -->
<g id="node41" class="node">
<title>Node220</title>
<g id="a_node41"><a xlink:href="fvm__utils_8_h.html" target="_top" xlink:title=" ">
<polygon fill="white" stroke="red" points="2142.5,-56.5 2142.5,-75.5 2215.5,-75.5 2215.5,-56.5 2142.5,-56.5"/>
<text text-anchor="middle" x="2179" y="-63.5" font-family="Helvetica,sans-Serif" font-size="10.00">fvm_utils.H</text>
</a>
</g>
</g>
<!-- Node2&#45;&gt;Node220 -->
<g id="edge50" class="edge">
<title>Node2&#45;&gt;Node220</title>
<path fill="none" stroke="midnightblue" d="M1570.73,-119.42C1673.79,-115.59 1924.66,-103.96 2133,-76 2136.06,-75.59 2139.23,-75.1 2142.41,-74.57"/>
<polygon fill="midnightblue" stroke="midnightblue" points="1570.51,-115.93 1560.64,-119.79 1570.77,-122.92 1570.51,-115.93"/>
</g>
<!-- Node230 -->
<g id="node42" class="node">
<title>Node230</title>
<g id="a_node42"><a xlink:href="_i_b_8_h.html" target="_top" xlink:title=" ">
<polygon fill="white" stroke="red" points="1343.5,-56.5 1343.5,-75.5 1380.5,-75.5 1380.5,-56.5 1343.5,-56.5"/>
<text text-anchor="middle" x="1362" y="-63.5" font-family="Helvetica,sans-Serif" font-size="10.00">IB.H</text>
</a>
</g>
</g>
<!-- Node2&#45;&gt;Node230 -->
<g id="edge51" class="edge">
<title>Node2&#45;&gt;Node230</title>
<path fill="none" stroke="midnightblue" d="M1487.8,-109.19C1454.9,-98.16 1407.04,-82.11 1380.85,-73.32"/>
<polygon fill="midnightblue" stroke="midnightblue" points="1486.9,-112.58 1497.49,-112.44 1489.12,-105.95 1486.9,-112.58"/>
</g>
<!-- Node231 -->
<g id="node43" class="node">
<title>Node231</title>
<g id="a_node43"><a xlink:href="_linear_profile_8cpp.html" target="_top" xlink:title=" ">
<polygon fill="white" stroke="black" points="2368,-56.5 2368,-75.5 2466,-75.5 2466,-56.5 2368,-56.5"/>
<text text-anchor="middle" x="2417" y="-63.5" font-family="Helvetica,sans-Serif" font-size="10.00">LinearProfile.cpp</text>
</a>
</g>
</g>
<!-- Node2&#45;&gt;Node231 -->
<g id="edge56" class="edge">
<title>Node2&#45;&gt;Node231</title>
<path fill="none" stroke="midnightblue" d="M1570.84,-120.1C1698.93,-117.33 2060.2,-107.15 2359,-76 2361.94,-75.69 2364.96,-75.34 2368,-74.96"/>
<polygon fill="midnightblue" stroke="midnightblue" points="1570.53,-116.61 1560.6,-120.32 1570.67,-123.61 1570.53,-116.61"/>
</g>
<!-- Node44 -->
<g id="node44" class="node">
<title>Node44</title>
<g id="a_node44"><a xlink:href="_power_law_profile_8cpp.html" target="_top" xlink:title=" ">
<polygon fill="white" stroke="black" points="2484.5,-56.5 2484.5,-75.5 2601.5,-75.5 2601.5,-56.5 2484.5,-56.5"/>
<text text-anchor="middle" x="2543" y="-63.5" font-family="Helvetica,sans-Serif" font-size="10.00">PowerLawProfile.cpp</text>
</a>
</g>
</g>
<!-- Node2&#45;&gt;Node44 -->
<g id="edge57" class="edge">
<title>Node2&#45;&gt;Node44</title>
<path fill="none" stroke="midnightblue" d="M1571.07,-120.16C1710.87,-117.41 2129.27,-106.99 2475,-76 2478.08,-75.72 2481.24,-75.41 2484.43,-75.07"/>
<polygon fill="midnightblue" stroke="midnightblue" points="1570.65,-116.67 1560.72,-120.36 1570.79,-123.67 1570.65,-116.67"/>
</g>
<!-- Node232 -->
<g id="node45" class="node">
<title>Node232</title>
<g id="a_node45"><a xlink:href="_u_d_f_8cpp.html" target="_top" xlink:title=" ">
<polygon fill="white" stroke="black" points="2620,-56.5 2620,-75.5 2676,-75.5 2676,-56.5 2620,-56.5"/>
<text text-anchor="middle" x="2648" y="-63.5" font-family="Helvetica,sans-Serif" font-size="10.00">UDF.cpp</text>
</a>
</g>
</g>
<!-- Node2&#45;&gt;Node232 -->
<g id="edge58" class="edge">
<title>Node2&#45;&gt;Node232</title>
<path fill="none" stroke="midnightblue" d="M1570.8,-120.24C1753.1,-117.14 2404.77,-104.29 2610,-76 2613.22,-75.56 2616.57,-74.96 2619.89,-74.29"/>
<polygon fill="midnightblue" stroke="midnightblue" points="1570.66,-116.74 1560.72,-120.41 1570.78,-123.74 1570.66,-116.74"/>
</g>
<!-- Node233 -->
<g id="node46" class="node">
<title>Node233</title>
<g id="a_node46"><a xlink:href="_transport_model_8_h.html" target="_top" xlink:title=" ">
<polygon fill="white" stroke="red" points="2694,-56.5 2694,-75.5 2796,-75.5 2796,-56.5 2694,-56.5"/>
<text text-anchor="middle" x="2745" y="-63.5" font-family="Helvetica,sans-Serif" font-size="10.00">TransportModel.H</text>
</a>
</g>
</g>
<!-- Node2&#45;&gt;Node233 -->
<g id="edge59" class="edge">
<title>Node2&#45;&gt;Node233</title>
<path fill="none" stroke="midnightblue" d="M1571.11,-121.03C1730.27,-120.74 2254.21,-116.53 2685,-76 2687.94,-75.72 2690.95,-75.4 2693.98,-75.04"/>
<polygon fill="midnightblue" stroke="midnightblue" points="1570.71,-117.53 1560.72,-121.05 1570.72,-124.53 1570.71,-117.53"/>
</g>
<!-- Node132 -->
<g id="node47" class="node">
<title>Node132</title>
<g id="a_node47"><a xlink:href="_smagorinsky_8_h.html" target="_top" xlink:title=" ">
<polygon fill="white" stroke="red" points="2814.5,-56.5 2814.5,-75.5 2903.5,-75.5 2903.5,-56.5 2814.5,-56.5"/>
<text text-anchor="middle" x="2859" y="-63.5" font-family="Helvetica,sans-Serif" font-size="10.00">Smagorinsky.H</text>
</a>
</g>
</g>
<!-- Node2&#45;&gt;Node132 -->
<g id="edge60" class="edge">
<title>Node2&#45;&gt;Node132</title>
<path fill="none" stroke="midnightblue" d="M1570.77,-120.16C1772.88,-116.46 2558.61,-100.75 2805,-76 2808.03,-75.7 2811.14,-75.33 2814.27,-74.92"/>
<polygon fill="midnightblue" stroke="midnightblue" points="1570.69,-116.66 1560.76,-120.34 1570.82,-123.66 1570.69,-116.66"/>
</g>
<!-- Node164 -->
<g id="node48" class="node">
<title>Node164</title>
<g id="a_node48"><a xlink:href="_act_src_line_op_8_h.html" target="_top" xlink:title=" ">
<polygon fill="white" stroke="red" points="2922,-56.5 2922,-75.5 3014,-75.5 3014,-56.5 2922,-56.5"/>
<text text-anchor="middle" x="2968" y="-63.5" font-family="Helvetica,sans-Serif" font-size="10.00">ActSrcLineOp.H</text>
</a>
</g>
</g>
<!-- Node2&#45;&gt;Node164 -->
<g id="edge63" class="edge">
<title>Node2&#45;&gt;Node164</title>
<path fill="none" stroke="midnightblue" d="M1570.86,-120.27C1783.43,-116.88 2643.35,-101.83 2912,-76 2915.23,-75.69 2918.57,-75.31 2921.91,-74.88"/>
<polygon fill="midnightblue" stroke="midnightblue" points="1570.6,-116.77 1560.65,-120.43 1570.71,-123.77 1570.6,-116.77"/>
</g>
<!-- Node171 -->
<g id="node49" class="node">
<title>Node171</title>
<g id="a_node49"><a xlink:href="_act_src_disk_op___turbine_8_h.html" target="_top" xlink:title=" ">
<polygon fill="white" stroke="red" points="3032,-56.5 3032,-75.5 3166,-75.5 3166,-56.5 3032,-56.5"/>
<text text-anchor="middle" x="3099" y="-63.5" font-family="Helvetica,sans-Serif" font-size="10.00">ActSrcDiskOp_Turbine.H</text>
</a>
</g>
</g>
<!-- Node2&#45;&gt;Node171 -->
<g id="edge64" class="edge">
<title>Node2&#45;&gt;Node171</title>
<path fill="none" stroke="midnightblue" d="M1570.75,-121.09C1756.99,-121.13 2452.43,-118.26 3023,-76 3025.92,-75.78 3028.89,-75.54 3031.89,-75.27"/>
<polygon fill="midnightblue" stroke="midnightblue" points="1570.74,-117.59 1560.74,-121.09 1570.74,-124.59 1570.74,-117.59"/>
</g>
<!-- Node172 -->
<g id="node50" class="node">
<title>Node172</title>
<g id="a_node50"><a xlink:href="_act_src_disk_op_8_h.html" target="_top" xlink:title=" ">
<polygon fill="white" stroke="red" points="3184.5,-56.5 3184.5,-75.5 3277.5,-75.5 3277.5,-56.5 3184.5,-56.5"/>
<text text-anchor="middle" x="3231" y="-63.5" font-family="Helvetica,sans-Serif" font-size="10.00">ActSrcDiskOp.H</text>
</a>
</g>
</g>
<!-- Node2&#45;&gt;Node172 -->
<g id="edge65" class="edge">
<title>Node2&#45;&gt;Node172</title>
<path fill="none" stroke="midnightblue" d="M1571.19,-120.55C1808.2,-118.19 2851.63,-106.26 3175,-76 3178.04,-75.72 3181.16,-75.37 3184.31,-74.98"/>
<polygon fill="midnightblue" stroke="midnightblue" points="1570.81,-117.05 1560.84,-120.65 1570.88,-124.05 1570.81,-117.05"/>
</g>
<!-- Node4&#45;&gt;Node3 -->
<g id="edge4" class="edge">
<title>Node4&#45;&gt;Node3</title>
<path fill="none" stroke="midnightblue" d="M3478.19,-51.18C3461.08,-41.24 3438.53,-28.15 3423.9,-19.65"/>
<polygon fill="midnightblue" stroke="midnightblue" points="3476.65,-54.33 3487.06,-56.32 3480.17,-48.28 3476.65,-54.33"/>
</g>
<!-- Node5 -->
<g id="node5" class="node">
<title>Node5</title>
<g id="a_node5"><a xlink:href="_fixed_gradient_b_c_8cpp.html" target="_top" xlink:title=" ">
<polygon fill="white" stroke="black" points="3474,-0.5 3474,-19.5 3592,-19.5 3592,-0.5 3474,-0.5"/>
<text text-anchor="middle" x="3533" y="-7.5" font-family="Helvetica,sans-Serif" font-size="10.00">FixedGradientBC.cpp</text>
</a>
</g>
</g>
<!-- Node4&#45;&gt;Node5 -->
<g id="edge5" class="edge">
<title>Node4&#45;&gt;Node5</title>
<path fill="none" stroke="midnightblue" d="M3512.18,-47.27C3517.47,-38.05 3523.72,-27.17 3527.98,-19.75"/>
<polygon fill="midnightblue" stroke="midnightblue" points="3509.06,-45.67 3507.12,-56.08 3515.13,-49.15 3509.06,-45.67"/>
</g>
<!-- Node7 -->
<g id="node7" class="node">
<title>Node7</title>
<g id="a_node7"><a xlink:href="icns__bcop_8_h.html" target="_top" xlink:title=" ">
<polygon fill="white" stroke="red" points="3610.5,-0.5 3610.5,-19.5 3685.5,-19.5 3685.5,-0.5 3610.5,-0.5"/>
<text text-anchor="middle" x="3648" y="-7.5" font-family="Helvetica,sans-Serif" font-size="10.00">icns_bcop.H</text>
</a>
</g>
</g>
<!-- Node6&#45;&gt;Node7 -->
<g id="edge7" class="edge">
<title>Node6&#45;&gt;Node7</title>
<path fill="none" stroke="midnightblue" d="M3641.5,-46.1C3643.16,-37.14 3645.06,-26.86 3646.38,-19.75"/>
<polygon fill="midnightblue" stroke="midnightblue" points="3638.03,-45.61 3639.65,-56.08 3644.91,-46.89 3638.03,-45.61"/>
</g>
<!-- Node10 -->
<g id="node9" class="node">
<title>Node10</title>
<g id="a_node9"><a xlink:href="_c_f_d_sim_8cpp.html" target="_top" xlink:title=" ">
<polygon fill="white" stroke="black" points="572,-0.5 572,-19.5 648,-19.5 648,-0.5 572,-0.5"/>
<text text-anchor="middle" x="610" y="-7.5" font-family="Helvetica,sans-Serif" font-size="10.00">CFDSim.cpp</text>
</a>
</g>
</g>
<!-- Node9&#45;&gt;Node10 -->
<g id="edge9" class="edge">
<title>Node9&#45;&gt;Node10</title>
<path fill="none" stroke="midnightblue" d="M497.48,-52.91C524.74,-42.75 562.99,-28.51 587.13,-19.52"/>
<polygon fill="midnightblue" stroke="midnightblue" points="496.13,-49.67 487.98,-56.44 498.57,-56.23 496.13,-49.67"/>
</g>
<!-- Node9&#45;&gt;Node11 -->
<g id="edge10" class="edge">
<title>Node9&#45;&gt;Node11</title>
<path fill="none" stroke="midnightblue" d="M508.76,-56C672.54,-35.36 1122.48,-16.61 1237.15,-12.05"/>
<polygon fill="midnightblue" stroke="midnightblue" points="507.85,-52.59 498.39,-57.37 508.76,-59.53 507.85,-52.59"/>
</g>
<!-- Node24 -->
<g id="node11" class="node">
<title>Node24</title>
<g id="a_node11"><a xlink:href="_p_d_e_ops_8_h.html" target="_top" xlink:title=" ">
<polygon fill="white" stroke="red" points="358.5,-0.5 358.5,-19.5 423.5,-19.5 423.5,-0.5 358.5,-0.5"/>
<text text-anchor="middle" x="391" y="-7.5" font-family="Helvetica,sans-Serif" font-size="10.00">PDEOps.H</text>
</a>
</g>
</g>
<!-- Node9&#45;&gt;Node24 -->
<g id="edge11" class="edge">
<title>Node9&#45;&gt;Node24</title>
<path fill="none" stroke="midnightblue" d="M444.97,-50.38C431.59,-40.62 414.44,-28.11 403.11,-19.83"/>
<polygon fill="midnightblue" stroke="midnightblue" points="442.97,-53.26 453.11,-56.32 447.1,-47.6 442.97,-53.26"/>
</g>
<!-- Node9&#45;&gt;Node89 -->
<g id="edge12" class="edge">
<title>Node9&#45;&gt;Node89</title>
<path fill="none" stroke="midnightblue" d="M429.26,-53.3C398.17,-43.13 353.85,-28.62 326.02,-19.52"/>
<polygon fill="midnightblue" stroke="midnightblue" points="428.26,-56.66 438.86,-56.44 430.44,-50.01 428.26,-56.66"/>
</g>
<!-- Node9&#45;&gt;Node103 -->
<g id="edge13" class="edge">
<title>Node9&#45;&gt;Node103</title>
<path fill="none" stroke="midnightblue" d="M508.54,-56.02C858.25,-11.81 951.98,-57.21 1299,-20 1308.65,-18.97 1319.21,-17.29 1328.34,-15.66"/>
<polygon fill="midnightblue" stroke="midnightblue" points="507.86,-52.58 498.38,-57.32 508.75,-59.53 507.86,-52.58"/>
</g>
<!-- Node9&#45;&gt;Node106 -->
<g id="edge14" class="edge">
<title>Node9&#45;&gt;Node106</title>
<path fill="none" stroke="midnightblue" d="M508.46,-56.04C895.77,-7.78 998.84,-55.33 1384,-20 1387.08,-19.72 1390.24,-19.39 1393.43,-19.03"/>
<polygon fill="midnightblue" stroke="midnightblue" points="507.87,-52.59 498.38,-57.31 508.74,-59.53 507.87,-52.59"/>
</g>
<!-- Node9&#45;&gt;Node136 -->
<g id="edge15" class="edge">
<title>Node9&#45;&gt;Node136</title>
<path fill="none" stroke="midnightblue" d="M421.9,-56.44C371.05,-46.35 287.01,-29.66 236.14,-19.56"/>
<polygon fill="midnightblue" stroke="midnightblue" points="421.43,-59.92 431.92,-58.43 422.79,-53.05 421.43,-59.92"/>
</g>
<!-- Node9&#45;&gt;Node137 -->
<g id="edge16" class="edge">
<title>Node9&#45;&gt;Node137</title>
<path fill="none" stroke="midnightblue" d="M475.83,-47.27C481.47,-38.05 488.12,-27.17 492.65,-19.75"/>
<polygon fill="midnightblue" stroke="midnightblue" points="472.68,-45.73 470.45,-56.08 478.65,-49.38 472.68,-45.73"/>
</g>
<!-- Node9&#45;&gt;Node166 -->
<g id="edge17" class="edge">
<title>Node9&#45;&gt;Node166</title>
<path fill="none" stroke="midnightblue" d="M508.58,-55.9C656.53,-32.73 821.02,-19.13 894.34,-13.71"/>
<polygon fill="midnightblue" stroke="midnightblue" points="507.74,-52.48 498.41,-57.51 508.84,-59.4 507.74,-52.48"/>
</g>
<!-- Node197&#45;&gt;Node24 -->
<g id="edge29" class="edge">
<title>Node197&#45;&gt;Node24</title>
<path fill="none" stroke="midnightblue" d="M350.62,-49.25C360.73,-39.67 373.28,-27.79 381.68,-19.83"/>
<polygon fill="midnightblue" stroke="midnightblue" points="348.01,-46.91 343.16,-56.32 352.82,-51.99 348.01,-46.91"/>
</g>
<!-- Node197&#45;&gt;Node89 -->
<g id="edge30" class="edge">
<title>Node197&#45;&gt;Node89</title>
<path fill="none" stroke="midnightblue" d="M323.02,-47.57C317.17,-38.27 310.23,-27.25 305.51,-19.75"/>
<polygon fill="midnightblue" stroke="midnightblue" points="320.1,-49.49 328.39,-56.08 326.02,-45.76 320.1,-49.49"/>
</g>
<!-- Node199&#45;&gt;Node71 -->
<g id="edge33" class="edge">
<title>Node199&#45;&gt;Node71</title>
<path fill="none" stroke="midnightblue" d="M2223.8,-56.03C2052.06,-37.45 1863.14,-22.73 1766.38,-15.6"/>
<polygon fill="midnightblue" stroke="midnightblue" points="2223.46,-59.51 2233.78,-57.12 2224.22,-52.56 2223.46,-59.51"/>
</g>
<!-- Node199&#45;&gt;Node203 -->
<g id="edge34" class="edge">
<title>Node199&#45;&gt;Node203</title>
<path fill="none" stroke="midnightblue" d="M2236.15,-54.6C2181.35,-44.4 2098.77,-29.02 2047.74,-19.52"/>
<polygon fill="midnightblue" stroke="midnightblue" points="2235.58,-58.05 2246.05,-56.44 2236.86,-51.17 2235.58,-58.05"/>
</g>
<!-- Node199&#45;&gt;Node204 -->
<g id="edge35" class="edge">
<title>Node199&#45;&gt;Node204</title>
<path fill="none" stroke="midnightblue" d="M2270.43,-50.62C2255.64,-40.76 2236.49,-27.99 2223.98,-19.65"/>
<polygon fill="midnightblue" stroke="midnightblue" points="2268.72,-53.69 2278.99,-56.32 2272.61,-47.86 2268.72,-53.69"/>
</g>
<!-- Node199&#45;&gt;Node205 -->
<g id="edge36" class="edge">
<title>Node199&#45;&gt;Node205</title>
<path fill="none" stroke="midnightblue" d="M2313.3,-50.62C2327.92,-40.76 2346.83,-27.99 2359.18,-19.65"/>
<polygon fill="midnightblue" stroke="midnightblue" points="2311.18,-47.83 2304.85,-56.32 2315.1,-53.63 2311.18,-47.83"/>
</g>
<!-- Node199&#45;&gt;Node207 -->
<g id="edge37" class="edge">
<title>Node199&#45;&gt;Node207</title>
<path fill="none" stroke="midnightblue" d="M2353.57,-54.77C2415.74,-44.44 2510.56,-28.69 2567.87,-19.16"/>
<polygon fill="midnightblue" stroke="midnightblue" points="2352.79,-51.35 2343.5,-56.44 2353.94,-58.26 2352.79,-51.35"/>
</g>
<!-- Node199&#45;&gt;Node209 -->
<g id="edge38" class="edge">
<title>Node199&#45;&gt;Node209</title>
<path fill="none" stroke="midnightblue" d="M2360.25,-55.95C2635.34,-29.64 2952.88,-16.6 3066.74,-12.48"/>
<polygon fill="midnightblue" stroke="midnightblue" points="2359.69,-52.49 2350.07,-56.93 2360.36,-59.46 2359.69,-52.49"/>
</g>
<!-- Node230&#45;&gt;Node103 -->
<g id="edge52" class="edge">
<title>Node230&#45;&gt;Node103</title>
<path fill="none" stroke="midnightblue" d="M1358.5,-46.1C1356.84,-37.14 1354.94,-26.86 1353.62,-19.75"/>
<polygon fill="midnightblue" stroke="midnightblue" points="1355.09,-46.89 1360.35,-56.08 1361.97,-45.61 1355.09,-46.89"/>
</g>
</g>
</svg>
        <g id="navigator" transform="translate(0 0)" fill="#404254">
                <rect fill="#f2f5e9" fill-opacity="0.5" stroke="#606060" stroke-width=".5" x="0" y="0" width="60" height="60"/>
                <use id="zoomplus" xlink:href="#zoomPlus" x="17" y="9" onmousedown="handleZoom(evt,'in')"/>
                <use id="zoomminus" xlink:href="#zoomMin" x="42" y="9" onmousedown="handleZoom(evt,'out')"/>
                <use id="reset" xlink:href="#resetDef" x="30" y="36" onmousedown="handleReset()"/>
                <g id="arrowUp" xlink:href="#dirArrow" transform="translate(30 24)" onmousedown="handlePan(0,-1)">
                  <use xlink:href="#rim" fill="#404040">
                        <set attributeName="fill" to="#808080" begin="arrowUp.mouseover" end="arrowUp.mouseout"/>
                  </use>
                  <path fill="none" stroke="white" stroke-width="1.5" d="M0,-3.0v7 M-2.5,-0.5L0,-3.0L2.5,-0.5"/>
                </g>
                <g id="arrowRight" xlink:href="#dirArrow" transform="rotate(90) translate(36 -43)" onmousedown="handlePan(1,0)">
                  <use xlink:href="#rim" fill="#404040">
                        <set attributeName="fill" to="#808080" begin="arrowRight.mouseover" end="arrowRight.mouseout"/>
                  </use>
                  <path fill="none" stroke="white" stroke-width="1.5" d="M0,-3.0v7 M-2.5,-0.5L0,-3.0L2.5,-0.5"/>
                </g>
                <g id="arrowDown" xlink:href="#dirArrow" transform="rotate(180) translate(-30 -48)" onmousedown="handlePan(0,1)">
                  <use xlink:href="#rim" fill="#404040">
                        <set attributeName="fill" to="#808080" begin="arrowDown.mouseover" end="arrowDown.mouseout"/>
                  </use>
                  <path fill="none" stroke="white" stroke-width="1.5" d="M0,-3.0v7 M-2.5,-0.5L0,-3.0L2.5,-0.5"/>
                </g>
                <g id="arrowLeft" xlink:href="#dirArrow" transform="rotate(270) translate(-36 17)" onmousedown="handlePan(-1,0)">
                  <use xlink:href="#rim" fill="#404040">
                        <set attributeName="fill" to="#808080" begin="arrowLeft.mouseover" end="arrowLeft.mouseout"/>
                  </use>
                  <path fill="none" stroke="white" stroke-width="1.5" d="M0,-3.0v7 M-2.5,-0.5L0,-3.0L2.5,-0.5"/>
                </g>
        </g>
        <svg viewBox="0 0 15 15" width="100%" height="30px" preserveAspectRatio="xMaxYMin meet">
         <g id="arrow_out" transform="scale(0.3 0.3)">
          <a xlink:href="_scratch_field_8_h__dep__incl_org.svg" target="_base">
           <rect id="button" ry="5" rx="5" y="6" x="6" height="38" width="38"
                fill="#f2f5e9" fill-opacity="0.5" stroke="#606060" stroke-width="1.0"/>
           <path id="arrow"
             d="M 11.500037,31.436501 C 11.940474,20.09759 22.043105,11.32322 32.158766,21.979434 L 37.068811,17.246167 C 37.068811,17.246167 37.088388,32 37.088388,32 L 22.160133,31.978069 C 22.160133,31.978069 26.997745,27.140456 26.997745,27.140456 C 18.528582,18.264221 13.291696,25.230495 11.500037,31.436501 z"
             style="fill:#404040;"/>
          </a>
         </g>
        </svg>
</svg>
