<?xml version="1.0" encoding="UTF-8" standalone="no"?>
<!DOCTYPE svg PUBLIC "-//W3C//DTD SVG 1.1//EN"
 "http://www.w3.org/Graphics/SVG/1.1/DTD/svg11.dtd">
<!-- Generated by graphviz version 2.43.0 (0)
 -->
<!-- Title: actuator_utils.H Pages: 1 -->
<svg width="931pt" height="308pt"
 viewBox="0.00 0.00 930.50 308.00" xmlns="http://www.w3.org/2000/svg" xmlns:xlink="http://www.w3.org/1999/xlink">
<g id="graph0" class="graph" transform="scale(1 1) rotate(0) translate(4 304)">
<title>actuator_utils.H</title>
<polygon fill="white" stroke="transparent" points="-4,4 -4,-304 926.5,-304 926.5,4 -4,4"/>
<!-- Node1 -->
<g id="node1" class="node">
<title>Node1</title>
<g id="a_node1"><a xlink:title=" ">
<polygon fill="#bfbfbf" stroke="black" points="570.5,-280.5 570.5,-299.5 664.5,-299.5 664.5,-280.5 570.5,-280.5"/>
<text text-anchor="middle" x="617.5" y="-287.5" font-family="Helvetica,sans-Serif" font-size="10.00">actuator_utils.H</text>
</a>
</g>
</g>
<!-- Node2 -->
<g id="node2" class="node">
<title>Node2</title>
<g id="a_node2"><a xlink:href="actuator__ops_i_8_h.html" target="_top" xlink:title=" ">
<polygon fill="white" stroke="black" points="402,-224.5 402,-243.5 495,-243.5 495,-224.5 402,-224.5"/>
<text text-anchor="middle" x="448.5" y="-231.5" font-family="Helvetica,sans-Serif" font-size="10.00">actuator_opsI.H</text>
</a>
</g>
</g>
<!-- Node1&#45;&gt;Node2 -->
<g id="edge1" class="edge">
<title>Node1&#45;&gt;Node2</title>
<path fill="none" stroke="midnightblue" d="M580.9,-277.3C549.05,-267.13 503.66,-252.62 475.15,-243.52"/>
<polygon fill="midnightblue" stroke="midnightblue" points="580.13,-280.73 590.72,-280.44 582.26,-274.07 580.13,-280.73"/>
</g>
<!-- Node4 -->
<g id="node4" class="node">
<title>Node4</title>
<g id="a_node4"><a xlink:href="_act_src_line_op_8_h.html" target="_top" xlink:title=" ">
<polygon fill="white" stroke="black" points="552.5,-112.5 552.5,-131.5 644.5,-131.5 644.5,-112.5 552.5,-112.5"/>
<text text-anchor="middle" x="598.5" y="-119.5" font-family="Helvetica,sans-Serif" font-size="10.00">ActSrcLineOp.H</text>
</a>
</g>
</g>
<!-- Node1&#45;&gt;Node4 -->
<g id="edge28" class="edge">
<title>Node1&#45;&gt;Node4</title>
<path fill="none" stroke="midnightblue" d="M615.32,-269.93C611.2,-233.92 602.42,-157.23 599.48,-131.57"/>
<polygon fill="midnightblue" stroke="midnightblue" points="611.86,-270.54 616.48,-280.08 618.82,-269.74 611.86,-270.54"/>
</g>
<!-- Node11 -->
<g id="node11" class="node">
<title>Node11</title>
<g id="a_node11"><a xlink:href="_act_src_disk_op___turbine_8_h.html" target="_top" xlink:title=" ">
<polygon fill="white" stroke="black" points="662.5,-112.5 662.5,-131.5 796.5,-131.5 796.5,-112.5 662.5,-112.5"/>
<text text-anchor="middle" x="729.5" y="-119.5" font-family="Helvetica,sans-Serif" font-size="10.00">ActSrcDiskOp_Turbine.H</text>
</a>
</g>
</g>
<!-- Node1&#45;&gt;Node11 -->
<g id="edge29" class="edge">
<title>Node1&#45;&gt;Node11</title>
<path fill="none" stroke="midnightblue" d="M620.29,-270.36C624.89,-244.93 636.1,-198.98 660.5,-168 673.51,-151.48 694.33,-139.1 709.7,-131.54"/>
<polygon fill="midnightblue" stroke="midnightblue" points="616.79,-270.04 618.62,-280.47 623.7,-271.18 616.79,-270.04"/>
</g>
<!-- Node12 -->
<g id="node12" class="node">
<title>Node12</title>
<g id="a_node12"><a xlink:href="_act_src_disk_op_8_h.html" target="_top" xlink:title=" ">
<polygon fill="white" stroke="black" points="441,-112.5 441,-131.5 534,-131.5 534,-112.5 441,-112.5"/>
<text text-anchor="middle" x="487.5" y="-119.5" font-family="Helvetica,sans-Serif" font-size="10.00">ActSrcDiskOp.H</text>
</a>
</g>
</g>
<!-- Node1&#45;&gt;Node12 -->
<g id="edge30" class="edge">
<title>Node1&#45;&gt;Node12</title>
<path fill="none" stroke="midnightblue" d="M604,-271.76C576.46,-236.59 514.66,-157.68 494.21,-131.57"/>
<polygon fill="midnightblue" stroke="midnightblue" points="601.59,-274.36 610.51,-280.08 607.1,-270.04 601.59,-274.36"/>
</g>
<!-- Node15 -->
<g id="node15" class="node">
<title>Node15</title>
<g id="a_node15"><a xlink:href="turbine__fast__ops_8_h.html" target="_top" xlink:title=" ">
<polygon fill="white" stroke="black" points="814.5,-112.5 814.5,-131.5 922.5,-131.5 922.5,-112.5 814.5,-112.5"/>
<text text-anchor="middle" x="868.5" y="-119.5" font-family="Helvetica,sans-Serif" font-size="10.00">turbine_fast_ops.H</text>
</a>
</g>
</g>
<!-- Node1&#45;&gt;Node15 -->
<g id="edge32" class="edge">
<title>Node1&#45;&gt;Node15</title>
<path fill="none" stroke="midnightblue" d="M633.81,-273.5C648.73,-259.71 671.73,-239.39 693.5,-224 748.35,-185.22 819.06,-147.94 851.22,-131.62"/>
<polygon fill="midnightblue" stroke="midnightblue" points="631.33,-271.03 626.41,-280.42 636.11,-276.15 631.33,-271.03"/>
</g>
<!-- Node20 -->
<g id="node20" class="node">
<title>Node20</title>
<g id="a_node20"><a xlink:href="actuator__utils_8cpp.html" target="_top" xlink:title=" ">
<polygon fill="white" stroke="black" points="702.5,-224.5 702.5,-243.5 806.5,-243.5 806.5,-224.5 702.5,-224.5"/>
<text text-anchor="middle" x="754.5" y="-231.5" font-family="Helvetica,sans-Serif" font-size="10.00">actuator_utils.cpp</text>
</a>
</g>
</g>
<!-- Node1&#45;&gt;Node20 -->
<g id="edge31" class="edge">
<title>Node1&#45;&gt;Node20</title>
<path fill="none" stroke="midnightblue" d="M648.52,-276.77C674.26,-266.63 710.19,-252.47 732.89,-243.52"/>
<polygon fill="midnightblue" stroke="midnightblue" points="647.23,-273.52 639.21,-280.44 649.79,-280.03 647.23,-273.52"/>
</g>
<!-- Node3 -->
<g id="node3" class="node">
<title>Node3</title>
<g id="a_node3"><a xlink:href="actuator__ops_8_h.html" target="_top" xlink:title=" ">
<polygon fill="white" stroke="black" points="367.5,-168.5 367.5,-187.5 457.5,-187.5 457.5,-168.5 367.5,-168.5"/>
<text text-anchor="middle" x="412.5" y="-175.5" font-family="Helvetica,sans-Serif" font-size="10.00">actuator_ops.H</text>
</a>
</g>
</g>
<!-- Node2&#45;&gt;Node3 -->
<g id="edge2" class="edge">
<title>Node2&#45;&gt;Node3</title>
<path fill="none" stroke="midnightblue" d="M436.88,-215.57C430.68,-206.27 423.33,-195.25 418.33,-187.75"/>
<polygon fill="midnightblue" stroke="midnightblue" points="434.1,-217.7 442.56,-224.08 439.92,-213.82 434.1,-217.7"/>
</g>
<!-- Node3&#45;&gt;Node4 -->
<g id="edge3" class="edge">
<title>Node3&#45;&gt;Node4</title>
<path fill="none" stroke="midnightblue" d="M451.88,-165.57C486.97,-155.38 537.52,-140.7 569.17,-131.52"/>
<polygon fill="midnightblue" stroke="midnightblue" points="450.6,-162.29 441.97,-168.44 452.55,-169.02 450.6,-162.29"/>
</g>
<!-- Node5 -->
<g id="node5" class="node">
<title>Node5</title>
<g id="a_node5"><a xlink:href="_actuator_model_8_h.html" target="_top" xlink:title=" ">
<polygon fill="white" stroke="black" points="501.5,-56.5 501.5,-75.5 599.5,-75.5 599.5,-56.5 501.5,-56.5"/>
<text text-anchor="middle" x="550.5" y="-63.5" font-family="Helvetica,sans-Serif" font-size="10.00">ActuatorModel.H</text>
</a>
</g>
</g>
<!-- Node3&#45;&gt;Node5 -->
<g id="edge10" class="edge">
<title>Node3&#45;&gt;Node5</title>
<path fill="none" stroke="midnightblue" d="M413.58,-158.05C415.35,-143.75 419.9,-124.53 431.5,-112 449.66,-92.39 477.23,-81.26 501.27,-74.98"/>
<polygon fill="midnightblue" stroke="midnightblue" points="410.07,-157.96 412.68,-168.23 417.05,-158.58 410.07,-157.96"/>
</g>
<!-- Node3&#45;&gt;Node11 -->
<g id="edge11" class="edge">
<title>Node3&#45;&gt;Node11</title>
<path fill="none" stroke="midnightblue" d="M467.58,-167.62C527.26,-157.45 621.66,-141.37 679.34,-131.54"/>
<polygon fill="midnightblue" stroke="midnightblue" points="466.85,-164.19 457.58,-169.32 468.03,-171.09 466.85,-164.19"/>
</g>
<!-- Node3&#45;&gt;Node12 -->
<g id="edge13" class="edge">
<title>Node3&#45;&gt;Node12</title>
<path fill="none" stroke="midnightblue" d="M432.81,-162.38C446.36,-152.62 463.74,-140.11 475.23,-131.83"/>
<polygon fill="midnightblue" stroke="midnightblue" points="430.62,-159.64 424.55,-168.32 434.71,-165.32 430.62,-159.64"/>
</g>
<!-- Node13 -->
<g id="node13" class="node">
<title>Node13</title>
<g id="a_node13"><a xlink:href="uniform__ct__ops_8_h.html" target="_top" xlink:title=" ">
<polygon fill="white" stroke="black" points="282.5,-112.5 282.5,-131.5 384.5,-131.5 384.5,-112.5 282.5,-112.5"/>
<text text-anchor="middle" x="333.5" y="-119.5" font-family="Helvetica,sans-Serif" font-size="10.00">uniform_ct_ops.H</text>
</a>
</g>
</g>
<!-- Node3&#45;&gt;Node13 -->
<g id="edge15" class="edge">
<title>Node3&#45;&gt;Node13</title>
<path fill="none" stroke="midnightblue" d="M391.47,-162.62C377.03,-152.76 358.36,-139.99 346.16,-131.65"/>
<polygon fill="midnightblue" stroke="midnightblue" points="389.58,-165.57 399.81,-168.32 393.53,-159.79 389.58,-165.57"/>
</g>
<!-- Node3&#45;&gt;Node15 -->
<g id="edge18" class="edge">
<title>Node3&#45;&gt;Node15</title>
<path fill="none" stroke="midnightblue" d="M467.94,-171.14C544.1,-162.99 685.31,-147.46 805.5,-132 808.35,-131.63 811.27,-131.25 814.22,-130.85"/>
<polygon fill="midnightblue" stroke="midnightblue" points="467.21,-167.7 457.64,-172.25 467.95,-174.66 467.21,-167.7"/>
</g>
<!-- Node16 -->
<g id="node16" class="node">
<title>Node16</title>
<g id="a_node16"><a xlink:href="fixed__wing__ops_8_h.html" target="_top" xlink:title=" ">
<polygon fill="white" stroke="black" points="0,-56.5 0,-75.5 101,-75.5 101,-56.5 0,-56.5"/>
<text text-anchor="middle" x="50.5" y="-63.5" font-family="Helvetica,sans-Serif" font-size="10.00">fixed_wing_ops.H</text>
</a>
</g>
</g>
<!-- Node3&#45;&gt;Node16 -->
<g id="edge20" class="edge">
<title>Node3&#45;&gt;Node16</title>
<path fill="none" stroke="midnightblue" d="M357.3,-177.39C297.29,-175.81 199.89,-167.29 124.5,-132 95.7,-118.51 69.68,-90.31 57.61,-75.9"/>
<polygon fill="midnightblue" stroke="midnightblue" points="357.26,-180.89 367.33,-177.6 357.4,-173.89 357.26,-180.89"/>
</g>
<!-- Node17 -->
<g id="node17" class="node">
<title>Node17</title>
<g id="a_node17"><a xlink:href="wing__ops_8_h.html" target="_top" xlink:title=" ">
<polygon fill="white" stroke="black" points="134,-112.5 134,-131.5 207,-131.5 207,-112.5 134,-112.5"/>
<text text-anchor="middle" x="170.5" y="-119.5" font-family="Helvetica,sans-Serif" font-size="10.00">wing_ops.H</text>
</a>
</g>
</g>
<!-- Node3&#45;&gt;Node17 -->
<g id="edge22" class="edge">
<title>Node3&#45;&gt;Node17</title>
<path fill="none" stroke="midnightblue" d="M364.35,-166.26C318.04,-155.92 249.05,-140.53 207.08,-131.16"/>
<polygon fill="midnightblue" stroke="midnightblue" points="363.63,-169.68 374.15,-168.44 365.16,-162.85 363.63,-169.68"/>
</g>
<!-- Node18 -->
<g id="node18" class="node">
<title>Node18</title>
<g id="a_node18"><a xlink:href="flat__plate__ops_8_h.html" target="_top" xlink:title=" ">
<polygon fill="white" stroke="black" points="220,-56.5 220,-75.5 315,-75.5 315,-56.5 220,-56.5"/>
<text text-anchor="middle" x="267.5" y="-63.5" font-family="Helvetica,sans-Serif" font-size="10.00">flat_plate_ops.H</text>
</a>
</g>
</g>
<!-- Node3&#45;&gt;Node18 -->
<g id="edge27" class="edge">
<title>Node3&#45;&gt;Node18</title>
<path fill="none" stroke="midnightblue" d="M357.22,-173.35C327.76,-168.35 293.56,-157.07 273.5,-132 260.47,-115.72 263.07,-89.26 265.57,-75.67"/>
<polygon fill="midnightblue" stroke="midnightblue" points="357.01,-176.85 367.41,-174.86 358.04,-169.93 357.01,-176.85"/>
</g>
<!-- Node4&#45;&gt;Node5 -->
<g id="edge4" class="edge">
<title>Node4&#45;&gt;Node5</title>
<path fill="none" stroke="midnightblue" d="M583.77,-104.43C575.36,-94.97 565.15,-83.48 558.28,-75.75"/>
<polygon fill="midnightblue" stroke="midnightblue" points="581.31,-106.93 590.57,-112.08 586.55,-102.28 581.31,-106.93"/>
</g>
<!-- Node6 -->
<g id="node6" class="node">
<title>Node6</title>
<g id="a_node6"><a xlink:href="_actuator_8cpp.html" target="_top" xlink:title=" ">
<polygon fill="white" stroke="black" points="512,-0.5 512,-19.5 589,-19.5 589,-0.5 512,-0.5"/>
<text text-anchor="middle" x="550.5" y="-7.5" font-family="Helvetica,sans-Serif" font-size="10.00">Actuator.cpp</text>
</a>
</g>
</g>
<!-- Node5&#45;&gt;Node6 -->
<g id="edge5" class="edge">
<title>Node5&#45;&gt;Node6</title>
<path fill="none" stroke="midnightblue" d="M550.5,-45.8C550.5,-36.91 550.5,-26.78 550.5,-19.75"/>
<polygon fill="midnightblue" stroke="midnightblue" points="547,-46.08 550.5,-56.08 554,-46.08 547,-46.08"/>
</g>
<!-- Node7 -->
<g id="node7" class="node">
<title>Node7</title>
<g id="a_node7"><a xlink:href="_actuator_disk_8cpp.html" target="_top" xlink:title=" ">
<polygon fill="white" stroke="black" points="359.5,-0.5 359.5,-19.5 459.5,-19.5 459.5,-0.5 359.5,-0.5"/>
<text text-anchor="middle" x="409.5" y="-7.5" font-family="Helvetica,sans-Serif" font-size="10.00">ActuatorDisk.cpp</text>
</a>
</g>
</g>
<!-- Node5&#45;&gt;Node7 -->
<g id="edge6" class="edge">
<title>Node5&#45;&gt;Node7</title>
<path fill="none" stroke="midnightblue" d="M518.57,-52.77C492.09,-42.63 455.11,-28.47 431.74,-19.52"/>
<polygon fill="midnightblue" stroke="midnightblue" points="517.57,-56.14 528.16,-56.44 520.07,-49.6 517.57,-56.14"/>
</g>
<!-- Node8 -->
<g id="node8" class="node">
<title>Node8</title>
<g id="a_node8"><a xlink:href="_turbine_fast_8cpp.html" target="_top" xlink:title=" ">
<polygon fill="white" stroke="black" points="653.5,-0.5 653.5,-19.5 745.5,-19.5 745.5,-0.5 653.5,-0.5"/>
<text text-anchor="middle" x="699.5" y="-7.5" font-family="Helvetica,sans-Serif" font-size="10.00">TurbineFast.cpp</text>
</a>
</g>
</g>
<!-- Node5&#45;&gt;Node8 -->
<g id="edge7" class="edge">
<title>Node5&#45;&gt;Node8</title>
<path fill="none" stroke="midnightblue" d="M583.87,-52.91C611.88,-42.75 651.2,-28.51 676,-19.52"/>
<polygon fill="midnightblue" stroke="midnightblue" points="582.32,-49.75 574.11,-56.44 584.7,-56.33 582.32,-49.75"/>
</g>
<!-- Node9 -->
<g id="node9" class="node">
<title>Node9</title>
<g id="a_node9"><a xlink:href="_fixed_wing_8cpp.html" target="_top" xlink:title=" ">
<polygon fill="white" stroke="black" points="82,-0.5 82,-19.5 169,-19.5 169,-0.5 82,-0.5"/>
<text text-anchor="middle" x="125.5" y="-7.5" font-family="Helvetica,sans-Serif" font-size="10.00">FixedWing.cpp</text>
</a>
</g>
</g>
<!-- Node5&#45;&gt;Node9 -->
<g id="edge8" class="edge">
<title>Node5&#45;&gt;Node9</title>
<path fill="none" stroke="midnightblue" d="M491.51,-55.9C368.6,-38.96 236.04,-23.5 169.06,-15.89"/>
<polygon fill="midnightblue" stroke="midnightblue" points="491.08,-59.37 501.47,-57.28 492.04,-52.44 491.08,-59.37"/>
</g>
<!-- Node10 -->
<g id="node10" class="node">
<title>Node10</title>
<g id="a_node10"><a xlink:href="_flat_plate_8cpp.html" target="_top" xlink:title=" ">
<polygon fill="white" stroke="black" points="244.5,-0.5 244.5,-19.5 324.5,-19.5 324.5,-0.5 244.5,-0.5"/>
<text text-anchor="middle" x="284.5" y="-7.5" font-family="Helvetica,sans-Serif" font-size="10.00">FlatPlate.cpp</text>
</a>
</g>
</g>
<!-- Node5&#45;&gt;Node10 -->
<g id="edge9" class="edge">
<title>Node5&#45;&gt;Node10</title>
<path fill="none" stroke="midnightblue" d="M498.53,-54.45C447.63,-44.12 371.14,-28.59 324.71,-19.16"/>
<polygon fill="midnightblue" stroke="midnightblue" points="497.86,-57.88 508.35,-56.44 499.25,-51.02 497.86,-57.88"/>
</g>
<!-- Node11&#45;&gt;Node5 -->
<g id="edge12" class="edge">
<title>Node11&#45;&gt;Node5</title>
<path fill="none" stroke="midnightblue" d="M691.17,-109.44C657.42,-99.26 609.05,-84.66 578.73,-75.52"/>
<polygon fill="midnightblue" stroke="midnightblue" points="690.55,-112.91 701.14,-112.44 692.57,-106.2 690.55,-112.91"/>
</g>
<!-- Node12&#45;&gt;Node5 -->
<g id="edge14" class="edge">
<title>Node12&#45;&gt;Node5</title>
<path fill="none" stroke="midnightblue" d="M505.54,-105.54C516.77,-95.91 530.82,-83.87 540.19,-75.83"/>
<polygon fill="midnightblue" stroke="midnightblue" points="502.94,-103.16 497.62,-112.32 507.49,-108.47 502.94,-103.16"/>
</g>
<!-- Node13&#45;&gt;Node7 -->
<g id="edge16" class="edge">
<title>Node13&#45;&gt;Node7</title>
<path fill="none" stroke="midnightblue" d="M339.45,-102.81C344.4,-89.2 352.28,-70.51 362.5,-56 372.64,-41.59 387.88,-28.03 398.23,-19.64"/>
<polygon fill="midnightblue" stroke="midnightblue" points="336.08,-101.86 336.12,-112.46 342.69,-104.15 336.08,-101.86"/>
</g>
<!-- Node14 -->
<g id="node14" class="node">
<title>Node14</title>
<g id="a_node14"><a xlink:href="uniform__ct__ops_8cpp.html" target="_top" xlink:title=" ">
<polygon fill="white" stroke="black" points="371.5,-56.5 371.5,-75.5 483.5,-75.5 483.5,-56.5 371.5,-56.5"/>
<text text-anchor="middle" x="427.5" y="-63.5" font-family="Helvetica,sans-Serif" font-size="10.00">uniform_ct_ops.cpp</text>
</a>
</g>
</g>
<!-- Node13&#45;&gt;Node14 -->
<g id="edge17" class="edge">
<title>Node13&#45;&gt;Node14</title>
<path fill="none" stroke="midnightblue" d="M357.56,-107.18C374.86,-97.24 397.65,-84.15 412.43,-75.65"/>
<polygon fill="midnightblue" stroke="midnightblue" points="355.53,-104.31 348.6,-112.32 359.02,-110.38 355.53,-104.31"/>
</g>
<!-- Node15&#45;&gt;Node8 -->
<g id="edge19" class="edge">
<title>Node15&#45;&gt;Node8</title>
<path fill="none" stroke="midnightblue" d="M846.55,-106.71C810.94,-83.53 741.64,-38.43 712.7,-19.59"/>
<polygon fill="midnightblue" stroke="midnightblue" points="844.95,-109.85 855.24,-112.37 848.77,-103.98 844.95,-109.85"/>
</g>
<!-- Node16&#45;&gt;Node9 -->
<g id="edge21" class="edge">
<title>Node16&#45;&gt;Node9</title>
<path fill="none" stroke="midnightblue" d="M70.81,-50.38C84.36,-40.62 101.74,-28.11 113.23,-19.83"/>
<polygon fill="midnightblue" stroke="midnightblue" points="68.62,-47.64 62.55,-56.32 72.71,-53.32 68.62,-47.64"/>
</g>
<!-- Node17&#45;&gt;Node16 -->
<g id="edge23" class="edge">
<title>Node17&#45;&gt;Node16</title>
<path fill="none" stroke="midnightblue" d="M142.13,-108.23C119.68,-98.13 88.96,-84.31 69.43,-75.52"/>
<polygon fill="midnightblue" stroke="midnightblue" points="140.93,-111.53 151.49,-112.44 143.8,-105.15 140.93,-111.53"/>
</g>
<!-- Node17&#45;&gt;Node18 -->
<g id="edge24" class="edge">
<title>Node17&#45;&gt;Node18</title>
<path fill="none" stroke="midnightblue" d="M194.84,-107.45C212.74,-97.48 236.55,-84.23 251.95,-75.65"/>
<polygon fill="midnightblue" stroke="midnightblue" points="193.12,-104.4 186.08,-112.32 196.52,-110.52 193.12,-104.4"/>
</g>
<!-- Node19 -->
<g id="node19" class="node">
<title>Node19</title>
<g id="a_node19"><a xlink:href="wing__ops_8cpp.html" target="_top" xlink:title=" ">
<polygon fill="white" stroke="black" points="119,-56.5 119,-75.5 202,-75.5 202,-56.5 119,-56.5"/>
<text text-anchor="middle" x="160.5" y="-63.5" font-family="Helvetica,sans-Serif" font-size="10.00">wing_ops.cpp</text>
</a>
</g>
</g>
<!-- Node17&#45;&gt;Node19 -->
<g id="edge26" class="edge">
<title>Node17&#45;&gt;Node19</title>
<path fill="none" stroke="midnightblue" d="M167,-102.1C165.34,-93.14 163.44,-82.86 162.12,-75.75"/>
<polygon fill="midnightblue" stroke="midnightblue" points="163.59,-102.89 168.85,-112.08 170.47,-101.61 163.59,-102.89"/>
</g>
<!-- Node18&#45;&gt;Node10 -->
<g id="edge25" class="edge">
<title>Node18&#45;&gt;Node10</title>
<path fill="none" stroke="midnightblue" d="M273.36,-46.4C276.2,-37.36 279.48,-26.94 281.75,-19.75"/>
<polygon fill="midnightblue" stroke="midnightblue" points="269.97,-45.49 270.31,-56.08 276.65,-47.6 269.97,-45.49"/>
</g>
</g>
</svg>
