<?xml version="1.0" encoding="UTF-8" standalone="no"?>
<!DOCTYPE svg PUBLIC "-//W3C//DTD SVG 1.1//EN"
 "http://www.w3.org/Graphics/SVG/1.1/DTD/svg11.dtd">
<!-- Generated by graphviz version 2.43.0 (0)
 -->
<!-- Title: amr_wind::pde::ICNSDiffScalarOp Pages: 1 -->
<!--zoomable 629 -->
<svg id="main" version="1.1" xmlns="http://www.w3.org/2000/svg" xmlns:xlink="http://www.w3.org/1999/xlink" xml:space="preserve" onload="init(evt)">
<style type="text/css"><![CDATA[
.edge:hover path { stroke: red; }
.edge:hover polygon { stroke: red; fill: red; }
]]></style>
<script type="text/javascript"><![CDATA[
var edges = document.getElementsByTagName('g');
if (edges && edges.length) {
  for (var i=0;i<edges.length;i++) {
    if (edges[i].id.substr(0,4)=='edge') {
      edges[i].setAttribute('class','edge');
    }
  }
}
]]></script>
        <defs>
                <circle id="rim" cx="0" cy="0" r="7"/>
                <circle id="rim2" cx="0" cy="0" r="3.5"/>
                <g id="zoomPlus">
                        <use xlink:href="#rim" fill="#404040">
                                <set attributeName="fill" to="#808080" begin="zoomplus.mouseover" end="zoomplus.mouseout"/>
                        </use>
                        <path d="M-4,0h8M0,-4v8" fill="none" stroke="white" stroke-width="1.5" pointer-events="none"/>
                </g>
                <g id="zoomMin">
                        <use xlink:href="#rim" fill="#404040">
                                <set attributeName="fill" to="#808080" begin="zoomminus.mouseover" end="zoomminus.mouseout"/>
                        </use>
                        <path d="M-4,0h8" fill="none" stroke="white" stroke-width="1.5" pointer-events="none"/>
                </g>
                <g id="dirArrow">
                        <path fill="none" stroke="white" stroke-width="1.5" d="M0,-3.0v7 M-2.5,-0.5L0,-3.0L2.5,-0.5"/>
                </g>
               <g id="resetDef">
                       <use xlink:href="#rim2" fill="#404040">
                               <set attributeName="fill" to="#808080" begin="reset.mouseover" end="reset.mouseout"/>
                       </use>
               </g>
        </defs>

<script type="text/javascript">
var viewWidth = 756;
var viewHeight = 629;
var sectionId = 'dynsection-0';
</script>
<script xlink:href="svgpan.js"/>
<svg id="graph" class="graph">
<g id="viewport">
<title>amr_wind::pde::ICNSDiffScalarOp</title>
<polygon fill="white" stroke="transparent" points="-4,4 -4,-625 751.5,-625 751.5,4 -4,4"/>
<!-- Node1 -->
<g id="node1" class="node">
<title>Node1</title>
<g id="a_node1"><a xlink:title=" ">
<polygon fill="#bfbfbf" stroke="black" points="32,-0.5 32,-19.5 211,-19.5 211,-0.5 32,-0.5"/>
<text text-anchor="middle" x="121.5" y="-7.5" font-family="Helvetica,sans-Serif" font-size="10.00">amr_wind::pde::ICNSDiffScalarOp</text>
</a>
</g>
</g>
<!-- Node2 -->
<g id="node2" class="node">
<title>Node2</title>
<g id="a_node2"><a xlink:href="classamr__wind_1_1_field.html" target="_top" xlink:title="Computational field.">
<polygon fill="white" stroke="black" points="142.5,-178.5 142.5,-197.5 236.5,-197.5 236.5,-178.5 142.5,-178.5"/>
<text text-anchor="middle" x="189.5" y="-185.5" font-family="Helvetica,sans-Serif" font-size="10.00">amr_wind::Field</text>
</a>
</g>
</g>
<!-- Node2&#45;&gt;Node1 -->
<g id="edge1" class="edge">
<title>Node2&#45;&gt;Node1</title>
<path fill="none" stroke="#9a32cd" stroke-dasharray="5,2" d="M176.47,-170.02C162.57,-150.95 141.13,-118.51 130.5,-87 122.6,-63.58 121.43,-34.07 121.38,-19.69"/>
<polygon fill="#9a32cd" stroke="#9a32cd" points="173.82,-172.33 182.6,-178.25 179.43,-168.14 173.82,-172.33"/>
<text text-anchor="middle" x="158" y="-74.5" font-family="Helvetica,sans-Serif" font-size="10.00"> m_density</text>
</g>
<!-- Node17 -->
<g id="node17" class="node">
<title>Node17</title>
<g id="a_node17"><a xlink:href="structamr__wind_1_1pde_1_1_p_d_e_fields.html" target="_top" xlink:title="Collection of fields related to a PDE.">
<polygon fill="white" stroke="black" points="195,-67.5 195,-86.5 338,-86.5 338,-67.5 195,-67.5"/>
<text text-anchor="middle" x="266.5" y="-74.5" font-family="Helvetica,sans-Serif" font-size="10.00">amr_wind::pde::PDEFields</text>
</a>
</g>
</g>
<!-- Node2&#45;&gt;Node17 -->
<g id="edge22" class="edge">
<title>Node2&#45;&gt;Node17</title>
<path fill="none" stroke="#9a32cd" stroke-dasharray="5,2" d="M188.74,-168.11C189.01,-150.04 192.1,-122.95 206.5,-105 213.29,-96.54 223.3,-90.64 233.21,-86.56"/>
<polygon fill="#9a32cd" stroke="#9a32cd" points="185.25,-168.32 188.88,-178.27 192.25,-168.22 185.25,-168.32"/>
<text text-anchor="middle" x="232.5" y="-152" font-family="Helvetica,sans-Serif" font-size="10.00"> src_term</text>
<text text-anchor="middle" x="232.5" y="-141" font-family="Helvetica,sans-Serif" font-size="10.00">field</text>
<text text-anchor="middle" x="232.5" y="-130" font-family="Helvetica,sans-Serif" font-size="10.00">diff_term</text>
<text text-anchor="middle" x="232.5" y="-119" font-family="Helvetica,sans-Serif" font-size="10.00">mueff</text>
<text text-anchor="middle" x="232.5" y="-108" font-family="Helvetica,sans-Serif" font-size="10.00">conv_term</text>
</g>
<!-- Node3 -->
<g id="node3" class="node">
<title>Node3</title>
<g id="a_node3"><a xlink:title=" ">
<polygon fill="white" stroke="#bfbfbf" points="390.5,-245.5 390.5,-275.5 510.5,-275.5 510.5,-245.5 390.5,-245.5"/>
<text text-anchor="start" x="398.5" y="-263.5" font-family="Helvetica,sans-Serif" font-size="10.00">std::shared_ptr&lt; amr</text>
<text text-anchor="middle" x="450.5" y="-252.5" font-family="Helvetica,sans-Serif" font-size="10.00">_wind::FieldInfo &gt;</text>
</a>
</g>
</g>
<!-- Node3&#45;&gt;Node2 -->
<g id="edge2" class="edge">
<title>Node3&#45;&gt;Node2</title>
<path fill="none" stroke="#9a32cd" stroke-dasharray="5,2" d="M388.72,-242.81C336.09,-228.6 262.6,-208.75 221.17,-197.55"/>
<polygon fill="#9a32cd" stroke="#9a32cd" points="388.06,-246.26 398.62,-245.49 389.88,-239.5 388.06,-246.26"/>
<text text-anchor="middle" x="346" y="-219" font-family="Helvetica,sans-Serif" font-size="10.00"> m_info</text>
</g>
<!-- Node4 -->
<g id="node4" class="node">
<title>Node4</title>
<g id="a_node4"><a xlink:href="structamr__wind_1_1_field_info.html" target="_top" xlink:title="Information common to a field that has multiple states.">
<polygon fill="white" stroke="black" points="394,-340 394,-359 507,-359 507,-340 394,-340"/>
<text text-anchor="middle" x="450.5" y="-347" font-family="Helvetica,sans-Serif" font-size="10.00">amr_wind::FieldInfo</text>
</a>
</g>
</g>
<!-- Node4&#45;&gt;Node3 -->
<g id="edge3" class="edge">
<title>Node4&#45;&gt;Node3</title>
<path fill="none" stroke="#9a32cd" stroke-dasharray="5,2" d="M450.5,-329.41C450.5,-313.15 450.5,-290.16 450.5,-275.55"/>
<polygon fill="#9a32cd" stroke="#9a32cd" points="447,-329.84 450.5,-339.84 454,-329.84 447,-329.84"/>
<text text-anchor="middle" x="459" y="-302.5" font-family="Helvetica,sans-Serif" font-size="10.00"> ptr</text>
</g>
<!-- Node5 -->
<g id="node5" class="node">
<title>Node5</title>
<g id="a_node5"><a xlink:title=" ">
<polygon fill="white" stroke="#bfbfbf" points="406,-434.5 406,-464.5 575,-464.5 575,-434.5 406,-434.5"/>
<text text-anchor="start" x="414" y="-452.5" font-family="Helvetica,sans-Serif" font-size="10.00">std::unique_ptr&lt; amr</text>
<text text-anchor="middle" x="490.5" y="-441.5" font-family="Helvetica,sans-Serif" font-size="10.00">_wind::FieldFillPatchOpsBase &gt;</text>
</a>
</g>
</g>
<!-- Node5&#45;&gt;Node4 -->
<g id="edge4" class="edge">
<title>Node5&#45;&gt;Node4</title>
<path fill="none" stroke="#9a32cd" stroke-dasharray="5,2" d="M483.64,-424.66C479.73,-412.06 474.43,-396.47 468.5,-383 464.81,-374.62 459.67,-365.54 455.83,-359.11"/>
<polygon fill="#9a32cd" stroke="#9a32cd" points="480.34,-425.86 486.58,-434.42 487.05,-423.84 480.34,-425.86"/>
<text text-anchor="middle" x="517" y="-397" font-family="Helvetica,sans-Serif" font-size="10.00"> m_fillpatch_op</text>
</g>
<!-- Node6 -->
<g id="node6" class="node">
<title>Node6</title>
<g id="a_node6"><a xlink:href="classamr__wind_1_1_field_fill_patch_ops_base.html" target="_top" xlink:title="Abstract interface for classes that handle fill patch and physical boundary condition operations for ...">
<polygon fill="white" stroke="black" points="384.5,-523.5 384.5,-553.5 518.5,-553.5 518.5,-523.5 384.5,-523.5"/>
<text text-anchor="start" x="392.5" y="-541.5" font-family="Helvetica,sans-Serif" font-size="10.00">amr_wind::FieldFillPatch</text>
<text text-anchor="middle" x="451.5" y="-530.5" font-family="Helvetica,sans-Serif" font-size="10.00">OpsBase</text>
</a>
</g>
</g>
<!-- Node6&#45;&gt;Node5 -->
<g id="edge5" class="edge">
<title>Node6&#45;&gt;Node5</title>
<path fill="none" stroke="#9a32cd" stroke-dasharray="5,2" d="M447.75,-513.37C447.27,-503.53 448.11,-492.3 452.5,-483 455.91,-475.78 461.77,-469.55 467.89,-464.53"/>
<polygon fill="#9a32cd" stroke="#9a32cd" points="444.27,-513.72 448.69,-523.35 451.24,-513.06 444.27,-513.72"/>
<text text-anchor="middle" x="461" y="-491.5" font-family="Helvetica,sans-Serif" font-size="10.00"> ptr</text>
</g>
<!-- Node7 -->
<g id="node7" class="node">
<title>Node7</title>
<g id="a_node7"><a xlink:title="STL class.">
<polygon fill="white" stroke="#bfbfbf" points="536.5,-529 536.5,-548 654.5,-548 654.5,-529 536.5,-529"/>
<text text-anchor="middle" x="595.5" y="-536" font-family="Helvetica,sans-Serif" font-size="10.00">std::unique_ptr&lt; T &gt;</text>
</a>
</g>
</g>
<!-- Node7&#45;&gt;Node5 -->
<g id="edge6" class="edge">
<title>Node7&#45;&gt;Node5</title>
<path fill="none" stroke="orange" stroke-dasharray="5,2" d="M549.6,-526.4C522.02,-519.27 491.49,-510.37 487.5,-505 479.02,-493.59 481.51,-476.84 485.02,-464.93"/>
<polygon fill="orange" stroke="orange" points="549.02,-529.87 559.58,-528.94 550.75,-523.08 549.02,-529.87"/>
<text text-anchor="start" x="487.5" y="-497" font-family="Helvetica,sans-Serif" font-size="10.00"> &lt; amr_wind::FieldFillPatch</text>
<text text-anchor="middle" x="554" y="-486" font-family="Helvetica,sans-Serif" font-size="10.00">OpsBase &gt;</text>
</g>
<!-- Node8 -->
<g id="node8" class="node">
<title>Node8</title>
<g id="a_node8"><a xlink:title=" ">
<polygon fill="white" stroke="#bfbfbf" points="581,-601.5 581,-620.5 610,-620.5 610,-601.5 581,-601.5"/>
<text text-anchor="middle" x="595.5" y="-608.5" font-family="Helvetica,sans-Serif" font-size="10.00">T</text>
</a>
</g>
</g>
<!-- Node8&#45;&gt;Node7 -->
<g id="edge7" class="edge">
<title>Node8&#45;&gt;Node7</title>
<path fill="none" stroke="#9a32cd" stroke-dasharray="5,2" d="M595.5,-590.94C595.5,-577.03 595.5,-558.82 595.5,-548.22"/>
<polygon fill="#9a32cd" stroke="#9a32cd" points="592,-591.36 595.5,-601.36 599,-591.36 592,-591.36"/>
<text text-anchor="middle" x="604" y="-575" font-family="Helvetica,sans-Serif" font-size="10.00"> ptr</text>
</g>
<!-- Node11 -->
<g id="node11" class="node">
<title>Node11</title>
<g id="a_node11"><a xlink:title="STL class.">
<polygon fill="white" stroke="#bfbfbf" points="629.5,-484.5 629.5,-503.5 747.5,-503.5 747.5,-484.5 629.5,-484.5"/>
<text text-anchor="middle" x="688.5" y="-491.5" font-family="Helvetica,sans-Serif" font-size="10.00">std::shared_ptr&lt; T &gt;</text>
</a>
</g>
</g>
<!-- Node8&#45;&gt;Node11 -->
<g id="edge11" class="edge">
<title>Node8&#45;&gt;Node11</title>
<path fill="none" stroke="#9a32cd" stroke-dasharray="5,2" d="M617.91,-595.75C632.47,-585.57 651,-570.74 663.5,-554 675.35,-538.13 682.81,-515.81 686.25,-503.67"/>
<polygon fill="#9a32cd" stroke="#9a32cd" points="615.77,-592.97 609.45,-601.47 619.69,-598.77 615.77,-592.97"/>
<text text-anchor="middle" x="654" y="-575" font-family="Helvetica,sans-Serif" font-size="10.00"> ptr</text>
</g>
<!-- Node14 -->
<g id="node14" class="node">
<title>Node14</title>
<g id="a_node14"><a xlink:title="STL class.">
<polygon fill="white" stroke="#bfbfbf" points="273.5,-434.5 273.5,-464.5 387.5,-464.5 387.5,-434.5 273.5,-434.5"/>
<text text-anchor="start" x="281.5" y="-452.5" font-family="Helvetica,sans-Serif" font-size="10.00">std::unordered_map</text>
<text text-anchor="middle" x="330.5" y="-441.5" font-family="Helvetica,sans-Serif" font-size="10.00">&lt; K, T &gt;</text>
</a>
</g>
</g>
<!-- Node8&#45;&gt;Node14 -->
<g id="edge18" class="edge">
<title>Node8&#45;&gt;Node14</title>
<path fill="none" stroke="#9a32cd" stroke-dasharray="5,2" d="M570.65,-609.53C502.78,-607.66 316.8,-598.49 279.5,-554 256.21,-526.22 291.35,-485.98 313.93,-464.79"/>
<polygon fill="#9a32cd" stroke="#9a32cd" points="570.76,-613.03 580.85,-609.78 570.94,-606.03 570.76,-613.03"/>
<text text-anchor="middle" x="304" y="-536" font-family="Helvetica,sans-Serif" font-size="10.00"> elements</text>
</g>
<!-- Node9 -->
<g id="node9" class="node">
<title>Node9</title>
<g id="a_node9"><a xlink:title="STL class.">
<polygon fill="white" stroke="#bfbfbf" points="150,-440 150,-459 215,-459 215,-440 150,-440"/>
<text text-anchor="middle" x="182.5" y="-447" font-family="Helvetica,sans-Serif" font-size="10.00">std::string</text>
</a>
</g>
</g>
<!-- Node9&#45;&gt;Node2 -->
<g id="edge12" class="edge">
<title>Node9&#45;&gt;Node2</title>
<path fill="none" stroke="#9a32cd" stroke-dasharray="5,2" d="M183,-429.79C184.4,-378.05 188.27,-234.44 189.27,-197.67"/>
<polygon fill="#9a32cd" stroke="#9a32cd" points="179.5,-429.78 182.73,-439.87 186.5,-429.96 179.5,-429.78"/>
<text text-anchor="middle" x="210.5" y="-302.5" font-family="Helvetica,sans-Serif" font-size="10.00"> m_name</text>
</g>
<!-- Node9&#45;&gt;Node4 -->
<g id="edge8" class="edge">
<title>Node9&#45;&gt;Node4</title>
<path fill="none" stroke="#9a32cd" stroke-dasharray="5,2" d="M214.13,-435.5C223.99,-430.42 234.4,-423.89 242.5,-416 254.62,-404.19 247.62,-392.69 261.5,-383 272.32,-375.45 342.19,-364.79 393.84,-357.77"/>
<polygon fill="#9a32cd" stroke="#9a32cd" points="212.43,-432.44 204.93,-439.93 215.46,-438.75 212.43,-432.44"/>
<text text-anchor="middle" x="296.5" y="-397" font-family="Helvetica,sans-Serif" font-size="10.00"> m_basename</text>
</g>
<!-- Node13 -->
<g id="node13" class="node">
<title>Node13</title>
<g id="a_node13"><a xlink:title=" ">
<polygon fill="white" stroke="#bfbfbf" points="210.5,-334.5 210.5,-364.5 332.5,-364.5 332.5,-334.5 210.5,-334.5"/>
<text text-anchor="start" x="218.5" y="-352.5" font-family="Helvetica,sans-Serif" font-size="10.00">std::unordered_map</text>
<text text-anchor="middle" x="271.5" y="-341.5" font-family="Helvetica,sans-Serif" font-size="10.00">&lt; std::string, size_t &gt;</text>
</a>
</g>
</g>
<!-- Node9&#45;&gt;Node13 -->
<g id="edge15" class="edge">
<title>Node9&#45;&gt;Node13</title>
<path fill="none" stroke="#9a32cd" stroke-dasharray="5,2" d="M188.74,-430.32C194.31,-416.15 203.59,-396.64 216.5,-383 223.36,-375.75 232.2,-369.58 240.77,-364.63"/>
<polygon fill="#9a32cd" stroke="#9a32cd" points="185.37,-429.34 185.21,-439.93 191.94,-431.76 185.37,-429.34"/>
<text text-anchor="middle" x="229.5" y="-397" font-family="Helvetica,sans-Serif" font-size="10.00"> keys</text>
</g>
<!-- Node16 -->
<g id="node16" class="node">
<title>Node16</title>
<g id="a_node16"><a xlink:href="structamr__wind_1_1_m_l_m_g_options.html" target="_top" xlink:title="Interface to control the behavior of AMReX LinearSolvers.">
<polygon fill="white" stroke="black" points="0,-295.5 0,-314.5 139,-314.5 139,-295.5 0,-295.5"/>
<text text-anchor="middle" x="69.5" y="-302.5" font-family="Helvetica,sans-Serif" font-size="10.00">amr_wind::MLMGOptions</text>
</a>
</g>
</g>
<!-- Node9&#45;&gt;Node16 -->
<g id="edge20" class="edge">
<title>Node9&#45;&gt;Node16</title>
<path fill="none" stroke="#9a32cd" stroke-dasharray="5,2" d="M139.83,-447.93C115.39,-445.13 86.5,-437.1 70.5,-416 47.19,-385.26 60.04,-334.54 66.5,-314.51"/>
<polygon fill="#9a32cd" stroke="#9a32cd" points="139.7,-451.43 149.97,-448.83 140.32,-444.46 139.7,-451.43"/>
<text text-anchor="middle" x="119.5" y="-408" font-family="Helvetica,sans-Serif" font-size="10.00"> hypre_namespace</text>
<text text-anchor="middle" x="119.5" y="-397" font-family="Helvetica,sans-Serif" font-size="10.00">bottom_solver_type</text>
<text text-anchor="middle" x="119.5" y="-386" font-family="Helvetica,sans-Serif" font-size="10.00">hypre_interface</text>
</g>
<!-- Node10 -->
<g id="node10" class="node">
<title>Node10</title>
<g id="a_node10"><a xlink:title="STL class.">
<polygon fill="white" stroke="#bfbfbf" points="129.5,-523.5 129.5,-553.5 233.5,-553.5 233.5,-523.5 129.5,-523.5"/>
<text text-anchor="start" x="137.5" y="-541.5" font-family="Helvetica,sans-Serif" font-size="10.00">std::basic_string&lt;</text>
<text text-anchor="middle" x="181.5" y="-530.5" font-family="Helvetica,sans-Serif" font-size="10.00"> char &gt;</text>
</a>
</g>
</g>
<!-- Node10&#45;&gt;Node9 -->
<g id="edge9" class="edge">
<title>Node10&#45;&gt;Node9</title>
<path fill="none" stroke="midnightblue" d="M181.78,-513.06C181.99,-495.13 182.26,-471.8 182.4,-459.31"/>
<polygon fill="midnightblue" stroke="midnightblue" points="178.28,-513.09 181.67,-523.13 185.28,-513.17 178.28,-513.09"/>
</g>
<!-- Node11&#45;&gt;Node3 -->
<g id="edge10" class="edge">
<title>Node11&#45;&gt;Node3</title>
<path fill="none" stroke="orange" stroke-dasharray="5,2" d="M672.5,-477.44C628.66,-434.79 507.06,-316.52 465.02,-275.62"/>
<polygon fill="orange" stroke="orange" points="670.14,-480.02 679.75,-484.49 675.02,-475 670.14,-480.02"/>
<text text-anchor="middle" x="668.5" y="-397" font-family="Helvetica,sans-Serif" font-size="10.00"> &lt; amr_wind::FieldInfo &gt;</text>
</g>
<!-- Node12 -->
<g id="node12" class="node">
<title>Node12</title>
<g id="a_node12"><a xlink:href="classamr__wind_1_1_field_repo.html" target="_top" xlink:title="Field Repository.">
<polygon fill="white" stroke="black" points="212,-251 212,-270 331,-270 331,-251 212,-251"/>
<text text-anchor="middle" x="271.5" y="-258" font-family="Helvetica,sans-Serif" font-size="10.00">amr_wind::FieldRepo</text>
</a>
</g>
</g>
<!-- Node12&#45;&gt;Node2 -->
<g id="edge13" class="edge">
<title>Node12&#45;&gt;Node2</title>
<path fill="none" stroke="#9a32cd" stroke-dasharray="5,2" d="M245.22,-245.98C236.24,-240.7 226.47,-234.19 218.5,-227 208.77,-218.21 200,-205.8 194.72,-197.58"/>
<polygon fill="#9a32cd" stroke="#9a32cd" points="243.74,-249.16 254.18,-251 247.16,-243.05 243.74,-249.16"/>
<text text-anchor="middle" x="238.5" y="-219" font-family="Helvetica,sans-Serif" font-size="10.00"> m_repo</text>
</g>
<!-- Node12&#45;&gt;Node17 -->
<g id="edge23" class="edge">
<title>Node12&#45;&gt;Node17</title>
<path fill="none" stroke="#9a32cd" stroke-dasharray="5,2" d="M270.97,-240.32C269.9,-201.38 267.5,-114.39 266.74,-86.67"/>
<polygon fill="#9a32cd" stroke="#9a32cd" points="267.48,-240.85 271.26,-250.75 274.48,-240.65 267.48,-240.85"/>
<text text-anchor="middle" x="282" y="-185.5" font-family="Helvetica,sans-Serif" font-size="10.00"> repo</text>
</g>
<!-- Node13&#45;&gt;Node12 -->
<g id="edge14" class="edge">
<title>Node13&#45;&gt;Node12</title>
<path fill="none" stroke="#9a32cd" stroke-dasharray="5,2" d="M271.5,-324.06C271.5,-306.13 271.5,-282.8 271.5,-270.31"/>
<polygon fill="#9a32cd" stroke="#9a32cd" points="268,-324.13 271.5,-334.13 275,-324.13 268,-324.13"/>
<text text-anchor="middle" x="308" y="-308" font-family="Helvetica,sans-Serif" font-size="10.00"> m_fid_map</text>
<text text-anchor="middle" x="308" y="-297" font-family="Helvetica,sans-Serif" font-size="10.00">m_int_fid_map</text>
</g>
<!-- Node14&#45;&gt;Node13 -->
<g id="edge16" class="edge">
<title>Node14&#45;&gt;Node13</title>
<path fill="none" stroke="orange" stroke-dasharray="5,2" d="M338.86,-424.54C341.92,-411.37 343.03,-395.27 335.5,-383 330.68,-375.14 323.29,-369.11 315.23,-364.51"/>
<polygon fill="orange" stroke="orange" points="335.44,-423.76 336.11,-434.34 342.18,-425.65 335.44,-423.76"/>
<text text-anchor="middle" x="395" y="-397" font-family="Helvetica,sans-Serif" font-size="10.00"> &lt; std::string, size_t &gt;</text>
</g>
<!-- Node15 -->
<g id="node15" class="node">
<title>Node15</title>
<g id="a_node15"><a xlink:title=" ">
<polygon fill="white" stroke="#bfbfbf" points="337,-529 337,-548 366,-548 366,-529 337,-529"/>
<text text-anchor="middle" x="351.5" y="-536" font-family="Helvetica,sans-Serif" font-size="10.00">K</text>
</a>
</g>
</g>
<!-- Node15&#45;&gt;Node14 -->
<g id="edge17" class="edge">
<title>Node15&#45;&gt;Node14</title>
<path fill="none" stroke="#9a32cd" stroke-dasharray="5,2" d="M347,-518.88C343.07,-502.59 337.45,-479.31 333.89,-464.55"/>
<polygon fill="#9a32cd" stroke="#9a32cd" points="343.66,-519.94 349.41,-528.84 350.47,-518.3 343.66,-519.94"/>
<text text-anchor="middle" x="355.5" y="-491.5" font-family="Helvetica,sans-Serif" font-size="10.00"> keys</text>
</g>
<!-- Node16&#45;&gt;Node1 -->
<g id="edge19" class="edge">
<title>Node16&#45;&gt;Node1</title>
<path fill="none" stroke="#9a32cd" stroke-dasharray="5,2" d="M69.5,-284.99C69.5,-268.47 69.5,-243.91 69.5,-222.5 69.5,-222.5 69.5,-222.5 69.5,-76 69.5,-51.29 92.7,-30.59 108.11,-19.57"/>
<polygon fill="#9a32cd" stroke="#9a32cd" points="66,-285.43 69.5,-295.43 73,-285.43 66,-285.43"/>
<text text-anchor="middle" x="97" y="-185.5" font-family="Helvetica,sans-Serif" font-size="10.00"> m_options</text>
</g>
<!-- Node17&#45;&gt;Node1 -->
<g id="edge21" class="edge">
<title>Node17&#45;&gt;Node1</title>
<path fill="none" stroke="#9a32cd" stroke-dasharray="5,2" d="M237.75,-63.11C209.03,-50.24 165.68,-30.81 140.83,-19.67"/>
<polygon fill="#9a32cd" stroke="#9a32cd" points="236.69,-66.47 247.25,-67.37 239.55,-60.08 236.69,-66.47"/>
<text text-anchor="middle" x="235" y="-41" font-family="Helvetica,sans-Serif" font-size="10.00"> m_pdefields</text>
</g>
</g>
</svg>
        <g id="navigator" transform="translate(0 0)" fill="#404254">
                <rect fill="#f2f5e9" fill-opacity="0.5" stroke="#606060" stroke-width=".5" x="0" y="0" width="60" height="60"/>
                <use id="zoomplus" xlink:href="#zoomPlus" x="17" y="9" onmousedown="handleZoom(evt,'in')"/>
                <use id="zoomminus" xlink:href="#zoomMin" x="42" y="9" onmousedown="handleZoom(evt,'out')"/>
                <use id="reset" xlink:href="#resetDef" x="30" y="36" onmousedown="handleReset()"/>
                <g id="arrowUp" xlink:href="#dirArrow" transform="translate(30 24)" onmousedown="handlePan(0,-1)">
                  <use xlink:href="#rim" fill="#404040">
                        <set attributeName="fill" to="#808080" begin="arrowUp.mouseover" end="arrowUp.mouseout"/>
                  </use>
                  <path fill="none" stroke="white" stroke-width="1.5" d="M0,-3.0v7 M-2.5,-0.5L0,-3.0L2.5,-0.5"/>
                </g>
                <g id="arrowRight" xlink:href="#dirArrow" transform="rotate(90) translate(36 -43)" onmousedown="handlePan(1,0)">
                  <use xlink:href="#rim" fill="#404040">
                        <set attributeName="fill" to="#808080" begin="arrowRight.mouseover" end="arrowRight.mouseout"/>
                  </use>
                  <path fill="none" stroke="white" stroke-width="1.5" d="M0,-3.0v7 M-2.5,-0.5L0,-3.0L2.5,-0.5"/>
                </g>
                <g id="arrowDown" xlink:href="#dirArrow" transform="rotate(180) translate(-30 -48)" onmousedown="handlePan(0,1)">
                  <use xlink:href="#rim" fill="#404040">
                        <set attributeName="fill" to="#808080" begin="arrowDown.mouseover" end="arrowDown.mouseout"/>
                  </use>
                  <path fill="none" stroke="white" stroke-width="1.5" d="M0,-3.0v7 M-2.5,-0.5L0,-3.0L2.5,-0.5"/>
                </g>
                <g id="arrowLeft" xlink:href="#dirArrow" transform="rotate(270) translate(-36 17)" onmousedown="handlePan(-1,0)">
                  <use xlink:href="#rim" fill="#404040">
                        <set attributeName="fill" to="#808080" begin="arrowLeft.mouseover" end="arrowLeft.mouseout"/>
                  </use>
                  <path fill="none" stroke="white" stroke-width="1.5" d="M0,-3.0v7 M-2.5,-0.5L0,-3.0L2.5,-0.5"/>
                </g>
        </g>
        <svg viewBox="0 0 15 15" width="100%" height="30px" preserveAspectRatio="xMaxYMin meet">
         <g id="arrow_out" transform="scale(0.3 0.3)">
          <a xlink:href="classamr__wind_1_1pde_1_1_i_c_n_s_diff_scalar_op__coll__graph_org.svg" target="_base">
           <rect id="button" ry="5" rx="5" y="6" x="6" height="38" width="38"
                fill="#f2f5e9" fill-opacity="0.5" stroke="#606060" stroke-width="1.0"/>
           <path id="arrow"
             d="M 11.500037,31.436501 C 11.940474,20.09759 22.043105,11.32322 32.158766,21.979434 L 37.068811,17.246167 C 37.068811,17.246167 37.088388,32 37.088388,32 L 22.160133,31.978069 C 22.160133,31.978069 26.997745,27.140456 26.997745,27.140456 C 18.528582,18.264221 13.291696,25.230495 11.500037,31.436501 z"
             style="fill:#404040;"/>
          </a>
         </g>
        </svg>
</svg>
