<?xml version="1.0" encoding="UTF-8" standalone="no"?>
<!DOCTYPE svg PUBLIC "-//W3C//DTD SVG 1.1//EN"
 "http://www.w3.org/Graphics/SVG/1.1/DTD/svg11.dtd">
<!-- Generated by graphviz version 2.43.0 (0)
 -->
<!-- Title: Graphical Class Hierarchy Pages: 1 -->
<svg width="270pt" height="797pt"
 viewBox="0.00 0.00 270.00 797.00" xmlns="http://www.w3.org/2000/svg" xmlns:xlink="http://www.w3.org/1999/xlink">
<g id="graph0" class="graph" transform="scale(1 1) rotate(0) translate(4 793)">
<title>Graphical Class Hierarchy</title>
<polygon fill="white" stroke="transparent" points="-4,4 -4,-793 266,-793 266,4 -4,4"/>
<!-- Node133 -->
<g id="node1" class="node">
<title>Node133</title>
<g id="a_node1"><a xlink:title=" ">
<polygon fill="white" stroke="#bfbfbf" points="0,-361.5 0,-380.5 57,-380.5 57,-361.5 0,-361.5"/>
<text text-anchor="middle" x="28.5" y="-368.5" font-family="Helvetica,sans-Serif" font-size="10.00">Register</text>
</a>
</g>
</g>
<!-- Node0 -->
<g id="node2" class="node">
<title>Node0</title>
<g id="a_node2"><a xlink:href="classamr__wind_1_1_a_b_l.html" target="_top" xlink:title="Atmospheric Boundary Layer physics.">
<polygon fill="white" stroke="black" points="133,-769.5 133,-788.5 222,-788.5 222,-769.5 133,-769.5"/>
<text text-anchor="middle" x="177.5" y="-776.5" font-family="Helvetica,sans-Serif" font-size="10.00">amr_wind::ABL</text>
</a>
</g>
</g>
<!-- Node133&#45;&gt;Node0 -->
<g id="edge1" class="edge">
<title>Node133&#45;&gt;Node0</title>
<path fill="none" stroke="midnightblue" d="M29.92,-391.17C31.84,-463.13 42.06,-705.8 93,-760 103.18,-770.83 118.15,-776.1 132.61,-778.5"/>
<polygon fill="midnightblue" stroke="midnightblue" points="33.41,-390.72 29.67,-380.8 26.41,-390.88 33.41,-390.72"/>
</g>
<!-- Node135 -->
<g id="node3" class="node">
<title>Node135</title>
<g id="a_node3"><a xlink:href="classamr__wind_1_1actuator_1_1_actuator.html" target="_top" xlink:title="Actuator line/disk modeling for wind turbines.">
<polygon fill="white" stroke="black" points="122,-720 122,-750 233,-750 233,-720 122,-720"/>
<text text-anchor="start" x="130" y="-738" font-family="Helvetica,sans-Serif" font-size="10.00">amr_wind::actuator</text>
<text text-anchor="middle" x="177.5" y="-727" font-family="Helvetica,sans-Serif" font-size="10.00">::Actuator</text>
</a>
</g>
</g>
<!-- Node133&#45;&gt;Node135 -->
<g id="edge2" class="edge">
<title>Node133&#45;&gt;Node135</title>
<path fill="none" stroke="midnightblue" d="M30.57,-390.97C34.48,-456.3 50.03,-662.23 93,-710 100.59,-718.44 110.9,-724.08 121.68,-727.83"/>
<polygon fill="midnightblue" stroke="midnightblue" points="34.06,-390.57 29.99,-380.79 27.07,-390.97 34.06,-390.57"/>
</g>
<!-- Node136 -->
<g id="node4" class="node">
<title>Node136</title>
<g id="a_node4"><a xlink:href="classamr__wind_1_1_boussinesq_bubble.html" target="_top" xlink:title="Boussinesq Bubble physics.">
<polygon fill="white" stroke="black" points="97.5,-681.5 97.5,-700.5 257.5,-700.5 257.5,-681.5 97.5,-681.5"/>
<text text-anchor="middle" x="177.5" y="-688.5" font-family="Helvetica,sans-Serif" font-size="10.00">amr_wind::BoussinesqBubble</text>
</a>
</g>
</g>
<!-- Node133&#45;&gt;Node136 -->
<g id="edge3" class="edge">
<title>Node133&#45;&gt;Node136</title>
<path fill="none" stroke="midnightblue" d="M30.94,-390.77C35.75,-451.17 53.23,-631.59 93,-672 96.75,-675.81 101.1,-678.93 105.81,-681.47"/>
<polygon fill="midnightblue" stroke="midnightblue" points="34.42,-390.36 30.17,-380.66 27.44,-390.9 34.42,-390.36"/>
</g>
<!-- Node137 -->
<g id="node5" class="node">
<title>Node137</title>
<g id="a_node5"><a xlink:href="classamr__wind_1_1channel__flow_1_1_channel_flow.html" target="_top" xlink:title="Channel Flow physics.">
<polygon fill="white" stroke="black" points="110.5,-632 110.5,-662 244.5,-662 244.5,-632 110.5,-632"/>
<text text-anchor="start" x="118.5" y="-650" font-family="Helvetica,sans-Serif" font-size="10.00">amr_wind::channel_flow</text>
<text text-anchor="middle" x="177.5" y="-639" font-family="Helvetica,sans-Serif" font-size="10.00">::ChannelFlow</text>
</a>
</g>
</g>
<!-- Node133&#45;&gt;Node137 -->
<g id="edge4" class="edge">
<title>Node133&#45;&gt;Node137</title>
<path fill="none" stroke="midnightblue" d="M31.94,-390.89C38.9,-444.34 60.41,-589.32 93,-623 97.93,-628.09 103.86,-632.13 110.27,-635.32"/>
<polygon fill="midnightblue" stroke="midnightblue" points="35.38,-390.16 30.65,-380.68 28.44,-391.04 35.38,-390.16"/>
</g>
<!-- Node138 -->
<g id="node6" class="node">
<title>Node138</title>
<g id="a_node6"><a xlink:href="classamr__wind_1_1ctv_1_1_convecting_taylor_vortex.html" target="_top" xlink:title="Convecting Taylor Vortex physics.">
<polygon fill="white" stroke="black" points="104.5,-583 104.5,-613 250.5,-613 250.5,-583 104.5,-583"/>
<text text-anchor="start" x="112.5" y="-601" font-family="Helvetica,sans-Serif" font-size="10.00">amr_wind::ctv::Convecting</text>
<text text-anchor="middle" x="177.5" y="-590" font-family="Helvetica,sans-Serif" font-size="10.00">TaylorVortex</text>
</a>
</g>
</g>
<!-- Node133&#45;&gt;Node138 -->
<g id="edge5" class="edge">
<title>Node133&#45;&gt;Node138</title>
<path fill="none" stroke="midnightblue" d="M29.87,-390.69C31.72,-430.78 41.68,-522.37 93,-573 96.88,-576.83 101.32,-580.07 106.08,-582.82"/>
<polygon fill="midnightblue" stroke="midnightblue" points="33.37,-390.49 29.53,-380.61 26.37,-390.73 33.37,-390.49"/>
</g>
<!-- Node139 -->
<g id="node7" class="node">
<title>Node139</title>
<g id="a_node7"><a xlink:href="classamr__wind_1_1_dam_break.html" target="_top" xlink:title=" ">
<polygon fill="white" stroke="black" points="116.5,-544.5 116.5,-563.5 238.5,-563.5 238.5,-544.5 116.5,-544.5"/>
<text text-anchor="middle" x="177.5" y="-551.5" font-family="Helvetica,sans-Serif" font-size="10.00">amr_wind::DamBreak</text>
</a>
</g>
</g>
<!-- Node133&#45;&gt;Node139 -->
<g id="edge6" class="edge">
<title>Node133&#45;&gt;Node139</title>
<path fill="none" stroke="midnightblue" d="M31.26,-390.75C35.45,-425.43 49.2,-497.16 93,-535 99.75,-540.83 107.92,-544.97 116.48,-547.9"/>
<polygon fill="midnightblue" stroke="midnightblue" points="34.71,-390.09 30.18,-380.52 27.75,-390.83 34.71,-390.09"/>
</g>
<!-- Node140 -->
<g id="node8" class="node">
<title>Node140</title>
<g id="a_node8"><a xlink:href="classamr__wind_1_1_ekman_spiral.html" target="_top" xlink:title="Ekman Spiral physics.">
<polygon fill="white" stroke="black" points="111.5,-506.5 111.5,-525.5 243.5,-525.5 243.5,-506.5 111.5,-506.5"/>
<text text-anchor="middle" x="177.5" y="-513.5" font-family="Helvetica,sans-Serif" font-size="10.00">amr_wind::EkmanSpiral</text>
</a>
</g>
</g>
<!-- Node133&#45;&gt;Node140 -->
<g id="edge7" class="edge">
<title>Node133&#45;&gt;Node140</title>
<path fill="none" stroke="midnightblue" d="M33.77,-390.49C40.97,-418.52 58.25,-469.82 93,-497 98.5,-501.31 104.8,-504.67 111.41,-507.3"/>
<polygon fill="midnightblue" stroke="midnightblue" points="37.15,-389.58 31.42,-380.67 30.35,-391.21 37.15,-389.58"/>
</g>
<!-- Node141 -->
<g id="node9" class="node">
<title>Node141</title>
<g id="a_node9"><a xlink:href="classamr__wind_1_1_free_stream.html" target="_top" xlink:title="Freestream physics.">
<polygon fill="white" stroke="black" points="114,-468.5 114,-487.5 241,-487.5 241,-468.5 114,-468.5"/>
<text text-anchor="middle" x="177.5" y="-475.5" font-family="Helvetica,sans-Serif" font-size="10.00">amr_wind::FreeStream</text>
</a>
</g>
</g>
<!-- Node133&#45;&gt;Node141 -->
<g id="edge8" class="edge">
<title>Node133&#45;&gt;Node141</title>
<path fill="none" stroke="midnightblue" d="M38.02,-389.91C48.17,-410.2 67.06,-441.83 93,-459 99.32,-463.19 106.44,-466.46 113.78,-469.01"/>
<polygon fill="midnightblue" stroke="midnightblue" points="41.1,-388.24 33.64,-380.72 34.78,-391.25 41.1,-388.24"/>
</g>
<!-- Node142 -->
<g id="node10" class="node">
<title>Node142</title>
<g id="a_node10"><a xlink:href="classamr__wind_1_1hybrid__rans__les__abl_1_1_hybrid_r_a_n_s_l_e_s_a_b_l.html" target="_top" xlink:title="Hybrid RANS/LES with ABL.">
<polygon fill="white" stroke="black" points="98.5,-419 98.5,-449 256.5,-449 256.5,-419 98.5,-419"/>
<text text-anchor="start" x="106.5" y="-437" font-family="Helvetica,sans-Serif" font-size="10.00">amr_wind::hybrid_rans</text>
<text text-anchor="middle" x="177.5" y="-426" font-family="Helvetica,sans-Serif" font-size="10.00">_les_abl::HybridRANSLESABL</text>
</a>
</g>
</g>
<!-- Node133&#45;&gt;Node142 -->
<g id="edge9" class="edge">
<title>Node133&#45;&gt;Node142</title>
<path fill="none" stroke="midnightblue" d="M51.95,-386.3C63.78,-393.88 78.76,-402.72 93,-409 101.31,-412.66 110.31,-415.98 119.22,-418.91"/>
<polygon fill="midnightblue" stroke="midnightblue" points="53.86,-383.37 43.58,-380.82 50.02,-389.23 53.86,-383.37"/>
</g>
<!-- Node143 -->
<g id="node11" class="node">
<title>Node143</title>
<g id="a_node11"><a xlink:href="classamr__wind_1_1ib_1_1_i_b.html" target="_top" xlink:title="Immersed boundary modeling for non&#45;blade wind components and complex terrain.">
<polygon fill="white" stroke="black" points="130,-380.5 130,-399.5 225,-399.5 225,-380.5 130,-380.5"/>
<text text-anchor="middle" x="177.5" y="-387.5" font-family="Helvetica,sans-Serif" font-size="10.00">amr_wind::ib::IB</text>
</a>
</g>
</g>
<!-- Node133&#45;&gt;Node143 -->
<g id="edge10" class="edge">
<title>Node133&#45;&gt;Node143</title>
<path fill="none" stroke="midnightblue" d="M67.27,-375.88C86.36,-378.35 109.7,-381.37 129.9,-383.98"/>
<polygon fill="midnightblue" stroke="midnightblue" points="67.52,-372.38 57.15,-374.57 66.62,-379.33 67.52,-372.38"/>
</g>
<!-- Node144 -->
<g id="node12" class="node">
<title>Node144</title>
<g id="a_node12"><a xlink:href="classamr__wind_1_1mms_1_1_m_m_s.html" target="_top" xlink:title="Method of manufactured solutions physics.">
<polygon fill="white" stroke="black" points="115,-342.5 115,-361.5 240,-361.5 240,-342.5 115,-342.5"/>
<text text-anchor="middle" x="177.5" y="-349.5" font-family="Helvetica,sans-Serif" font-size="10.00">amr_wind::mms::MMS</text>
</a>
</g>
</g>
<!-- Node133&#45;&gt;Node144 -->
<g id="edge11" class="edge">
<title>Node133&#45;&gt;Node144</title>
<path fill="none" stroke="midnightblue" d="M67.23,-366.12C81.73,-364.25 98.69,-362.06 114.86,-359.97"/>
<polygon fill="midnightblue" stroke="midnightblue" points="66.62,-362.67 57.15,-367.43 67.52,-369.62 66.62,-362.67"/>
</g>
<!-- Node145 -->
<g id="node13" class="node">
<title>Node145</title>
<g id="a_node13"><a xlink:href="classamr__wind_1_1_multi_phase.html" target="_top" xlink:title=" ">
<polygon fill="white" stroke="black" points="115,-304.5 115,-323.5 240,-323.5 240,-304.5 115,-304.5"/>
<text text-anchor="middle" x="177.5" y="-311.5" font-family="Helvetica,sans-Serif" font-size="10.00">amr_wind::MultiPhase</text>
</a>
</g>
</g>
<!-- Node133&#45;&gt;Node145 -->
<g id="edge12" class="edge">
<title>Node133&#45;&gt;Node145</title>
<path fill="none" stroke="midnightblue" d="M51.31,-355.6C63.17,-347.84 78.37,-338.87 93,-333 102.38,-329.24 112.67,-326.13 122.73,-323.6"/>
<polygon fill="midnightblue" stroke="midnightblue" points="49.31,-352.73 42.96,-361.22 53.21,-358.54 49.31,-352.73"/>
</g>
<!-- Node146 -->
<g id="node14" class="node">
<title>Node146</title>
<g id="a_node14"><a xlink:href="classamr__wind_1_1_n_w_b.html" target="_top" xlink:title="Numerical Wave Basin physics.">
<polygon fill="white" stroke="black" points="130,-266.5 130,-285.5 225,-285.5 225,-266.5 130,-266.5"/>
<text text-anchor="middle" x="177.5" y="-273.5" font-family="Helvetica,sans-Serif" font-size="10.00">amr_wind::NWB</text>
</a>
</g>
</g>
<!-- Node133&#45;&gt;Node146 -->
<g id="edge13" class="edge">
<title>Node133&#45;&gt;Node146</title>
<path fill="none" stroke="midnightblue" d="M39.98,-352.56C50.92,-335.01 69.74,-309.24 93,-295 104.03,-288.25 117.21,-283.89 129.8,-281.08"/>
<polygon fill="midnightblue" stroke="midnightblue" points="36.86,-350.96 34.73,-361.33 42.86,-354.55 36.86,-350.96"/>
</g>
<!-- Node147 -->
<g id="node15" class="node">
<title>Node147</title>
<g id="a_node15"><a xlink:href="classamr__wind_1_1_rain_drop.html" target="_top" xlink:title=" ">
<polygon fill="white" stroke="black" points="119.5,-228.5 119.5,-247.5 235.5,-247.5 235.5,-228.5 119.5,-228.5"/>
<text text-anchor="middle" x="177.5" y="-235.5" font-family="Helvetica,sans-Serif" font-size="10.00">amr_wind::RainDrop</text>
</a>
</g>
</g>
<!-- Node133&#45;&gt;Node147 -->
<g id="edge14" class="edge">
<title>Node133&#45;&gt;Node147</title>
<path fill="none" stroke="midnightblue" d="M34.9,-351.51C43.07,-325.76 61.12,-280.9 93,-257 100.73,-251.2 109.92,-247.13 119.33,-244.27"/>
<polygon fill="midnightblue" stroke="midnightblue" points="31.49,-350.67 31.99,-361.26 38.2,-352.68 31.49,-350.67"/>
</g>
<!-- Node148 -->
<g id="node16" class="node">
<title>Node148</title>
<g id="a_node16"><a xlink:href="classamr__wind_1_1_rayleigh_taylor.html" target="_top" xlink:title="Rayleigh Taylor physics.">
<polygon fill="white" stroke="black" points="106,-190.5 106,-209.5 249,-209.5 249,-190.5 106,-190.5"/>
<text text-anchor="middle" x="177.5" y="-197.5" font-family="Helvetica,sans-Serif" font-size="10.00">amr_wind::RayleighTaylor</text>
</a>
</g>
</g>
<!-- Node133&#45;&gt;Node148 -->
<g id="edge15" class="edge">
<title>Node133&#45;&gt;Node148</title>
<path fill="none" stroke="midnightblue" d="M31.94,-351.31C37.06,-318.63 52.08,-253.42 93,-219 97.55,-215.17 102.72,-212.08 108.2,-209.58"/>
<polygon fill="midnightblue" stroke="midnightblue" points="28.44,-351.01 30.51,-361.4 35.38,-351.99 28.44,-351.01"/>
</g>
<!-- Node149 -->
<g id="node17" class="node">
<title>Node149</title>
<g id="a_node17"><a xlink:href="classamr__wind_1_1_sloshing_tank.html" target="_top" xlink:title=" ">
<polygon fill="white" stroke="black" points="110.5,-152.5 110.5,-171.5 244.5,-171.5 244.5,-152.5 110.5,-152.5"/>
<text text-anchor="middle" x="177.5" y="-159.5" font-family="Helvetica,sans-Serif" font-size="10.00">amr_wind::SloshingTank</text>
</a>
</g>
</g>
<!-- Node133&#45;&gt;Node149 -->
<g id="edge16" class="edge">
<title>Node133&#45;&gt;Node149</title>
<path fill="none" stroke="midnightblue" d="M30.07,-350.9C32.32,-312 43.01,-226.28 93,-181 98.07,-176.41 104.01,-172.85 110.35,-170.11"/>
<polygon fill="midnightblue" stroke="midnightblue" points="26.55,-351.23 29.61,-361.37 33.55,-351.53 26.55,-351.23"/>
</g>
<!-- Node150 -->
<g id="node18" class="node">
<title>Node150</title>
<g id="a_node18"><a xlink:href="classamr__wind_1_1_synthetic_turbulence.html" target="_top" xlink:title=" ">
<polygon fill="white" stroke="black" points="93,-114.5 93,-133.5 262,-133.5 262,-114.5 93,-114.5"/>
<text text-anchor="middle" x="177.5" y="-121.5" font-family="Helvetica,sans-Serif" font-size="10.00">amr_wind::SyntheticTurbulence</text>
</a>
</g>
</g>
<!-- Node133&#45;&gt;Node150 -->
<g id="edge17" class="edge">
<title>Node133&#45;&gt;Node150</title>
<path fill="none" stroke="midnightblue" d="M28.74,-350.93C28.24,-306.56 33.63,-199.59 93,-143 96.98,-139.2 101.56,-136.11 106.47,-133.59"/>
<polygon fill="midnightblue" stroke="midnightblue" points="25.25,-351.11 28.98,-361.02 32.25,-350.94 25.25,-351.11"/>
</g>
<!-- Node151 -->
<g id="node19" class="node">
<title>Node151</title>
<g id="a_node19"><a xlink:href="classamr__wind_1_1_taylor_green_vortex.html" target="_top" xlink:title="Taylor Green Vortex physics.">
<polygon fill="white" stroke="black" points="97,-76.5 97,-95.5 258,-95.5 258,-76.5 97,-76.5"/>
<text text-anchor="middle" x="177.5" y="-83.5" font-family="Helvetica,sans-Serif" font-size="10.00">amr_wind::TaylorGreenVortex</text>
</a>
</g>
</g>
<!-- Node133&#45;&gt;Node151 -->
<g id="edge18" class="edge">
<title>Node133&#45;&gt;Node151</title>
<path fill="none" stroke="midnightblue" d="M31.52,-351.37C37.62,-295.94 57.64,-139.99 93,-105 96.8,-101.24 101.19,-98.15 105.92,-95.64"/>
<polygon fill="midnightblue" stroke="midnightblue" points="28.04,-351.01 30.46,-361.32 35,-351.75 28.04,-351.01"/>
</g>
<!-- Node152 -->
<g id="node20" class="node">
<title>Node152</title>
<g id="a_node20"><a xlink:href="classamr__wind_1_1_vortex_patch.html" target="_top" xlink:title=" ">
<polygon fill="white" stroke="black" points="113.5,-38.5 113.5,-57.5 241.5,-57.5 241.5,-38.5 113.5,-38.5"/>
<text text-anchor="middle" x="177.5" y="-45.5" font-family="Helvetica,sans-Serif" font-size="10.00">amr_wind::VortexPatch</text>
</a>
</g>
</g>
<!-- Node133&#45;&gt;Node152 -->
<g id="edge19" class="edge">
<title>Node133&#45;&gt;Node152</title>
<path fill="none" stroke="midnightblue" d="M30.91,-351.03C35.63,-290.04 52.89,-107.83 93,-67 98.63,-61.27 105.59,-57.12 113.09,-54.12"/>
<polygon fill="midnightblue" stroke="midnightblue" points="27.4,-351.01 30.15,-361.24 34.38,-351.53 27.4,-351.01"/>
</g>
<!-- Node153 -->
<g id="node21" class="node">
<title>Node153</title>
<g id="a_node21"><a xlink:href="classamr__wind_1_1_zalesak_disk.html" target="_top" xlink:title=" ">
<polygon fill="white" stroke="black" points="112,-0.5 112,-19.5 243,-19.5 243,-0.5 112,-0.5"/>
<text text-anchor="middle" x="177.5" y="-7.5" font-family="Helvetica,sans-Serif" font-size="10.00">amr_wind::ZalesakDisk</text>
</a>
</g>
</g>
<!-- Node133&#45;&gt;Node153 -->
<g id="edge20" class="edge">
<title>Node133&#45;&gt;Node153</title>
<path fill="none" stroke="midnightblue" d="M30.4,-351.17C33.79,-285.39 48.01,-75.84 93,-29 98.25,-23.53 104.73,-19.49 111.73,-16.52"/>
<polygon fill="midnightblue" stroke="midnightblue" points="26.89,-351.24 29.9,-361.4 33.88,-351.59 26.89,-351.24"/>
</g>
</g>
</svg>
