<?xml version="1.0" encoding="UTF-8" standalone="no"?>
<!DOCTYPE svg PUBLIC "-//W3C//DTD SVG 1.1//EN"
 "http://www.w3.org/Graphics/SVG/1.1/DTD/svg11.dtd">
<!-- Generated by graphviz version 2.43.0 (0)
 -->
<!-- Title: nc_interface.H Pages: 1 -->
<!--zoomable 207 -->
<svg id="main" version="1.1" xmlns="http://www.w3.org/2000/svg" xmlns:xlink="http://www.w3.org/1999/xlink" xml:space="preserve" onload="init(evt)">
<style type="text/css"><![CDATA[
.edge:hover path { stroke: red; }
.edge:hover polygon { stroke: red; fill: red; }
]]></style>
<script type="text/javascript"><![CDATA[
var edges = document.getElementsByTagName('g');
if (edges && edges.length) {
  for (var i=0;i<edges.length;i++) {
    if (edges[i].id.substr(0,4)=='edge') {
      edges[i].setAttribute('class','edge');
    }
  }
}
]]></script>
        <defs>
                <circle id="rim" cx="0" cy="0" r="7"/>
                <circle id="rim2" cx="0" cy="0" r="3.5"/>
                <g id="zoomPlus">
                        <use xlink:href="#rim" fill="#404040">
                                <set attributeName="fill" to="#808080" begin="zoomplus.mouseover" end="zoomplus.mouseout"/>
                        </use>
                        <path d="M-4,0h8M0,-4v8" fill="none" stroke="white" stroke-width="1.5" pointer-events="none"/>
                </g>
                <g id="zoomMin">
                        <use xlink:href="#rim" fill="#404040">
                                <set attributeName="fill" to="#808080" begin="zoomminus.mouseover" end="zoomminus.mouseout"/>
                        </use>
                        <path d="M-4,0h8" fill="none" stroke="white" stroke-width="1.5" pointer-events="none"/>
                </g>
                <g id="dirArrow">
                        <path fill="none" stroke="white" stroke-width="1.5" d="M0,-3.0v7 M-2.5,-0.5L0,-3.0L2.5,-0.5"/>
                </g>
               <g id="resetDef">
                       <use xlink:href="#rim2" fill="#404040">
                               <set attributeName="fill" to="#808080" begin="reset.mouseover" end="reset.mouseout"/>
                       </use>
               </g>
        </defs>

<script type="text/javascript">
var viewWidth = 1813;
var viewHeight = 207;
var sectionId = 'dynsection-1';
</script>
<script xlink:href="svgpan.js"/>
<svg id="graph" class="graph">
<g id="viewport">
<title>nc_interface.H</title>
<polygon fill="white" stroke="transparent" points="-4,4 -4,-203 1809,-203 1809,4 -4,4"/>
<!-- Node1 -->
<g id="node1" class="node">
<title>Node1</title>
<g id="a_node1"><a xlink:title=" ">
<polygon fill="#bfbfbf" stroke="black" points="1048,-179.5 1048,-198.5 1135,-198.5 1135,-179.5 1048,-179.5"/>
<text text-anchor="middle" x="1091.5" y="-186.5" font-family="Helvetica,sans-Serif" font-size="10.00">nc_interface.H</text>
</a>
</g>
</g>
<!-- Node2 -->
<g id="node2" class="node">
<title>Node2</title>
<g id="a_node2"><a xlink:href="_a_b_l_boundary_plane_8_h.html" target="_top" xlink:title=" ">
<polygon fill="white" stroke="black" points="232,-123.5 232,-142.5 351,-142.5 351,-123.5 232,-123.5"/>
<text text-anchor="middle" x="291.5" y="-130.5" font-family="Helvetica,sans-Serif" font-size="10.00">ABLBoundaryPlane.H</text>
</a>
</g>
</g>
<!-- Node1&#45;&gt;Node2 -->
<g id="edge1" class="edge">
<title>Node1&#45;&gt;Node2</title>
<path fill="none" stroke="midnightblue" d="M1037.82,-184.43C924.14,-176.87 650.75,-158.63 421.5,-143 398.48,-141.43 373.16,-139.68 351.04,-138.15"/>
<polygon fill="midnightblue" stroke="midnightblue" points="1037.78,-187.94 1047.99,-185.11 1038.25,-180.95 1037.78,-187.94"/>
</g>
<!-- Node11 -->
<g id="node11" class="node">
<title>Node11</title>
<g id="a_node11"><a xlink:href="_a_b_l_boundary_plane_8cpp.html" target="_top" xlink:title=" ">
<polygon fill="white" stroke="black" points="0,-6 0,-25 129,-25 129,-6 0,-6"/>
<text text-anchor="middle" x="64.5" y="-13" font-family="Helvetica,sans-Serif" font-size="10.00">ABLBoundaryPlane.cpp</text>
</a>
</g>
</g>
<!-- Node1&#45;&gt;Node11 -->
<g id="edge34" class="edge">
<title>Node1&#45;&gt;Node11</title>
<path fill="none" stroke="midnightblue" d="M1037.54,-188.09C872.69,-187.9 377.5,-183.85 222.5,-143 168.68,-128.82 152.04,-124.04 110.5,-87 90.21,-68.91 75.12,-39.89 68.39,-25.37"/>
<polygon fill="midnightblue" stroke="midnightblue" points="1037.91,-191.59 1047.91,-188.09 1037.91,-184.59 1037.91,-191.59"/>
</g>
<!-- Node14 -->
<g id="node14" class="node">
<title>Node14</title>
<g id="a_node14"><a xlink:href="bluff__body__ops_8cpp.html" target="_top" xlink:title=" ">
<polygon fill="white" stroke="black" points="430.5,-123.5 430.5,-142.5 540.5,-142.5 540.5,-123.5 430.5,-123.5"/>
<text text-anchor="middle" x="485.5" y="-130.5" font-family="Helvetica,sans-Serif" font-size="10.00">bluff_body_ops.cpp</text>
</a>
</g>
</g>
<!-- Node1&#45;&gt;Node14 -->
<g id="edge15" class="edge">
<title>Node1&#45;&gt;Node14</title>
<path fill="none" stroke="midnightblue" d="M1037.67,-184.55C940.15,-178.07 727.86,-162.93 549.5,-143 546.6,-142.68 543.63,-142.33 540.63,-141.96"/>
<polygon fill="midnightblue" stroke="midnightblue" points="1037.65,-188.06 1047.86,-185.22 1038.11,-181.07 1037.65,-188.06"/>
</g>
<!-- Node15 -->
<g id="node15" class="node">
<title>Node15</title>
<g id="a_node15"><a xlink:href="_synthetic_turbulence_8cpp.html" target="_top" xlink:title=" ">
<polygon fill="white" stroke="black" points="559,-123.5 559,-142.5 694,-142.5 694,-123.5 559,-123.5"/>
<text text-anchor="middle" x="626.5" y="-130.5" font-family="Helvetica,sans-Serif" font-size="10.00">SyntheticTurbulence.cpp</text>
</a>
</g>
</g>
<!-- Node1&#45;&gt;Node15 -->
<g id="edge16" class="edge">
<title>Node1&#45;&gt;Node15</title>
<path fill="none" stroke="midnightblue" d="M1037.59,-181.81C962.49,-173.18 822.13,-157 702.5,-143 699.73,-142.68 696.9,-142.34 694.04,-142.01"/>
<polygon fill="midnightblue" stroke="midnightblue" points="1037.41,-185.31 1047.74,-182.98 1038.21,-178.36 1037.41,-185.31"/>
</g>
<!-- Node16 -->
<g id="node16" class="node">
<title>Node16</title>
<g id="a_node16"><a xlink:href="nc__interface_8cpp.html" target="_top" xlink:title=" ">
<polygon fill="white" stroke="black" points="712,-123.5 712,-142.5 809,-142.5 809,-123.5 712,-123.5"/>
<text text-anchor="middle" x="760.5" y="-130.5" font-family="Helvetica,sans-Serif" font-size="10.00">nc_interface.cpp</text>
</a>
</g>
</g>
<!-- Node1&#45;&gt;Node16 -->
<g id="edge17" class="edge">
<title>Node1&#45;&gt;Node16</title>
<path fill="none" stroke="midnightblue" d="M1037.7,-179.22C974.35,-168.89 870.04,-151.87 809.05,-141.92"/>
<polygon fill="midnightblue" stroke="midnightblue" points="1037.45,-182.73 1047.89,-180.88 1038.58,-175.82 1037.45,-182.73"/>
</g>
<!-- Node17 -->
<g id="node17" class="node">
<title>Node17</title>
<g id="a_node17"><a xlink:href="_enstrophy_8cpp.html" target="_top" xlink:title=" ">
<polygon fill="white" stroke="black" points="827.5,-123.5 827.5,-142.5 911.5,-142.5 911.5,-123.5 827.5,-123.5"/>
<text text-anchor="middle" x="869.5" y="-130.5" font-family="Helvetica,sans-Serif" font-size="10.00">Enstrophy.cpp</text>
</a>
</g>
</g>
<!-- Node1&#45;&gt;Node17 -->
<g id="edge18" class="edge">
<title>Node1&#45;&gt;Node17</title>
<path fill="none" stroke="midnightblue" d="M1046.38,-177.02C1004.44,-166.82 942.85,-151.84 904.51,-142.52"/>
<polygon fill="midnightblue" stroke="midnightblue" points="1045.78,-180.48 1056.32,-179.44 1047.43,-173.68 1045.78,-180.48"/>
</g>
<!-- Node18 -->
<g id="node18" class="node">
<title>Node18</title>
<g id="a_node18"><a xlink:href="_field_norms_8cpp.html" target="_top" xlink:title=" ">
<polygon fill="white" stroke="black" points="929.5,-123.5 929.5,-142.5 1021.5,-142.5 1021.5,-123.5 929.5,-123.5"/>
<text text-anchor="middle" x="975.5" y="-130.5" font-family="Helvetica,sans-Serif" font-size="10.00">FieldNorms.cpp</text>
</a>
</g>
</g>
<!-- Node1&#45;&gt;Node18 -->
<g id="edge19" class="edge">
<title>Node1&#45;&gt;Node18</title>
<path fill="none" stroke="midnightblue" d="M1063.78,-175.1C1042.11,-165.01 1012.6,-151.27 993.79,-142.52"/>
<polygon fill="midnightblue" stroke="midnightblue" points="1062.58,-178.4 1073.12,-179.44 1065.53,-172.05 1062.58,-178.4"/>
</g>
<!-- Node19 -->
<g id="node19" class="node">
<title>Node19</title>
<g id="a_node19"><a xlink:href="_kinetic_energy_8cpp.html" target="_top" xlink:title=" ">
<polygon fill="white" stroke="black" points="1040,-123.5 1040,-142.5 1143,-142.5 1143,-123.5 1040,-123.5"/>
<text text-anchor="middle" x="1091.5" y="-130.5" font-family="Helvetica,sans-Serif" font-size="10.00">KineticEnergy.cpp</text>
</a>
</g>
</g>
<!-- Node1&#45;&gt;Node19 -->
<g id="edge20" class="edge">
<title>Node1&#45;&gt;Node19</title>
<path fill="none" stroke="midnightblue" d="M1091.5,-168.8C1091.5,-159.91 1091.5,-149.78 1091.5,-142.75"/>
<polygon fill="midnightblue" stroke="midnightblue" points="1088,-169.08 1091.5,-179.08 1095,-169.08 1088,-169.08"/>
</g>
<!-- Node20 -->
<g id="node20" class="node">
<title>Node20</title>
<g id="a_node20"><a xlink:href="_sampler_base_8_h.html" target="_top" xlink:title=" ">
<polygon fill="white" stroke="black" points="1229.5,-123.5 1229.5,-142.5 1321.5,-142.5 1321.5,-123.5 1229.5,-123.5"/>
<text text-anchor="middle" x="1275.5" y="-130.5" font-family="Helvetica,sans-Serif" font-size="10.00">SamplerBase.H</text>
</a>
</g>
</g>
<!-- Node1&#45;&gt;Node20 -->
<g id="edge21" class="edge">
<title>Node1&#45;&gt;Node20</title>
<path fill="none" stroke="midnightblue" d="M1130.45,-176.57C1165.16,-166.38 1215.18,-151.7 1246.48,-142.52"/>
<polygon fill="midnightblue" stroke="midnightblue" points="1129.27,-173.27 1120.66,-179.44 1131.24,-179.99 1129.27,-173.27"/>
</g>
<!-- Node28 -->
<g id="node28" class="node">
<title>Node28</title>
<g id="a_node28"><a xlink:href="_sampling_8cpp.html" target="_top" xlink:title=" ">
<polygon fill="white" stroke="black" points="1016,-6 1016,-25 1099,-25 1099,-6 1016,-6"/>
<text text-anchor="middle" x="1057.5" y="-13" font-family="Helvetica,sans-Serif" font-size="10.00">Sampling.cpp</text>
</a>
</g>
</g>
<!-- Node1&#45;&gt;Node28 -->
<g id="edge33" class="edge">
<title>Node1&#45;&gt;Node28</title>
<path fill="none" stroke="midnightblue" d="M1118.83,-174.47C1141.01,-161.67 1166.37,-141.7 1151.5,-123 1107.2,-67.32 1039.8,-142.68 995.5,-87 977.13,-63.91 1015.73,-38.23 1039.92,-25.16"/>
<polygon fill="midnightblue" stroke="midnightblue" points="1117.04,-171.46 1109.95,-179.33 1120.4,-177.6 1117.04,-171.46"/>
</g>
<!-- Node31 -->
<g id="node31" class="node">
<title>Node31</title>
<g id="a_node31"><a xlink:href="_a_b_l_stats_8cpp.html" target="_top" xlink:title=" ">
<polygon fill="white" stroke="black" points="1611.5,-6 1611.5,-25 1691.5,-25 1691.5,-6 1611.5,-6"/>
<text text-anchor="middle" x="1651.5" y="-13" font-family="Helvetica,sans-Serif" font-size="10.00">ABLStats.cpp</text>
</a>
</g>
</g>
<!-- Node1&#45;&gt;Node31 -->
<g id="edge35" class="edge">
<title>Node1&#45;&gt;Node31</title>
<path fill="none" stroke="midnightblue" d="M1145.36,-182.51C1194.59,-176.41 1268.9,-164.47 1330.5,-143 1348.52,-136.72 1350.29,-128.73 1368.5,-123 1429.6,-103.77 1612.13,-135.04 1654.5,-87 1669.73,-69.73 1660.98,-39.8 1655.25,-25.12"/>
<polygon fill="midnightblue" stroke="midnightblue" points="1144.76,-179.06 1135.25,-183.73 1145.59,-186.01 1144.76,-179.06"/>
</g>
<!-- Node32 -->
<g id="node32" class="node">
<title>Node32</title>
<g id="a_node32"><a xlink:href="uniform__ct__ops_8cpp.html" target="_top" xlink:title=" ">
<polygon fill="white" stroke="black" points="1377.5,-123.5 1377.5,-142.5 1489.5,-142.5 1489.5,-123.5 1377.5,-123.5"/>
<text text-anchor="middle" x="1433.5" y="-130.5" font-family="Helvetica,sans-Serif" font-size="10.00">uniform_ct_ops.cpp</text>
</a>
</g>
</g>
<!-- Node1&#45;&gt;Node32 -->
<g id="edge36" class="edge">
<title>Node1&#45;&gt;Node32</title>
<path fill="none" stroke="midnightblue" d="M1145.04,-179.55C1208.96,-169.45 1315.24,-152.67 1379.4,-142.54"/>
<polygon fill="midnightblue" stroke="midnightblue" points="1144.49,-176.09 1135.16,-181.11 1145.59,-183 1144.49,-176.09"/>
</g>
<!-- Node33 -->
<g id="node33" class="node">
<title>Node33</title>
<g id="a_node33"><a xlink:href="_fast_iface_8cpp.html" target="_top" xlink:title=" ">
<polygon fill="white" stroke="black" points="1507.5,-123.5 1507.5,-142.5 1587.5,-142.5 1587.5,-123.5 1507.5,-123.5"/>
<text text-anchor="middle" x="1547.5" y="-130.5" font-family="Helvetica,sans-Serif" font-size="10.00">FastIface.cpp</text>
</a>
</g>
</g>
<!-- Node1&#45;&gt;Node33 -->
<g id="edge37" class="edge">
<title>Node1&#45;&gt;Node33</title>
<path fill="none" stroke="midnightblue" d="M1145.38,-183.28C1223.44,-176.16 1372.46,-161.52 1498.5,-143 1501.41,-142.57 1504.41,-142.1 1507.43,-141.6"/>
<polygon fill="midnightblue" stroke="midnightblue" points="1144.94,-179.81 1135.3,-184.19 1145.57,-186.78 1144.94,-179.81"/>
</g>
<!-- Node34 -->
<g id="node34" class="node">
<title>Node34</title>
<g id="a_node34"><a xlink:href="turbine__utils_8cpp.html" target="_top" xlink:title=" ">
<polygon fill="white" stroke="black" points="1605.5,-123.5 1605.5,-142.5 1703.5,-142.5 1703.5,-123.5 1605.5,-123.5"/>
<text text-anchor="middle" x="1654.5" y="-130.5" font-family="Helvetica,sans-Serif" font-size="10.00">turbine_utils.cpp</text>
</a>
</g>
</g>
<!-- Node1&#45;&gt;Node34 -->
<g id="edge38" class="edge">
<title>Node1&#45;&gt;Node34</title>
<path fill="none" stroke="midnightblue" d="M1145.4,-184.35C1237.88,-177.84 1432.66,-162.99 1596.5,-143 1599.43,-142.64 1602.45,-142.25 1605.48,-141.84"/>
<polygon fill="midnightblue" stroke="midnightblue" points="1144.9,-180.88 1135.17,-185.07 1145.39,-187.86 1144.9,-180.88"/>
</g>
<!-- Node35 -->
<g id="node35" class="node">
<title>Node35</title>
<g id="a_node35"><a xlink:href="wing__ops_8cpp.html" target="_top" xlink:title=" ">
<polygon fill="white" stroke="black" points="1722,-123.5 1722,-142.5 1805,-142.5 1805,-123.5 1722,-123.5"/>
<text text-anchor="middle" x="1763.5" y="-130.5" font-family="Helvetica,sans-Serif" font-size="10.00">wing_ops.cpp</text>
</a>
</g>
</g>
<!-- Node1&#45;&gt;Node35 -->
<g id="edge39" class="edge">
<title>Node1&#45;&gt;Node35</title>
<path fill="none" stroke="midnightblue" d="M1145.31,-185.96C1253.22,-181.45 1503.62,-168.93 1712.5,-143 1715.53,-142.62 1718.66,-142.19 1721.8,-141.72"/>
<polygon fill="midnightblue" stroke="midnightblue" points="1145.17,-182.46 1135.32,-186.37 1145.45,-189.45 1145.17,-182.46"/>
</g>
<!-- Node3 -->
<g id="node3" class="node">
<title>Node3</title>
<g id="a_node3"><a xlink:href="_a_b_l_8_h.html" target="_top" xlink:title=" ">
<polygon fill="white" stroke="black" points="505.5,-67.5 505.5,-86.5 551.5,-86.5 551.5,-67.5 505.5,-67.5"/>
<text text-anchor="middle" x="528.5" y="-74.5" font-family="Helvetica,sans-Serif" font-size="10.00">ABL.H</text>
</a>
</g>
</g>
<!-- Node2&#45;&gt;Node3 -->
<g id="edge2" class="edge">
<title>Node2&#45;&gt;Node3</title>
<path fill="none" stroke="midnightblue" d="M339.07,-121.16C389.53,-109.66 467.13,-91.98 505.46,-83.25"/>
<polygon fill="midnightblue" stroke="midnightblue" points="338.03,-117.81 329.05,-123.44 339.58,-124.63 338.03,-117.81"/>
</g>
<!-- Node9 -->
<g id="node9" class="node">
<title>Node9</title>
<g id="a_node9"><a xlink:href="_a_b_l_8cpp.html" target="_top" xlink:title=" ">
<polygon fill="white" stroke="black" points="263.5,-6 263.5,-25 319.5,-25 319.5,-6 263.5,-6"/>
<text text-anchor="middle" x="291.5" y="-13" font-family="Helvetica,sans-Serif" font-size="10.00">ABL.cpp</text>
</a>
</g>
</g>
<!-- Node2&#45;&gt;Node9 -->
<g id="edge10" class="edge">
<title>Node2&#45;&gt;Node9</title>
<path fill="none" stroke="midnightblue" d="M291.5,-113.16C291.5,-87.87 291.5,-43.94 291.5,-25.28"/>
<polygon fill="midnightblue" stroke="midnightblue" points="288,-113.32 291.5,-123.32 295,-113.32 288,-113.32"/>
</g>
<!-- Node2&#45;&gt;Node11 -->
<g id="edge11" class="edge">
<title>Node2&#45;&gt;Node11</title>
<path fill="none" stroke="midnightblue" d="M234.8,-121.11C205.93,-114.05 171.02,-103.11 142.5,-87 112.62,-70.12 84.56,-40.01 71.76,-25.21"/>
<polygon fill="midnightblue" stroke="midnightblue" points="234.2,-124.56 244.73,-123.44 235.8,-117.75 234.2,-124.56"/>
</g>
<!-- Node12 -->
<g id="node12" class="node">
<title>Node12</title>
<g id="a_node12"><a xlink:href="_a_b_l_fill_inflow_8_h.html" target="_top" xlink:title=" ">
<polygon fill="white" stroke="black" points="152,-67.5 152,-86.5 241,-86.5 241,-67.5 152,-67.5"/>
<text text-anchor="middle" x="196.5" y="-74.5" font-family="Helvetica,sans-Serif" font-size="10.00">ABLFillInflow.H</text>
</a>
</g>
</g>
<!-- Node2&#45;&gt;Node12 -->
<g id="edge12" class="edge">
<title>Node2&#45;&gt;Node12</title>
<path fill="none" stroke="midnightblue" d="M267.18,-118.18C249.7,-108.24 226.67,-95.15 211.73,-86.65"/>
<polygon fill="midnightblue" stroke="midnightblue" points="265.81,-121.43 276.24,-123.32 269.27,-115.34 265.81,-121.43"/>
</g>
<!-- Node4 -->
<g id="node4" class="node">
<title>Node4</title>
<g id="a_node4"><a xlink:href="_a_b_l_forcing_8cpp.html" target="_top" xlink:title=" ">
<polygon fill="white" stroke="black" points="544,-6 544,-25 635,-25 635,-6 544,-6"/>
<text text-anchor="middle" x="589.5" y="-13" font-family="Helvetica,sans-Serif" font-size="10.00">ABLForcing.cpp</text>
</a>
</g>
</g>
<!-- Node3&#45;&gt;Node4 -->
<g id="edge3" class="edge">
<title>Node3&#45;&gt;Node4</title>
<path fill="none" stroke="midnightblue" d="M544.57,-60.32C556.16,-49.02 571.36,-34.19 580.78,-25.01"/>
<polygon fill="midnightblue" stroke="midnightblue" points="541.95,-57.99 537.24,-67.48 546.84,-63 541.95,-57.99"/>
</g>
<!-- Node5 -->
<g id="node5" class="node">
<title>Node5</title>
<g id="a_node5"><a xlink:href="_a_b_l_mean_boussinesq_8cpp.html" target="_top" xlink:title=" ">
<polygon fill="white" stroke="black" points="653.5,-6 653.5,-25 791.5,-25 791.5,-6 653.5,-6"/>
<text text-anchor="middle" x="722.5" y="-13" font-family="Helvetica,sans-Serif" font-size="10.00">ABLMeanBoussinesq.cpp</text>
</a>
</g>
</g>
<!-- Node3&#45;&gt;Node5 -->
<g id="edge4" class="edge">
<title>Node3&#45;&gt;Node5</title>
<path fill="none" stroke="midnightblue" d="M561.42,-65.9C598.83,-54.43 659.27,-35.89 694.5,-25.09"/>
<polygon fill="midnightblue" stroke="midnightblue" points="560.05,-62.66 551.52,-68.94 562.1,-69.35 560.05,-62.66"/>
</g>
<!-- Node6 -->
<g id="node6" class="node">
<title>Node6</title>
<g id="a_node6"><a xlink:href="incflo_8cpp.html" target="_top" xlink:title=" ">
<polygon fill="white" stroke="black" points="810,-6 810,-25 873,-25 873,-6 810,-6"/>
<text text-anchor="middle" x="841.5" y="-13" font-family="Helvetica,sans-Serif" font-size="10.00">incflo.cpp</text>
</a>
</g>
</g>
<!-- Node3&#45;&gt;Node6 -->
<g id="edge5" class="edge">
<title>Node3&#45;&gt;Node6</title>
<path fill="none" stroke="midnightblue" d="M561.95,-72.39C613.67,-66.38 715.9,-52.78 800.5,-31 806.79,-29.38 813.48,-27.21 819.59,-25.05"/>
<polygon fill="midnightblue" stroke="midnightblue" points="561.25,-68.95 551.71,-73.56 562.04,-75.9 561.25,-68.95"/>
</g>
<!-- Node7 -->
<g id="node7" class="node">
<title>Node7</title>
<g id="a_node7"><a xlink:href="incflo__apply__nodal__projection_8cpp.html" target="_top" xlink:title=" ">
<polygon fill="white" stroke="black" points="891,-0.5 891,-30.5 998,-30.5 998,-0.5 891,-0.5"/>
<text text-anchor="start" x="899" y="-18.5" font-family="Helvetica,sans-Serif" font-size="10.00">incflo_apply_nodal</text>
<text text-anchor="middle" x="944.5" y="-7.5" font-family="Helvetica,sans-Serif" font-size="10.00">_projection.cpp</text>
</a>
</g>
</g>
<!-- Node3&#45;&gt;Node7 -->
<g id="edge6" class="edge">
<title>Node3&#45;&gt;Node7</title>
<path fill="none" stroke="midnightblue" d="M561.86,-72.86C624.7,-66.71 764.79,-51.82 881.5,-31 884.59,-30.45 887.76,-29.84 890.96,-29.2"/>
<polygon fill="midnightblue" stroke="midnightblue" points="561.37,-69.4 551.75,-73.84 562.04,-76.36 561.37,-69.4"/>
</g>
<!-- Node8 -->
<g id="node8" class="node">
<title>Node8</title>
<g id="a_node8"><a xlink:href="init_8cpp.html" target="_top" xlink:title=" ">
<polygon fill="white" stroke="black" points="338,-6 338,-25 391,-25 391,-6 338,-6"/>
<text text-anchor="middle" x="364.5" y="-13" font-family="Helvetica,sans-Serif" font-size="10.00">init.cpp</text>
</a>
</g>
</g>
<!-- Node3&#45;&gt;Node8 -->
<g id="edge7" class="edge">
<title>Node3&#45;&gt;Node8</title>
<path fill="none" stroke="midnightblue" d="M495.26,-64.99C469.09,-56.18 431.78,-43.31 399.5,-31 394.71,-29.17 389.58,-27.11 384.78,-25.13"/>
<polygon fill="midnightblue" stroke="midnightblue" points="494.46,-68.41 505.05,-68.27 496.68,-61.77 494.46,-68.41"/>
</g>
<!-- Node3&#45;&gt;Node9 -->
<g id="edge8" class="edge">
<title>Node3&#45;&gt;Node9</title>
<path fill="none" stroke="midnightblue" d="M495.41,-70.16C455.42,-62.73 386.29,-48.71 328.5,-31 322.96,-29.3 317.07,-27.16 311.66,-25.04"/>
<polygon fill="midnightblue" stroke="midnightblue" points="494.94,-73.63 505.41,-71.99 496.2,-66.74 494.94,-73.63"/>
</g>
<!-- Node10 -->
<g id="node10" class="node">
<title>Node10</title>
<g id="a_node10"><a xlink:href="_a_b_l_wall_function_8cpp.html" target="_top" xlink:title=" ">
<polygon fill="white" stroke="black" points="409,-6 409,-25 526,-25 526,-6 409,-6"/>
<text text-anchor="middle" x="467.5" y="-13" font-family="Helvetica,sans-Serif" font-size="10.00">ABLWallFunction.cpp</text>
</a>
</g>
</g>
<!-- Node3&#45;&gt;Node10 -->
<g id="edge9" class="edge">
<title>Node3&#45;&gt;Node10</title>
<path fill="none" stroke="midnightblue" d="M512.43,-60.32C500.84,-49.02 485.64,-34.19 476.22,-25.01"/>
<polygon fill="midnightblue" stroke="midnightblue" points="510.16,-63 519.76,-67.48 515.05,-57.99 510.16,-63"/>
</g>
<!-- Node12&#45;&gt;Node11 -->
<g id="edge13" class="edge">
<title>Node12&#45;&gt;Node11</title>
<path fill="none" stroke="midnightblue" d="M168.39,-63.33C142.76,-51.78 105.61,-35.03 83.38,-25.01"/>
<polygon fill="midnightblue" stroke="midnightblue" points="167.03,-66.56 177.59,-67.48 169.91,-60.17 167.03,-66.56"/>
</g>
<!-- Node13 -->
<g id="node13" class="node">
<title>Node13</title>
<g id="a_node13"><a xlink:href="_a_b_l_fill_inflow_8cpp.html" target="_top" xlink:title=" ">
<polygon fill="white" stroke="black" points="147.5,-6 147.5,-25 245.5,-25 245.5,-6 147.5,-6"/>
<text text-anchor="middle" x="196.5" y="-13" font-family="Helvetica,sans-Serif" font-size="10.00">ABLFillInflow.cpp</text>
</a>
</g>
</g>
<!-- Node12&#45;&gt;Node13 -->
<g id="edge14" class="edge">
<title>Node12&#45;&gt;Node13</title>
<path fill="none" stroke="midnightblue" d="M196.5,-57.32C196.5,-46.5 196.5,-33.4 196.5,-25.01"/>
<polygon fill="midnightblue" stroke="midnightblue" points="193,-57.48 196.5,-67.48 200,-57.48 193,-57.48"/>
</g>
<!-- Node21 -->
<g id="node21" class="node">
<title>Node21</title>
<g id="a_node21"><a xlink:href="_line_sampler_8_h.html" target="_top" xlink:title=" ">
<polygon fill="white" stroke="black" points="1356,-67.5 1356,-86.5 1443,-86.5 1443,-67.5 1356,-67.5"/>
<text text-anchor="middle" x="1399.5" y="-74.5" font-family="Helvetica,sans-Serif" font-size="10.00">LineSampler.H</text>
</a>
</g>
</g>
<!-- Node20&#45;&gt;Node21 -->
<g id="edge22" class="edge">
<title>Node20&#45;&gt;Node21</title>
<path fill="none" stroke="midnightblue" d="M1304.51,-119.37C1327.73,-109.26 1359.66,-95.35 1379.94,-86.52"/>
<polygon fill="midnightblue" stroke="midnightblue" points="1302.92,-116.24 1295.15,-123.44 1305.71,-122.66 1302.92,-116.24"/>
</g>
<!-- Node23 -->
<g id="node23" class="node">
<title>Node23</title>
<g id="a_node23"><a xlink:href="_plane_sampler_8_h.html" target="_top" xlink:title=" ">
<polygon fill="white" stroke="black" points="1461.5,-67.5 1461.5,-86.5 1555.5,-86.5 1555.5,-67.5 1461.5,-67.5"/>
<text text-anchor="middle" x="1508.5" y="-74.5" font-family="Helvetica,sans-Serif" font-size="10.00">PlaneSampler.H</text>
</a>
</g>
</g>
<!-- Node20&#45;&gt;Node23 -->
<g id="edge24" class="edge">
<title>Node20&#45;&gt;Node23</title>
<path fill="none" stroke="midnightblue" d="M1322.3,-121.15C1366.33,-110.95 1431.35,-95.88 1471.75,-86.52"/>
<polygon fill="midnightblue" stroke="midnightblue" points="1321.37,-117.78 1312.42,-123.44 1322.95,-124.6 1321.37,-117.78"/>
</g>
<!-- Node25 -->
<g id="node25" class="node">
<title>Node25</title>
<g id="a_node25"><a xlink:href="_probe_sampler_8_h.html" target="_top" xlink:title=" ">
<polygon fill="white" stroke="black" points="1243,-67.5 1243,-86.5 1338,-86.5 1338,-67.5 1243,-67.5"/>
<text text-anchor="middle" x="1290.5" y="-74.5" font-family="Helvetica,sans-Serif" font-size="10.00">ProbeSampler.H</text>
</a>
</g>
</g>
<!-- Node20&#45;&gt;Node25 -->
<g id="edge26" class="edge">
<title>Node20&#45;&gt;Node25</title>
<path fill="none" stroke="midnightblue" d="M1280.67,-113.4C1283.18,-104.36 1286.07,-93.94 1288.07,-86.75"/>
<polygon fill="midnightblue" stroke="midnightblue" points="1277.28,-112.51 1277.98,-123.08 1284.03,-114.38 1277.28,-112.51"/>
</g>
<!-- Node27 -->
<g id="node27" class="node">
<title>Node27</title>
<g id="a_node27"><a xlink:href="_sampling_8_h.html" target="_top" xlink:title=" ">
<polygon fill="white" stroke="black" points="1005,-67.5 1005,-86.5 1078,-86.5 1078,-67.5 1005,-67.5"/>
<text text-anchor="middle" x="1041.5" y="-74.5" font-family="Helvetica,sans-Serif" font-size="10.00">Sampling.H</text>
</a>
</g>
</g>
<!-- Node20&#45;&gt;Node27 -->
<g id="edge28" class="edge">
<title>Node20&#45;&gt;Node27</title>
<path fill="none" stroke="midnightblue" d="M1228.47,-121.15C1184.11,-110.91 1118.56,-95.78 1078.02,-86.43"/>
<polygon fill="midnightblue" stroke="midnightblue" points="1227.89,-124.61 1238.42,-123.44 1229.47,-117.78 1227.89,-124.61"/>
</g>
<!-- Node29 -->
<g id="node29" class="node">
<title>Node29</title>
<g id="a_node29"><a xlink:href="_sampling_container_8cpp.html" target="_top" xlink:title=" ">
<polygon fill="white" stroke="black" points="1096,-67.5 1096,-86.5 1225,-86.5 1225,-67.5 1096,-67.5"/>
<text text-anchor="middle" x="1160.5" y="-74.5" font-family="Helvetica,sans-Serif" font-size="10.00">SamplingContainer.cpp</text>
</a>
</g>
</g>
<!-- Node20&#45;&gt;Node29 -->
<g id="edge30" class="edge">
<title>Node20&#45;&gt;Node29</title>
<path fill="none" stroke="midnightblue" d="M1248.02,-119.1C1226.53,-109.01 1197.28,-95.27 1178.64,-86.52"/>
<polygon fill="midnightblue" stroke="midnightblue" points="1246.74,-122.36 1257.28,-123.44 1249.71,-116.02 1246.74,-122.36"/>
</g>
<!-- Node30 -->
<g id="node30" class="node">
<title>Node30</title>
<g id="a_node30"><a xlink:href="_a_b_l_stats_8_h.html" target="_top" xlink:title=" ">
<polygon fill="white" stroke="black" points="1574,-67.5 1574,-86.5 1645,-86.5 1645,-67.5 1574,-67.5"/>
<text text-anchor="middle" x="1609.5" y="-74.5" font-family="Helvetica,sans-Serif" font-size="10.00">ABLStats.H</text>
</a>
</g>
</g>
<!-- Node20&#45;&gt;Node30 -->
<g id="edge31" class="edge">
<title>Node20&#45;&gt;Node30</title>
<path fill="none" stroke="midnightblue" d="M1331.85,-123.52C1402.88,-112.78 1520.96,-94.74 1564.5,-87 1567.48,-86.47 1570.57,-85.9 1573.66,-85.31"/>
<polygon fill="midnightblue" stroke="midnightblue" points="1331.09,-120.1 1321.72,-125.05 1332.13,-127.02 1331.09,-120.1"/>
</g>
<!-- Node22 -->
<g id="node22" class="node">
<title>Node22</title>
<g id="a_node22"><a xlink:href="_line_sampler_8cpp.html" target="_top" xlink:title=" ">
<polygon fill="white" stroke="black" points="1351,-6 1351,-25 1448,-25 1448,-6 1351,-6"/>
<text text-anchor="middle" x="1399.5" y="-13" font-family="Helvetica,sans-Serif" font-size="10.00">LineSampler.cpp</text>
</a>
</g>
</g>
<!-- Node21&#45;&gt;Node22 -->
<g id="edge23" class="edge">
<title>Node21&#45;&gt;Node22</title>
<path fill="none" stroke="midnightblue" d="M1399.5,-57.32C1399.5,-46.5 1399.5,-33.4 1399.5,-25.01"/>
<polygon fill="midnightblue" stroke="midnightblue" points="1396,-57.48 1399.5,-67.48 1403,-57.48 1396,-57.48"/>
</g>
<!-- Node24 -->
<g id="node24" class="node">
<title>Node24</title>
<g id="a_node24"><a xlink:href="_plane_sampler_8cpp.html" target="_top" xlink:title=" ">
<polygon fill="white" stroke="black" points="1466.5,-6 1466.5,-25 1570.5,-25 1570.5,-6 1466.5,-6"/>
<text text-anchor="middle" x="1518.5" y="-13" font-family="Helvetica,sans-Serif" font-size="10.00">PlaneSampler.cpp</text>
</a>
</g>
</g>
<!-- Node23&#45;&gt;Node24 -->
<g id="edge25" class="edge">
<title>Node23&#45;&gt;Node24</title>
<path fill="none" stroke="midnightblue" d="M1511.64,-57.32C1513.46,-46.5 1515.66,-33.4 1517.07,-25.01"/>
<polygon fill="midnightblue" stroke="midnightblue" points="1508.14,-57.03 1509.93,-67.48 1515.04,-58.19 1508.14,-57.03"/>
</g>
<!-- Node26 -->
<g id="node26" class="node">
<title>Node26</title>
<g id="a_node26"><a xlink:href="_probe_sampler_8cpp.html" target="_top" xlink:title=" ">
<polygon fill="white" stroke="black" points="1228.5,-6 1228.5,-25 1332.5,-25 1332.5,-6 1228.5,-6"/>
<text text-anchor="middle" x="1280.5" y="-13" font-family="Helvetica,sans-Serif" font-size="10.00">ProbeSampler.cpp</text>
</a>
</g>
</g>
<!-- Node25&#45;&gt;Node26 -->
<g id="edge27" class="edge">
<title>Node25&#45;&gt;Node26</title>
<path fill="none" stroke="midnightblue" d="M1287.36,-57.32C1285.54,-46.5 1283.34,-33.4 1281.93,-25.01"/>
<polygon fill="midnightblue" stroke="midnightblue" points="1283.96,-58.19 1289.07,-67.48 1290.86,-57.03 1283.96,-58.19"/>
</g>
<!-- Node27&#45;&gt;Node28 -->
<g id="edge29" class="edge">
<title>Node27&#45;&gt;Node28</title>
<path fill="none" stroke="midnightblue" d="M1046.43,-57.66C1049.36,-46.77 1052.93,-33.49 1055.21,-25.01"/>
<polygon fill="midnightblue" stroke="midnightblue" points="1043.01,-56.91 1043.79,-67.48 1049.77,-58.73 1043.01,-56.91"/>
</g>
<!-- Node30&#45;&gt;Node31 -->
<g id="edge32" class="edge">
<title>Node30&#45;&gt;Node31</title>
<path fill="none" stroke="midnightblue" d="M1621.5,-59.01C1629.34,-47.89 1639.26,-33.84 1645.49,-25.01"/>
<polygon fill="midnightblue" stroke="midnightblue" points="1618.43,-57.29 1615.52,-67.48 1624.14,-61.32 1618.43,-57.29"/>
</g>
</g>
</svg>
        <g id="navigator" transform="translate(0 0)" fill="#404254">
                <rect fill="#f2f5e9" fill-opacity="0.5" stroke="#606060" stroke-width=".5" x="0" y="0" width="60" height="60"/>
                <use id="zoomplus" xlink:href="#zoomPlus" x="17" y="9" onmousedown="handleZoom(evt,'in')"/>
                <use id="zoomminus" xlink:href="#zoomMin" x="42" y="9" onmousedown="handleZoom(evt,'out')"/>
                <use id="reset" xlink:href="#resetDef" x="30" y="36" onmousedown="handleReset()"/>
                <g id="arrowUp" xlink:href="#dirArrow" transform="translate(30 24)" onmousedown="handlePan(0,-1)">
                  <use xlink:href="#rim" fill="#404040">
                        <set attributeName="fill" to="#808080" begin="arrowUp.mouseover" end="arrowUp.mouseout"/>
                  </use>
                  <path fill="none" stroke="white" stroke-width="1.5" d="M0,-3.0v7 M-2.5,-0.5L0,-3.0L2.5,-0.5"/>
                </g>
                <g id="arrowRight" xlink:href="#dirArrow" transform="rotate(90) translate(36 -43)" onmousedown="handlePan(1,0)">
                  <use xlink:href="#rim" fill="#404040">
                        <set attributeName="fill" to="#808080" begin="arrowRight.mouseover" end="arrowRight.mouseout"/>
                  </use>
                  <path fill="none" stroke="white" stroke-width="1.5" d="M0,-3.0v7 M-2.5,-0.5L0,-3.0L2.5,-0.5"/>
                </g>
                <g id="arrowDown" xlink:href="#dirArrow" transform="rotate(180) translate(-30 -48)" onmousedown="handlePan(0,1)">
                  <use xlink:href="#rim" fill="#404040">
                        <set attributeName="fill" to="#808080" begin="arrowDown.mouseover" end="arrowDown.mouseout"/>
                  </use>
                  <path fill="none" stroke="white" stroke-width="1.5" d="M0,-3.0v7 M-2.5,-0.5L0,-3.0L2.5,-0.5"/>
                </g>
                <g id="arrowLeft" xlink:href="#dirArrow" transform="rotate(270) translate(-36 17)" onmousedown="handlePan(-1,0)">
                  <use xlink:href="#rim" fill="#404040">
                        <set attributeName="fill" to="#808080" begin="arrowLeft.mouseover" end="arrowLeft.mouseout"/>
                  </use>
                  <path fill="none" stroke="white" stroke-width="1.5" d="M0,-3.0v7 M-2.5,-0.5L0,-3.0L2.5,-0.5"/>
                </g>
        </g>
        <svg viewBox="0 0 15 15" width="100%" height="30px" preserveAspectRatio="xMaxYMin meet">
         <g id="arrow_out" transform="scale(0.3 0.3)">
          <a xlink:href="nc__interface_8_h__dep__incl_org.svg" target="_base">
           <rect id="button" ry="5" rx="5" y="6" x="6" height="38" width="38"
                fill="#f2f5e9" fill-opacity="0.5" stroke="#606060" stroke-width="1.0"/>
           <path id="arrow"
             d="M 11.500037,31.436501 C 11.940474,20.09759 22.043105,11.32322 32.158766,21.979434 L 37.068811,17.246167 C 37.068811,17.246167 37.088388,32 37.088388,32 L 22.160133,31.978069 C 22.160133,31.978069 26.997745,27.140456 26.997745,27.140456 C 18.528582,18.264221 13.291696,25.230495 11.500037,31.436501 z"
             style="fill:#404040;"/>
          </a>
         </g>
        </svg>
</svg>
