<?xml version="1.0" encoding="UTF-8" standalone="no"?>
<!DOCTYPE svg PUBLIC "-//W3C//DTD SVG 1.1//EN"
 "http://www.w3.org/Graphics/SVG/1.1/DTD/svg11.dtd">
<!-- Generated by graphviz version 2.43.0 (0)
 -->
<!-- Title: stencils.H Pages: 1 -->
<svg width="1454pt" height="308pt"
 viewBox="0.00 0.00 1453.50 308.00" xmlns="http://www.w3.org/2000/svg" xmlns:xlink="http://www.w3.org/1999/xlink">
<g id="graph0" class="graph" transform="scale(1 1) rotate(0) translate(4 304)">
<title>stencils.H</title>
<polygon fill="white" stroke="transparent" points="-4,4 -4,-304 1449.5,-304 1449.5,4 -4,4"/>
<!-- Node1 -->
<g id="node1" class="node">
<title>Node1</title>
<g id="a_node1"><a xlink:title="Second&#45;order finite volume discretization stencil coefficients.">
<polygon fill="#bfbfbf" stroke="black" points="422,-280.5 422,-299.5 487,-299.5 487,-280.5 422,-280.5"/>
<text text-anchor="middle" x="454.5" y="-287.5" font-family="Helvetica,sans-Serif" font-size="10.00">stencils.H</text>
</a>
</g>
</g>
<!-- Node2 -->
<g id="node2" class="node">
<title>Node2</title>
<g id="a_node2"><a xlink:href="fvm__utils_8_h.html" target="_top" xlink:title=" ">
<polygon fill="white" stroke="black" points="418,-224.5 418,-243.5 491,-243.5 491,-224.5 418,-224.5"/>
<text text-anchor="middle" x="454.5" y="-231.5" font-family="Helvetica,sans-Serif" font-size="10.00">fvm_utils.H</text>
</a>
</g>
</g>
<!-- Node1&#45;&gt;Node2 -->
<g id="edge1" class="edge">
<title>Node1&#45;&gt;Node2</title>
<path fill="none" stroke="midnightblue" d="M454.5,-269.8C454.5,-260.91 454.5,-250.78 454.5,-243.75"/>
<polygon fill="midnightblue" stroke="midnightblue" points="451,-270.08 454.5,-280.08 458,-270.08 451,-270.08"/>
</g>
<!-- Node3 -->
<g id="node3" class="node">
<title>Node3</title>
<g id="a_node3"><a xlink:href="curvature_8_h.html" target="_top" xlink:title=" ">
<polygon fill="white" stroke="black" points="92.5,-168.5 92.5,-187.5 166.5,-187.5 166.5,-168.5 92.5,-168.5"/>
<text text-anchor="middle" x="129.5" y="-175.5" font-family="Helvetica,sans-Serif" font-size="10.00">curvature.H</text>
</a>
</g>
</g>
<!-- Node2&#45;&gt;Node3 -->
<g id="edge2" class="edge">
<title>Node2&#45;&gt;Node3</title>
<path fill="none" stroke="midnightblue" d="M407.65,-225.93C352.16,-217.45 256.95,-202.53 175.5,-188 172.62,-187.49 169.63,-186.94 166.64,-186.38"/>
<polygon fill="midnightblue" stroke="midnightblue" points="407.46,-229.44 417.87,-227.49 408.52,-222.52 407.46,-229.44"/>
</g>
<!-- Node6 -->
<g id="node6" class="node">
<title>Node6</title>
<g id="a_node6"><a xlink:href="divergence_8_h.html" target="_top" xlink:title=" ">
<polygon fill="white" stroke="black" points="185,-168.5 185,-187.5 266,-187.5 266,-168.5 185,-168.5"/>
<text text-anchor="middle" x="225.5" y="-175.5" font-family="Helvetica,sans-Serif" font-size="10.00">divergence.H</text>
</a>
</g>
</g>
<!-- Node2&#45;&gt;Node6 -->
<g id="edge5" class="edge">
<title>Node2&#45;&gt;Node6</title>
<path fill="none" stroke="midnightblue" d="M408.23,-222.09C364.96,-211.89 301.24,-196.86 261.62,-187.52"/>
<polygon fill="midnightblue" stroke="midnightblue" points="407.68,-225.55 418.21,-224.44 409.28,-218.74 407.68,-225.55"/>
</g>
<!-- Node7 -->
<g id="node7" class="node">
<title>Node7</title>
<g id="a_node7"><a xlink:href="gradient_8_h.html" target="_top" xlink:title=" ">
<polygon fill="white" stroke="black" points="595.5,-168.5 595.5,-187.5 663.5,-187.5 663.5,-168.5 595.5,-168.5"/>
<text text-anchor="middle" x="629.5" y="-175.5" font-family="Helvetica,sans-Serif" font-size="10.00">gradient.H</text>
</a>
</g>
</g>
<!-- Node2&#45;&gt;Node7 -->
<g id="edge7" class="edge">
<title>Node2&#45;&gt;Node7</title>
<path fill="none" stroke="midnightblue" d="M491.97,-221.44C524.97,-211.26 572.26,-196.66 601.9,-187.52"/>
<polygon fill="midnightblue" stroke="midnightblue" points="490.75,-218.15 482.23,-224.44 492.82,-224.84 490.75,-218.15"/>
</g>
<!-- Node24 -->
<g id="node24" class="node">
<title>Node24</title>
<g id="a_node24"><a xlink:href="laplacian_8_h.html" target="_top" xlink:title=" ">
<polygon fill="white" stroke="black" points="284,-168.5 284,-187.5 355,-187.5 355,-168.5 284,-168.5"/>
<text text-anchor="middle" x="319.5" y="-175.5" font-family="Helvetica,sans-Serif" font-size="10.00">laplacian.H</text>
</a>
</g>
</g>
<!-- Node2&#45;&gt;Node24 -->
<g id="edge26" class="edge">
<title>Node2&#45;&gt;Node24</title>
<path fill="none" stroke="midnightblue" d="M423.59,-220.64C398.26,-210.5 363.07,-196.43 340.79,-187.52"/>
<polygon fill="midnightblue" stroke="midnightblue" points="422.52,-223.98 433.11,-224.44 425.12,-217.48 422.52,-223.98"/>
</g>
<!-- Node25 -->
<g id="node25" class="node">
<title>Node25</title>
<g id="a_node25"><a xlink:href="strainrate_8_h.html" target="_top" xlink:title=" ">
<polygon fill="white" stroke="black" points="865.5,-168.5 865.5,-187.5 939.5,-187.5 939.5,-168.5 865.5,-168.5"/>
<text text-anchor="middle" x="902.5" y="-175.5" font-family="Helvetica,sans-Serif" font-size="10.00">strainrate.H</text>
</a>
</g>
</g>
<!-- Node2&#45;&gt;Node25 -->
<g id="edge28" class="edge">
<title>Node2&#45;&gt;Node25</title>
<path fill="none" stroke="midnightblue" d="M501.28,-227.36C590.66,-216.59 784.05,-193.28 865.33,-183.48"/>
<polygon fill="midnightblue" stroke="midnightblue" points="500.67,-223.91 491.16,-228.58 501.51,-230.86 500.67,-223.91"/>
</g>
<!-- Node27 -->
<g id="node27" class="node">
<title>Node27</title>
<g id="a_node27"><a xlink:href="vorticity_8_h.html" target="_top" xlink:title=" ">
<polygon fill="white" stroke="black" points="465.5,-168.5 465.5,-187.5 531.5,-187.5 531.5,-168.5 465.5,-168.5"/>
<text text-anchor="middle" x="498.5" y="-175.5" font-family="Helvetica,sans-Serif" font-size="10.00">vorticity.H</text>
</a>
</g>
</g>
<!-- Node2&#45;&gt;Node27 -->
<g id="edge34" class="edge">
<title>Node2&#45;&gt;Node27</title>
<path fill="none" stroke="midnightblue" d="M468.23,-216.14C475.9,-206.74 485.13,-195.4 491.37,-187.75"/>
<polygon fill="midnightblue" stroke="midnightblue" points="465.37,-214.12 461.77,-224.08 470.8,-218.54 465.37,-214.12"/>
</g>
<!-- Node28 -->
<g id="node28" class="node">
<title>Node28</title>
<g id="a_node28"><a xlink:href="vorticity__mag_8_h.html" target="_top" xlink:title=" ">
<polygon fill="white" stroke="black" points="958,-168.5 958,-187.5 1053,-187.5 1053,-168.5 958,-168.5"/>
<text text-anchor="middle" x="1005.5" y="-175.5" font-family="Helvetica,sans-Serif" font-size="10.00">vorticity_mag.H</text>
</a>
</g>
</g>
<!-- Node2&#45;&gt;Node28 -->
<g id="edge37" class="edge">
<title>Node2&#45;&gt;Node28</title>
<path fill="none" stroke="midnightblue" d="M501.32,-229.77C589.18,-223.47 784.67,-208.37 948.5,-188 951.58,-187.62 954.75,-187.19 957.95,-186.75"/>
<polygon fill="midnightblue" stroke="midnightblue" points="500.88,-226.29 491.15,-230.49 501.38,-233.27 500.88,-226.29"/>
</g>
<!-- Node30 -->
<g id="node30" class="node">
<title>Node30</title>
<g id="a_node30"><a xlink:href="qcriterion_8_h.html" target="_top" xlink:title=" ">
<polygon fill="white" stroke="black" points="373.5,-168.5 373.5,-187.5 447.5,-187.5 447.5,-168.5 373.5,-168.5"/>
<text text-anchor="middle" x="410.5" y="-175.5" font-family="Helvetica,sans-Serif" font-size="10.00">qcriterion.H</text>
</a>
</g>
</g>
<!-- Node2&#45;&gt;Node30 -->
<g id="edge40" class="edge">
<title>Node2&#45;&gt;Node30</title>
<path fill="none" stroke="midnightblue" d="M440.77,-216.14C433.1,-206.74 423.87,-195.4 417.63,-187.75"/>
<polygon fill="midnightblue" stroke="midnightblue" points="438.2,-218.54 447.23,-224.08 443.63,-214.12 438.2,-218.54"/>
</g>
<!-- Node4 -->
<g id="node4" class="node">
<title>Node4</title>
<g id="a_node4"><a xlink:href="fvm_8_h.html" target="_top" xlink:title=" ">
<polygon fill="white" stroke="black" points="106,-112.5 106,-131.5 153,-131.5 153,-112.5 106,-112.5"/>
<text text-anchor="middle" x="129.5" y="-119.5" font-family="Helvetica,sans-Serif" font-size="10.00">fvm.H</text>
</a>
</g>
</g>
<!-- Node3&#45;&gt;Node4 -->
<g id="edge3" class="edge">
<title>Node3&#45;&gt;Node4</title>
<path fill="none" stroke="midnightblue" d="M129.5,-157.8C129.5,-148.91 129.5,-138.78 129.5,-131.75"/>
<polygon fill="midnightblue" stroke="midnightblue" points="126,-158.08 129.5,-168.08 133,-158.08 126,-158.08"/>
</g>
<!-- Node5 -->
<g id="node5" class="node">
<title>Node5</title>
<g id="a_node5"><a xlink:href="_derived_qty_defs_8cpp.html" target="_top" xlink:title=" ">
<polygon fill="white" stroke="black" points="0,-56.5 0,-75.5 115,-75.5 115,-56.5 0,-56.5"/>
<text text-anchor="middle" x="57.5" y="-63.5" font-family="Helvetica,sans-Serif" font-size="10.00">DerivedQtyDefs.cpp</text>
</a>
</g>
</g>
<!-- Node4&#45;&gt;Node5 -->
<g id="edge4" class="edge">
<title>Node4&#45;&gt;Node5</title>
<path fill="none" stroke="midnightblue" d="M109.63,-106.1C96.68,-96.38 80.2,-84.03 69.28,-75.83"/>
<polygon fill="midnightblue" stroke="midnightblue" points="107.83,-109.12 117.93,-112.32 112.03,-103.52 107.83,-109.12"/>
</g>
<!-- Node6&#45;&gt;Node4 -->
<g id="edge6" class="edge">
<title>Node6&#45;&gt;Node4</title>
<path fill="none" stroke="midnightblue" d="M200.93,-163.18C183.26,-153.24 159.99,-140.15 144.89,-131.65"/>
<polygon fill="midnightblue" stroke="midnightblue" points="199.64,-166.47 210.08,-168.32 203.08,-160.37 199.64,-166.47"/>
</g>
<!-- Node7&#45;&gt;Node4 -->
<g id="edge8" class="edge">
<title>Node7&#45;&gt;Node4</title>
<path fill="none" stroke="midnightblue" d="M585.21,-172.47C570.94,-171.02 555.05,-169.43 540.5,-168 372.1,-151.49 327.83,-163.03 161.5,-132 158.78,-131.49 155.95,-130.86 153.15,-130.16"/>
<polygon fill="midnightblue" stroke="midnightblue" points="584.97,-175.96 595.27,-173.49 585.68,-169 584.97,-175.96"/>
</g>
<!-- Node8 -->
<g id="node8" class="node">
<title>Node8</title>
<g id="a_node8"><a xlink:href="bluff__body__ops_8_h.html" target="_top" xlink:title=" ">
<polygon fill="white" stroke="black" points="171,-112.5 171,-131.5 272,-131.5 272,-112.5 171,-112.5"/>
<text text-anchor="middle" x="221.5" y="-119.5" font-family="Helvetica,sans-Serif" font-size="10.00">bluff_body_ops.H</text>
</a>
</g>
</g>
<!-- Node7&#45;&gt;Node8 -->
<g id="edge9" class="edge">
<title>Node7&#45;&gt;Node8</title>
<path fill="none" stroke="midnightblue" d="M585.19,-171.62C518.87,-163.49 389.89,-147.39 280.5,-132 277.73,-131.61 274.89,-131.2 272.02,-130.78"/>
<polygon fill="midnightblue" stroke="midnightblue" points="584.93,-175.11 595.28,-172.85 585.78,-168.17 584.93,-175.11"/>
</g>
<!-- Node9 -->
<g id="node9" class="node">
<title>Node9</title>
<g id="a_node9"><a xlink:href="bluff__body__ops_8cpp.html" target="_top" xlink:title=" ">
<polygon fill="white" stroke="black" points="659.5,-56.5 659.5,-75.5 769.5,-75.5 769.5,-56.5 659.5,-56.5"/>
<text text-anchor="middle" x="714.5" y="-63.5" font-family="Helvetica,sans-Serif" font-size="10.00">bluff_body_ops.cpp</text>
</a>
</g>
</g>
<!-- Node7&#45;&gt;Node9 -->
<g id="edge17" class="edge">
<title>Node7&#45;&gt;Node9</title>
<path fill="none" stroke="midnightblue" d="M673.61,-174.45C762.19,-168.87 954.92,-154.29 974.5,-132 980.36,-125.32 980.22,-118.8 974.5,-112 948.83,-81.51 837.94,-71.68 769.54,-68.51"/>
<polygon fill="midnightblue" stroke="midnightblue" points="673.36,-170.96 663.6,-175.07 673.8,-177.94 673.36,-170.96"/>
</g>
<!-- Node16 -->
<g id="node16" class="node">
<title>Node16</title>
<g id="a_node16"><a xlink:href="_dam_break_8cpp.html" target="_top" xlink:title=" ">
<polygon fill="white" stroke="black" points="290,-112.5 290,-131.5 379,-131.5 379,-112.5 290,-112.5"/>
<text text-anchor="middle" x="334.5" y="-119.5" font-family="Helvetica,sans-Serif" font-size="10.00">DamBreak.cpp</text>
</a>
</g>
</g>
<!-- Node7&#45;&gt;Node16 -->
<g id="edge18" class="edge">
<title>Node7&#45;&gt;Node16</title>
<path fill="none" stroke="midnightblue" d="M585.48,-168.94C529.93,-158.77 434.93,-141.38 379.11,-131.17"/>
<polygon fill="midnightblue" stroke="midnightblue" points="584.9,-172.39 595.37,-170.75 586.17,-165.51 584.9,-172.39"/>
</g>
<!-- Node17 -->
<g id="node17" class="node">
<title>Node17</title>
<g id="a_node17"><a xlink:href="_multi_phase_8cpp.html" target="_top" xlink:title=" ">
<polygon fill="white" stroke="black" points="397,-112.5 397,-131.5 488,-131.5 488,-112.5 397,-112.5"/>
<text text-anchor="middle" x="442.5" y="-119.5" font-family="Helvetica,sans-Serif" font-size="10.00">MultiPhase.cpp</text>
</a>
</g>
</g>
<!-- Node7&#45;&gt;Node17 -->
<g id="edge19" class="edge">
<title>Node7&#45;&gt;Node17</title>
<path fill="none" stroke="midnightblue" d="M589.91,-165.57C554.63,-155.38 503.81,-140.7 471.99,-131.52"/>
<polygon fill="midnightblue" stroke="midnightblue" points="589.29,-169.03 599.87,-168.44 591.23,-162.31 589.29,-169.03"/>
</g>
<!-- Node18 -->
<g id="node18" class="node">
<title>Node18</title>
<g id="a_node18"><a xlink:href="_sloshing_tank_8cpp.html" target="_top" xlink:title=" ">
<polygon fill="white" stroke="black" points="506,-112.5 506,-131.5 607,-131.5 607,-112.5 506,-112.5"/>
<text text-anchor="middle" x="556.5" y="-119.5" font-family="Helvetica,sans-Serif" font-size="10.00">SloshingTank.cpp</text>
</a>
</g>
</g>
<!-- Node7&#45;&gt;Node18 -->
<g id="edge20" class="edge">
<title>Node7&#45;&gt;Node18</title>
<path fill="none" stroke="midnightblue" d="M609.36,-162.1C596.22,-152.38 579.52,-140.03 568.44,-131.83"/>
<polygon fill="midnightblue" stroke="midnightblue" points="607.65,-165.19 617.77,-168.32 611.81,-159.56 607.65,-165.19"/>
</g>
<!-- Node19 -->
<g id="node19" class="node">
<title>Node19</title>
<g id="a_node19"><a xlink:href="_zalesak_disk_8cpp.html" target="_top" xlink:title=" ">
<polygon fill="white" stroke="black" points="625.5,-112.5 625.5,-131.5 723.5,-131.5 723.5,-112.5 625.5,-112.5"/>
<text text-anchor="middle" x="674.5" y="-119.5" font-family="Helvetica,sans-Serif" font-size="10.00">ZalesakDisk.cpp</text>
</a>
</g>
</g>
<!-- Node7&#45;&gt;Node19 -->
<g id="edge21" class="edge">
<title>Node7&#45;&gt;Node19</title>
<path fill="none" stroke="midnightblue" d="M643.55,-160.14C651.39,-150.74 660.83,-139.4 667.21,-131.75"/>
<polygon fill="midnightblue" stroke="midnightblue" points="640.64,-158.16 636.93,-168.08 646.02,-162.64 640.64,-158.16"/>
</g>
<!-- Node20 -->
<g id="node20" class="node">
<title>Node20</title>
<g id="a_node20"><a xlink:href="_one_eq_ksgs_8cpp.html" target="_top" xlink:title=" ">
<polygon fill="white" stroke="black" points="1021.5,-112.5 1021.5,-131.5 1113.5,-131.5 1113.5,-112.5 1021.5,-112.5"/>
<text text-anchor="middle" x="1067.5" y="-119.5" font-family="Helvetica,sans-Serif" font-size="10.00">OneEqKsgs.cpp</text>
</a>
</g>
</g>
<!-- Node7&#45;&gt;Node20 -->
<g id="edge22" class="edge">
<title>Node7&#45;&gt;Node20</title>
<path fill="none" stroke="midnightblue" d="M674,-172.15C744.72,-164.33 887.1,-148.19 1007.5,-132 1011.99,-131.4 1016.66,-130.74 1021.33,-130.07"/>
<polygon fill="midnightblue" stroke="midnightblue" points="673.24,-168.71 663.68,-173.28 674.01,-175.67 673.24,-168.71"/>
</g>
<!-- Node21 -->
<g id="node21" class="node">
<title>Node21</title>
<g id="a_node21"><a xlink:href="_k_omega_s_s_t_8cpp.html" target="_top" xlink:title=" ">
<polygon fill="white" stroke="black" points="1132,-112.5 1132,-131.5 1227,-131.5 1227,-112.5 1132,-112.5"/>
<text text-anchor="middle" x="1179.5" y="-119.5" font-family="Helvetica,sans-Serif" font-size="10.00">KOmegaSST.cpp</text>
</a>
</g>
</g>
<!-- Node7&#45;&gt;Node21 -->
<g id="edge23" class="edge">
<title>Node7&#45;&gt;Node21</title>
<path fill="none" stroke="midnightblue" d="M673.89,-173.93C760.39,-167.73 957.53,-152.53 1122.5,-132 1125.58,-131.62 1128.75,-131.19 1131.95,-130.75"/>
<polygon fill="midnightblue" stroke="midnightblue" points="673.38,-170.46 663.65,-174.66 673.87,-177.44 673.38,-170.46"/>
</g>
<!-- Node22 -->
<g id="node22" class="node">
<title>Node22</title>
<g id="a_node22"><a xlink:href="_k_omega_s_s_t_i_d_d_e_s_8cpp.html" target="_top" xlink:title=" ">
<polygon fill="white" stroke="black" points="839.5,-112.5 839.5,-131.5 965.5,-131.5 965.5,-112.5 839.5,-112.5"/>
<text text-anchor="middle" x="902.5" y="-119.5" font-family="Helvetica,sans-Serif" font-size="10.00">KOmegaSSTIDDES.cpp</text>
</a>
</g>
</g>
<!-- Node7&#45;&gt;Node22 -->
<g id="edge24" class="edge">
<title>Node7&#45;&gt;Node22</title>
<path fill="none" stroke="midnightblue" d="M673.62,-168.27C724.84,-158.14 808.75,-141.54 859.49,-131.51"/>
<polygon fill="midnightblue" stroke="midnightblue" points="672.65,-164.9 663.52,-170.27 674.01,-171.76 672.65,-164.9"/>
</g>
<!-- Node23 -->
<g id="node23" class="node">
<title>Node23</title>
<g id="a_node23"><a xlink:href="_a_b_l_stats_8cpp.html" target="_top" xlink:title=" ">
<polygon fill="white" stroke="black" points="741.5,-112.5 741.5,-131.5 821.5,-131.5 821.5,-112.5 741.5,-112.5"/>
<text text-anchor="middle" x="781.5" y="-119.5" font-family="Helvetica,sans-Serif" font-size="10.00">ABLStats.cpp</text>
</a>
</g>
</g>
<!-- Node7&#45;&gt;Node23 -->
<g id="edge25" class="edge">
<title>Node7&#45;&gt;Node23</title>
<path fill="none" stroke="midnightblue" d="M663.17,-165.04C691.77,-154.88 732.11,-140.55 757.53,-131.52"/>
<polygon fill="midnightblue" stroke="midnightblue" points="661.84,-161.8 653.58,-168.44 664.18,-168.39 661.84,-161.8"/>
</g>
<!-- Node8&#45;&gt;Node9 -->
<g id="edge10" class="edge">
<title>Node8&#45;&gt;Node9</title>
<path fill="none" stroke="midnightblue" d="M282.18,-111.84C423.79,-93.9 578.63,-79.17 659.25,-71.87"/>
<polygon fill="midnightblue" stroke="midnightblue" points="281.49,-108.4 272.01,-113.13 282.37,-115.34 281.49,-108.4"/>
</g>
<!-- Node10 -->
<g id="node10" class="node">
<title>Node10</title>
<g id="a_node10"><a xlink:href="box__ops_8_h.html" target="_top" xlink:title=" ">
<polygon fill="white" stroke="black" points="234.5,-56.5 234.5,-75.5 302.5,-75.5 302.5,-56.5 234.5,-56.5"/>
<text text-anchor="middle" x="268.5" y="-63.5" font-family="Helvetica,sans-Serif" font-size="10.00">box_ops.H</text>
</a>
</g>
</g>
<!-- Node8&#45;&gt;Node10 -->
<g id="edge11" class="edge">
<title>Node8&#45;&gt;Node10</title>
<path fill="none" stroke="midnightblue" d="M235.92,-104.43C244.16,-94.97 254.15,-83.48 260.88,-75.75"/>
<polygon fill="midnightblue" stroke="midnightblue" points="233.19,-102.24 229.26,-112.08 238.47,-106.84 233.19,-102.24"/>
</g>
<!-- Node12 -->
<g id="node12" class="node">
<title>Node12</title>
<g id="a_node12"><a xlink:href="cylinder__ops_8_h.html" target="_top" xlink:title=" ">
<polygon fill="white" stroke="black" points="321,-56.5 321,-75.5 410,-75.5 410,-56.5 321,-56.5"/>
<text text-anchor="middle" x="365.5" y="-63.5" font-family="Helvetica,sans-Serif" font-size="10.00">cylinder_ops.H</text>
</a>
</g>
</g>
<!-- Node8&#45;&gt;Node12 -->
<g id="edge13" class="edge">
<title>Node8&#45;&gt;Node12</title>
<path fill="none" stroke="midnightblue" d="M253.75,-108.91C280.82,-98.75 318.82,-84.51 342.79,-75.52"/>
<polygon fill="midnightblue" stroke="midnightblue" points="252.45,-105.66 244.32,-112.44 254.91,-112.21 252.45,-105.66"/>
</g>
<!-- Node14 -->
<g id="node14" class="node">
<title>Node14</title>
<g id="a_node14"><a xlink:href="sphere__ops_8_h.html" target="_top" xlink:title=" ">
<polygon fill="white" stroke="black" points="133,-56.5 133,-75.5 216,-75.5 216,-56.5 133,-56.5"/>
<text text-anchor="middle" x="174.5" y="-63.5" font-family="Helvetica,sans-Serif" font-size="10.00">sphere_ops.H</text>
</a>
</g>
</g>
<!-- Node8&#45;&gt;Node14 -->
<g id="edge15" class="edge">
<title>Node8&#45;&gt;Node14</title>
<path fill="none" stroke="midnightblue" d="M207.08,-104.43C198.84,-94.97 188.85,-83.48 182.12,-75.75"/>
<polygon fill="midnightblue" stroke="midnightblue" points="204.53,-106.84 213.74,-112.08 209.81,-102.24 204.53,-106.84"/>
</g>
<!-- Node11 -->
<g id="node11" class="node">
<title>Node11</title>
<g id="a_node11"><a xlink:href="_box_8cpp.html" target="_top" xlink:title=" ">
<polygon fill="white" stroke="black" points="240.5,-0.5 240.5,-19.5 296.5,-19.5 296.5,-0.5 240.5,-0.5"/>
<text text-anchor="middle" x="268.5" y="-7.5" font-family="Helvetica,sans-Serif" font-size="10.00">Box.cpp</text>
</a>
</g>
</g>
<!-- Node10&#45;&gt;Node11 -->
<g id="edge12" class="edge">
<title>Node10&#45;&gt;Node11</title>
<path fill="none" stroke="midnightblue" d="M268.5,-45.8C268.5,-36.91 268.5,-26.78 268.5,-19.75"/>
<polygon fill="midnightblue" stroke="midnightblue" points="265,-46.08 268.5,-56.08 272,-46.08 265,-46.08"/>
</g>
<!-- Node13 -->
<g id="node13" class="node">
<title>Node13</title>
<g id="a_node13"><a xlink:href="_cylinder_8cpp.html" target="_top" xlink:title=" ">
<polygon fill="white" stroke="black" points="327,-0.5 327,-19.5 404,-19.5 404,-0.5 327,-0.5"/>
<text text-anchor="middle" x="365.5" y="-7.5" font-family="Helvetica,sans-Serif" font-size="10.00">Cylinder.cpp</text>
</a>
</g>
</g>
<!-- Node12&#45;&gt;Node13 -->
<g id="edge14" class="edge">
<title>Node12&#45;&gt;Node13</title>
<path fill="none" stroke="midnightblue" d="M365.5,-45.8C365.5,-36.91 365.5,-26.78 365.5,-19.75"/>
<polygon fill="midnightblue" stroke="midnightblue" points="362,-46.08 365.5,-56.08 369,-46.08 362,-46.08"/>
</g>
<!-- Node15 -->
<g id="node15" class="node">
<title>Node15</title>
<g id="a_node15"><a xlink:href="_sphere_8cpp.html" target="_top" xlink:title=" ">
<polygon fill="white" stroke="black" points="139,-0.5 139,-19.5 210,-19.5 210,-0.5 139,-0.5"/>
<text text-anchor="middle" x="174.5" y="-7.5" font-family="Helvetica,sans-Serif" font-size="10.00">Sphere.cpp</text>
</a>
</g>
</g>
<!-- Node14&#45;&gt;Node15 -->
<g id="edge16" class="edge">
<title>Node14&#45;&gt;Node15</title>
<path fill="none" stroke="midnightblue" d="M174.5,-45.8C174.5,-36.91 174.5,-26.78 174.5,-19.75"/>
<polygon fill="midnightblue" stroke="midnightblue" points="171,-46.08 174.5,-56.08 178,-46.08 171,-46.08"/>
</g>
<!-- Node24&#45;&gt;Node4 -->
<g id="edge27" class="edge">
<title>Node24&#45;&gt;Node4</title>
<path fill="none" stroke="midnightblue" d="M279.6,-165.66C241.32,-154.78 184.8,-138.72 153.16,-129.73"/>
<polygon fill="midnightblue" stroke="midnightblue" points="278.82,-169.08 289.39,-168.44 280.73,-162.34 278.82,-169.08"/>
</g>
<!-- Node25&#45;&gt;Node4 -->
<g id="edge29" class="edge">
<title>Node25&#45;&gt;Node4</title>
<path fill="none" stroke="midnightblue" d="M854.94,-174.7C702.1,-167.24 229.52,-143.5 161.5,-132 158.77,-131.54 155.94,-130.93 153.14,-130.26"/>
<polygon fill="midnightblue" stroke="midnightblue" points="855.22,-178.22 865.38,-175.21 855.56,-171.23 855.22,-178.22"/>
</g>
<!-- Node25&#45;&gt;Node20 -->
<g id="edge30" class="edge">
<title>Node25&#45;&gt;Node20</title>
<path fill="none" stroke="midnightblue" d="M938.24,-165.3C969.33,-155.13 1013.65,-140.62 1041.48,-131.52"/>
<polygon fill="midnightblue" stroke="midnightblue" points="937.06,-162.01 928.64,-168.44 939.24,-168.66 937.06,-162.01"/>
</g>
<!-- Node25&#45;&gt;Node21 -->
<g id="edge32" class="edge">
<title>Node25&#45;&gt;Node21</title>
<path fill="none" stroke="midnightblue" d="M949.56,-167.83C1001.69,-157.66 1085.07,-141.41 1135.81,-131.52"/>
<polygon fill="midnightblue" stroke="midnightblue" points="948.72,-164.42 939.57,-169.77 950.05,-171.3 948.72,-164.42"/>
</g>
<!-- Node25&#45;&gt;Node22 -->
<g id="edge33" class="edge">
<title>Node25&#45;&gt;Node22</title>
<path fill="none" stroke="midnightblue" d="M902.5,-157.8C902.5,-148.91 902.5,-138.78 902.5,-131.75"/>
<polygon fill="midnightblue" stroke="midnightblue" points="899,-158.08 902.5,-168.08 906,-158.08 899,-158.08"/>
</g>
<!-- Node26 -->
<g id="node26" class="node">
<title>Node26</title>
<g id="a_node26"><a xlink:href="_smagorinsky_8cpp.html" target="_top" xlink:title=" ">
<polygon fill="white" stroke="black" points="1245.5,-112.5 1245.5,-131.5 1343.5,-131.5 1343.5,-112.5 1245.5,-112.5"/>
<text text-anchor="middle" x="1294.5" y="-119.5" font-family="Helvetica,sans-Serif" font-size="10.00">Smagorinsky.cpp</text>
</a>
</g>
</g>
<!-- Node25&#45;&gt;Node26 -->
<g id="edge31" class="edge">
<title>Node25&#45;&gt;Node26</title>
<path fill="none" stroke="midnightblue" d="M949.88,-168.04C1078.2,-147.99 1112.42,-149.4 1236.5,-132 1239.43,-131.59 1242.43,-131.16 1245.47,-130.71"/>
<polygon fill="midnightblue" stroke="midnightblue" points="948.99,-164.64 939.66,-169.65 950.08,-171.55 948.99,-164.64"/>
</g>
<!-- Node27&#45;&gt;Node4 -->
<g id="edge35" class="edge">
<title>Node27&#45;&gt;Node4</title>
<path fill="none" stroke="midnightblue" d="M455.09,-167.9C324.46,-146.69 287.85,-157.32 161.5,-132 158.78,-131.46 155.96,-130.8 153.17,-130.09"/>
<polygon fill="midnightblue" stroke="midnightblue" points="454.64,-171.38 465.08,-169.56 455.79,-164.47 454.64,-171.38"/>
</g>
<!-- Node27&#45;&gt;Node22 -->
<g id="edge36" class="edge">
<title>Node27&#45;&gt;Node22</title>
<path fill="none" stroke="midnightblue" d="M541.56,-171.24C612.99,-161.7 756.29,-142.54 839.23,-131.46"/>
<polygon fill="midnightblue" stroke="midnightblue" points="541.01,-167.79 531.56,-172.58 541.94,-174.73 541.01,-167.79"/>
</g>
<!-- Node28&#45;&gt;Node4 -->
<g id="edge38" class="edge">
<title>Node28&#45;&gt;Node4</title>
<path fill="none" stroke="midnightblue" d="M947.82,-168.07C598.35,-133.68 503.88,-187.23 161.5,-132 158.77,-131.56 155.93,-130.97 153.13,-130.3"/>
<polygon fill="midnightblue" stroke="midnightblue" points="947.67,-171.58 957.97,-169.09 948.36,-164.61 947.67,-171.58"/>
</g>
<!-- Node29 -->
<g id="node29" class="node">
<title>Node29</title>
<g id="a_node29"><a xlink:href="_enstrophy_8cpp.html" target="_top" xlink:title=" ">
<polygon fill="white" stroke="black" points="1361.5,-112.5 1361.5,-131.5 1445.5,-131.5 1445.5,-112.5 1361.5,-112.5"/>
<text text-anchor="middle" x="1403.5" y="-119.5" font-family="Helvetica,sans-Serif" font-size="10.00">Enstrophy.cpp</text>
</a>
</g>
</g>
<!-- Node28&#45;&gt;Node29 -->
<g id="edge39" class="edge">
<title>Node28&#45;&gt;Node29</title>
<path fill="none" stroke="midnightblue" d="M1063.24,-170.33C1132.2,-162.18 1250.98,-147.53 1352.5,-132 1355.34,-131.56 1358.27,-131.1 1361.22,-130.61"/>
<polygon fill="midnightblue" stroke="midnightblue" points="1062.55,-166.89 1053.02,-171.53 1063.37,-173.84 1062.55,-166.89"/>
</g>
<!-- Node30&#45;&gt;Node4 -->
<g id="edge41" class="edge">
<title>Node30&#45;&gt;Node4</title>
<path fill="none" stroke="midnightblue" d="M363.37,-168.01C272.15,-151.46 247.35,-151.67 161.5,-132 158.8,-131.38 155.99,-130.68 153.2,-129.94"/>
<polygon fill="midnightblue" stroke="midnightblue" points="362.84,-171.47 373.31,-169.83 364.1,-164.59 362.84,-171.47"/>
</g>
</g>
</svg>
