<?xml version="1.0" encoding="UTF-8" standalone="no"?>
<!DOCTYPE svg PUBLIC "-//W3C//DTD SVG 1.1//EN"
 "http://www.w3.org/Graphics/SVG/1.1/DTD/svg11.dtd">
<!-- Generated by graphviz version 2.43.0 (0)
 -->
<!-- Title: amr_wind::pde::DiffusionOp&lt; ICNS, Scheme &gt; Pages: 1 -->
<!--zoomable 431 -->
<svg id="main" version="1.1" xmlns="http://www.w3.org/2000/svg" xmlns:xlink="http://www.w3.org/1999/xlink" xml:space="preserve" onload="init(evt)">
<style type="text/css"><![CDATA[
.edge:hover path { stroke: red; }
.edge:hover polygon { stroke: red; fill: red; }
]]></style>
<script type="text/javascript"><![CDATA[
var edges = document.getElementsByTagName('g');
if (edges && edges.length) {
  for (var i=0;i<edges.length;i++) {
    if (edges[i].id.substr(0,4)=='edge') {
      edges[i].setAttribute('class','edge');
    }
  }
}
]]></script>
        <defs>
                <circle id="rim" cx="0" cy="0" r="7"/>
                <circle id="rim2" cx="0" cy="0" r="3.5"/>
                <g id="zoomPlus">
                        <use xlink:href="#rim" fill="#404040">
                                <set attributeName="fill" to="#808080" begin="zoomplus.mouseover" end="zoomplus.mouseout"/>
                        </use>
                        <path d="M-4,0h8M0,-4v8" fill="none" stroke="white" stroke-width="1.5" pointer-events="none"/>
                </g>
                <g id="zoomMin">
                        <use xlink:href="#rim" fill="#404040">
                                <set attributeName="fill" to="#808080" begin="zoomminus.mouseover" end="zoomminus.mouseout"/>
                        </use>
                        <path d="M-4,0h8" fill="none" stroke="white" stroke-width="1.5" pointer-events="none"/>
                </g>
                <g id="dirArrow">
                        <path fill="none" stroke="white" stroke-width="1.5" d="M0,-3.0v7 M-2.5,-0.5L0,-3.0L2.5,-0.5"/>
                </g>
               <g id="resetDef">
                       <use xlink:href="#rim2" fill="#404040">
                               <set attributeName="fill" to="#808080" begin="reset.mouseover" end="reset.mouseout"/>
                       </use>
               </g>
        </defs>

<script type="text/javascript">
var viewWidth = 3060;
var viewHeight = 431;
var sectionId = 'dynsection-0';
</script>
<script xlink:href="svgpan.js"/>
<svg id="graph" class="graph">
<g id="viewport">
<title>amr_wind::pde::DiffusionOp&lt; ICNS, Scheme &gt;</title>
<polygon fill="white" stroke="transparent" points="-4,4 -4,-427 3056,-427 3056,4 -4,4"/>
<!-- Node1 -->
<g id="node1" class="node">
<title>Node1</title>
<g id="a_node1"><a xlink:title="Specialization of diffusion operator for ICNS.">
<polygon fill="#bfbfbf" stroke="black" points="2914,-254 2914,-284 3052,-284 3052,-254 2914,-254"/>
<text text-anchor="start" x="2922" y="-272" font-family="Helvetica,sans-Serif" font-size="10.00">amr_wind::pde::Diffusion</text>
<text text-anchor="middle" x="2983" y="-261" font-family="Helvetica,sans-Serif" font-size="10.00">Op&lt; ICNS, Scheme &gt;</text>
</a>
</g>
</g>
<!-- Node2 -->
<g id="node2" class="node">
<title>Node2</title>
<g id="a_node2"><a xlink:title=" ">
<polygon fill="white" stroke="#bfbfbf" points="2639,-148 2639,-178 2811,-178 2811,-148 2639,-148"/>
<text text-anchor="start" x="2647" y="-166" font-family="Helvetica,sans-Serif" font-size="10.00">std::unique_ptr&lt; amr</text>
<text text-anchor="middle" x="2725" y="-155" font-family="Helvetica,sans-Serif" font-size="10.00">_wind::pde::ICNSDiffTensorOp &gt;</text>
</a>
</g>
</g>
<!-- Node2&#45;&gt;Node1 -->
<g id="edge1" class="edge">
<title>Node2&#45;&gt;Node1</title>
<path fill="none" stroke="#9a32cd" stroke-dasharray="5,2" d="M2771.65,-181.9C2821.4,-202.5 2900,-235.05 2945.72,-253.98"/>
<polygon fill="#9a32cd" stroke="#9a32cd" points="2772.98,-178.67 2762.41,-178.07 2770.31,-185.13 2772.98,-178.67"/>
<text text-anchor="middle" x="2862.5" y="-235" font-family="Helvetica,sans-Serif" font-size="10.00"> m_tensor_op</text>
</g>
<!-- Node3 -->
<g id="node3" class="node">
<title>Node3</title>
<g id="a_node3"><a xlink:href="classamr__wind_1_1pde_1_1_i_c_n_s_diff_tensor_op.html" target="_top" xlink:title=" ">
<polygon fill="white" stroke="black" points="2358,-153.5 2358,-172.5 2538,-172.5 2538,-153.5 2358,-153.5"/>
<text text-anchor="middle" x="2448" y="-160.5" font-family="Helvetica,sans-Serif" font-size="10.00">amr_wind::pde::ICNSDiffTensorOp</text>
</a>
</g>
</g>
<!-- Node3&#45;&gt;Node2 -->
<g id="edge2" class="edge">
<title>Node3&#45;&gt;Node2</title>
<path fill="none" stroke="#9a32cd" stroke-dasharray="5,2" d="M2548.63,-163C2578.22,-163 2610.33,-163 2638.9,-163"/>
<polygon fill="#9a32cd" stroke="#9a32cd" points="2548.28,-159.5 2538.28,-163 2548.28,-166.5 2548.28,-159.5"/>
<text text-anchor="middle" x="2588.5" y="-166" font-family="Helvetica,sans-Serif" font-size="10.00"> ptr</text>
</g>
<!-- Node4 -->
<g id="node4" class="node">
<title>Node4</title>
<g id="a_node4"><a xlink:href="classamr__wind_1_1pde_1_1_diff_solver_iface.html" target="_top" xlink:title=" ">
<polygon fill="white" stroke="black" points="2156.5,-148 2156.5,-178 2315.5,-178 2315.5,-148 2156.5,-148"/>
<text text-anchor="start" x="2164.5" y="-166" font-family="Helvetica,sans-Serif" font-size="10.00">amr_wind::pde::DiffSolver</text>
<text text-anchor="middle" x="2236" y="-155" font-family="Helvetica,sans-Serif" font-size="10.00">Iface&lt; amrex::MLTensorOp &gt;</text>
</a>
</g>
</g>
<!-- Node4&#45;&gt;Node3 -->
<g id="edge3" class="edge">
<title>Node4&#45;&gt;Node3</title>
<path fill="none" stroke="midnightblue" d="M2325.87,-163C2336.47,-163 2347.29,-163 2357.89,-163"/>
<polygon fill="midnightblue" stroke="midnightblue" points="2325.79,-159.5 2315.79,-163 2325.79,-166.5 2325.79,-159.5"/>
</g>
<!-- Node5 -->
<g id="node5" class="node">
<title>Node5</title>
<g id="a_node5"><a xlink:title=" ">
<polygon fill="white" stroke="#bfbfbf" points="572,-34 572,-64 704,-64 704,-34 572,-34"/>
<text text-anchor="start" x="580" y="-52" font-family="Helvetica,sans-Serif" font-size="10.00">std::unique_ptr&lt; amrex</text>
<text text-anchor="middle" x="638" y="-41" font-family="Helvetica,sans-Serif" font-size="10.00">::MLTensorOp &gt;</text>
</a>
</g>
</g>
<!-- Node5&#45;&gt;Node4 -->
<g id="edge4" class="edge">
<title>Node5&#45;&gt;Node4</title>
<path fill="none" stroke="#9a32cd" stroke-dasharray="5,2" d="M714.57,-47.8C773.53,-46.96 857.47,-46 931,-46 931,-46 931,-46 1904.5,-46 2025.32,-46 2157.48,-116.34 2210.76,-147.94"/>
<polygon fill="#9a32cd" stroke="#9a32cd" points="714.18,-44.3 704.23,-47.95 714.28,-51.3 714.18,-44.3"/>
<text text-anchor="middle" x="1356" y="-60" font-family="Helvetica,sans-Serif" font-size="10.00"> m_applier</text>
<text text-anchor="middle" x="1356" y="-49" font-family="Helvetica,sans-Serif" font-size="10.00">m_solver</text>
</g>
<!-- Node6 -->
<g id="node6" class="node">
<title>Node6</title>
<g id="a_node6"><a xlink:title="STL class.">
<polygon fill="white" stroke="#bfbfbf" points="90,-111.5 90,-130.5 208,-130.5 208,-111.5 90,-111.5"/>
<text text-anchor="middle" x="149" y="-118.5" font-family="Helvetica,sans-Serif" font-size="10.00">std::unique_ptr&lt; T &gt;</text>
</a>
</g>
</g>
<!-- Node6&#45;&gt;Node2 -->
<g id="edge35" class="edge">
<title>Node6&#45;&gt;Node2</title>
<path fill="none" stroke="orange" stroke-dasharray="5,2" d="M166.05,-103.46C181.8,-87.35 207.27,-64.06 234,-51 329.83,-4.18 361.84,0 468.5,0 468.5,0 468.5,0 2449,0 2564.44,0 2673.83,-107.61 2710.8,-147.96"/>
<polygon fill="orange" stroke="orange" points="163.1,-101.48 158.75,-111.14 168.18,-106.31 163.1,-101.48"/>
<text text-anchor="start" x="1421" y="-14" font-family="Helvetica,sans-Serif" font-size="10.00"> &lt; amr_wind::pde::ICNSDiff</text>
<text text-anchor="middle" x="1487.5" y="-3" font-family="Helvetica,sans-Serif" font-size="10.00">TensorOp &gt;</text>
</g>
<!-- Node6&#45;&gt;Node5 -->
<g id="edge5" class="edge">
<title>Node6&#45;&gt;Node5</title>
<path fill="none" stroke="orange" stroke-dasharray="5,2" d="M173.58,-106.08C189.89,-96.56 212.45,-84.94 234,-79 349.83,-47.07 491.03,-44.44 571.82,-46.19"/>
<polygon fill="orange" stroke="orange" points="171.53,-103.23 164.76,-111.38 175.14,-109.23 171.53,-103.23"/>
<text text-anchor="middle" x="300.5" y="-82" font-family="Helvetica,sans-Serif" font-size="10.00"> &lt; amrex::MLTensorOp &gt;</text>
</g>
<!-- Node11 -->
<g id="node11" class="node">
<title>Node11</title>
<g id="a_node11"><a xlink:title=" ">
<polygon fill="white" stroke="#bfbfbf" points="385,-135 385,-165 554,-165 554,-135 385,-135"/>
<text text-anchor="start" x="393" y="-153" font-family="Helvetica,sans-Serif" font-size="10.00">std::unique_ptr&lt; amr</text>
<text text-anchor="middle" x="469.5" y="-142" font-family="Helvetica,sans-Serif" font-size="10.00">_wind::FieldFillPatchOpsBase &gt;</text>
</a>
</g>
</g>
<!-- Node6&#45;&gt;Node11 -->
<g id="edge12" class="edge">
<title>Node6&#45;&gt;Node11</title>
<path fill="none" stroke="orange" stroke-dasharray="5,2" d="M218.18,-127.21C266.92,-131.65 332.82,-137.65 384.77,-142.38"/>
<polygon fill="orange" stroke="orange" points="218.32,-123.71 208.05,-126.29 217.69,-130.68 218.32,-123.71"/>
<text text-anchor="start" x="234" y="-155" font-family="Helvetica,sans-Serif" font-size="10.00"> &lt; amr_wind::FieldFillPatch</text>
<text text-anchor="middle" x="300.5" y="-144" font-family="Helvetica,sans-Serif" font-size="10.00">OpsBase &gt;</text>
</g>
<!-- Node23 -->
<g id="node23" class="node">
<title>Node23</title>
<g id="a_node23"><a xlink:title=" ">
<polygon fill="white" stroke="#bfbfbf" points="862,-94.5 862,-113.5 1002,-113.5 1002,-94.5 862,-94.5"/>
<text text-anchor="middle" x="932" y="-101.5" font-family="Helvetica,sans-Serif" font-size="10.00">std::unique_ptr&lt; LinOp &gt;</text>
</a>
</g>
</g>
<!-- Node6&#45;&gt;Node23 -->
<g id="edge32" class="edge">
<title>Node6&#45;&gt;Node23</title>
<path fill="none" stroke="orange" stroke-dasharray="5,2" d="M218.46,-118.75C265.34,-117.27 328.93,-115.35 385,-114 556.32,-109.88 757.9,-106.59 861.61,-105.02"/>
<polygon fill="orange" stroke="orange" points="218.31,-115.26 208.42,-119.07 218.53,-122.25 218.31,-115.26"/>
<text text-anchor="middle" x="469.5" y="-117" font-family="Helvetica,sans-Serif" font-size="10.00"> &lt; LinOp &gt;</text>
</g>
<!-- Node24 -->
<g id="node24" class="node">
<title>Node24</title>
<g id="a_node24"><a xlink:title=" ">
<polygon fill="white" stroke="#bfbfbf" points="2151,-360 2151,-390 2321,-390 2321,-360 2151,-360"/>
<text text-anchor="start" x="2159" y="-378" font-family="Helvetica,sans-Serif" font-size="10.00">std::unique_ptr&lt; amr</text>
<text text-anchor="middle" x="2236" y="-367" font-family="Helvetica,sans-Serif" font-size="10.00">_wind::pde::ICNSDiffScalarOp &gt;</text>
</a>
</g>
</g>
<!-- Node6&#45;&gt;Node24 -->
<g id="edge41" class="edge">
<title>Node6&#45;&gt;Node24</title>
<path fill="none" stroke="orange" stroke-dasharray="5,2" d="M174.23,-136.03C190.65,-145.78 213.1,-158.25 234,-167 290.94,-190.84 321.14,-165.69 367,-207 382.39,-220.87 369.56,-236.18 385,-250 501.32,-354.11 568.84,-318.82 722,-349 941.86,-392.32 999.42,-401 1223.5,-401 1223.5,-401 1223.5,-401 1904.5,-401 1988.53,-401 2084.21,-392.54 2150.92,-385.28"/>
<polygon fill="orange" stroke="orange" points="175.68,-132.82 165.31,-130.66 172.06,-138.82 175.68,-132.82"/>
<text text-anchor="start" x="1158" y="-415" font-family="Helvetica,sans-Serif" font-size="10.00"> &lt; amr_wind::pde::ICNSDiff</text>
<text text-anchor="middle" x="1224.5" y="-404" font-family="Helvetica,sans-Serif" font-size="10.00">ScalarOp &gt;</text>
</g>
<!-- Node7 -->
<g id="node7" class="node">
<title>Node7</title>
<g id="a_node7"><a xlink:title=" ">
<polygon fill="white" stroke="#bfbfbf" points="0,-297.5 0,-316.5 29,-316.5 29,-297.5 0,-297.5"/>
<text text-anchor="middle" x="14.5" y="-304.5" font-family="Helvetica,sans-Serif" font-size="10.00">T</text>
</a>
</g>
</g>
<!-- Node7&#45;&gt;Node6 -->
<g id="edge6" class="edge">
<title>Node7&#45;&gt;Node6</title>
<path fill="none" stroke="#9a32cd" stroke-dasharray="5,2" d="M24.21,-288.21C35.78,-264.14 57.61,-221.63 82,-189 98.94,-166.33 122.91,-143.43 136.82,-130.84"/>
<polygon fill="#9a32cd" stroke="#9a32cd" points="21.01,-286.78 19.9,-297.32 27.34,-289.77 21.01,-286.78"/>
<text text-anchor="middle" x="55.5" y="-246" font-family="Helvetica,sans-Serif" font-size="10.00"> ptr</text>
</g>
<!-- Node15 -->
<g id="node15" class="node">
<title>Node15</title>
<g id="a_node15"><a xlink:title="STL class.">
<polygon fill="white" stroke="#bfbfbf" points="241.5,-297.5 241.5,-316.5 359.5,-316.5 359.5,-297.5 241.5,-297.5"/>
<text text-anchor="middle" x="300.5" y="-304.5" font-family="Helvetica,sans-Serif" font-size="10.00">std::shared_ptr&lt; T &gt;</text>
</a>
</g>
</g>
<!-- Node7&#45;&gt;Node15 -->
<g id="edge16" class="edge">
<title>Node7&#45;&gt;Node15</title>
<path fill="none" stroke="#9a32cd" stroke-dasharray="5,2" d="M39.24,-307C83.32,-307 178.98,-307 241.24,-307"/>
<polygon fill="#9a32cd" stroke="#9a32cd" points="39.2,-303.5 29.2,-307 39.2,-310.5 39.2,-303.5"/>
<text text-anchor="middle" x="55.5" y="-310" font-family="Helvetica,sans-Serif" font-size="10.00"> ptr</text>
</g>
<!-- Node18 -->
<g id="node18" class="node">
<title>Node18</title>
<g id="a_node18"><a xlink:title="STL class.">
<polygon fill="white" stroke="#bfbfbf" points="412.5,-351 412.5,-381 526.5,-381 526.5,-351 412.5,-351"/>
<text text-anchor="start" x="420.5" y="-369" font-family="Helvetica,sans-Serif" font-size="10.00">std::unordered_map</text>
<text text-anchor="middle" x="469.5" y="-358" font-family="Helvetica,sans-Serif" font-size="10.00">&lt; K, T &gt;</text>
</a>
</g>
</g>
<!-- Node7&#45;&gt;Node18 -->
<g id="edge23" class="edge">
<title>Node7&#45;&gt;Node18</title>
<path fill="none" stroke="#9a32cd" stroke-dasharray="5,2" d="M30.04,-324.5C42.34,-337.92 61.24,-355.54 82,-364 191.98,-408.84 334.64,-392.63 412.22,-378.36"/>
<polygon fill="#9a32cd" stroke="#9a32cd" points="32.51,-322 23.28,-316.8 27.25,-326.63 32.51,-322"/>
<text text-anchor="middle" x="149" y="-394" font-family="Helvetica,sans-Serif" font-size="10.00"> elements</text>
</g>
<!-- Node8 -->
<g id="node8" class="node">
<title>Node8</title>
<g id="a_node8"><a xlink:href="classamr__wind_1_1_field.html" target="_top" xlink:title="Computational field.">
<polygon fill="white" stroke="black" points="1309,-196.5 1309,-215.5 1403,-215.5 1403,-196.5 1309,-196.5"/>
<text text-anchor="middle" x="1356" y="-203.5" font-family="Helvetica,sans-Serif" font-size="10.00">amr_wind::Field</text>
</a>
</g>
</g>
<!-- Node8&#45;&gt;Node4 -->
<g id="edge7" class="edge">
<title>Node8&#45;&gt;Node4</title>
<path fill="none" stroke="#9a32cd" stroke-dasharray="5,2" d="M1387.93,-192.64C1398.28,-188.65 1409.98,-184.64 1421,-182 1668.96,-122.6 1738.36,-124.88 1993,-138 2047.73,-140.82 2109.15,-147.2 2156.41,-152.81"/>
<polygon fill="#9a32cd" stroke="#9a32cd" points="1386.49,-189.45 1378.5,-196.41 1389.09,-195.95 1386.49,-189.45"/>
<text text-anchor="middle" x="1764.5" y="-135" font-family="Helvetica,sans-Serif" font-size="10.00"> m_density</text>
</g>
<!-- Node21 -->
<g id="node21" class="node">
<title>Node21</title>
<g id="a_node21"><a xlink:href="structamr__wind_1_1pde_1_1_p_d_e_fields.html" target="_top" xlink:title="Collection of fields related to a PDE.">
<polygon fill="white" stroke="black" points="1572,-204.5 1572,-223.5 1715,-223.5 1715,-204.5 1572,-204.5"/>
<text text-anchor="middle" x="1643.5" y="-211.5" font-family="Helvetica,sans-Serif" font-size="10.00">amr_wind::pde::PDEFields</text>
</a>
</g>
</g>
<!-- Node8&#45;&gt;Node21 -->
<g id="edge27" class="edge">
<title>Node8&#45;&gt;Node21</title>
<path fill="none" stroke="#9a32cd" stroke-dasharray="5,2" d="M1413.4,-205.18C1452.81,-204.88 1506.63,-205.01 1554,-207 1559.7,-207.24 1565.6,-207.56 1571.52,-207.92"/>
<polygon fill="#9a32cd" stroke="#9a32cd" points="1413.16,-201.68 1403.2,-205.27 1413.23,-208.68 1413.16,-201.68"/>
<text text-anchor="middle" x="1487.5" y="-254" font-family="Helvetica,sans-Serif" font-size="10.00"> src_term</text>
<text text-anchor="middle" x="1487.5" y="-243" font-family="Helvetica,sans-Serif" font-size="10.00">field</text>
<text text-anchor="middle" x="1487.5" y="-232" font-family="Helvetica,sans-Serif" font-size="10.00">diff_term</text>
<text text-anchor="middle" x="1487.5" y="-221" font-family="Helvetica,sans-Serif" font-size="10.00">mueff</text>
<text text-anchor="middle" x="1487.5" y="-210" font-family="Helvetica,sans-Serif" font-size="10.00">conv_term</text>
</g>
<!-- Node22 -->
<g id="node22" class="node">
<title>Node22</title>
<g id="a_node22"><a xlink:href="classamr__wind_1_1pde_1_1_diff_solver_iface.html" target="_top" xlink:title="Base class for all diffusion operators.">
<polygon fill="white" stroke="black" points="1832,-148 1832,-178 1975,-178 1975,-148 1832,-148"/>
<text text-anchor="start" x="1840" y="-166" font-family="Helvetica,sans-Serif" font-size="10.00">amr_wind::pde::DiffSolver</text>
<text text-anchor="middle" x="1903.5" y="-155" font-family="Helvetica,sans-Serif" font-size="10.00">Iface&lt; LinOp &gt;</text>
</a>
</g>
</g>
<!-- Node8&#45;&gt;Node22 -->
<g id="edge30" class="edge">
<title>Node8&#45;&gt;Node22</title>
<path fill="none" stroke="#9a32cd" stroke-dasharray="5,2" d="M1413.15,-199.66C1456.5,-194.9 1518,-188.48 1572,-184 1661.53,-176.58 1764.89,-170.39 1831.85,-166.7"/>
<polygon fill="#9a32cd" stroke="#9a32cd" points="1412.64,-196.19 1403.09,-200.77 1413.41,-203.15 1412.64,-196.19"/>
<text text-anchor="middle" x="1643.5" y="-187" font-family="Helvetica,sans-Serif" font-size="10.00"> m_density</text>
</g>
<!-- Node25 -->
<g id="node25" class="node">
<title>Node25</title>
<g id="a_node25"><a xlink:href="classamr__wind_1_1pde_1_1_i_c_n_s_diff_scalar_op.html" target="_top" xlink:title=" ">
<polygon fill="white" stroke="black" points="1814,-300.5 1814,-319.5 1993,-319.5 1993,-300.5 1814,-300.5"/>
<text text-anchor="middle" x="1903.5" y="-307.5" font-family="Helvetica,sans-Serif" font-size="10.00">amr_wind::pde::ICNSDiffScalarOp</text>
</a>
</g>
</g>
<!-- Node8&#45;&gt;Node25 -->
<g id="edge38" class="edge">
<title>Node8&#45;&gt;Node25</title>
<path fill="none" stroke="#9a32cd" stroke-dasharray="5,2" d="M1371.34,-223.38C1383.18,-236.41 1401.22,-253.42 1421,-262 1489.45,-291.68 1694.72,-303.28 1813.99,-307.6"/>
<polygon fill="#9a32cd" stroke="#9a32cd" points="1373.7,-220.76 1364.49,-215.52 1368.42,-225.36 1373.7,-220.76"/>
<text text-anchor="middle" x="1643.5" y="-305" font-family="Helvetica,sans-Serif" font-size="10.00"> m_density</text>
</g>
<!-- Node9 -->
<g id="node9" class="node">
<title>Node9</title>
<g id="a_node9"><a xlink:title=" ">
<polygon fill="white" stroke="#bfbfbf" points="1020,-205 1020,-235 1140,-235 1140,-205 1020,-205"/>
<text text-anchor="start" x="1028" y="-223" font-family="Helvetica,sans-Serif" font-size="10.00">std::shared_ptr&lt; amr</text>
<text text-anchor="middle" x="1080" y="-212" font-family="Helvetica,sans-Serif" font-size="10.00">_wind::FieldInfo &gt;</text>
</a>
</g>
</g>
<!-- Node9&#45;&gt;Node8 -->
<g id="edge8" class="edge">
<title>Node9&#45;&gt;Node8</title>
<path fill="none" stroke="#9a32cd" stroke-dasharray="5,2" d="M1150.13,-216.47C1199.75,-213.93 1265.25,-210.59 1308.68,-208.37"/>
<polygon fill="#9a32cd" stroke="#9a32cd" points="1149.92,-212.97 1140.12,-216.98 1150.28,-219.96 1149.92,-212.97"/>
<text text-anchor="middle" x="1224.5" y="-219" font-family="Helvetica,sans-Serif" font-size="10.00"> m_info</text>
</g>
<!-- Node10 -->
<g id="node10" class="node">
<title>Node10</title>
<g id="a_node10"><a xlink:href="structamr__wind_1_1_field_info.html" target="_top" xlink:title="Information common to a field that has multiple states.">
<polygon fill="white" stroke="black" points="726.5,-204.5 726.5,-223.5 839.5,-223.5 839.5,-204.5 726.5,-204.5"/>
<text text-anchor="middle" x="783" y="-211.5" font-family="Helvetica,sans-Serif" font-size="10.00">amr_wind::FieldInfo</text>
</a>
</g>
</g>
<!-- Node10&#45;&gt;Node9 -->
<g id="edge9" class="edge">
<title>Node10&#45;&gt;Node9</title>
<path fill="none" stroke="#9a32cd" stroke-dasharray="5,2" d="M850.08,-215.34C900.99,-216.38 970.76,-217.8 1019.85,-218.8"/>
<polygon fill="#9a32cd" stroke="#9a32cd" points="849.9,-211.84 839.83,-215.14 849.76,-218.84 849.9,-211.84"/>
<text text-anchor="middle" x="932" y="-222" font-family="Helvetica,sans-Serif" font-size="10.00"> ptr</text>
</g>
<!-- Node11&#45;&gt;Node10 -->
<g id="edge10" class="edge">
<title>Node11&#45;&gt;Node10</title>
<path fill="none" stroke="#9a32cd" stroke-dasharray="5,2" d="M556.63,-166.99C600.73,-175.78 655.27,-186.79 704,-197 715.26,-199.36 727.42,-201.98 738.71,-204.44"/>
<polygon fill="#9a32cd" stroke="#9a32cd" points="557.3,-163.56 546.81,-165.04 555.93,-170.42 557.3,-163.56"/>
<text text-anchor="middle" x="638" y="-200" font-family="Helvetica,sans-Serif" font-size="10.00"> m_fillpatch_op</text>
</g>
<!-- Node12 -->
<g id="node12" class="node">
<title>Node12</title>
<g id="a_node12"><a xlink:href="classamr__wind_1_1_field_fill_patch_ops_base.html" target="_top" xlink:title="Abstract interface for classes that handle fill patch and physical boundary condition operations for ...">
<polygon fill="white" stroke="black" points="82,-199 82,-229 216,-229 216,-199 82,-199"/>
<text text-anchor="start" x="90" y="-217" font-family="Helvetica,sans-Serif" font-size="10.00">amr_wind::FieldFillPatch</text>
<text text-anchor="middle" x="149" y="-206" font-family="Helvetica,sans-Serif" font-size="10.00">OpsBase</text>
</a>
</g>
</g>
<!-- Node12&#45;&gt;Node11 -->
<g id="edge11" class="edge">
<title>Node12&#45;&gt;Node11</title>
<path fill="none" stroke="#9a32cd" stroke-dasharray="5,2" d="M226.31,-198.67C277.07,-188.47 343.43,-175.13 393.84,-165"/>
<polygon fill="#9a32cd" stroke="#9a32cd" points="225.49,-195.26 216.38,-200.66 226.87,-202.12 225.49,-195.26"/>
<text text-anchor="middle" x="300.5" y="-200" font-family="Helvetica,sans-Serif" font-size="10.00"> ptr</text>
</g>
<!-- Node13 -->
<g id="node13" class="node">
<title>Node13</title>
<g id="a_node13"><a xlink:title="STL class.">
<polygon fill="white" stroke="#bfbfbf" points="437,-221.5 437,-240.5 502,-240.5 502,-221.5 437,-221.5"/>
<text text-anchor="middle" x="469.5" y="-228.5" font-family="Helvetica,sans-Serif" font-size="10.00">std::string</text>
</a>
</g>
</g>
<!-- Node13&#45;&gt;Node8 -->
<g id="edge17" class="edge">
<title>Node13&#45;&gt;Node8</title>
<path fill="none" stroke="#9a32cd" stroke-dasharray="5,2" d="M512.04,-220.24C530.32,-215.86 552.12,-211.1 572,-208 821.5,-169.11 887.57,-188.55 1140,-195 1198.29,-196.49 1265.37,-200.25 1308.89,-202.96"/>
<polygon fill="#9a32cd" stroke="#9a32cd" points="511.17,-216.85 502.29,-222.62 512.83,-223.65 511.17,-216.85"/>
<text text-anchor="middle" x="932" y="-193" font-family="Helvetica,sans-Serif" font-size="10.00"> m_name</text>
</g>
<!-- Node13&#45;&gt;Node10 -->
<g id="edge13" class="edge">
<title>Node13&#45;&gt;Node10</title>
<path fill="none" stroke="#9a32cd" stroke-dasharray="5,2" d="M512.37,-222.94C530.61,-219.8 552.29,-216.59 572,-215 624.15,-210.79 683.82,-210.99 726.19,-211.97"/>
<polygon fill="#9a32cd" stroke="#9a32cd" points="511.59,-219.52 502.35,-224.71 512.81,-226.41 511.59,-219.52"/>
<text text-anchor="middle" x="638" y="-218" font-family="Helvetica,sans-Serif" font-size="10.00"> m_basename</text>
</g>
<!-- Node17 -->
<g id="node17" class="node">
<title>Node17</title>
<g id="a_node17"><a xlink:title=" ">
<polygon fill="white" stroke="#bfbfbf" points="722,-281 722,-311 844,-311 844,-281 722,-281"/>
<text text-anchor="start" x="730" y="-299" font-family="Helvetica,sans-Serif" font-size="10.00">std::unordered_map</text>
<text text-anchor="middle" x="783" y="-288" font-family="Helvetica,sans-Serif" font-size="10.00">&lt; std::string, size_t &gt;</text>
</a>
</g>
</g>
<!-- Node13&#45;&gt;Node17 -->
<g id="edge20" class="edge">
<title>Node13&#45;&gt;Node17</title>
<path fill="none" stroke="#9a32cd" stroke-dasharray="5,2" d="M512.6,-228.5C560.23,-226.96 639.56,-228.38 704,-249 725.68,-255.94 747.65,-269.94 762.73,-280.87"/>
<polygon fill="#9a32cd" stroke="#9a32cd" points="512.21,-225.01 502.35,-228.89 512.48,-232 512.21,-225.01"/>
<text text-anchor="middle" x="638" y="-252" font-family="Helvetica,sans-Serif" font-size="10.00"> keys</text>
</g>
<!-- Node20 -->
<g id="node20" class="node">
<title>Node20</title>
<g id="a_node20"><a xlink:href="structamr__wind_1_1_m_l_m_g_options.html" target="_top" xlink:title="Interface to control the behavior of AMReX LinearSolvers.">
<polygon fill="white" stroke="black" points="1574,-330.5 1574,-349.5 1713,-349.5 1713,-330.5 1574,-330.5"/>
<text text-anchor="middle" x="1643.5" y="-337.5" font-family="Helvetica,sans-Serif" font-size="10.00">amr_wind::MLMGOptions</text>
</a>
</g>
</g>
<!-- Node13&#45;&gt;Node20 -->
<g id="edge25" class="edge">
<title>Node13&#45;&gt;Node20</title>
<path fill="none" stroke="#9a32cd" stroke-dasharray="5,2" d="M511.81,-242.87C538.51,-250.54 568.87,-259.22 572,-260 630.2,-274.47 655.91,-252.17 704,-288 717.4,-297.98 708.04,-311.83 722,-321 799.96,-372.2 837.73,-340 931,-340 931,-340 931,-340 1357,-340 1431.1,-340 1516.02,-340 1573.85,-340"/>
<polygon fill="#9a32cd" stroke="#9a32cd" points="512.77,-239.51 502.19,-240.11 510.84,-246.24 512.77,-239.51"/>
<text text-anchor="middle" x="1080" y="-365" font-family="Helvetica,sans-Serif" font-size="10.00"> hypre_namespace</text>
<text text-anchor="middle" x="1080" y="-354" font-family="Helvetica,sans-Serif" font-size="10.00">bottom_solver_type</text>
<text text-anchor="middle" x="1080" y="-343" font-family="Helvetica,sans-Serif" font-size="10.00">hypre_interface</text>
</g>
<!-- Node14 -->
<g id="node14" class="node">
<title>Node14</title>
<g id="a_node14"><a xlink:title="STL class.">
<polygon fill="white" stroke="#bfbfbf" points="97,-248 97,-278 201,-278 201,-248 97,-248"/>
<text text-anchor="start" x="105" y="-266" font-family="Helvetica,sans-Serif" font-size="10.00">std::basic_string&lt;</text>
<text text-anchor="middle" x="149" y="-255" font-family="Helvetica,sans-Serif" font-size="10.00"> char &gt;</text>
</a>
</g>
</g>
<!-- Node14&#45;&gt;Node13 -->
<g id="edge14" class="edge">
<title>Node14&#45;&gt;Node13</title>
<path fill="none" stroke="midnightblue" d="M211.24,-256.85C278.64,-250.08 384.37,-239.45 436.81,-234.18"/>
<polygon fill="midnightblue" stroke="midnightblue" points="210.77,-253.38 201.17,-257.86 211.47,-260.34 210.77,-253.38"/>
</g>
<!-- Node15&#45;&gt;Node9 -->
<g id="edge15" class="edge">
<title>Node15&#45;&gt;Node9</title>
<path fill="none" stroke="orange" stroke-dasharray="5,2" d="M370.04,-301.6C495.7,-291.31 771.24,-266.95 1002,-234 1007.78,-233.17 1013.8,-232.23 1019.8,-231.23"/>
<polygon fill="orange" stroke="orange" points="369.49,-298.13 359.8,-302.43 370.06,-305.11 369.49,-298.13"/>
<text text-anchor="middle" x="638" y="-287" font-family="Helvetica,sans-Serif" font-size="10.00"> &lt; amr_wind::FieldInfo &gt;</text>
</g>
<!-- Node16 -->
<g id="node16" class="node">
<title>Node16</title>
<g id="a_node16"><a xlink:href="classamr__wind_1_1_field_repo.html" target="_top" xlink:title="Field Repository.">
<polygon fill="white" stroke="black" points="1020.5,-284.5 1020.5,-303.5 1139.5,-303.5 1139.5,-284.5 1020.5,-284.5"/>
<text text-anchor="middle" x="1080" y="-291.5" font-family="Helvetica,sans-Serif" font-size="10.00">amr_wind::FieldRepo</text>
</a>
</g>
</g>
<!-- Node16&#45;&gt;Node8 -->
<g id="edge18" class="edge">
<title>Node16&#45;&gt;Node8</title>
<path fill="none" stroke="#9a32cd" stroke-dasharray="5,2" d="M1125.64,-281.74C1168.39,-269.74 1234.53,-250.46 1291,-231 1304.65,-226.3 1319.69,-220.45 1331.76,-215.6"/>
<polygon fill="#9a32cd" stroke="#9a32cd" points="1124.52,-278.42 1115.83,-284.48 1126.41,-285.16 1124.52,-278.42"/>
<text text-anchor="middle" x="1224.5" y="-275" font-family="Helvetica,sans-Serif" font-size="10.00"> m_repo</text>
</g>
<!-- Node16&#45;&gt;Node21 -->
<g id="edge28" class="edge">
<title>Node16&#45;&gt;Node21</title>
<path fill="none" stroke="#9a32cd" stroke-dasharray="5,2" d="M1150.02,-300.25C1243.85,-306.44 1415.81,-309.58 1554,-266 1583.74,-256.62 1614.18,-235.77 1630.46,-223.51"/>
<polygon fill="#9a32cd" stroke="#9a32cd" points="1150.02,-296.74 1139.8,-299.54 1149.53,-303.72 1150.02,-296.74"/>
<text text-anchor="middle" x="1356" y="-305" font-family="Helvetica,sans-Serif" font-size="10.00"> repo</text>
</g>
<!-- Node17&#45;&gt;Node16 -->
<g id="edge19" class="edge">
<title>Node17&#45;&gt;Node16</title>
<path fill="none" stroke="#9a32cd" stroke-dasharray="5,2" d="M854.27,-295.52C904.92,-295.18 972.51,-294.72 1020.29,-294.4"/>
<polygon fill="#9a32cd" stroke="#9a32cd" points="854.03,-292.03 844.05,-295.59 854.08,-299.02 854.03,-292.03"/>
<text text-anchor="middle" x="932" y="-310" font-family="Helvetica,sans-Serif" font-size="10.00"> m_fid_map</text>
<text text-anchor="middle" x="932" y="-299" font-family="Helvetica,sans-Serif" font-size="10.00">m_int_fid_map</text>
</g>
<!-- Node18&#45;&gt;Node17 -->
<g id="edge21" class="edge">
<title>Node18&#45;&gt;Node17</title>
<path fill="none" stroke="orange" stroke-dasharray="5,2" d="M536.7,-355.98C583.74,-348.27 648.2,-336.49 704,-322 715.88,-318.92 728.58,-314.97 740.21,-311.09"/>
<polygon fill="orange" stroke="orange" points="535.95,-352.56 526.64,-357.61 537.07,-359.47 535.95,-352.56"/>
<text text-anchor="middle" x="638" y="-351" font-family="Helvetica,sans-Serif" font-size="10.00"> &lt; std::string, size_t &gt;</text>
</g>
<!-- Node19 -->
<g id="node19" class="node">
<title>Node19</title>
<g id="a_node19"><a xlink:title=" ">
<polygon fill="white" stroke="#bfbfbf" points="134.5,-335.5 134.5,-354.5 163.5,-354.5 163.5,-335.5 134.5,-335.5"/>
<text text-anchor="middle" x="149" y="-342.5" font-family="Helvetica,sans-Serif" font-size="10.00">K</text>
</a>
</g>
</g>
<!-- Node19&#45;&gt;Node18 -->
<g id="edge22" class="edge">
<title>Node19&#45;&gt;Node18</title>
<path fill="none" stroke="#9a32cd" stroke-dasharray="5,2" d="M173.87,-346.57C224.1,-349.89 341.85,-357.65 412.34,-362.3"/>
<polygon fill="#9a32cd" stroke="#9a32cd" points="173.89,-343.07 163.69,-345.9 173.43,-350.05 173.89,-343.07"/>
<text text-anchor="middle" x="300.5" y="-362" font-family="Helvetica,sans-Serif" font-size="10.00"> keys</text>
</g>
<!-- Node20&#45;&gt;Node4 -->
<g id="edge24" class="edge">
<title>Node20&#45;&gt;Node4</title>
<path fill="none" stroke="#9a32cd" stroke-dasharray="5,2" d="M1720.95,-350.56C1793.23,-357.57 1903.62,-360.48 1993,-329 2089.35,-295.07 2183.22,-212.46 2219.39,-178.24"/>
<polygon fill="#9a32cd" stroke="#9a32cd" points="1720.87,-347.04 1710.57,-349.5 1720.16,-354 1720.87,-347.04"/>
<text text-anchor="middle" x="1903.5" y="-358" font-family="Helvetica,sans-Serif" font-size="10.00"> m_options</text>
</g>
<!-- Node20&#45;&gt;Node22 -->
<g id="edge33" class="edge">
<title>Node20&#45;&gt;Node22</title>
<path fill="none" stroke="#9a32cd" stroke-dasharray="5,2" d="M1684.71,-326.27C1695.8,-320.82 1706.98,-313.53 1715,-304 1732.38,-283.35 1716.75,-267.55 1733,-246 1736.24,-241.71 1809.16,-195.35 1814,-193 1825.52,-187.39 1838.36,-182.38 1850.61,-178.15"/>
<polygon fill="#9a32cd" stroke="#9a32cd" points="1683.16,-323.12 1675.48,-330.42 1686.04,-329.51 1683.16,-323.12"/>
<text text-anchor="middle" x="1764.5" y="-249" font-family="Helvetica,sans-Serif" font-size="10.00"> m_options</text>
</g>
<!-- Node20&#45;&gt;Node25 -->
<g id="edge39" class="edge">
<title>Node20&#45;&gt;Node25</title>
<path fill="none" stroke="#9a32cd" stroke-dasharray="5,2" d="M1723.55,-330.81C1754.31,-327.23 1789.56,-323.13 1820.59,-319.52"/>
<polygon fill="#9a32cd" stroke="#9a32cd" points="1722.83,-327.37 1713.3,-332 1723.64,-334.32 1722.83,-327.37"/>
<text text-anchor="middle" x="1764.5" y="-332" font-family="Helvetica,sans-Serif" font-size="10.00"> m_options</text>
</g>
<!-- Node21&#45;&gt;Node4 -->
<g id="edge26" class="edge">
<title>Node21&#45;&gt;Node4</title>
<path fill="none" stroke="#9a32cd" stroke-dasharray="5,2" d="M1725.05,-209.86C1822.02,-204.45 1989.73,-193.79 2133,-178 2140.56,-177.17 2148.42,-176.2 2156.28,-175.16"/>
<polygon fill="#9a32cd" stroke="#9a32cd" points="1724.82,-206.36 1715.03,-210.41 1725.2,-213.35 1724.82,-206.36"/>
<text text-anchor="middle" x="1903.5" y="-208" font-family="Helvetica,sans-Serif" font-size="10.00"> m_pdefields</text>
</g>
<!-- Node21&#45;&gt;Node22 -->
<g id="edge34" class="edge">
<title>Node21&#45;&gt;Node22</title>
<path fill="none" stroke="#9a32cd" stroke-dasharray="5,2" d="M1684.96,-201.44C1699.95,-197.09 1717.15,-192.44 1733,-189 1765.15,-182.02 1801.12,-176.22 1831.63,-171.89"/>
<polygon fill="#9a32cd" stroke="#9a32cd" points="1683.58,-198.2 1674.98,-204.39 1685.57,-204.91 1683.58,-198.2"/>
<text text-anchor="middle" x="1764.5" y="-192" font-family="Helvetica,sans-Serif" font-size="10.00"> m_pdefields</text>
</g>
<!-- Node21&#45;&gt;Node25 -->
<g id="edge40" class="edge">
<title>Node21&#45;&gt;Node25</title>
<path fill="none" stroke="#9a32cd" stroke-dasharray="5,2" d="M1670,-228.5C1687.39,-238 1711.13,-250.23 1733,-259 1776.78,-276.56 1829,-291.39 1863.8,-300.46"/>
<polygon fill="#9a32cd" stroke="#9a32cd" points="1671.49,-225.32 1661.05,-223.54 1668.1,-231.45 1671.49,-225.32"/>
<text text-anchor="middle" x="1764.5" y="-284" font-family="Helvetica,sans-Serif" font-size="10.00"> m_pdefields</text>
</g>
<!-- Node22&#45;&gt;Node4 -->
<g id="edge29" class="edge">
<title>Node22&#45;&gt;Node4</title>
<path fill="none" stroke="orange" stroke-dasharray="5,2" d="M1985.6,-163C2037.64,-163 2104.86,-163 2156.41,-163"/>
<polygon fill="orange" stroke="orange" points="1985.4,-159.5 1975.4,-163 1985.4,-166.5 1985.4,-159.5"/>
<text text-anchor="middle" x="2072" y="-166" font-family="Helvetica,sans-Serif" font-size="10.00"> &lt; amrex::MLTensorOp &gt;</text>
</g>
<!-- Node23&#45;&gt;Node22 -->
<g id="edge31" class="edge">
<title>Node23&#45;&gt;Node22</title>
<path fill="none" stroke="#9a32cd" stroke-dasharray="5,2" d="M1012.47,-98.27C1165.53,-88.95 1511.3,-76.28 1796,-127 1820.21,-131.31 1846.39,-140.1 1866.73,-147.92"/>
<polygon fill="#9a32cd" stroke="#9a32cd" points="1011.99,-94.79 1002.23,-98.9 1012.42,-101.78 1011.99,-94.79"/>
<text text-anchor="middle" x="1356" y="-105" font-family="Helvetica,sans-Serif" font-size="10.00"> m_applier</text>
<text text-anchor="middle" x="1356" y="-94" font-family="Helvetica,sans-Serif" font-size="10.00">m_solver</text>
</g>
<!-- Node24&#45;&gt;Node1 -->
<g id="edge36" class="edge">
<title>Node24&#45;&gt;Node1</title>
<path fill="none" stroke="#9a32cd" stroke-dasharray="5,2" d="M2331.28,-361.59C2483.62,-339.91 2780.29,-297.7 2913.89,-278.69"/>
<polygon fill="#9a32cd" stroke="#9a32cd" points="2330.42,-358.17 2321.01,-363.05 2331.41,-365.1 2330.42,-358.17"/>
<text text-anchor="middle" x="2588.5" y="-332" font-family="Helvetica,sans-Serif" font-size="10.00"> m_scalar_op</text>
</g>
<!-- Node25&#45;&gt;Node24 -->
<g id="edge37" class="edge">
<title>Node25&#45;&gt;Node24</title>
<path fill="none" stroke="#9a32cd" stroke-dasharray="5,2" d="M1962.75,-321.46C2017.22,-332.17 2098.89,-348.23 2158.57,-359.97"/>
<polygon fill="#9a32cd" stroke="#9a32cd" points="1963.4,-318.02 1952.91,-319.52 1962.05,-324.89 1963.4,-318.02"/>
<text text-anchor="middle" x="2072" y="-356" font-family="Helvetica,sans-Serif" font-size="10.00"> ptr</text>
</g>
</g>
</svg>
        <g id="navigator" transform="translate(0 0)" fill="#404254">
                <rect fill="#f2f5e9" fill-opacity="0.5" stroke="#606060" stroke-width=".5" x="0" y="0" width="60" height="60"/>
                <use id="zoomplus" xlink:href="#zoomPlus" x="17" y="9" onmousedown="handleZoom(evt,'in')"/>
                <use id="zoomminus" xlink:href="#zoomMin" x="42" y="9" onmousedown="handleZoom(evt,'out')"/>
                <use id="reset" xlink:href="#resetDef" x="30" y="36" onmousedown="handleReset()"/>
                <g id="arrowUp" xlink:href="#dirArrow" transform="translate(30 24)" onmousedown="handlePan(0,-1)">
                  <use xlink:href="#rim" fill="#404040">
                        <set attributeName="fill" to="#808080" begin="arrowUp.mouseover" end="arrowUp.mouseout"/>
                  </use>
                  <path fill="none" stroke="white" stroke-width="1.5" d="M0,-3.0v7 M-2.5,-0.5L0,-3.0L2.5,-0.5"/>
                </g>
                <g id="arrowRight" xlink:href="#dirArrow" transform="rotate(90) translate(36 -43)" onmousedown="handlePan(1,0)">
                  <use xlink:href="#rim" fill="#404040">
                        <set attributeName="fill" to="#808080" begin="arrowRight.mouseover" end="arrowRight.mouseout"/>
                  </use>
                  <path fill="none" stroke="white" stroke-width="1.5" d="M0,-3.0v7 M-2.5,-0.5L0,-3.0L2.5,-0.5"/>
                </g>
                <g id="arrowDown" xlink:href="#dirArrow" transform="rotate(180) translate(-30 -48)" onmousedown="handlePan(0,1)">
                  <use xlink:href="#rim" fill="#404040">
                        <set attributeName="fill" to="#808080" begin="arrowDown.mouseover" end="arrowDown.mouseout"/>
                  </use>
                  <path fill="none" stroke="white" stroke-width="1.5" d="M0,-3.0v7 M-2.5,-0.5L0,-3.0L2.5,-0.5"/>
                </g>
                <g id="arrowLeft" xlink:href="#dirArrow" transform="rotate(270) translate(-36 17)" onmousedown="handlePan(-1,0)">
                  <use xlink:href="#rim" fill="#404040">
                        <set attributeName="fill" to="#808080" begin="arrowLeft.mouseover" end="arrowLeft.mouseout"/>
                  </use>
                  <path fill="none" stroke="white" stroke-width="1.5" d="M0,-3.0v7 M-2.5,-0.5L0,-3.0L2.5,-0.5"/>
                </g>
        </g>
        <svg viewBox="0 0 15 15" width="100%" height="30px" preserveAspectRatio="xMaxYMin meet">
         <g id="arrow_out" transform="scale(0.3 0.3)">
          <a xlink:href="structamr__wind_1_1pde_1_1_diffusion_op_3_01_i_c_n_s_00_01_scheme_01_4__coll__graph_org.svg" target="_base">
           <rect id="button" ry="5" rx="5" y="6" x="6" height="38" width="38"
                fill="#f2f5e9" fill-opacity="0.5" stroke="#606060" stroke-width="1.0"/>
           <path id="arrow"
             d="M 11.500037,31.436501 C 11.940474,20.09759 22.043105,11.32322 32.158766,21.979434 L 37.068811,17.246167 C 37.068811,17.246167 37.088388,32 37.088388,32 L 22.160133,31.978069 C 22.160133,31.978069 26.997745,27.140456 26.997745,27.140456 C 18.528582,18.264221 13.291696,25.230495 11.500037,31.436501 z"
             style="fill:#404040;"/>
          </a>
         </g>
        </svg>
</svg>
