<?xml version="1.0" encoding="UTF-8" standalone="no"?>
<!DOCTYPE svg PUBLIC "-//W3C//DTD SVG 1.1//EN"
 "http://www.w3.org/Graphics/SVG/1.1/DTD/svg11.dtd">
<!-- Generated by graphviz version 2.43.0 (0)
 -->
<!-- Title: tensor_ops.H Pages: 1 -->
<svg width="1008pt" height="364pt"
 viewBox="0.00 0.00 1007.50 364.00" xmlns="http://www.w3.org/2000/svg" xmlns:xlink="http://www.w3.org/1999/xlink">
<g id="graph0" class="graph" transform="scale(1 1) rotate(0) translate(4 360)">
<title>tensor_ops.H</title>
<polygon fill="white" stroke="transparent" points="-4,4 -4,-360 1003.5,-360 1003.5,4 -4,4"/>
<!-- Node1 -->
<g id="node1" class="node">
<title>Node1</title>
<g id="a_node1"><a xlink:title=" ">
<polygon fill="#bfbfbf" stroke="black" points="395.5,-336.5 395.5,-355.5 475.5,-355.5 475.5,-336.5 395.5,-336.5"/>
<text text-anchor="middle" x="435.5" y="-343.5" font-family="Helvetica,sans-Serif" font-size="10.00">tensor_ops.H</text>
</a>
</g>
</g>
<!-- Node2 -->
<g id="node2" class="node">
<title>Node2</title>
<g id="a_node2"><a xlink:href="_coriolis_forcing_8cpp.html" target="_top" xlink:title=" ">
<polygon fill="white" stroke="black" points="0,-280.5 0,-299.5 109,-299.5 109,-280.5 0,-280.5"/>
<text text-anchor="middle" x="54.5" y="-287.5" font-family="Helvetica,sans-Serif" font-size="10.00">CoriolisForcing.cpp</text>
</a>
</g>
</g>
<!-- Node1&#45;&gt;Node2 -->
<g id="edge1" class="edge">
<title>Node1&#45;&gt;Node2</title>
<path fill="none" stroke="midnightblue" d="M385.33,-337.92C322.66,-329.07 212.15,-313.46 117.5,-300 114.77,-299.61 111.96,-299.21 109.14,-298.81"/>
<polygon fill="midnightblue" stroke="midnightblue" points="384.95,-341.4 395.34,-339.33 385.93,-334.47 384.95,-341.4"/>
</g>
<!-- Node3 -->
<g id="node3" class="node">
<title>Node3</title>
<g id="a_node3"><a xlink:href="_synthetic_turbulence_8cpp.html" target="_top" xlink:title=" ">
<polygon fill="white" stroke="black" points="127,-280.5 127,-299.5 262,-299.5 262,-280.5 127,-280.5"/>
<text text-anchor="middle" x="194.5" y="-287.5" font-family="Helvetica,sans-Serif" font-size="10.00">SyntheticTurbulence.cpp</text>
</a>
</g>
</g>
<!-- Node1&#45;&gt;Node3 -->
<g id="edge2" class="edge">
<title>Node1&#45;&gt;Node3</title>
<path fill="none" stroke="midnightblue" d="M387.38,-334.22C341.84,-324.01 274.39,-308.9 232.51,-299.52"/>
<polygon fill="midnightblue" stroke="midnightblue" points="386.79,-337.67 397.31,-336.44 388.32,-330.84 386.79,-337.67"/>
</g>
<!-- Node4 -->
<g id="node4" class="node">
<title>Node4</title>
<g id="a_node4"><a xlink:href="_line_sampler_8cpp.html" target="_top" xlink:title=" ">
<polygon fill="white" stroke="black" points="280,-280.5 280,-299.5 377,-299.5 377,-280.5 280,-280.5"/>
<text text-anchor="middle" x="328.5" y="-287.5" font-family="Helvetica,sans-Serif" font-size="10.00">LineSampler.cpp</text>
</a>
</g>
</g>
<!-- Node1&#45;&gt;Node4 -->
<g id="edge3" class="edge">
<title>Node1&#45;&gt;Node4</title>
<path fill="none" stroke="midnightblue" d="M409.2,-331.73C389.39,-321.73 362.79,-308.31 345.65,-299.65"/>
<polygon fill="midnightblue" stroke="midnightblue" points="407.8,-334.94 418.31,-336.32 410.96,-328.69 407.8,-334.94"/>
</g>
<!-- Node5 -->
<g id="node5" class="node">
<title>Node5</title>
<g id="a_node5"><a xlink:href="_a_b_l_stats_8cpp.html" target="_top" xlink:title=" ">
<polygon fill="white" stroke="black" points="395.5,-280.5 395.5,-299.5 475.5,-299.5 475.5,-280.5 395.5,-280.5"/>
<text text-anchor="middle" x="435.5" y="-287.5" font-family="Helvetica,sans-Serif" font-size="10.00">ABLStats.cpp</text>
</a>
</g>
</g>
<!-- Node1&#45;&gt;Node5 -->
<g id="edge4" class="edge">
<title>Node1&#45;&gt;Node5</title>
<path fill="none" stroke="midnightblue" d="M435.5,-325.8C435.5,-316.91 435.5,-306.78 435.5,-299.75"/>
<polygon fill="midnightblue" stroke="midnightblue" points="432,-326.08 435.5,-336.08 439,-326.08 432,-326.08"/>
</g>
<!-- Node6 -->
<g id="node6" class="node">
<title>Node6</title>
<g id="a_node6"><a xlink:href="_a_b_l_wall_function_8cpp.html" target="_top" xlink:title=" ">
<polygon fill="white" stroke="black" points="494,-280.5 494,-299.5 611,-299.5 611,-280.5 494,-280.5"/>
<text text-anchor="middle" x="552.5" y="-287.5" font-family="Helvetica,sans-Serif" font-size="10.00">ABLWallFunction.cpp</text>
</a>
</g>
</g>
<!-- Node1&#45;&gt;Node6 -->
<g id="edge5" class="edge">
<title>Node1&#45;&gt;Node6</title>
<path fill="none" stroke="midnightblue" d="M463.16,-332.23C485.05,-322.13 515,-308.31 534.05,-299.52"/>
<polygon fill="midnightblue" stroke="midnightblue" points="461.65,-329.08 454.04,-336.44 464.59,-335.43 461.65,-329.08"/>
</g>
<!-- Node7 -->
<g id="node7" class="node">
<title>Node7</title>
<g id="a_node7"><a xlink:href="actuator__utils_8_h.html" target="_top" xlink:title=" ">
<polygon fill="white" stroke="black" points="629.5,-280.5 629.5,-299.5 723.5,-299.5 723.5,-280.5 629.5,-280.5"/>
<text text-anchor="middle" x="676.5" y="-287.5" font-family="Helvetica,sans-Serif" font-size="10.00">actuator_utils.H</text>
</a>
</g>
</g>
<!-- Node1&#45;&gt;Node7 -->
<g id="edge6" class="edge">
<title>Node1&#45;&gt;Node7</title>
<path fill="none" stroke="midnightblue" d="M483.62,-334.22C529.16,-324.01 596.61,-308.9 638.49,-299.52"/>
<polygon fill="midnightblue" stroke="midnightblue" points="482.68,-330.84 473.69,-336.44 484.21,-337.67 482.68,-330.84"/>
</g>
<!-- Node19 -->
<g id="node19" class="node">
<title>Node19</title>
<g id="a_node19"><a xlink:href="uniform__ct__ops_8_h.html" target="_top" xlink:title=" ">
<polygon fill="white" stroke="black" points="897.5,-112.5 897.5,-131.5 999.5,-131.5 999.5,-112.5 897.5,-112.5"/>
<text text-anchor="middle" x="948.5" y="-119.5" font-family="Helvetica,sans-Serif" font-size="10.00">uniform_ct_ops.H</text>
</a>
</g>
</g>
<!-- Node1&#45;&gt;Node19 -->
<g id="edge39" class="edge">
<title>Node1&#45;&gt;Node19</title>
<path fill="none" stroke="midnightblue" d="M485.94,-345.38C546.91,-344.06 651.42,-336.06 732.5,-300 827.74,-257.65 915.36,-161.59 940.98,-131.91"/>
<polygon fill="midnightblue" stroke="midnightblue" points="485.75,-341.88 475.81,-345.54 485.86,-348.88 485.75,-341.88"/>
</g>
<!-- Node8 -->
<g id="node8" class="node">
<title>Node8</title>
<g id="a_node8"><a xlink:href="actuator__ops_i_8_h.html" target="_top" xlink:title=" ">
<polygon fill="white" stroke="black" points="475,-224.5 475,-243.5 568,-243.5 568,-224.5 475,-224.5"/>
<text text-anchor="middle" x="521.5" y="-231.5" font-family="Helvetica,sans-Serif" font-size="10.00">actuator_opsI.H</text>
</a>
</g>
</g>
<!-- Node7&#45;&gt;Node8 -->
<g id="edge7" class="edge">
<title>Node7&#45;&gt;Node8</title>
<path fill="none" stroke="midnightblue" d="M642.17,-277.04C613,-266.88 571.86,-252.55 545.95,-243.52"/>
<polygon fill="midnightblue" stroke="midnightblue" points="641.34,-280.46 651.94,-280.44 643.65,-273.85 641.34,-280.46"/>
</g>
<!-- Node10 -->
<g id="node10" class="node">
<title>Node10</title>
<g id="a_node10"><a xlink:href="_act_src_line_op_8_h.html" target="_top" xlink:title=" ">
<polygon fill="white" stroke="black" points="661.5,-112.5 661.5,-131.5 753.5,-131.5 753.5,-112.5 661.5,-112.5"/>
<text text-anchor="middle" x="707.5" y="-119.5" font-family="Helvetica,sans-Serif" font-size="10.00">ActSrcLineOp.H</text>
</a>
</g>
</g>
<!-- Node7&#45;&gt;Node10 -->
<g id="edge34" class="edge">
<title>Node7&#45;&gt;Node10</title>
<path fill="none" stroke="midnightblue" d="M705.5,-275.33C717.73,-267.92 730.69,-257.48 737.5,-244 757.21,-204.97 727.13,-152.2 713.57,-131.67"/>
<polygon fill="midnightblue" stroke="midnightblue" points="703.43,-272.48 696.41,-280.41 706.84,-278.59 703.43,-272.48"/>
</g>
<!-- Node17 -->
<g id="node17" class="node">
<title>Node17</title>
<g id="a_node17"><a xlink:href="_act_src_disk_op___turbine_8_h.html" target="_top" xlink:title=" ">
<polygon fill="white" stroke="black" points="321.5,-112.5 321.5,-131.5 455.5,-131.5 455.5,-112.5 321.5,-112.5"/>
<text text-anchor="middle" x="388.5" y="-119.5" font-family="Helvetica,sans-Serif" font-size="10.00">ActSrcDiskOp_Turbine.H</text>
</a>
</g>
</g>
<!-- Node7&#45;&gt;Node17 -->
<g id="edge35" class="edge">
<title>Node7&#45;&gt;Node17</title>
<path fill="none" stroke="midnightblue" d="M619.12,-279.12C561.07,-268.75 478.11,-252.76 465.5,-244 423.37,-214.74 399.18,-154.22 391.34,-131.7"/>
<polygon fill="midnightblue" stroke="midnightblue" points="618.83,-282.62 629.29,-280.92 620.06,-275.73 618.83,-282.62"/>
</g>
<!-- Node18 -->
<g id="node18" class="node">
<title>Node18</title>
<g id="a_node18"><a xlink:href="_act_src_disk_op_8_h.html" target="_top" xlink:title=" ">
<polygon fill="white" stroke="black" points="550,-112.5 550,-131.5 643,-131.5 643,-112.5 550,-112.5"/>
<text text-anchor="middle" x="596.5" y="-119.5" font-family="Helvetica,sans-Serif" font-size="10.00">ActSrcDiskOp.H</text>
</a>
</g>
</g>
<!-- Node7&#45;&gt;Node18 -->
<g id="edge36" class="edge">
<title>Node7&#45;&gt;Node18</title>
<path fill="none" stroke="midnightblue" d="M649.19,-275.28C636.95,-267.72 623.5,-257.18 615.5,-244 593.1,-207.1 594.28,-152.64 595.73,-131.67"/>
<polygon fill="midnightblue" stroke="midnightblue" points="647.79,-278.51 658.2,-280.47 651.28,-272.44 647.79,-278.51"/>
</g>
<!-- Node21 -->
<g id="node21" class="node">
<title>Node21</title>
<g id="a_node21"><a xlink:href="turbine__fast__ops_8_h.html" target="_top" xlink:title=" ">
<polygon fill="white" stroke="black" points="771.5,-112.5 771.5,-131.5 879.5,-131.5 879.5,-112.5 771.5,-112.5"/>
<text text-anchor="middle" x="825.5" y="-119.5" font-family="Helvetica,sans-Serif" font-size="10.00">turbine_fast_ops.H</text>
</a>
</g>
</g>
<!-- Node7&#45;&gt;Node21 -->
<g id="edge38" class="edge">
<title>Node7&#45;&gt;Node21</title>
<path fill="none" stroke="midnightblue" d="M706.9,-276.07C722.45,-268.39 740.9,-257.5 754.5,-244 789.76,-209 813.91,-152.94 822.27,-131.62"/>
<polygon fill="midnightblue" stroke="midnightblue" points="705.21,-273 697.67,-280.43 708.2,-279.33 705.21,-273"/>
</g>
<!-- Node26 -->
<g id="node26" class="node">
<title>Node26</title>
<g id="a_node26"><a xlink:href="actuator__utils_8cpp.html" target="_top" xlink:title=" ">
<polygon fill="white" stroke="black" points="624.5,-224.5 624.5,-243.5 728.5,-243.5 728.5,-224.5 624.5,-224.5"/>
<text text-anchor="middle" x="676.5" y="-231.5" font-family="Helvetica,sans-Serif" font-size="10.00">actuator_utils.cpp</text>
</a>
</g>
</g>
<!-- Node7&#45;&gt;Node26 -->
<g id="edge37" class="edge">
<title>Node7&#45;&gt;Node26</title>
<path fill="none" stroke="midnightblue" d="M676.5,-269.8C676.5,-260.91 676.5,-250.78 676.5,-243.75"/>
<polygon fill="midnightblue" stroke="midnightblue" points="673,-270.08 676.5,-280.08 680,-270.08 673,-270.08"/>
</g>
<!-- Node9 -->
<g id="node9" class="node">
<title>Node9</title>
<g id="a_node9"><a xlink:href="actuator__ops_8_h.html" target="_top" xlink:title=" ">
<polygon fill="white" stroke="black" points="476.5,-168.5 476.5,-187.5 566.5,-187.5 566.5,-168.5 476.5,-168.5"/>
<text text-anchor="middle" x="521.5" y="-175.5" font-family="Helvetica,sans-Serif" font-size="10.00">actuator_ops.H</text>
</a>
</g>
</g>
<!-- Node8&#45;&gt;Node9 -->
<g id="edge8" class="edge">
<title>Node8&#45;&gt;Node9</title>
<path fill="none" stroke="midnightblue" d="M521.5,-213.8C521.5,-204.91 521.5,-194.78 521.5,-187.75"/>
<polygon fill="midnightblue" stroke="midnightblue" points="518,-214.08 521.5,-224.08 525,-214.08 518,-214.08"/>
</g>
<!-- Node9&#45;&gt;Node10 -->
<g id="edge9" class="edge">
<title>Node9&#45;&gt;Node10</title>
<path fill="none" stroke="midnightblue" d="M560.88,-165.57C595.97,-155.38 646.52,-140.7 678.17,-131.52"/>
<polygon fill="midnightblue" stroke="midnightblue" points="559.6,-162.29 550.97,-168.44 561.55,-169.02 559.6,-162.29"/>
</g>
<!-- Node11 -->
<g id="node11" class="node">
<title>Node11</title>
<g id="a_node11"><a xlink:href="_actuator_model_8_h.html" target="_top" xlink:title=" ">
<polygon fill="white" stroke="black" points="547.5,-56.5 547.5,-75.5 645.5,-75.5 645.5,-56.5 547.5,-56.5"/>
<text text-anchor="middle" x="596.5" y="-63.5" font-family="Helvetica,sans-Serif" font-size="10.00">ActuatorModel.H</text>
</a>
</g>
</g>
<!-- Node9&#45;&gt;Node11 -->
<g id="edge16" class="edge">
<title>Node9&#45;&gt;Node11</title>
<path fill="none" stroke="midnightblue" d="M523.92,-158.12C526.38,-144.41 531.21,-125.9 540.5,-112 550.96,-96.34 568.57,-83.5 581.25,-75.6"/>
<polygon fill="midnightblue" stroke="midnightblue" points="520.41,-157.89 522.36,-168.31 527.33,-158.95 520.41,-157.89"/>
</g>
<!-- Node9&#45;&gt;Node17 -->
<g id="edge17" class="edge">
<title>Node9&#45;&gt;Node17</title>
<path fill="none" stroke="midnightblue" d="M491.05,-164.64C466.09,-154.5 431.42,-140.43 409.48,-131.52"/>
<polygon fill="midnightblue" stroke="midnightblue" points="489.84,-167.92 500.43,-168.44 492.48,-161.44 489.84,-167.92"/>
</g>
<!-- Node9&#45;&gt;Node18 -->
<g id="edge19" class="edge">
<title>Node9&#45;&gt;Node18</title>
<path fill="none" stroke="midnightblue" d="M541.81,-162.38C555.36,-152.62 572.74,-140.11 584.23,-131.83"/>
<polygon fill="midnightblue" stroke="midnightblue" points="539.62,-159.64 533.55,-168.32 543.71,-165.32 539.62,-159.64"/>
</g>
<!-- Node9&#45;&gt;Node19 -->
<g id="edge21" class="edge">
<title>Node9&#45;&gt;Node19</title>
<path fill="none" stroke="midnightblue" d="M576.93,-170.67C648.85,-162.36 778.17,-147.04 888.5,-132 891.42,-131.6 894.42,-131.18 897.45,-130.75"/>
<polygon fill="midnightblue" stroke="midnightblue" points="576.28,-167.22 566.75,-171.85 577.09,-174.18 576.28,-167.22"/>
</g>
<!-- Node9&#45;&gt;Node21 -->
<g id="edge24" class="edge">
<title>Node9&#45;&gt;Node21</title>
<path fill="none" stroke="midnightblue" d="M576.67,-167.2C634.06,-157.01 723,-141.21 777.56,-131.52"/>
<polygon fill="midnightblue" stroke="midnightblue" points="575.92,-163.78 566.68,-168.97 577.14,-170.67 575.92,-163.78"/>
</g>
<!-- Node22 -->
<g id="node22" class="node">
<title>Node22</title>
<g id="a_node22"><a xlink:href="fixed__wing__ops_8_h.html" target="_top" xlink:title=" ">
<polygon fill="white" stroke="black" points="428,-56.5 428,-75.5 529,-75.5 529,-56.5 428,-56.5"/>
<text text-anchor="middle" x="478.5" y="-63.5" font-family="Helvetica,sans-Serif" font-size="10.00">fixed_wing_ops.H</text>
</a>
</g>
</g>
<!-- Node9&#45;&gt;Node22 -->
<g id="edge26" class="edge">
<title>Node9&#45;&gt;Node22</title>
<path fill="none" stroke="midnightblue" d="M514.46,-159C505.08,-135 488.85,-93.47 481.86,-75.59"/>
<polygon fill="midnightblue" stroke="midnightblue" points="511.23,-160.33 518.13,-168.37 517.74,-157.78 511.23,-160.33"/>
</g>
<!-- Node23 -->
<g id="node23" class="node">
<title>Node23</title>
<g id="a_node23"><a xlink:href="wing__ops_8_h.html" target="_top" xlink:title=" ">
<polygon fill="white" stroke="black" points="230,-112.5 230,-131.5 303,-131.5 303,-112.5 230,-112.5"/>
<text text-anchor="middle" x="266.5" y="-119.5" font-family="Helvetica,sans-Serif" font-size="10.00">wing_ops.H</text>
</a>
</g>
</g>
<!-- Node9&#45;&gt;Node23 -->
<g id="edge28" class="edge">
<title>Node9&#45;&gt;Node23</title>
<path fill="none" stroke="midnightblue" d="M471.26,-166.36C421.85,-155.9 347.6,-140.17 303.4,-130.82"/>
<polygon fill="midnightblue" stroke="midnightblue" points="470.59,-169.8 481.09,-168.44 472.04,-162.95 470.59,-169.8"/>
</g>
<!-- Node24 -->
<g id="node24" class="node">
<title>Node24</title>
<g id="a_node24"><a xlink:href="flat__plate__ops_8_h.html" target="_top" xlink:title=" ">
<polygon fill="white" stroke="black" points="184,-56.5 184,-75.5 279,-75.5 279,-56.5 184,-56.5"/>
<text text-anchor="middle" x="231.5" y="-63.5" font-family="Helvetica,sans-Serif" font-size="10.00">flat_plate_ops.H</text>
</a>
</g>
</g>
<!-- Node9&#45;&gt;Node24 -->
<g id="edge33" class="edge">
<title>Node9&#45;&gt;Node24</title>
<path fill="none" stroke="midnightblue" d="M466.08,-176.99C387.98,-175.65 251.57,-168.06 220.5,-132 206.75,-116.05 218.45,-89.45 226.12,-75.75"/>
<polygon fill="midnightblue" stroke="midnightblue" points="466.19,-180.49 476.23,-177.13 466.29,-173.49 466.19,-180.49"/>
</g>
<!-- Node10&#45;&gt;Node11 -->
<g id="edge10" class="edge">
<title>Node10&#45;&gt;Node11</title>
<path fill="none" stroke="midnightblue" d="M680.49,-107.86C659.91,-97.85 632.16,-84.35 614.29,-75.65"/>
<polygon fill="midnightblue" stroke="midnightblue" points="679.14,-111.1 689.67,-112.32 682.2,-104.8 679.14,-111.1"/>
</g>
<!-- Node12 -->
<g id="node12" class="node">
<title>Node12</title>
<g id="a_node12"><a xlink:href="_actuator_8cpp.html" target="_top" xlink:title=" ">
<polygon fill="white" stroke="black" points="558,-0.5 558,-19.5 635,-19.5 635,-0.5 558,-0.5"/>
<text text-anchor="middle" x="596.5" y="-7.5" font-family="Helvetica,sans-Serif" font-size="10.00">Actuator.cpp</text>
</a>
</g>
</g>
<!-- Node11&#45;&gt;Node12 -->
<g id="edge11" class="edge">
<title>Node11&#45;&gt;Node12</title>
<path fill="none" stroke="midnightblue" d="M596.5,-45.8C596.5,-36.91 596.5,-26.78 596.5,-19.75"/>
<polygon fill="midnightblue" stroke="midnightblue" points="593,-46.08 596.5,-56.08 600,-46.08 593,-46.08"/>
</g>
<!-- Node13 -->
<g id="node13" class="node">
<title>Node13</title>
<g id="a_node13"><a xlink:href="_actuator_disk_8cpp.html" target="_top" xlink:title=" ">
<polygon fill="white" stroke="black" points="850.5,-0.5 850.5,-19.5 950.5,-19.5 950.5,-0.5 850.5,-0.5"/>
<text text-anchor="middle" x="900.5" y="-7.5" font-family="Helvetica,sans-Serif" font-size="10.00">ActuatorDisk.cpp</text>
</a>
</g>
</g>
<!-- Node11&#45;&gt;Node13 -->
<g id="edge12" class="edge">
<title>Node11&#45;&gt;Node13</title>
<path fill="none" stroke="midnightblue" d="M654.69,-54.66C712.14,-44.46 798.95,-29.04 852.56,-19.52"/>
<polygon fill="midnightblue" stroke="midnightblue" points="653.9,-51.25 644.67,-56.44 655.13,-58.14 653.9,-51.25"/>
</g>
<!-- Node14 -->
<g id="node14" class="node">
<title>Node14</title>
<g id="a_node14"><a xlink:href="_turbine_fast_8cpp.html" target="_top" xlink:title=" ">
<polygon fill="white" stroke="black" points="693.5,-0.5 693.5,-19.5 785.5,-19.5 785.5,-0.5 693.5,-0.5"/>
<text text-anchor="middle" x="739.5" y="-7.5" font-family="Helvetica,sans-Serif" font-size="10.00">TurbineFast.cpp</text>
</a>
</g>
</g>
<!-- Node11&#45;&gt;Node14 -->
<g id="edge13" class="edge">
<title>Node11&#45;&gt;Node14</title>
<path fill="none" stroke="midnightblue" d="M628.53,-52.91C655.41,-42.75 693.14,-28.51 716.95,-19.52"/>
<polygon fill="midnightblue" stroke="midnightblue" points="627.28,-49.64 619.16,-56.44 629.75,-56.19 627.28,-49.64"/>
</g>
<!-- Node15 -->
<g id="node15" class="node">
<title>Node15</title>
<g id="a_node15"><a xlink:href="_fixed_wing_8cpp.html" target="_top" xlink:title=" ">
<polygon fill="white" stroke="black" points="444,-0.5 444,-19.5 531,-19.5 531,-0.5 444,-0.5"/>
<text text-anchor="middle" x="487.5" y="-7.5" font-family="Helvetica,sans-Serif" font-size="10.00">FixedWing.cpp</text>
</a>
</g>
</g>
<!-- Node11&#45;&gt;Node15 -->
<g id="edge14" class="edge">
<title>Node11&#45;&gt;Node15</title>
<path fill="none" stroke="midnightblue" d="M569.98,-51.86C549.77,-41.85 522.51,-28.35 504.97,-19.65"/>
<polygon fill="midnightblue" stroke="midnightblue" points="568.47,-55.02 578.99,-56.32 571.58,-48.75 568.47,-55.02"/>
</g>
<!-- Node16 -->
<g id="node16" class="node">
<title>Node16</title>
<g id="a_node16"><a xlink:href="_flat_plate_8cpp.html" target="_top" xlink:title=" ">
<polygon fill="white" stroke="black" points="288.5,-0.5 288.5,-19.5 368.5,-19.5 368.5,-0.5 288.5,-0.5"/>
<text text-anchor="middle" x="328.5" y="-7.5" font-family="Helvetica,sans-Serif" font-size="10.00">FlatPlate.cpp</text>
</a>
</g>
</g>
<!-- Node11&#45;&gt;Node16 -->
<g id="edge15" class="edge">
<title>Node11&#45;&gt;Node16</title>
<path fill="none" stroke="midnightblue" d="M544.11,-54.44C492.66,-44.08 415.3,-28.49 368.58,-19.08"/>
<polygon fill="midnightblue" stroke="midnightblue" points="543.54,-57.9 554.03,-56.44 544.92,-51.04 543.54,-57.9"/>
</g>
<!-- Node17&#45;&gt;Node11 -->
<g id="edge18" class="edge">
<title>Node17&#45;&gt;Node11</title>
<path fill="none" stroke="midnightblue" d="M431.28,-109.89C470.56,-99.7 527.93,-84.8 563.7,-75.52"/>
<polygon fill="midnightblue" stroke="midnightblue" points="430.26,-106.54 421.46,-112.44 432.02,-113.32 430.26,-106.54"/>
</g>
<!-- Node18&#45;&gt;Node11 -->
<g id="edge20" class="edge">
<title>Node18&#45;&gt;Node11</title>
<path fill="none" stroke="midnightblue" d="M596.5,-101.8C596.5,-92.91 596.5,-82.78 596.5,-75.75"/>
<polygon fill="midnightblue" stroke="midnightblue" points="593,-102.08 596.5,-112.08 600,-102.08 593,-102.08"/>
</g>
<!-- Node19&#45;&gt;Node13 -->
<g id="edge22" class="edge">
<title>Node19&#45;&gt;Node13</title>
<path fill="none" stroke="midnightblue" d="M944.59,-102.46C941.42,-89.17 936.37,-71.04 929.5,-56 923.32,-42.47 913.54,-28.28 907.07,-19.53"/>
<polygon fill="midnightblue" stroke="midnightblue" points="941.19,-103.31 946.8,-112.3 948.02,-101.78 941.19,-103.31"/>
</g>
<!-- Node20 -->
<g id="node20" class="node">
<title>Node20</title>
<g id="a_node20"><a xlink:href="uniform__ct__ops_8cpp.html" target="_top" xlink:title=" ">
<polygon fill="white" stroke="black" points="808.5,-56.5 808.5,-75.5 920.5,-75.5 920.5,-56.5 808.5,-56.5"/>
<text text-anchor="middle" x="864.5" y="-63.5" font-family="Helvetica,sans-Serif" font-size="10.00">uniform_ct_ops.cpp</text>
</a>
</g>
</g>
<!-- Node19&#45;&gt;Node20 -->
<g id="edge23" class="edge">
<title>Node19&#45;&gt;Node20</title>
<path fill="none" stroke="midnightblue" d="M926.57,-106.9C911.16,-97 891.05,-84.07 877.96,-75.65"/>
<polygon fill="midnightblue" stroke="midnightblue" points="924.7,-109.86 935,-112.32 928.48,-103.97 924.7,-109.86"/>
</g>
<!-- Node21&#45;&gt;Node14 -->
<g id="edge25" class="edge">
<title>Node21&#45;&gt;Node14</title>
<path fill="none" stroke="midnightblue" d="M812.42,-104.27C793.83,-80.49 760.44,-37.79 746.22,-19.59"/>
<polygon fill="midnightblue" stroke="midnightblue" points="809.84,-106.65 818.75,-112.37 815.35,-102.33 809.84,-106.65"/>
</g>
<!-- Node22&#45;&gt;Node15 -->
<g id="edge27" class="edge">
<title>Node22&#45;&gt;Node15</title>
<path fill="none" stroke="midnightblue" d="M481.65,-46.1C483.14,-37.14 484.86,-26.86 486.04,-19.75"/>
<polygon fill="midnightblue" stroke="midnightblue" points="478.18,-45.64 479.99,-56.08 485.08,-46.79 478.18,-45.64"/>
</g>
<!-- Node23&#45;&gt;Node22 -->
<g id="edge29" class="edge">
<title>Node23&#45;&gt;Node22</title>
<path fill="none" stroke="midnightblue" d="M309.85,-109.96C349.89,-99.76 408.53,-84.82 445.07,-75.52"/>
<polygon fill="midnightblue" stroke="midnightblue" points="308.92,-106.58 300.09,-112.44 310.65,-113.37 308.92,-106.58"/>
</g>
<!-- Node23&#45;&gt;Node24 -->
<g id="edge30" class="edge">
<title>Node23&#45;&gt;Node24</title>
<path fill="none" stroke="midnightblue" d="M255.2,-103.57C249.18,-94.27 242.03,-83.25 237.17,-75.75"/>
<polygon fill="midnightblue" stroke="midnightblue" points="252.34,-105.6 260.72,-112.08 258.22,-101.79 252.34,-105.6"/>
</g>
<!-- Node25 -->
<g id="node25" class="node">
<title>Node25</title>
<g id="a_node25"><a xlink:href="wing__ops_8cpp.html" target="_top" xlink:title=" ">
<polygon fill="white" stroke="black" points="297,-56.5 297,-75.5 380,-75.5 380,-56.5 297,-56.5"/>
<text text-anchor="middle" x="338.5" y="-63.5" font-family="Helvetica,sans-Serif" font-size="10.00">wing_ops.cpp</text>
</a>
</g>
</g>
<!-- Node23&#45;&gt;Node25 -->
<g id="edge32" class="edge">
<title>Node23&#45;&gt;Node25</title>
<path fill="none" stroke="midnightblue" d="M286.37,-106.1C299.32,-96.38 315.8,-84.03 326.72,-75.83"/>
<polygon fill="midnightblue" stroke="midnightblue" points="283.97,-103.52 278.07,-112.32 288.17,-109.12 283.97,-103.52"/>
</g>
<!-- Node24&#45;&gt;Node16 -->
<g id="edge31" class="edge">
<title>Node24&#45;&gt;Node16</title>
<path fill="none" stroke="midnightblue" d="M255.84,-51.45C273.74,-41.48 297.55,-28.23 312.95,-19.65"/>
<polygon fill="midnightblue" stroke="midnightblue" points="254.12,-48.4 247.08,-56.32 257.52,-54.52 254.12,-48.4"/>
</g>
</g>
</svg>
